<svg width="390" height="275" viewBox="0 0 390 275" fill="none" xmlns="http://www.w3.org/2000/svg">
<g clip-path="url(#clip0_89_7)">
<rect x="31" y="31" width="384" height="271" rx="12" fill="white"/>
<path d="M219 59H67C60.3726 59 55 64.8449 55 72.0549V243.945C55 251.155 60.3726 257 67 257H219C225.627 257 231 251.155 231 243.945V72.0549C231 64.8449 225.627 59 219 59Z" fill="#F8FAFC" stroke="#E2E8F0" stroke-width="0.75"/>
<path d="M219 59H67C60.3726 59 55 64.3726 55 71V81C55 87.6274 60.3726 93 67 93H219C225.627 93 231 87.6274 231 81V71C231 64.3726 225.627 59 219 59Z" fill="#128C7E"/>
<path d="M231 77H55V93H231V77Z" fill="#128C7E"/>
<path d="M67.0128 80V71.6364H69.8388C70.4949 71.6364 71.0313 71.7548 71.4478 71.9917C71.8671 72.2258 72.1774 72.543 72.3789 72.9432C72.5804 73.3434 72.6811 73.7899 72.6811 74.2827C72.6811 74.7754 72.5804 75.2233 72.3789 75.6262C72.1802 76.0292 71.8725 76.3504 71.456 76.59C71.0394 76.8269 70.5058 76.9453 69.8551 76.9453H67.8295V76.0469H69.8224C70.2717 76.0469 70.6324 75.9693 70.9047 75.8141C71.1769 75.6589 71.3743 75.4493 71.4968 75.1852C71.622 74.9184 71.6847 74.6175 71.6847 74.2827C71.6847 73.9478 71.622 73.6483 71.4968 73.3842C71.3743 73.1201 71.1755 72.9132 70.9006 72.7635C70.6256 72.611 70.2608 72.5348 69.8061 72.5348H68.0256V80H67.0128ZM76.0278 80.147C75.6303 80.147 75.2696 80.0721 74.9456 79.9224C74.6216 79.7699 74.3643 79.5508 74.1737 79.2649C73.9832 78.9763 73.8879 78.6278 73.8879 78.2195C73.8879 77.8601 73.9587 77.5688 74.1002 77.3455C74.2418 77.1196 74.431 76.9426 74.6679 76.8146C74.9047 76.6867 75.1661 76.5914 75.452 76.5288C75.7406 76.4634 76.0305 76.4117 76.3218 76.3736C76.703 76.3246 77.012 76.2878 77.2488 76.2633C77.4884 76.2361 77.6627 76.1912 77.7716 76.1286C77.8832 76.0659 77.939 75.957 77.939 75.8018V75.7692C77.939 75.3662 77.8287 75.0531 77.6082 74.8299C77.3904 74.6067 77.0596 74.495 76.6159 74.495C76.1557 74.495 75.795 74.5958 75.5336 74.7972C75.2723 74.9987 75.0885 75.2138 74.9823 75.4425L74.0676 75.1158C74.2309 74.7346 74.4487 74.4379 74.721 74.2255C74.9959 74.0104 75.2954 73.8607 75.6194 73.7763C75.9461 73.6892 76.2674 73.6456 76.5832 73.6456C76.7847 73.6456 77.0161 73.6701 77.2774 73.7191C77.5415 73.7654 77.7961 73.862 78.0411 74.0091C78.2889 74.1561 78.4944 74.378 78.6578 74.6747C78.8211 74.9715 78.9028 75.369 78.9028 75.8672V80H77.939V79.1506H77.89C77.8247 79.2867 77.7158 79.4324 77.5633 79.5875C77.4108 79.7427 77.208 79.8748 76.9548 79.9837C76.7016 80.0926 76.3926 80.147 76.0278 80.147ZM76.1748 79.2812C76.556 79.2812 76.8772 79.2064 77.1386 79.0566C77.4027 78.9069 77.6014 78.7136 77.7348 78.4767C77.8709 78.2399 77.939 77.9908 77.939 77.7294V76.8473C77.8982 76.8963 77.8083 76.9412 77.6695 76.9821C77.5334 77.0202 77.3754 77.0542 77.1958 77.0842C77.0188 77.1114 76.8459 77.1359 76.6771 77.1577C76.511 77.1767 76.3763 77.1931 76.2728 77.2067C76.0223 77.2393 75.7882 77.2924 75.5704 77.3659C75.3553 77.4367 75.1811 77.5443 75.0477 77.6886C74.917 77.8301 74.8517 78.0234 74.8517 78.2685C74.8517 78.6033 74.9755 78.8565 75.2233 79.0281C75.4738 79.1969 75.7909 79.2812 76.1748 79.2812ZM81.058 82.3523C80.8947 82.3523 80.749 82.3387 80.621 82.3114C80.4931 82.2869 80.4046 82.2624 80.3556 82.2379L80.6006 81.3885C80.8348 81.4484 81.0417 81.4702 81.2214 81.4538C81.4011 81.4375 81.5603 81.3572 81.6992 81.2129C81.8407 81.0713 81.9701 80.8413 82.0871 80.5227L82.2668 80.0327L79.9472 73.7273H80.9927L82.7242 78.7259H82.7896L84.5211 73.7273H85.5665L82.9039 80.9148C82.7841 81.2388 82.6357 81.5069 82.4588 81.7193C82.2818 81.9344 82.0762 82.0936 81.8421 82.1971C81.6107 82.3005 81.3493 82.3523 81.058 82.3523ZM86.8386 80V73.7273H87.7698V74.7074H87.8514C87.9821 74.3725 88.1931 74.1125 88.4844 73.9274C88.7757 73.7395 89.1256 73.6456 89.534 73.6456C89.9478 73.6456 90.2922 73.7395 90.5672 73.9274C90.8449 74.1125 91.0613 74.3725 91.2165 74.7074H91.2818C91.4425 74.3834 91.6834 74.1261 92.0047 73.9355C92.3259 73.7422 92.7112 73.6456 93.1604 73.6456C93.7212 73.6456 94.18 73.8212 94.5366 74.1724C94.8933 74.5209 95.0716 75.064 95.0716 75.8018V80H94.1078V75.8018C94.1078 75.339 93.9812 75.0082 93.728 74.8095C93.4748 74.6107 93.1767 74.5114 92.8337 74.5114C92.3926 74.5114 92.0509 74.6448 91.8086 74.9116C91.5663 75.1757 91.4452 75.5105 91.4452 75.9162V80H90.4651V75.7038C90.4651 75.3472 90.3494 75.06 90.1179 74.8422C89.8865 74.6216 89.5884 74.5114 89.2236 74.5114C88.9731 74.5114 88.739 74.5781 88.5212 74.7115C88.3061 74.8449 88.1319 75.03 87.9984 75.2669C87.8678 75.501 87.8024 75.7719 87.8024 76.0795V80H86.8386ZM99.4637 80.1307C98.8593 80.1307 98.338 79.9973 97.8996 79.7305C97.464 79.4609 97.1278 79.0852 96.8909 78.6033C96.6568 78.1187 96.5397 77.5552 96.5397 76.9126C96.5397 76.2701 96.6568 75.7038 96.8909 75.2138C97.1278 74.721 97.4572 74.3371 97.8792 74.0621C98.3039 73.7844 98.7994 73.6456 99.3657 73.6456C99.6924 73.6456 100.015 73.7 100.334 73.8089C100.652 73.9179 100.942 74.0948 101.203 74.3398C101.465 74.5821 101.673 74.9034 101.828 75.3036C101.983 75.7038 102.061 76.1966 102.061 76.782V77.1903H97.2258V76.3572H101.081C101.081 76.0033 101.01 75.6875 100.869 75.4098C100.73 75.1321 100.531 74.9129 100.272 74.7523C100.016 74.5917 99.7142 74.5114 99.3657 74.5114C98.9818 74.5114 98.6497 74.6067 98.3693 74.7972C98.0916 74.9851 97.8779 75.2301 97.7281 75.5323C97.5784 75.8345 97.5035 76.1585 97.5035 76.5043V77.0597C97.5035 77.5334 97.5852 77.935 97.7485 78.2644C97.9146 78.5911 98.1447 78.8402 98.4387 79.0117C98.7327 79.1805 99.0744 79.2649 99.4637 79.2649C99.7169 79.2649 99.9456 79.2295 100.15 79.1587C100.357 79.0852 100.535 78.9763 100.685 78.832C100.835 78.685 100.95 78.5026 101.032 78.2848L101.963 78.5462C101.865 78.862 101.7 79.1397 101.469 79.3793C101.237 79.6161 100.952 79.8013 100.611 79.9347C100.271 80.0653 99.8885 80.1307 99.4637 80.1307ZM104.491 76.2266V80H103.527V73.7273H104.458V74.7074H104.54C104.687 74.3888 104.91 74.1329 105.21 73.9396C105.509 73.7436 105.896 73.6456 106.369 73.6456C106.794 73.6456 107.166 73.7327 107.484 73.907C107.803 74.0785 108.051 74.3398 108.228 74.6911C108.405 75.0395 108.493 75.4806 108.493 76.0142V80H107.529V76.0795C107.529 75.5868 107.401 75.2029 107.145 74.9279C106.889 74.6502 106.538 74.5114 106.092 74.5114C105.784 74.5114 105.509 74.5781 105.267 74.7115C105.027 74.8449 104.838 75.0395 104.699 75.2955C104.56 75.5514 104.491 75.8617 104.491 76.2266ZM112.982 73.7273V74.544H109.731V73.7273H112.982ZM110.679 72.2244H111.643V78.2031C111.643 78.4754 111.682 78.6796 111.761 78.8157C111.843 78.9491 111.946 79.0389 112.071 79.0852C112.199 79.1288 112.334 79.1506 112.476 79.1506C112.582 79.1506 112.669 79.1451 112.737 79.1342C112.805 79.1206 112.86 79.1097 112.9 79.1016L113.097 79.9673C113.031 79.9918 112.94 80.0163 112.823 80.0408C112.706 80.0681 112.557 80.0817 112.378 80.0817C112.105 80.0817 111.839 80.0231 111.577 79.9061C111.319 79.789 111.104 79.6107 110.932 79.3711C110.763 79.1315 110.679 78.8293 110.679 78.4645V72.2244ZM117.666 80V73.7273H118.597V74.6747H118.663C118.777 74.3643 118.984 74.1125 119.283 73.9192C119.583 73.7259 119.921 73.6293 120.296 73.6293C120.367 73.6293 120.456 73.6306 120.562 73.6333C120.668 73.6361 120.748 73.6402 120.803 73.6456V74.6257C120.77 74.6175 120.695 74.6053 120.578 74.589C120.464 74.5699 120.343 74.5604 120.215 74.5604C119.91 74.5604 119.637 74.6243 119.398 74.7523C119.161 74.8775 118.973 75.0518 118.834 75.275C118.698 75.4956 118.63 75.7474 118.63 76.0305V80H117.666ZM124.384 80.1307C123.78 80.1307 123.258 79.9973 122.82 79.7305C122.384 79.4609 122.048 79.0852 121.811 78.6033C121.577 78.1187 121.46 77.5552 121.46 76.9126C121.46 76.2701 121.577 75.7038 121.811 75.2138C122.048 74.721 122.378 74.3371 122.8 74.0621C123.224 73.7844 123.72 73.6456 124.286 73.6456C124.613 73.6456 124.935 73.7 125.254 73.8089C125.573 73.9179 125.862 74.0948 126.124 74.3398C126.385 74.5821 126.593 74.9034 126.749 75.3036C126.904 75.7038 126.981 76.1966 126.981 76.782V77.1903H122.146V76.3572H126.001C126.001 76.0033 125.931 75.6875 125.789 75.4098C125.65 75.1321 125.451 74.9129 125.193 74.7523C124.937 74.5917 124.635 74.5114 124.286 74.5114C123.902 74.5114 123.57 74.6067 123.29 74.7972C123.012 74.9851 122.798 75.2301 122.649 75.5323C122.499 75.8345 122.424 76.1585 122.424 76.5043V77.0597C122.424 77.5334 122.506 77.935 122.669 78.2644C122.835 78.5911 123.065 78.8402 123.359 79.0117C123.653 79.1805 123.995 79.2649 124.384 79.2649C124.637 79.2649 124.866 79.2295 125.07 79.1587C125.277 79.0852 125.455 78.9763 125.605 78.832C125.755 78.685 125.871 78.5026 125.952 78.2848L126.883 78.5462C126.785 78.862 126.621 79.1397 126.389 79.3793C126.158 79.6161 125.872 79.8013 125.532 79.9347C125.191 80.0653 124.809 80.1307 124.384 80.1307ZM132.727 82.3523V79.0362H132.646C132.575 79.1506 132.474 79.2949 132.343 79.4691C132.213 79.6406 132.026 79.7944 131.784 79.9306C131.542 80.064 131.219 80.1307 130.816 80.1307C130.293 80.1307 129.832 79.9986 129.432 79.7346C129.032 79.4677 128.718 79.092 128.492 78.6074C128.266 78.1201 128.153 77.5443 128.153 76.88C128.153 76.2211 128.266 75.6494 128.492 75.1648C128.718 74.6802 129.033 74.3058 129.436 74.0417C129.839 73.7776 130.304 73.6456 130.832 73.6456C131.241 73.6456 131.563 73.7137 131.8 73.8498C132.04 73.9832 132.222 74.1357 132.348 74.3072C132.476 74.476 132.575 74.6148 132.646 74.7237H132.76V73.7273H133.691V82.3523H132.727ZM130.947 79.2649C131.333 79.2649 131.66 79.1642 131.927 78.9627C132.194 78.7585 132.397 78.4767 132.535 78.1174C132.674 77.7553 132.744 77.3374 132.744 76.8636C132.744 76.3954 132.676 75.9856 132.54 75.6344C132.403 75.2805 132.202 75.0055 131.935 74.8095C131.668 74.6107 131.339 74.5114 130.947 74.5114C130.538 74.5114 130.198 74.6162 129.926 74.8258C129.656 75.0327 129.454 75.3145 129.317 75.6712C129.184 76.0251 129.117 76.4226 129.117 76.8636C129.117 77.3101 129.185 77.7158 129.321 78.0806C129.46 78.4427 129.665 78.7313 129.934 78.9464C130.206 79.1587 130.544 79.2649 130.947 79.2649ZM139.408 77.4354V73.7273H140.372V80H139.408V78.9382H139.343C139.196 79.2567 138.967 79.5276 138.657 79.7509C138.347 79.9714 137.955 80.0817 137.481 80.0817C137.089 80.0817 136.74 79.9959 136.435 79.8244C136.131 79.6502 135.891 79.3888 135.717 79.0403C135.542 78.6891 135.455 78.2467 135.455 77.7131V73.7273H136.419V77.6477C136.419 78.1051 136.547 78.4699 136.803 78.7422C137.062 79.0144 137.391 79.1506 137.791 79.1506C138.031 79.1506 138.275 79.0893 138.522 78.9668C138.773 78.8443 138.982 78.6564 139.151 78.4032C139.323 78.15 139.408 77.8274 139.408 77.4354ZM144.767 80.1307C144.163 80.1307 143.642 79.9973 143.203 79.7305C142.768 79.4609 142.432 79.0852 142.195 78.6033C141.961 78.1187 141.843 77.5552 141.843 76.9126C141.843 76.2701 141.961 75.7038 142.195 75.2138C142.432 74.721 142.761 74.3371 143.183 74.0621C143.608 73.7844 144.103 73.6456 144.669 73.6456C144.996 73.6456 145.319 73.7 145.637 73.8089C145.956 73.9179 146.246 74.0948 146.507 74.3398C146.769 74.5821 146.977 74.9034 147.132 75.3036C147.287 75.7038 147.365 76.1966 147.365 76.782V77.1903H142.53V76.3572H146.385C146.385 76.0033 146.314 75.6875 146.172 75.4098C146.033 75.1321 145.835 74.9129 145.576 74.7523C145.32 74.5917 145.018 74.5114 144.669 74.5114C144.286 74.5114 143.953 74.6067 143.673 74.7972C143.395 74.9851 143.182 75.2301 143.032 75.5323C142.882 75.8345 142.807 76.1585 142.807 76.5043V77.0597C142.807 77.5334 142.889 77.935 143.052 78.2644C143.218 78.5911 143.448 78.8402 143.742 79.0117C144.036 79.1805 144.378 79.2649 144.767 79.2649C145.021 79.2649 145.249 79.2295 145.454 79.1587C145.66 79.0852 145.839 78.9763 145.989 78.832C146.138 78.685 146.254 78.5026 146.336 78.2848L147.267 78.5462C147.169 78.862 147.004 79.1397 146.773 79.3793C146.541 79.6161 146.255 79.8013 145.915 79.9347C145.575 80.0653 145.192 80.1307 144.767 80.1307ZM153.274 75.1321L152.408 75.3771C152.354 75.2328 152.273 75.0926 152.167 74.9565C152.064 74.8176 151.922 74.7033 151.743 74.6135C151.563 74.5236 151.333 74.4787 151.052 74.4787C150.669 74.4787 150.349 74.5672 150.093 74.7441C149.84 74.9184 149.713 75.1403 149.713 75.4098C149.713 75.6494 149.8 75.8386 149.974 75.9775C150.149 76.1163 150.421 76.232 150.791 76.3246L151.722 76.5533C152.283 76.6894 152.701 76.8977 152.976 77.1781C153.251 77.4558 153.388 77.8138 153.388 78.2521C153.388 78.6115 153.285 78.9328 153.078 79.2159C152.874 79.4991 152.588 79.7223 152.22 79.8857C151.853 80.049 151.425 80.1307 150.938 80.1307C150.298 80.1307 149.769 79.9918 149.349 79.7141C148.93 79.4364 148.665 79.0308 148.553 78.4972L149.468 78.2685C149.555 78.6061 149.72 78.8593 149.962 79.0281C150.207 79.1969 150.527 79.2812 150.922 79.2812C151.371 79.2812 151.728 79.186 151.992 78.9954C152.259 78.8021 152.392 78.5707 152.392 78.3011C152.392 78.0833 152.316 77.9009 152.163 77.7539C152.011 77.6042 151.777 77.4925 151.461 77.419L150.415 77.174C149.841 77.0379 149.419 76.8269 149.149 76.541C148.883 76.2524 148.749 75.8917 148.749 75.4588C148.749 75.1049 148.849 74.7918 149.047 74.5195C149.249 74.2473 149.522 74.0336 149.868 73.8784C150.217 73.7232 150.611 73.6456 151.052 73.6456C151.673 73.6456 152.16 73.7817 152.514 74.054C152.871 74.3262 153.124 74.6856 153.274 75.1321ZM157.567 73.7273V74.544H154.316V73.7273H157.567ZM155.264 72.2244H156.228V78.2031C156.228 78.4754 156.267 78.6796 156.346 78.8157C156.428 78.9491 156.531 79.0389 156.656 79.0852C156.784 79.1288 156.919 79.1506 157.061 79.1506C157.167 79.1506 157.254 79.1451 157.322 79.1342C157.39 79.1206 157.445 79.1097 157.485 79.1016L157.681 79.9673C157.616 79.9918 157.525 80.0163 157.408 80.0408C157.291 80.0681 157.142 80.0817 156.963 80.0817C156.69 80.0817 156.424 80.0231 156.162 79.9061C155.904 79.789 155.689 79.6107 155.517 79.3711C155.348 79.1315 155.264 78.8293 155.264 78.4645V72.2244Z" fill="white"/>
<path d="M204 71.5L205.5 73L208.5 70" stroke="white" stroke-opacity="0.7"/>
<path d="M206 67L202 69V72C202 74 203.8 75.5 206 76C208.2 75.5 210 74 210 72V69L206 67Z" stroke="white" stroke-opacity="0.6" stroke-width="0.8"/>
<path d="M195.886 81.6364C195.852 81.3485 195.714 81.125 195.472 80.9659C195.229 80.8068 194.932 80.7273 194.58 80.7273C194.322 80.7273 194.097 80.7689 193.903 80.8523C193.712 80.9356 193.563 81.0502 193.455 81.196C193.348 81.3419 193.295 81.5076 193.295 81.6932C193.295 81.8485 193.332 81.982 193.406 82.0938C193.482 82.2036 193.579 82.2955 193.696 82.3693C193.813 82.4413 193.937 82.5009 194.065 82.5483C194.194 82.5937 194.312 82.6307 194.42 82.6591L195.011 82.8182C195.163 82.858 195.331 82.9129 195.517 82.983C195.705 83.053 195.884 83.1487 196.054 83.2699C196.226 83.3892 196.368 83.5426 196.48 83.7301C196.592 83.9176 196.648 84.1477 196.648 84.4205C196.648 84.7348 196.565 85.0189 196.401 85.2727C196.238 85.5265 195.999 85.7282 195.685 85.8778C195.372 86.0275 194.992 86.1023 194.545 86.1023C194.129 86.1023 193.768 86.035 193.463 85.9006C193.16 85.7661 192.921 85.5786 192.747 85.3381C192.575 85.0975 192.477 84.8182 192.455 84.5H193.182C193.201 84.7197 193.275 84.9015 193.403 85.0455C193.534 85.1875 193.699 85.2936 193.898 85.3636C194.098 85.4318 194.314 85.4659 194.545 85.4659C194.814 85.4659 195.056 85.4223 195.27 85.3352C195.484 85.2462 195.653 85.1231 195.778 84.9659C195.903 84.8068 195.966 84.6212 195.966 84.4091C195.966 84.2159 195.912 84.0587 195.804 83.9375C195.696 83.8163 195.554 83.7178 195.378 83.642C195.202 83.5663 195.011 83.5 194.807 83.4432L194.091 83.2386C193.636 83.108 193.277 82.9214 193.011 82.679C192.746 82.4366 192.614 82.1193 192.614 81.7273C192.614 81.4015 192.702 81.1174 192.878 80.875C193.056 80.6307 193.295 80.4413 193.594 80.3068C193.895 80.1705 194.231 80.1023 194.602 80.1023C194.977 80.1023 195.311 80.1695 195.602 80.304C195.894 80.4366 196.125 80.6184 196.295 80.8494C196.468 81.0805 196.559 81.3428 196.568 81.6364H195.886ZM199.545 86.0909C199.124 86.0909 198.762 85.9981 198.457 85.8125C198.154 85.625 197.92 85.3636 197.755 85.0284C197.592 84.6913 197.511 84.2992 197.511 83.8523C197.511 83.4053 197.592 83.0114 197.755 82.6705C197.92 82.3277 198.149 82.0606 198.442 81.8693C198.738 81.6761 199.083 81.5795 199.477 81.5795C199.704 81.5795 199.928 81.6174 200.15 81.6932C200.371 81.7689 200.573 81.892 200.755 82.0625C200.937 82.2311 201.082 82.4545 201.19 82.733C201.298 83.0114 201.352 83.3542 201.352 83.7614V84.0455H197.988V83.4659H200.67C200.67 83.2197 200.621 83 200.522 82.8068C200.425 82.6136 200.287 82.4612 200.107 82.3494C199.929 82.2377 199.719 82.1818 199.477 82.1818C199.21 82.1818 198.978 82.2481 198.783 82.3807C198.59 82.5114 198.442 82.6818 198.337 82.892C198.233 83.1023 198.181 83.3277 198.181 83.5682V83.9545C198.181 84.2841 198.238 84.5634 198.352 84.7926C198.467 85.0199 198.627 85.1932 198.832 85.3125C199.036 85.4299 199.274 85.4886 199.545 85.4886C199.721 85.4886 199.88 85.464 200.022 85.4148C200.166 85.3636 200.29 85.2879 200.394 85.1875C200.498 85.0852 200.579 84.9583 200.636 84.8068L201.283 84.9886C201.215 85.2083 201.101 85.4015 200.94 85.5682C200.779 85.733 200.58 85.8617 200.343 85.9545C200.106 86.0455 199.84 86.0909 199.545 86.0909ZM204.144 86.0909C203.735 86.0909 203.383 85.9943 203.087 85.8011C202.792 85.608 202.565 85.3419 202.406 85.0028C202.246 84.6638 202.167 84.2765 202.167 83.8409C202.167 83.3977 202.248 83.0066 202.411 82.6676C202.576 82.3267 202.805 82.0606 203.099 81.8693C203.394 81.6761 203.739 81.5795 204.133 81.5795C204.44 81.5795 204.716 81.6364 204.962 81.75C205.209 81.8636 205.41 82.0227 205.567 82.2273C205.725 82.4318 205.822 82.6705 205.86 82.9432H205.19C205.138 82.7443 205.025 82.5682 204.849 82.4148C204.674 82.2595 204.44 82.1818 204.144 82.1818C203.883 82.1818 203.654 82.25 203.457 82.3864C203.262 82.5208 203.109 82.7112 202.999 82.9574C202.891 83.2017 202.837 83.4886 202.837 83.8182C202.837 84.1553 202.89 84.4489 202.996 84.6989C203.104 84.9489 203.256 85.143 203.451 85.2812C203.648 85.4195 203.879 85.4886 204.144 85.4886C204.318 85.4886 204.477 85.4583 204.619 85.3977C204.761 85.3371 204.881 85.25 204.979 85.1364C205.078 85.0227 205.148 84.8864 205.19 84.7273H205.86C205.822 84.9848 205.728 85.2169 205.579 85.4233C205.431 85.6278 205.235 85.7907 204.991 85.9119C204.748 86.0312 204.466 86.0909 204.144 86.0909ZM209.59 84.2159V81.6364H210.261V86H209.59V85.2614H209.545C209.442 85.483 209.283 85.6714 209.067 85.8267C208.852 85.9801 208.579 86.0568 208.249 86.0568C207.977 86.0568 207.734 85.9972 207.522 85.8778C207.31 85.7566 207.143 85.5748 207.022 85.3324C206.901 85.0881 206.84 84.7803 206.84 84.4091V81.6364H207.511V84.3636C207.511 84.6818 207.6 84.9356 207.778 85.125C207.958 85.3144 208.187 85.4091 208.465 85.4091C208.632 85.4091 208.801 85.3665 208.974 85.2812C209.148 85.196 209.294 85.0653 209.411 84.8892C209.531 84.7131 209.59 84.4886 209.59 84.2159ZM211.489 86V81.6364H212.136V82.2955H212.182C212.261 82.0795 212.405 81.9044 212.614 81.7699C212.822 81.6354 213.057 81.5682 213.318 81.5682C213.367 81.5682 213.429 81.5691 213.503 81.571C213.577 81.5729 213.633 81.5758 213.67 81.5795V82.2614C213.648 82.2557 213.596 82.2472 213.514 82.2358C213.435 82.2225 213.35 82.2159 213.261 82.2159C213.049 82.2159 212.86 82.2604 212.693 82.3494C212.528 82.4366 212.398 82.5578 212.301 82.7131C212.206 82.8665 212.159 83.0417 212.159 83.2386V86H211.489ZM216.162 86.0909C215.741 86.0909 215.379 85.9981 215.074 85.8125C214.771 85.625 214.537 85.3636 214.372 85.0284C214.209 84.6913 214.128 84.2992 214.128 83.8523C214.128 83.4053 214.209 83.0114 214.372 82.6705C214.537 82.3277 214.766 82.0606 215.06 81.8693C215.355 81.6761 215.7 81.5795 216.094 81.5795C216.321 81.5795 216.545 81.6174 216.767 81.6932C216.989 81.7689 217.19 81.892 217.372 82.0625C217.554 82.2311 217.699 82.4545 217.807 82.733C217.915 83.0114 217.969 83.3542 217.969 83.7614V84.0455H214.605V83.4659H217.287C217.287 83.2197 217.238 83 217.139 82.8068C217.043 82.6136 216.904 82.4612 216.724 82.3494C216.546 82.2377 216.336 82.1818 216.094 82.1818C215.827 82.1818 215.596 82.2481 215.401 82.3807C215.207 82.5114 215.059 82.6818 214.955 82.892C214.85 83.1023 214.798 83.3277 214.798 83.5682V83.9545C214.798 84.2841 214.855 84.5634 214.969 84.7926C215.084 85.0199 215.244 85.1932 215.449 85.3125C215.653 85.4299 215.891 85.4886 216.162 85.4886C216.338 85.4886 216.497 85.464 216.639 85.4148C216.783 85.3636 216.907 85.2879 217.011 85.1875C217.116 85.0852 217.196 84.9583 217.253 84.8068L217.901 84.9886C217.832 85.2083 217.718 85.4015 217.557 85.5682C217.396 85.733 217.197 85.8617 216.96 85.9545C216.723 86.0455 216.457 86.0909 216.162 86.0909Z" fill="white" fill-opacity="0.7"/>
<path d="M116.82 113.844L116.273 115.773H106.031L106.578 113.844H116.82ZM111.836 126L106.242 119.211L106.227 117.688H109C109.693 117.688 110.279 117.581 110.758 117.367C111.237 117.154 111.602 116.844 111.852 116.437C112.102 116.026 112.227 115.526 112.227 114.937C112.227 114.062 111.966 113.367 111.445 112.852C110.924 112.336 110.109 112.078 109 112.078H106.031L106.602 110H109C110.292 110 111.357 110.206 112.195 110.617C113.034 111.029 113.659 111.599 114.07 112.328C114.482 113.057 114.688 113.898 114.688 114.852C114.688 115.701 114.518 116.469 114.18 117.156C113.841 117.844 113.302 118.404 112.563 118.836C111.823 119.268 110.852 119.521 109.648 119.594L109.578 119.609L114.688 125.867V126H111.836ZM116.828 110L116.273 111.945L108.086 111.898L108.641 110H116.828ZM125.078 110V126H122.656V112.422H122.563L118.734 114.922V112.609L122.727 110H125.078ZM131.553 123.812L131.436 124.664C131.357 125.289 131.225 125.94 131.037 126.617C130.855 127.299 130.665 127.932 130.467 128.516C130.274 129.099 130.115 129.563 129.99 129.906H128.334C128.402 129.583 128.495 129.146 128.615 128.594C128.735 128.047 128.852 127.435 128.967 126.758C129.081 126.081 129.167 125.391 129.225 124.687L129.303 123.812H131.553ZM134.484 122.875V120.922L141.398 110H142.938V112.875H141.961L137.016 120.703V120.828H146.492V122.875H134.484ZM142.07 126V122.281L142.086 121.391V110H144.375V126H142.07ZM154.535 109.781C155.249 109.786 155.952 109.917 156.645 110.172C157.337 110.427 157.962 110.844 158.52 111.422C159.082 112 159.53 112.781 159.863 113.766C160.202 114.745 160.374 115.964 160.379 117.422C160.379 118.823 160.238 120.07 159.957 121.164C159.676 122.253 159.272 123.172 158.746 123.922C158.225 124.672 157.592 125.242 156.848 125.633C156.103 126.023 155.264 126.219 154.332 126.219C153.379 126.219 152.533 126.031 151.793 125.656C151.053 125.281 150.452 124.763 149.988 124.102C149.525 123.435 149.236 122.669 149.121 121.805H151.504C151.66 122.492 151.978 123.049 152.457 123.477C152.941 123.898 153.566 124.109 154.332 124.109C155.504 124.109 156.418 123.599 157.074 122.578C157.73 121.552 158.061 120.12 158.066 118.281H157.941C157.671 118.729 157.332 119.115 156.926 119.437C156.525 119.76 156.074 120.01 155.574 120.187C155.074 120.365 154.54 120.453 153.973 120.453C153.051 120.453 152.212 120.227 151.457 119.773C150.702 119.32 150.1 118.698 149.652 117.906C149.204 117.115 148.98 116.211 148.98 115.195C148.98 114.185 149.21 113.268 149.668 112.445C150.132 111.622 150.777 110.971 151.605 110.492C152.439 110.008 153.415 109.771 154.535 109.781ZM154.543 111.812C153.934 111.812 153.384 111.964 152.895 112.266C152.41 112.562 152.027 112.966 151.746 113.477C151.465 113.982 151.324 114.544 151.324 115.164C151.324 115.784 151.46 116.346 151.73 116.852C152.007 117.352 152.382 117.75 152.855 118.047C153.335 118.339 153.882 118.484 154.496 118.484C154.954 118.484 155.382 118.396 155.777 118.219C156.173 118.042 156.52 117.797 156.816 117.484C157.113 117.167 157.345 116.807 157.512 116.406C157.678 116.005 157.762 115.583 157.762 115.141C157.762 114.552 157.621 114.005 157.34 113.5C157.064 112.995 156.684 112.589 156.199 112.281C155.715 111.969 155.163 111.812 154.543 111.812ZM168.521 109.781C169.235 109.786 169.938 109.917 170.631 110.172C171.324 110.427 171.949 110.844 172.506 111.422C173.068 112 173.516 112.781 173.85 113.766C174.188 114.745 174.36 115.964 174.365 117.422C174.365 118.823 174.225 120.07 173.943 121.164C173.662 122.253 173.258 123.172 172.732 123.922C172.212 124.672 171.579 125.242 170.834 125.633C170.089 126.023 169.251 126.219 168.318 126.219C167.365 126.219 166.519 126.031 165.779 125.656C165.04 125.281 164.438 124.763 163.975 124.102C163.511 123.435 163.222 122.669 163.107 121.805H165.49C165.646 122.492 165.964 123.049 166.443 123.477C166.928 123.898 167.553 124.109 168.318 124.109C169.49 124.109 170.404 123.599 171.061 122.578C171.717 121.552 172.048 120.12 172.053 118.281H171.928C171.657 118.729 171.318 119.115 170.912 119.437C170.511 119.76 170.061 120.01 169.561 120.187C169.061 120.365 168.527 120.453 167.959 120.453C167.037 120.453 166.199 120.227 165.443 119.773C164.688 119.32 164.087 118.698 163.639 117.906C163.191 117.115 162.967 116.211 162.967 115.195C162.967 114.185 163.196 113.268 163.654 112.445C164.118 111.622 164.764 110.971 165.592 110.492C166.425 110.008 167.402 109.771 168.521 109.781ZM168.529 111.812C167.92 111.812 167.37 111.964 166.881 112.266C166.396 112.562 166.014 112.966 165.732 113.477C165.451 113.982 165.311 114.544 165.311 115.164C165.311 115.784 165.446 116.346 165.717 116.852C165.993 117.352 166.368 117.75 166.842 118.047C167.321 118.339 167.868 118.484 168.482 118.484C168.941 118.484 169.368 118.396 169.764 118.219C170.16 118.042 170.506 117.797 170.803 117.484C171.1 117.167 171.331 116.807 171.498 116.406C171.665 116.005 171.748 115.583 171.748 115.141C171.748 114.552 171.607 114.005 171.326 113.5C171.05 112.995 170.67 112.589 170.186 112.281C169.701 111.969 169.149 111.812 168.529 111.812Z" fill="#0F172A"/>
<path d="M93.3916 141C93.3447 140.604 93.1546 140.297 92.8213 140.078C92.488 139.859 92.0791 139.75 91.5947 139.75C91.2406 139.75 90.9307 139.807 90.665 139.922C90.402 140.036 90.1963 140.194 90.0479 140.395C89.902 140.595 89.8291 140.823 89.8291 141.078C89.8291 141.292 89.8799 141.475 89.9814 141.629C90.0856 141.78 90.2184 141.906 90.3799 142.008C90.5413 142.107 90.7106 142.189 90.8877 142.254C91.0648 142.316 91.2275 142.367 91.376 142.406L92.1885 142.625C92.3968 142.68 92.6286 142.755 92.8838 142.852C93.1416 142.948 93.3877 143.079 93.6221 143.246C93.859 143.41 94.0544 143.621 94.208 143.879C94.3617 144.137 94.4385 144.453 94.4385 144.828C94.4385 145.26 94.3252 145.651 94.0986 146C93.8747 146.349 93.5465 146.626 93.1143 146.832C92.6846 147.038 92.1624 147.141 91.5479 147.141C90.9749 147.141 90.4788 147.048 90.0596 146.863C89.6429 146.678 89.3148 146.421 89.0752 146.09C88.8382 145.759 88.7041 145.375 88.6729 144.938H89.6729C89.6989 145.24 89.8005 145.49 89.9775 145.687C90.1572 145.883 90.3838 146.029 90.6572 146.125C90.9333 146.219 91.2301 146.266 91.5479 146.266C91.9176 146.266 92.2497 146.206 92.5439 146.086C92.8382 145.964 93.0713 145.794 93.2432 145.578C93.415 145.359 93.501 145.104 93.501 144.812C93.501 144.547 93.4268 144.331 93.2783 144.164C93.1299 143.997 92.9346 143.862 92.6924 143.758C92.4502 143.654 92.1885 143.562 91.9072 143.484L90.9229 143.203C90.2979 143.023 89.8031 142.767 89.4385 142.434C89.0739 142.1 88.8916 141.664 88.8916 141.125C88.8916 140.677 89.0127 140.286 89.2549 139.953C89.4997 139.617 89.8278 139.357 90.2393 139.172C90.6533 138.984 91.1156 138.891 91.626 138.891C92.1416 138.891 92.5999 138.983 93.001 139.168C93.402 139.35 93.7197 139.6 93.9541 139.918C94.1911 140.236 94.3161 140.596 94.3291 141H93.3916ZM99.6875 144.547V141H100.609V147H99.6875V145.984H99.625C99.4844 146.289 99.2656 146.548 98.9688 146.762C98.6719 146.973 98.2969 147.078 97.8437 147.078C97.4688 147.078 97.1354 146.996 96.8438 146.832C96.5521 146.665 96.3229 146.415 96.1563 146.082C95.9896 145.746 95.9063 145.323 95.9063 144.812V141H96.8281V144.75C96.8281 145.187 96.9505 145.536 97.1953 145.797C97.4427 146.057 97.7578 146.187 98.1406 146.187C98.3698 146.187 98.6029 146.129 98.8398 146.012C99.0794 145.895 99.2799 145.715 99.4414 145.473C99.6055 145.23 99.6875 144.922 99.6875 144.547ZM102.298 147V141H103.188V141.937H103.267C103.392 141.617 103.593 141.368 103.872 141.191C104.151 141.012 104.485 140.922 104.876 140.922C105.272 140.922 105.601 141.012 105.864 141.191C106.13 141.368 106.337 141.617 106.485 141.937H106.548C106.701 141.628 106.932 141.382 107.239 141.199C107.547 141.014 107.915 140.922 108.345 140.922C108.881 140.922 109.32 141.09 109.661 141.426C110.002 141.759 110.173 142.279 110.173 142.984V147H109.251V142.984C109.251 142.542 109.13 142.225 108.888 142.035C108.646 141.845 108.36 141.75 108.032 141.75C107.61 141.75 107.284 141.878 107.052 142.133C106.82 142.385 106.704 142.706 106.704 143.094V147H105.767V142.891C105.767 142.549 105.656 142.275 105.435 142.066C105.213 141.855 104.928 141.75 104.579 141.75C104.34 141.75 104.116 141.814 103.907 141.941C103.701 142.069 103.535 142.246 103.407 142.473C103.282 142.697 103.22 142.956 103.22 143.25V147H102.298ZM111.858 147V141H112.749V141.937H112.827C112.952 141.617 113.154 141.368 113.433 141.191C113.711 141.012 114.046 140.922 114.437 140.922C114.832 140.922 115.162 141.012 115.425 141.191C115.69 141.368 115.897 141.617 116.046 141.937H116.108C116.262 141.628 116.493 141.382 116.8 141.199C117.107 141.014 117.476 140.922 117.905 140.922C118.442 140.922 118.881 141.09 119.222 141.426C119.563 141.759 119.733 142.279 119.733 142.984V147H118.812V142.984C118.812 142.542 118.69 142.225 118.448 142.035C118.206 141.845 117.921 141.75 117.593 141.75C117.171 141.75 116.844 141.878 116.612 142.133C116.381 142.385 116.265 142.706 116.265 143.094V147H115.327V142.891C115.327 142.549 115.216 142.275 114.995 142.066C114.774 141.855 114.489 141.75 114.14 141.75C113.9 141.75 113.676 141.814 113.468 141.941C113.262 142.069 113.095 142.246 112.968 142.473C112.843 142.697 112.78 142.956 112.78 143.25V147H111.858ZM123.935 147.125C123.356 147.125 122.858 146.997 122.438 146.742C122.022 146.484 121.7 146.125 121.474 145.664C121.25 145.201 121.138 144.661 121.138 144.047C121.138 143.432 121.25 142.891 121.474 142.422C121.7 141.951 122.015 141.583 122.419 141.32C122.825 141.055 123.299 140.922 123.841 140.922C124.153 140.922 124.462 140.974 124.767 141.078C125.071 141.182 125.349 141.352 125.599 141.586C125.849 141.818 126.048 142.125 126.196 142.508C126.345 142.891 126.419 143.362 126.419 143.922V144.312H121.794V143.516H125.481C125.481 143.177 125.414 142.875 125.278 142.609C125.146 142.344 124.955 142.134 124.708 141.98C124.463 141.827 124.174 141.75 123.841 141.75C123.474 141.75 123.156 141.841 122.888 142.023C122.622 142.203 122.418 142.437 122.274 142.727C122.131 143.016 122.06 143.326 122.06 143.656V144.188C122.06 144.641 122.138 145.025 122.294 145.34C122.453 145.652 122.673 145.891 122.954 146.055C123.235 146.216 123.562 146.297 123.935 146.297C124.177 146.297 124.396 146.263 124.591 146.195C124.789 146.125 124.959 146.021 125.103 145.883C125.246 145.742 125.356 145.568 125.435 145.359L126.325 145.609C126.231 145.911 126.074 146.177 125.853 146.406C125.631 146.633 125.358 146.81 125.032 146.937C124.707 147.063 124.341 147.125 123.935 147.125ZM127.821 147V141H128.712V141.906H128.774C128.884 141.609 129.082 141.368 129.368 141.184C129.655 140.999 129.978 140.906 130.337 140.906C130.405 140.906 130.489 140.908 130.591 140.91C130.692 140.913 130.769 140.917 130.821 140.922V141.859C130.79 141.852 130.718 141.84 130.606 141.824C130.497 141.806 130.381 141.797 130.259 141.797C129.967 141.797 129.707 141.858 129.478 141.98C129.251 142.1 129.071 142.267 128.938 142.48C128.808 142.691 128.743 142.932 128.743 143.203V147H127.821ZM135.867 144.812L135.852 143.672H136.039L138.664 141H139.805L137.008 143.828H136.93L135.867 144.812ZM135.008 147V139H135.93V147H135.008ZM138.82 147L136.477 144.031L137.133 143.391L139.992 147H138.82ZM144.772 144.547V141H145.694V147H144.772V145.984H144.71C144.569 146.289 144.351 146.548 144.054 146.762C143.757 146.973 143.382 147.078 142.929 147.078C142.554 147.078 142.22 146.996 141.929 146.832C141.637 146.665 141.408 146.415 141.241 146.082C141.075 145.746 140.991 145.323 140.991 144.812V141H141.913V144.75C141.913 145.187 142.035 145.536 142.28 145.797C142.528 146.057 142.843 146.187 143.226 146.187C143.455 146.187 143.688 146.129 143.925 146.012C144.164 145.895 144.365 145.715 144.526 145.473C144.69 145.23 144.772 144.922 144.772 144.547ZM147.383 147V141H148.273V141.906H148.336C148.445 141.609 148.643 141.368 148.93 141.184C149.216 140.999 149.539 140.906 149.898 140.906C149.966 140.906 150.051 140.908 150.152 140.91C150.254 140.913 150.331 140.917 150.383 140.922V141.859C150.352 141.852 150.28 141.84 150.168 141.824C150.059 141.806 149.943 141.797 149.82 141.797C149.529 141.797 149.268 141.858 149.039 141.98C148.813 142.1 148.633 142.267 148.5 142.48C148.37 142.691 148.305 142.932 148.305 143.203V147H147.383ZM154.461 141V141.781H151.352V141H154.461ZM152.258 139.562H153.18V145.281C153.18 145.542 153.217 145.737 153.293 145.867C153.371 145.995 153.47 146.081 153.59 146.125C153.712 146.167 153.841 146.187 153.977 146.187C154.078 146.187 154.161 146.182 154.227 146.172C154.292 146.159 154.344 146.148 154.383 146.141L154.57 146.969C154.508 146.992 154.421 147.016 154.309 147.039C154.197 147.065 154.055 147.078 153.883 147.078C153.622 147.078 153.367 147.022 153.117 146.91C152.87 146.798 152.664 146.628 152.5 146.398C152.339 146.169 152.258 145.88 152.258 145.531V139.562ZM155.848 147V141H156.77V147H155.848ZM156.316 140C156.137 140 155.982 139.939 155.852 139.816C155.724 139.694 155.66 139.547 155.66 139.375C155.66 139.203 155.724 139.056 155.852 138.934C155.982 138.811 156.137 138.75 156.316 138.75C156.496 138.75 156.65 138.811 156.777 138.934C156.908 139.056 156.973 139.203 156.973 139.375C156.973 139.547 156.908 139.694 156.777 139.816C156.65 139.939 156.496 140 156.316 140ZM165.802 142.344L164.974 142.578C164.922 142.44 164.845 142.306 164.743 142.176C164.644 142.043 164.509 141.934 164.337 141.848C164.165 141.762 163.945 141.719 163.677 141.719C163.31 141.719 163.004 141.803 162.759 141.973C162.517 142.139 162.396 142.352 162.396 142.609C162.396 142.839 162.479 143.02 162.646 143.152C162.812 143.285 163.073 143.396 163.427 143.484L164.317 143.703C164.854 143.833 165.254 144.033 165.517 144.301C165.78 144.566 165.911 144.909 165.911 145.328C165.911 145.672 165.812 145.979 165.614 146.25C165.419 146.521 165.146 146.734 164.794 146.891C164.442 147.047 164.034 147.125 163.567 147.125C162.955 147.125 162.449 146.992 162.048 146.727C161.647 146.461 161.393 146.073 161.286 145.562L162.161 145.344C162.244 145.667 162.402 145.909 162.634 146.07C162.868 146.232 163.174 146.312 163.552 146.312C163.981 146.312 164.323 146.221 164.575 146.039C164.83 145.854 164.958 145.633 164.958 145.375C164.958 145.167 164.885 144.992 164.739 144.852C164.593 144.708 164.369 144.602 164.067 144.531L163.067 144.297C162.518 144.167 162.114 143.965 161.856 143.691C161.601 143.415 161.474 143.07 161.474 142.656C161.474 142.318 161.569 142.018 161.759 141.758C161.951 141.497 162.213 141.293 162.544 141.145C162.877 140.996 163.255 140.922 163.677 140.922C164.271 140.922 164.737 141.052 165.075 141.312C165.416 141.573 165.659 141.917 165.802 142.344ZM169.814 147.125C169.236 147.125 168.738 146.997 168.318 146.742C167.902 146.484 167.58 146.125 167.354 145.664C167.13 145.201 167.018 144.661 167.018 144.047C167.018 143.432 167.13 142.891 167.354 142.422C167.58 141.951 167.895 141.583 168.299 141.32C168.705 141.055 169.179 140.922 169.721 140.922C170.033 140.922 170.342 140.974 170.646 141.078C170.951 141.182 171.229 141.352 171.479 141.586C171.729 141.818 171.928 142.125 172.076 142.508C172.225 142.891 172.299 143.362 172.299 143.922V144.312H167.674V143.516H171.361C171.361 143.177 171.294 142.875 171.158 142.609C171.025 142.344 170.835 142.134 170.588 141.98C170.343 141.827 170.054 141.75 169.721 141.75C169.354 141.75 169.036 141.841 168.768 142.023C168.502 142.203 168.298 142.437 168.154 142.727C168.011 143.016 167.939 143.326 167.939 143.656V144.188C167.939 144.641 168.018 145.025 168.174 145.34C168.333 145.652 168.553 145.891 168.834 146.055C169.115 146.216 169.442 146.297 169.814 146.297C170.057 146.297 170.275 146.263 170.471 146.195C170.669 146.125 170.839 146.021 170.982 145.883C171.126 145.742 171.236 145.568 171.314 145.359L172.205 145.609C172.111 145.911 171.954 146.177 171.732 146.406C171.511 146.633 171.238 146.81 170.912 146.937C170.587 147.063 170.221 147.125 169.814 147.125ZM176.311 141V141.781H173.201V141H176.311ZM174.107 139.562H175.029V145.281C175.029 145.542 175.067 145.737 175.143 145.867C175.221 145.995 175.32 146.081 175.439 146.125C175.562 146.167 175.691 146.187 175.826 146.187C175.928 146.187 176.011 146.182 176.076 146.172C176.141 146.159 176.193 146.148 176.232 146.141L176.42 146.969C176.357 146.992 176.27 147.016 176.158 147.039C176.046 147.065 175.904 147.078 175.732 147.078C175.472 147.078 175.217 147.022 174.967 146.91C174.719 146.798 174.514 146.628 174.35 146.398C174.188 146.169 174.107 145.88 174.107 145.531V139.562ZM185.479 145.562L181.072 141.156L181.666 140.562L186.072 144.969L185.479 145.562ZM181.666 145.562L181.072 144.969L185.479 140.562L186.072 141.156L181.666 145.562ZM191.12 147V146.297L193.761 143.406C194.071 143.068 194.326 142.773 194.526 142.523C194.727 142.271 194.875 142.034 194.972 141.812C195.071 141.589 195.12 141.354 195.12 141.109C195.12 140.828 195.052 140.585 194.917 140.379C194.784 140.173 194.602 140.014 194.37 139.902C194.138 139.79 193.878 139.734 193.589 139.734C193.282 139.734 193.013 139.798 192.784 139.926C192.558 140.051 192.382 140.227 192.257 140.453C192.134 140.68 192.073 140.945 192.073 141.25H191.151C191.151 140.781 191.259 140.37 191.476 140.016C191.692 139.661 191.986 139.385 192.358 139.187C192.733 138.99 193.154 138.891 193.62 138.891C194.089 138.891 194.504 138.99 194.866 139.187C195.228 139.385 195.512 139.652 195.718 139.988C195.924 140.324 196.026 140.698 196.026 141.109C196.026 141.404 195.973 141.691 195.866 141.973C195.762 142.251 195.58 142.562 195.319 142.906C195.062 143.247 194.703 143.664 194.245 144.156L192.448 146.078V146.141H196.167V147H191.12Z" fill="#94A3B8"/>
<path d="M159 160H127C122.029 160 118 164.029 118 169V201C118 205.971 122.029 210 127 210H159C163.971 210 168 205.971 168 201V169C168 164.029 163.971 160 159 160Z" fill="white" stroke="#667085" stroke-width="1.5"/>
<path d="M148 168H138C135.239 168 133 170.239 133 173V183C133 185.761 135.239 188 138 188H148C150.761 188 153 185.761 153 183V173C153 170.239 150.761 168 148 168Z" fill="#EAF3DE"/>
<path d="M143 183C145.761 183 148 180.761 148 178C148 175.239 145.761 173 143 173C140.239 173 138 175.239 138 178C138 180.761 140.239 183 143 183Z" stroke="#3B6D11" stroke-width="1.2"/>
<path d="M141 178.286L142.455 180L145 177" stroke="#3B6D11" stroke-width="1.2" stroke-linecap="round" stroke-linejoin="round"/>
<path d="M130.255 201L128.641 195.182H129.565L130.698 199.688H130.752L131.931 195.182H132.846L134.025 199.69H134.079L135.21 195.182H136.136L134.519 201H133.636L132.411 196.642H132.366L131.141 201H130.255ZM136.928 201H135.996L138.089 195.182H139.104L141.197 201H140.266L138.621 196.239H138.575L136.928 201ZM137.084 198.722H140.107V199.46H137.084V198.722ZM144.155 201V195.182H146.229C146.681 195.182 147.056 195.264 147.354 195.429C147.651 195.594 147.874 195.819 148.021 196.105C148.169 196.389 148.243 196.709 148.243 197.065C148.243 197.423 148.168 197.745 148.018 198.031C147.871 198.315 147.647 198.541 147.348 198.707C147.051 198.872 146.677 198.955 146.226 198.955H144.8V198.21H146.146C146.432 198.21 146.664 198.161 146.842 198.062C147.02 197.962 147.151 197.826 147.234 197.653C147.318 197.481 147.359 197.285 147.359 197.065C147.359 196.846 147.318 196.651 147.234 196.48C147.151 196.31 147.019 196.176 146.839 196.08C146.661 195.983 146.427 195.935 146.135 195.935H145.033V201H144.155ZM150.435 201.097C150.158 201.097 149.908 201.045 149.685 200.943C149.461 200.839 149.284 200.688 149.153 200.491C149.025 200.295 148.96 200.053 148.96 199.767C148.96 199.521 149.008 199.318 149.102 199.159C149.197 199 149.325 198.874 149.486 198.781C149.647 198.688 149.827 198.618 150.026 198.571C150.224 198.524 150.427 198.488 150.634 198.463C150.895 198.433 151.107 198.408 151.27 198.389C151.433 198.368 151.551 198.335 151.625 198.29C151.699 198.244 151.736 198.17 151.736 198.068V198.048C151.736 197.8 151.666 197.608 151.526 197.472C151.387 197.335 151.181 197.267 150.906 197.267C150.62 197.267 150.395 197.33 150.23 197.457C150.067 197.582 149.955 197.722 149.892 197.875L149.094 197.693C149.188 197.428 149.327 197.214 149.509 197.051C149.692 196.886 149.903 196.767 150.142 196.693C150.381 196.617 150.632 196.58 150.895 196.58C151.069 196.58 151.254 196.6 151.449 196.642C151.646 196.682 151.83 196.756 152 196.864C152.172 196.972 152.313 197.126 152.423 197.327C152.533 197.526 152.588 197.784 152.588 198.102V201H151.759V200.403H151.724C151.67 200.513 151.587 200.621 151.477 200.727C151.367 200.833 151.226 200.921 151.054 200.991C150.882 201.062 150.675 201.097 150.435 201.097ZM150.619 200.415C150.854 200.415 151.055 200.368 151.222 200.276C151.39 200.183 151.518 200.062 151.605 199.912C151.694 199.76 151.739 199.598 151.739 199.426V198.864C151.708 198.894 151.65 198.922 151.562 198.949C151.477 198.973 151.38 198.995 151.27 199.014C151.16 199.031 151.053 199.047 150.949 199.062C150.845 199.076 150.758 199.087 150.688 199.097C150.523 199.117 150.372 199.152 150.236 199.202C150.101 199.251 149.993 199.322 149.912 199.415C149.832 199.506 149.793 199.627 149.793 199.778C149.793 199.989 149.87 200.148 150.026 200.256C150.181 200.362 150.379 200.415 150.619 200.415ZM154.1 202.636C153.973 202.636 153.858 202.626 153.754 202.605C153.649 202.586 153.572 202.565 153.521 202.543L153.725 201.847C153.88 201.888 154.019 201.906 154.14 201.901C154.261 201.895 154.368 201.849 154.461 201.764C154.556 201.679 154.639 201.54 154.711 201.347L154.816 201.057L153.219 196.636H154.129L155.234 200.023H155.279L156.384 196.636H157.296L155.498 201.582C155.415 201.81 155.308 202.002 155.18 202.159C155.051 202.318 154.897 202.438 154.719 202.517C154.541 202.597 154.335 202.636 154.1 202.636Z" fill="#128C7E"/>
<path d="M220 220H72C67.0294 220 63 224.029 63 229V241C63 245.971 67.0294 250 72 250H220C224.971 250 229 245.971 229 241V229C229 224.029 224.971 220 220 220Z" fill="#25D366"/>
<path d="M113.93 239.5V230.409H117.171C117.878 230.409 118.464 230.538 118.929 230.795C119.393 231.053 119.741 231.405 119.972 231.852C120.203 232.296 120.318 232.796 120.318 233.352C120.318 233.911 120.201 234.414 119.967 234.861C119.737 235.305 119.387 235.657 118.92 235.918C118.455 236.175 117.871 236.304 117.166 236.304H114.938V235.141H117.042C117.489 235.141 117.851 235.064 118.13 234.91C118.408 234.753 118.612 234.54 118.742 234.271C118.872 234.002 118.938 233.695 118.938 233.352C118.938 233.009 118.872 232.704 118.742 232.438C118.612 232.171 118.406 231.963 118.125 231.812C117.847 231.661 117.48 231.585 117.024 231.585H115.302V239.5H113.93ZM123.743 239.651C123.311 239.651 122.92 239.571 122.571 239.411C122.222 239.248 121.945 239.013 121.741 238.705C121.539 238.398 121.439 238.02 121.439 237.574C121.439 237.189 121.513 236.872 121.661 236.624C121.809 236.375 122.008 236.178 122.26 236.033C122.512 235.888 122.793 235.779 123.103 235.705C123.414 235.631 123.731 235.575 124.053 235.536C124.462 235.489 124.793 235.45 125.048 235.421C125.302 235.388 125.487 235.336 125.603 235.265C125.718 235.194 125.776 235.079 125.776 234.919V234.888C125.776 234.5 125.666 234.2 125.447 233.987C125.231 233.774 124.909 233.667 124.479 233.667C124.033 233.667 123.68 233.766 123.423 233.965C123.169 234.16 122.992 234.377 122.895 234.617L121.647 234.333C121.795 233.919 122.011 233.584 122.296 233.33C122.583 233.072 122.913 232.886 123.285 232.771C123.658 232.652 124.05 232.593 124.462 232.593C124.734 232.593 125.023 232.626 125.327 232.691C125.635 232.753 125.922 232.868 126.188 233.037C126.458 233.206 126.678 233.447 126.85 233.76C127.022 234.071 127.107 234.475 127.107 234.972V239.5H125.811V238.568H125.758C125.672 238.739 125.543 238.908 125.372 239.074C125.2 239.24 124.98 239.377 124.71 239.487C124.441 239.596 124.118 239.651 123.743 239.651ZM124.031 238.586C124.398 238.586 124.712 238.513 124.972 238.368C125.236 238.223 125.435 238.034 125.571 237.8C125.711 237.563 125.78 237.31 125.78 237.041V236.162C125.733 236.209 125.641 236.254 125.505 236.295C125.372 236.334 125.219 236.368 125.048 236.397C124.876 236.424 124.709 236.449 124.546 236.473C124.383 236.493 124.247 236.511 124.138 236.526C123.88 236.558 123.645 236.613 123.432 236.69C123.222 236.767 123.053 236.878 122.926 237.023C122.802 237.165 122.739 237.355 122.739 237.591C122.739 237.92 122.861 238.168 123.103 238.337C123.346 238.503 123.655 238.586 124.031 238.586ZM129.47 242.057C129.272 242.057 129.091 242.041 128.928 242.008C128.766 241.978 128.644 241.946 128.564 241.91L128.884 240.823C129.127 240.888 129.343 240.916 129.532 240.907C129.721 240.898 129.889 240.827 130.034 240.694C130.182 240.561 130.312 240.343 130.424 240.042L130.589 239.589L128.094 232.682H129.514L131.241 237.973H131.312L133.039 232.682H134.464L131.654 240.41C131.524 240.765 131.358 241.065 131.157 241.311C130.956 241.56 130.716 241.746 130.438 241.87C130.159 241.995 129.837 242.057 129.47 242.057ZM144.643 232.593L144.333 233.689H138.513L138.824 232.593H144.643ZM141.811 239.5L138.633 235.643L138.624 234.777H140.2C140.594 234.777 140.926 234.716 141.199 234.595C141.471 234.474 141.678 234.298 141.82 234.067C141.962 233.833 142.033 233.549 142.033 233.214C142.033 232.717 141.885 232.322 141.589 232.029C141.293 231.736 140.83 231.59 140.2 231.59H138.513L138.837 230.409H140.2C140.934 230.409 141.539 230.526 142.015 230.76C142.492 230.994 142.847 231.318 143.081 231.732C143.315 232.146 143.431 232.624 143.431 233.166C143.431 233.648 143.335 234.085 143.143 234.475C142.951 234.866 142.644 235.184 142.224 235.43C141.804 235.675 141.252 235.819 140.568 235.86L140.528 235.869L143.431 239.425V239.5H141.811ZM144.648 230.409L144.333 231.514L139.681 231.488L139.996 230.409H144.648ZM149.335 230.409V239.5H147.959V231.785H147.906L145.731 233.206V231.892L147.999 230.409H149.335ZM153.014 238.257L152.947 238.741C152.903 239.096 152.828 239.466 152.721 239.851C152.617 240.238 152.509 240.598 152.397 240.929C152.287 241.261 152.197 241.524 152.126 241.719H151.185C151.224 241.536 151.277 241.287 151.345 240.974C151.413 240.663 151.48 240.315 151.545 239.931C151.61 239.546 151.659 239.154 151.691 238.754L151.736 238.257H153.014ZM154.68 237.724V236.615L158.608 230.409H159.483V232.043H158.928L156.118 236.49V236.561H161.502V237.724H154.68ZM158.99 239.5V237.387L158.999 236.881V230.409H160.299V239.5H158.99ZM166.072 230.285C166.478 230.288 166.877 230.362 167.271 230.507C167.664 230.652 168.019 230.888 168.336 231.217C168.656 231.545 168.91 231.989 169.1 232.549C169.292 233.105 169.39 233.797 169.392 234.626C169.392 235.422 169.313 236.131 169.153 236.752C168.993 237.371 168.764 237.893 168.465 238.319C168.169 238.745 167.809 239.069 167.386 239.291C166.963 239.513 166.486 239.624 165.957 239.624C165.415 239.624 164.934 239.518 164.514 239.305C164.094 239.092 163.752 238.797 163.489 238.421C163.225 238.043 163.061 237.608 162.996 237.116H164.35C164.439 237.507 164.619 237.824 164.891 238.066C165.167 238.306 165.522 238.426 165.957 238.426C166.623 238.426 167.142 238.136 167.515 237.556C167.888 236.973 168.076 236.159 168.079 235.114H168.008C167.854 235.369 167.661 235.588 167.43 235.771C167.203 235.955 166.947 236.097 166.663 236.197C166.378 236.298 166.075 236.348 165.753 236.348C165.229 236.348 164.752 236.22 164.323 235.962C163.894 235.705 163.552 235.351 163.298 234.901C163.043 234.451 162.916 233.938 162.916 233.361C162.916 232.787 163.046 232.266 163.307 231.798C163.57 231.331 163.937 230.961 164.408 230.689C164.881 230.414 165.436 230.279 166.072 230.285ZM166.077 231.439C165.73 231.439 165.418 231.525 165.14 231.696C164.865 231.865 164.647 232.094 164.487 232.384C164.328 232.671 164.248 232.991 164.248 233.343C164.248 233.695 164.325 234.015 164.479 234.302C164.635 234.586 164.849 234.812 165.118 234.981C165.39 235.147 165.701 235.23 166.05 235.23C166.31 235.23 166.553 235.179 166.778 235.079C167.003 234.978 167.2 234.839 167.368 234.662C167.537 234.481 167.669 234.277 167.763 234.049C167.858 233.821 167.905 233.581 167.905 233.33C167.905 232.996 167.826 232.685 167.666 232.398C167.509 232.111 167.293 231.88 167.018 231.705C166.742 231.528 166.429 231.439 166.077 231.439ZM174.019 230.285C174.424 230.288 174.824 230.362 175.217 230.507C175.611 230.652 175.966 230.888 176.283 231.217C176.602 231.545 176.857 231.989 177.046 232.549C177.239 233.105 177.336 233.797 177.339 234.626C177.339 235.422 177.259 236.131 177.1 236.752C176.94 237.371 176.71 237.893 176.412 238.319C176.116 238.745 175.756 239.069 175.333 239.291C174.91 239.513 174.433 239.624 173.904 239.624C173.362 239.624 172.881 239.518 172.461 239.305C172.041 239.092 171.699 238.797 171.436 238.421C171.172 238.043 171.008 237.608 170.943 237.116H172.297C172.385 237.507 172.566 237.824 172.838 238.066C173.113 238.306 173.469 238.426 173.904 238.426C174.569 238.426 175.089 238.136 175.462 237.556C175.834 236.973 176.022 236.159 176.025 235.114H175.954C175.8 235.369 175.608 235.588 175.377 235.771C175.149 235.955 174.893 236.097 174.609 236.197C174.325 236.298 174.022 236.348 173.699 236.348C173.176 236.348 172.699 236.22 172.27 235.962C171.841 235.705 171.499 235.351 171.245 234.901C170.99 234.451 170.863 233.938 170.863 233.361C170.863 232.787 170.993 232.266 171.254 231.798C171.517 231.331 171.884 230.961 172.354 230.689C172.828 230.414 173.383 230.279 174.019 230.285ZM174.023 231.439C173.677 231.439 173.365 231.525 173.087 231.696C172.812 231.865 172.594 232.094 172.434 232.384C172.274 232.671 172.195 232.991 172.195 233.343C172.195 233.695 172.271 234.015 172.425 234.302C172.582 234.586 172.795 234.812 173.065 234.981C173.337 235.147 173.648 235.23 173.997 235.23C174.257 235.23 174.5 235.179 174.725 235.079C174.95 234.978 175.146 234.839 175.315 234.662C175.484 234.481 175.615 234.277 175.71 234.049C175.805 233.821 175.852 233.581 175.852 233.33C175.852 232.996 175.772 232.685 175.613 232.398C175.456 232.111 175.24 231.88 174.964 231.705C174.689 231.528 174.376 231.439 174.023 231.439Z" fill="white"/>
<path d="M409 59H257C250.373 59 245 64.8449 245 72.0549V243.945C245 251.155 250.373 257 257 257H409C415.627 257 421 251.155 421 243.945V72.0549C421 64.8449 415.627 59 409 59Z" fill="#F8FAFC" stroke="#E2E8F0" stroke-width="0.75"/>
<path d="M409 59H257C250.373 59 245 64.3726 245 71V81C245 87.6274 250.373 93 257 93H409C415.627 93 421 87.6274 421 81V71C421 64.3726 415.627 59 409 59Z" fill="#128C7E"/>
<path d="M421 77H245V93H421V77Z" fill="#128C7E"/>
<path d="M257.013 80V71.6364H259.839C260.495 71.6364 261.031 71.7548 261.448 71.9917C261.867 72.2258 262.177 72.543 262.379 72.9432C262.58 73.3434 262.681 73.7899 262.681 74.2827C262.681 74.7754 262.58 75.2233 262.379 75.6262C262.18 76.0292 261.873 76.3504 261.456 76.59C261.039 76.8269 260.506 76.9453 259.855 76.9453H257.83V76.0469H259.822C260.272 76.0469 260.632 75.9693 260.905 75.8141C261.177 75.6589 261.374 75.4493 261.497 75.1852C261.622 74.9184 261.685 74.6175 261.685 74.2827C261.685 73.9478 261.622 73.6483 261.497 73.3842C261.374 73.1201 261.176 72.9132 260.901 72.7635C260.626 72.611 260.261 72.5348 259.806 72.5348H258.026V80H257.013ZM266.028 80.147C265.63 80.147 265.27 80.0721 264.946 79.9224C264.622 79.7699 264.364 79.5508 264.174 79.2649C263.983 78.9763 263.888 78.6278 263.888 78.2195C263.888 77.8601 263.959 77.5688 264.1 77.3455C264.242 77.1196 264.431 76.9426 264.668 76.8146C264.905 76.6867 265.166 76.5914 265.452 76.5288C265.741 76.4634 266.031 76.4117 266.322 76.3736C266.703 76.3246 267.012 76.2878 267.249 76.2633C267.488 76.2361 267.663 76.1912 267.772 76.1286C267.883 76.0659 267.939 75.957 267.939 75.8018V75.7692C267.939 75.3662 267.829 75.0531 267.608 74.8299C267.39 74.6067 267.06 74.495 266.616 74.495C266.156 74.495 265.795 74.5958 265.534 74.7972C265.272 74.9987 265.089 75.2138 264.982 75.4425L264.068 75.1158C264.231 74.7346 264.449 74.4379 264.721 74.2255C264.996 74.0104 265.295 73.8607 265.619 73.7763C265.946 73.6892 266.267 73.6456 266.583 73.6456C266.785 73.6456 267.016 73.6701 267.277 73.7191C267.542 73.7654 267.796 73.862 268.041 74.0091C268.289 74.1561 268.494 74.378 268.658 74.6747C268.821 74.9715 268.903 75.369 268.903 75.8672V80H267.939V79.1506H267.89C267.825 79.2867 267.716 79.4324 267.563 79.5875C267.411 79.7427 267.208 79.8748 266.955 79.9837C266.702 80.0926 266.393 80.147 266.028 80.147ZM266.175 79.2812C266.556 79.2812 266.877 79.2064 267.139 79.0566C267.403 78.9069 267.601 78.7136 267.735 78.4767C267.871 78.2399 267.939 77.9908 267.939 77.7294V76.8473C267.898 76.8963 267.808 76.9412 267.669 76.9821C267.533 77.0202 267.375 77.0542 267.196 77.0842C267.019 77.1114 266.846 77.1359 266.677 77.1577C266.511 77.1767 266.376 77.1931 266.273 77.2067C266.022 77.2393 265.788 77.2924 265.57 77.3659C265.355 77.4367 265.181 77.5443 265.048 77.6886C264.917 77.8301 264.852 78.0234 264.852 78.2685C264.852 78.6033 264.976 78.8565 265.223 79.0281C265.474 79.1969 265.791 79.2812 266.175 79.2812ZM271.058 82.3523C270.895 82.3523 270.749 82.3387 270.621 82.3114C270.493 82.2869 270.405 82.2624 270.356 82.2379L270.601 81.3885C270.835 81.4484 271.042 81.4702 271.221 81.4538C271.401 81.4375 271.56 81.3572 271.699 81.2129C271.841 81.0713 271.97 80.8413 272.087 80.5227L272.267 80.0327L269.947 73.7273H270.993L272.724 78.7259H272.79L274.521 73.7273H275.567L272.904 80.9148C272.784 81.2388 272.636 81.5069 272.459 81.7193C272.282 81.9344 272.076 82.0936 271.842 82.1971C271.611 82.3005 271.349 82.3523 271.058 82.3523ZM276.839 80V73.7273H277.77V74.7074H277.851C277.982 74.3725 278.193 74.1125 278.484 73.9274C278.776 73.7395 279.126 73.6456 279.534 73.6456C279.948 73.6456 280.292 73.7395 280.567 73.9274C280.845 74.1125 281.061 74.3725 281.216 74.7074H281.282C281.442 74.3834 281.683 74.1261 282.005 73.9355C282.326 73.7422 282.711 73.6456 283.16 73.6456C283.721 73.6456 284.18 73.8212 284.537 74.1724C284.893 74.5209 285.072 75.064 285.072 75.8018V80H284.108V75.8018C284.108 75.339 283.981 75.0082 283.728 74.8095C283.475 74.6107 283.177 74.5114 282.834 74.5114C282.393 74.5114 282.051 74.6448 281.809 74.9116C281.566 75.1757 281.445 75.5105 281.445 75.9162V80H280.465V75.7038C280.465 75.3472 280.349 75.06 280.118 74.8422C279.887 74.6216 279.588 74.5114 279.224 74.5114C278.973 74.5114 278.739 74.5781 278.521 74.7115C278.306 74.8449 278.132 75.03 277.998 75.2669C277.868 75.501 277.802 75.7719 277.802 76.0795V80H276.839ZM289.464 80.1307C288.859 80.1307 288.338 79.9973 287.9 79.7305C287.464 79.4609 287.128 79.0852 286.891 78.6033C286.657 78.1187 286.54 77.5552 286.54 76.9126C286.54 76.2701 286.657 75.7038 286.891 75.2138C287.128 74.721 287.457 74.3371 287.879 74.0621C288.304 73.7844 288.799 73.6456 289.366 73.6456C289.692 73.6456 290.015 73.7 290.334 73.8089C290.652 73.9179 290.942 74.0948 291.203 74.3398C291.465 74.5821 291.673 74.9034 291.828 75.3036C291.983 75.7038 292.061 76.1966 292.061 76.782V77.1903H287.226V76.3572H291.081C291.081 76.0033 291.01 75.6875 290.869 75.4098C290.73 75.1321 290.531 74.9129 290.272 74.7523C290.016 74.5917 289.714 74.5114 289.366 74.5114C288.982 74.5114 288.65 74.6067 288.369 74.7972C288.092 74.9851 287.878 75.2301 287.728 75.5323C287.578 75.8345 287.504 76.1585 287.504 76.5043V77.0597C287.504 77.5334 287.585 77.935 287.749 78.2644C287.915 78.5911 288.145 78.8402 288.439 79.0117C288.733 79.1805 289.074 79.2649 289.464 79.2649C289.717 79.2649 289.946 79.2295 290.15 79.1587C290.357 79.0852 290.535 78.9763 290.685 78.832C290.835 78.685 290.95 78.5026 291.032 78.2848L291.963 78.5462C291.865 78.862 291.7 79.1397 291.469 79.3793C291.237 79.6161 290.952 79.8013 290.611 79.9347C290.271 80.0653 289.888 80.1307 289.464 80.1307ZM294.491 76.2266V80H293.527V73.7273H294.458V74.7074H294.54C294.687 74.3888 294.91 74.1329 295.21 73.9396C295.509 73.7436 295.896 73.6456 296.369 73.6456C296.794 73.6456 297.166 73.7327 297.484 73.907C297.803 74.0785 298.051 74.3398 298.228 74.6911C298.405 75.0395 298.493 75.4806 298.493 76.0142V80H297.529V76.0795C297.529 75.5868 297.401 75.2029 297.145 74.9279C296.889 74.6502 296.538 74.5114 296.092 74.5114C295.784 74.5114 295.509 74.5781 295.267 74.7115C295.027 74.8449 294.838 75.0395 294.699 75.2955C294.56 75.5514 294.491 75.8617 294.491 76.2266ZM302.982 73.7273V74.544H299.731V73.7273H302.982ZM300.679 72.2244H301.643V78.2031C301.643 78.4754 301.682 78.6796 301.761 78.8157C301.843 78.9491 301.946 79.0389 302.071 79.0852C302.199 79.1288 302.334 79.1506 302.476 79.1506C302.582 79.1506 302.669 79.1451 302.737 79.1342C302.805 79.1206 302.86 79.1097 302.9 79.1016L303.097 79.9673C303.031 79.9918 302.94 80.0163 302.823 80.0408C302.706 80.0681 302.557 80.0817 302.378 80.0817C302.105 80.0817 301.839 80.0231 301.577 79.9061C301.319 79.789 301.104 79.6107 300.932 79.3711C300.763 79.1315 300.679 78.8293 300.679 78.4645V72.2244ZM307.666 80V73.7273H308.597V74.6747H308.663C308.777 74.3643 308.984 74.1125 309.283 73.9192C309.583 73.7259 309.921 73.6293 310.296 73.6293C310.367 73.6293 310.456 73.6306 310.562 73.6333C310.668 73.6361 310.748 73.6402 310.803 73.6456V74.6257C310.77 74.6175 310.695 74.6053 310.578 74.589C310.464 74.5699 310.343 74.5604 310.215 74.5604C309.91 74.5604 309.637 74.6243 309.398 74.7523C309.161 74.8775 308.973 75.0518 308.834 75.275C308.698 75.4956 308.63 75.7474 308.63 76.0305V80H307.666ZM314.384 80.1307C313.78 80.1307 313.258 79.9973 312.82 79.7305C312.384 79.4609 312.048 79.0852 311.811 78.6033C311.577 78.1187 311.46 77.5552 311.46 76.9126C311.46 76.2701 311.577 75.7038 311.811 75.2138C312.048 74.721 312.378 74.3371 312.8 74.0621C313.224 73.7844 313.72 73.6456 314.286 73.6456C314.613 73.6456 314.935 73.7 315.254 73.8089C315.573 73.9179 315.862 74.0948 316.124 74.3398C316.385 74.5821 316.593 74.9034 316.749 75.3036C316.904 75.7038 316.981 76.1966 316.981 76.782V77.1903H312.146V76.3572H316.001C316.001 76.0033 315.931 75.6875 315.789 75.4098C315.65 75.1321 315.451 74.9129 315.193 74.7523C314.937 74.5917 314.635 74.5114 314.286 74.5114C313.902 74.5114 313.57 74.6067 313.29 74.7972C313.012 74.9851 312.798 75.2301 312.649 75.5323C312.499 75.8345 312.424 76.1585 312.424 76.5043V77.0597C312.424 77.5334 312.506 77.935 312.669 78.2644C312.835 78.5911 313.065 78.8402 313.359 79.0117C313.653 79.1805 313.995 79.2649 314.384 79.2649C314.637 79.2649 314.866 79.2295 315.07 79.1587C315.277 79.0852 315.455 78.9763 315.605 78.832C315.755 78.685 315.871 78.5026 315.952 78.2848L316.883 78.5462C316.785 78.862 316.621 79.1397 316.389 79.3793C316.158 79.6161 315.872 79.8013 315.532 79.9347C315.191 80.0653 314.809 80.1307 314.384 80.1307ZM322.727 82.3523V79.0362H322.646C322.575 79.1506 322.474 79.2949 322.343 79.4691C322.213 79.6406 322.026 79.7944 321.784 79.9306C321.542 80.064 321.219 80.1307 320.816 80.1307C320.293 80.1307 319.832 79.9986 319.432 79.7346C319.032 79.4677 318.718 79.092 318.492 78.6074C318.266 78.1201 318.153 77.5443 318.153 76.88C318.153 76.2211 318.266 75.6494 318.492 75.1648C318.718 74.6802 319.033 74.3058 319.436 74.0417C319.839 73.7776 320.304 73.6456 320.832 73.6456C321.241 73.6456 321.563 73.7137 321.8 73.8498C322.04 73.9832 322.222 74.1357 322.348 74.3072C322.476 74.476 322.575 74.6148 322.646 74.7237H322.76V73.7273H323.691V82.3523H322.727ZM320.947 79.2649C321.333 79.2649 321.66 79.1642 321.927 78.9627C322.194 78.7585 322.397 78.4767 322.535 78.1174C322.674 77.7553 322.744 77.3374 322.744 76.8636C322.744 76.3954 322.676 75.9856 322.54 75.6344C322.403 75.2805 322.202 75.0055 321.935 74.8095C321.668 74.6107 321.339 74.5114 320.947 74.5114C320.538 74.5114 320.198 74.6162 319.926 74.8258C319.656 75.0327 319.454 75.3145 319.317 75.6712C319.184 76.0251 319.117 76.4226 319.117 76.8636C319.117 77.3101 319.185 77.7158 319.321 78.0806C319.46 78.4427 319.665 78.7313 319.934 78.9464C320.206 79.1587 320.544 79.2649 320.947 79.2649ZM329.408 77.4354V73.7273H330.372V80H329.408V78.9382H329.343C329.196 79.2567 328.967 79.5276 328.657 79.7509C328.347 79.9714 327.955 80.0817 327.481 80.0817C327.089 80.0817 326.74 79.9959 326.435 79.8244C326.131 79.6502 325.891 79.3888 325.717 79.0403C325.542 78.6891 325.455 78.2467 325.455 77.7131V73.7273H326.419V77.6477C326.419 78.1051 326.547 78.4699 326.803 78.7422C327.062 79.0144 327.391 79.1506 327.791 79.1506C328.031 79.1506 328.275 79.0893 328.522 78.9668C328.773 78.8443 328.982 78.6564 329.151 78.4032C329.323 78.15 329.408 77.8274 329.408 77.4354ZM334.767 80.1307C334.163 80.1307 333.642 79.9973 333.203 79.7305C332.768 79.4609 332.432 79.0852 332.195 78.6033C331.961 78.1187 331.843 77.5552 331.843 76.9126C331.843 76.2701 331.961 75.7038 332.195 75.2138C332.432 74.721 332.761 74.3371 333.183 74.0621C333.608 73.7844 334.103 73.6456 334.669 73.6456C334.996 73.6456 335.319 73.7 335.637 73.8089C335.956 73.9179 336.246 74.0948 336.507 74.3398C336.769 74.5821 336.977 74.9034 337.132 75.3036C337.287 75.7038 337.365 76.1966 337.365 76.782V77.1903H332.53V76.3572H336.385C336.385 76.0033 336.314 75.6875 336.172 75.4098C336.033 75.1321 335.835 74.9129 335.576 74.7523C335.32 74.5917 335.018 74.5114 334.669 74.5114C334.286 74.5114 333.953 74.6067 333.673 74.7972C333.395 74.9851 333.182 75.2301 333.032 75.5323C332.882 75.8345 332.807 76.1585 332.807 76.5043V77.0597C332.807 77.5334 332.889 77.935 333.052 78.2644C333.218 78.5911 333.448 78.8402 333.742 79.0117C334.036 79.1805 334.378 79.2649 334.767 79.2649C335.021 79.2649 335.249 79.2295 335.454 79.1587C335.66 79.0852 335.839 78.9763 335.989 78.832C336.138 78.685 336.254 78.5026 336.336 78.2848L337.267 78.5462C337.169 78.862 337.004 79.1397 336.773 79.3793C336.541 79.6161 336.255 79.8013 335.915 79.9347C335.575 80.0653 335.192 80.1307 334.767 80.1307ZM343.274 75.1321L342.408 75.3771C342.354 75.2328 342.273 75.0926 342.167 74.9565C342.064 74.8176 341.922 74.7033 341.743 74.6135C341.563 74.5236 341.333 74.4787 341.052 74.4787C340.669 74.4787 340.349 74.5672 340.093 74.7441C339.84 74.9184 339.713 75.1403 339.713 75.4098C339.713 75.6494 339.8 75.8386 339.974 75.9775C340.149 76.1163 340.421 76.232 340.791 76.3246L341.722 76.5533C342.283 76.6894 342.701 76.8977 342.976 77.1781C343.251 77.4558 343.388 77.8138 343.388 78.2521C343.388 78.6115 343.285 78.9328 343.078 79.2159C342.874 79.4991 342.588 79.7223 342.22 79.8857C341.853 80.049 341.425 80.1307 340.938 80.1307C340.298 80.1307 339.769 79.9918 339.349 79.7141C338.93 79.4364 338.665 79.0308 338.553 78.4972L339.468 78.2685C339.555 78.6061 339.72 78.8593 339.962 79.0281C340.207 79.1969 340.527 79.2812 340.922 79.2812C341.371 79.2812 341.728 79.186 341.992 78.9954C342.259 78.8021 342.392 78.5707 342.392 78.3011C342.392 78.0833 342.316 77.9009 342.163 77.7539C342.011 77.6042 341.777 77.4925 341.461 77.419L340.415 77.174C339.841 77.0379 339.419 76.8269 339.149 76.541C338.883 76.2524 338.749 75.8917 338.749 75.4588C338.749 75.1049 338.849 74.7918 339.047 74.5195C339.249 74.2473 339.522 74.0336 339.868 73.8784C340.217 73.7232 340.611 73.6456 341.052 73.6456C341.673 73.6456 342.16 73.7817 342.514 74.054C342.871 74.3262 343.124 74.6856 343.274 75.1321ZM347.567 73.7273V74.544H344.316V73.7273H347.567ZM345.264 72.2244H346.228V78.2031C346.228 78.4754 346.267 78.6796 346.346 78.8157C346.428 78.9491 346.531 79.0389 346.656 79.0852C346.784 79.1288 346.919 79.1506 347.061 79.1506C347.167 79.1506 347.254 79.1451 347.322 79.1342C347.39 79.1206 347.445 79.1097 347.485 79.1016L347.681 79.9673C347.616 79.9918 347.525 80.0163 347.408 80.0408C347.291 80.0681 347.142 80.0817 346.963 80.0817C346.69 80.0817 346.424 80.0231 346.162 79.9061C345.904 79.789 345.689 79.6107 345.517 79.3711C345.348 79.1315 345.264 78.8293 345.264 78.4645V72.2244Z" fill="white"/>
<path d="M385.886 81.6364C385.852 81.3485 385.714 81.125 385.472 80.9659C385.229 80.8068 384.932 80.7273 384.58 80.7273C384.322 80.7273 384.097 80.7689 383.903 80.8523C383.712 80.9356 383.563 81.0502 383.455 81.196C383.348 81.3419 383.295 81.5076 383.295 81.6932C383.295 81.8485 383.332 81.982 383.406 82.0938C383.482 82.2036 383.579 82.2955 383.696 82.3693C383.813 82.4413 383.937 82.5009 384.065 82.5483C384.194 82.5937 384.312 82.6307 384.42 82.6591L385.011 82.8182C385.163 82.858 385.331 82.9129 385.517 82.983C385.705 83.053 385.884 83.1487 386.054 83.2699C386.226 83.3892 386.368 83.5426 386.48 83.7301C386.592 83.9176 386.648 84.1477 386.648 84.4205C386.648 84.7348 386.565 85.0189 386.401 85.2727C386.238 85.5265 385.999 85.7282 385.685 85.8778C385.372 86.0275 384.992 86.1023 384.545 86.1023C384.129 86.1023 383.768 86.035 383.463 85.9006C383.16 85.7661 382.921 85.5786 382.747 85.3381C382.575 85.0975 382.477 84.8182 382.455 84.5H383.182C383.201 84.7197 383.275 84.9015 383.403 85.0455C383.534 85.1875 383.699 85.2936 383.898 85.3636C384.098 85.4318 384.314 85.4659 384.545 85.4659C384.814 85.4659 385.056 85.4223 385.27 85.3352C385.484 85.2462 385.653 85.1231 385.778 84.9659C385.903 84.8068 385.966 84.6212 385.966 84.4091C385.966 84.2159 385.912 84.0587 385.804 83.9375C385.696 83.8163 385.554 83.7178 385.378 83.642C385.202 83.5663 385.011 83.5 384.807 83.4432L384.091 83.2386C383.636 83.108 383.277 82.9214 383.011 82.679C382.746 82.4366 382.614 82.1193 382.614 81.7273C382.614 81.4015 382.702 81.1174 382.878 80.875C383.056 80.6307 383.295 80.4413 383.594 80.3068C383.895 80.1705 384.231 80.1023 384.602 80.1023C384.977 80.1023 385.311 80.1695 385.602 80.304C385.894 80.4366 386.125 80.6184 386.295 80.8494C386.468 81.0805 386.559 81.3428 386.568 81.6364H385.886ZM389.545 86.0909C389.124 86.0909 388.762 85.9981 388.457 85.8125C388.154 85.625 387.92 85.3636 387.755 85.0284C387.592 84.6913 387.511 84.2992 387.511 83.8523C387.511 83.4053 387.592 83.0114 387.755 82.6705C387.92 82.3277 388.149 82.0606 388.442 81.8693C388.738 81.6761 389.083 81.5795 389.477 81.5795C389.704 81.5795 389.928 81.6174 390.15 81.6932C390.371 81.7689 390.573 81.892 390.755 82.0625C390.937 82.2311 391.082 82.4545 391.19 82.733C391.298 83.0114 391.352 83.3542 391.352 83.7614V84.0455H387.988V83.4659H390.67C390.67 83.2197 390.621 83 390.522 82.8068C390.425 82.6136 390.287 82.4612 390.107 82.3494C389.929 82.2377 389.719 82.1818 389.477 82.1818C389.21 82.1818 388.978 82.2481 388.783 82.3807C388.59 82.5114 388.442 82.6818 388.337 82.892C388.233 83.1023 388.181 83.3277 388.181 83.5682V83.9545C388.181 84.2841 388.238 84.5634 388.352 84.7926C388.467 85.0199 388.627 85.1932 388.832 85.3125C389.036 85.4299 389.274 85.4886 389.545 85.4886C389.721 85.4886 389.88 85.464 390.022 85.4148C390.166 85.3636 390.29 85.2879 390.394 85.1875C390.498 85.0852 390.579 84.9583 390.636 84.8068L391.283 84.9886C391.215 85.2083 391.101 85.4015 390.94 85.5682C390.779 85.733 390.58 85.8617 390.343 85.9545C390.106 86.0455 389.84 86.0909 389.545 86.0909ZM394.144 86.0909C393.735 86.0909 393.383 85.9943 393.087 85.8011C392.792 85.608 392.565 85.3419 392.406 85.0028C392.246 84.6638 392.167 84.2765 392.167 83.8409C392.167 83.3977 392.248 83.0066 392.411 82.6676C392.576 82.3267 392.805 82.0606 393.099 81.8693C393.394 81.6761 393.739 81.5795 394.133 81.5795C394.44 81.5795 394.716 81.6364 394.962 81.75C395.209 81.8636 395.41 82.0227 395.567 82.2273C395.725 82.4318 395.822 82.6705 395.86 82.9432H395.19C395.138 82.7443 395.025 82.5682 394.849 82.4148C394.674 82.2595 394.44 82.1818 394.144 82.1818C393.883 82.1818 393.654 82.25 393.457 82.3864C393.262 82.5208 393.109 82.7112 392.999 82.9574C392.891 83.2017 392.837 83.4886 392.837 83.8182C392.837 84.1553 392.89 84.4489 392.996 84.6989C393.104 84.9489 393.256 85.143 393.451 85.2812C393.648 85.4195 393.879 85.4886 394.144 85.4886C394.318 85.4886 394.477 85.4583 394.619 85.3977C394.761 85.3371 394.881 85.25 394.979 85.1364C395.078 85.0227 395.148 84.8864 395.19 84.7273H395.86C395.822 84.9848 395.728 85.2169 395.579 85.4233C395.431 85.6278 395.235 85.7907 394.991 85.9119C394.748 86.0312 394.466 86.0909 394.144 86.0909ZM399.59 84.2159V81.6364H400.261V86H399.59V85.2614H399.545C399.442 85.483 399.283 85.6714 399.067 85.8267C398.852 85.9801 398.579 86.0568 398.249 86.0568C397.977 86.0568 397.734 85.9972 397.522 85.8778C397.31 85.7566 397.143 85.5748 397.022 85.3324C396.901 85.0881 396.84 84.7803 396.84 84.4091V81.6364H397.511V84.3636C397.511 84.6818 397.6 84.9356 397.778 85.125C397.958 85.3144 398.187 85.4091 398.465 85.4091C398.632 85.4091 398.801 85.3665 398.974 85.2812C399.148 85.196 399.294 85.0653 399.411 84.8892C399.531 84.7131 399.59 84.4886 399.59 84.2159ZM401.489 86V81.6364H402.136V82.2955H402.182C402.261 82.0795 402.405 81.9044 402.614 81.7699C402.822 81.6354 403.057 81.5682 403.318 81.5682C403.367 81.5682 403.429 81.5691 403.503 81.571C403.577 81.5729 403.633 81.5758 403.67 81.5795V82.2614C403.648 82.2557 403.596 82.2472 403.514 82.2358C403.435 82.2225 403.35 82.2159 403.261 82.2159C403.049 82.2159 402.86 82.2604 402.693 82.3494C402.528 82.4366 402.398 82.5578 402.301 82.7131C402.206 82.8665 402.159 83.0417 402.159 83.2386V86H401.489ZM406.162 86.0909C405.741 86.0909 405.379 85.9981 405.074 85.8125C404.771 85.625 404.537 85.3636 404.372 85.0284C404.209 84.6913 404.128 84.2992 404.128 83.8523C404.128 83.4053 404.209 83.0114 404.372 82.6705C404.537 82.3277 404.766 82.0606 405.06 81.8693C405.355 81.6761 405.7 81.5795 406.094 81.5795C406.321 81.5795 406.545 81.6174 406.767 81.6932C406.989 81.7689 407.19 81.892 407.372 82.0625C407.554 82.2311 407.699 82.4545 407.807 82.733C407.915 83.0114 407.969 83.3542 407.969 83.7614V84.0455H404.605V83.4659H407.287C407.287 83.2197 407.238 83 407.139 82.8068C407.043 82.6136 406.904 82.4612 406.724 82.3494C406.546 82.2377 406.336 82.1818 406.094 82.1818C405.827 82.1818 405.596 82.2481 405.401 82.3807C405.207 82.5114 405.059 82.6818 404.955 82.892C404.85 83.1023 404.798 83.3277 404.798 83.5682V83.9545C404.798 84.2841 404.855 84.5634 404.969 84.7926C405.084 85.0199 405.244 85.1932 405.449 85.3125C405.653 85.4299 405.891 85.4886 406.162 85.4886C406.338 85.4886 406.497 85.464 406.639 85.4148C406.783 85.3636 406.907 85.2879 407.011 85.1875C407.116 85.0852 407.196 84.9583 407.253 84.8068L407.901 84.9886C407.832 85.2083 407.718 85.4015 407.557 85.5682C407.396 85.733 407.197 85.8617 406.96 85.9545C406.723 86.0455 406.457 86.0909 406.162 86.0909Z" fill="white" fill-opacity="0.7"/>
<path d="M314.759 113.844L314.212 115.773H303.97L304.517 113.844H314.759ZM309.774 126L304.181 119.211L304.165 117.688H306.938C307.631 117.688 308.217 117.581 308.696 117.367C309.175 117.154 309.54 116.844 309.79 116.437C310.04 116.026 310.165 115.526 310.165 114.937C310.165 114.062 309.905 113.367 309.384 112.852C308.863 112.336 308.048 112.078 306.938 112.078H303.97L304.54 110H306.938C308.23 110 309.295 110.206 310.134 110.617C310.972 111.029 311.597 111.599 312.009 112.328C312.42 113.057 312.626 113.898 312.626 114.852C312.626 115.701 312.457 116.469 312.118 117.156C311.78 117.844 311.241 118.404 310.501 118.836C309.761 119.268 308.79 119.521 307.587 119.594L307.517 119.609L312.626 125.867V126H309.774ZM314.767 110L314.212 111.945L306.024 111.898L306.579 110H314.767ZM322.353 126.219C321.233 126.219 320.243 126.026 319.384 125.641C318.53 125.255 317.86 124.724 317.376 124.047C316.892 123.37 316.652 122.599 316.657 121.734C316.652 121.057 316.79 120.435 317.071 119.867C317.358 119.294 317.746 118.818 318.235 118.438C318.725 118.052 319.272 117.807 319.876 117.703V117.609C319.079 117.417 318.441 116.99 317.962 116.328C317.483 115.667 317.246 114.906 317.251 114.047C317.246 113.229 317.462 112.5 317.899 111.859C318.342 111.214 318.949 110.706 319.72 110.336C320.491 109.966 321.368 109.781 322.353 109.781C323.326 109.781 324.196 109.969 324.962 110.344C325.733 110.714 326.34 111.221 326.782 111.867C327.225 112.508 327.449 113.234 327.454 114.047C327.449 114.906 327.204 115.667 326.72 116.328C326.235 116.99 325.605 117.417 324.829 117.609V117.703C325.428 117.807 325.967 118.052 326.446 118.438C326.931 118.818 327.316 119.294 327.603 119.867C327.894 120.435 328.043 121.057 328.048 121.734C328.043 122.599 327.798 123.37 327.313 124.047C326.829 124.724 326.157 125.255 325.298 125.641C324.444 126.026 323.462 126.219 322.353 126.219ZM322.353 124.242C323.014 124.242 323.587 124.133 324.071 123.914C324.556 123.69 324.931 123.38 325.196 122.984C325.462 122.583 325.597 122.115 325.603 121.578C325.597 121.021 325.451 120.529 325.165 120.102C324.884 119.674 324.501 119.339 324.017 119.094C323.532 118.849 322.978 118.727 322.353 118.727C321.722 118.727 321.162 118.849 320.673 119.094C320.183 119.339 319.798 119.674 319.517 120.102C319.235 120.529 319.097 121.021 319.103 121.578C319.097 122.115 319.225 122.583 319.485 122.984C319.751 123.38 320.129 123.69 320.618 123.914C321.108 124.133 321.686 124.242 322.353 124.242ZM322.353 116.797C322.884 116.797 323.355 116.69 323.767 116.477C324.178 116.263 324.501 115.966 324.735 115.586C324.975 115.206 325.097 114.76 325.103 114.25C325.097 113.75 324.978 113.313 324.743 112.938C324.514 112.562 324.194 112.273 323.782 112.07C323.371 111.862 322.894 111.758 322.353 111.758C321.8 111.758 321.316 111.862 320.899 112.07C320.488 112.273 320.168 112.562 319.938 112.938C319.709 113.313 319.597 113.75 319.603 114.25C319.597 114.76 319.712 115.206 319.946 115.586C320.181 115.966 320.504 116.263 320.915 116.477C321.332 116.69 321.811 116.797 322.353 116.797ZM336.417 126.266C335.183 126.26 334.128 125.935 333.253 125.289C332.378 124.643 331.709 123.703 331.245 122.469C330.782 121.234 330.55 119.747 330.55 118.008C330.55 116.273 330.782 114.792 331.245 113.562C331.714 112.333 332.386 111.396 333.261 110.75C334.141 110.104 335.193 109.781 336.417 109.781C337.641 109.781 338.69 110.107 339.565 110.758C340.44 111.404 341.11 112.341 341.573 113.57C342.042 114.794 342.276 116.273 342.276 118.008C342.276 119.753 342.045 121.242 341.581 122.477C341.118 123.706 340.448 124.646 339.573 125.297C338.698 125.943 337.646 126.266 336.417 126.266ZM336.417 124.18C337.5 124.18 338.347 123.651 338.956 122.594C339.571 121.536 339.878 120.008 339.878 118.008C339.878 116.68 339.737 115.557 339.456 114.641C339.18 113.719 338.782 113.021 338.261 112.547C337.745 112.068 337.131 111.828 336.417 111.828C335.339 111.828 334.493 112.359 333.878 113.422C333.263 114.484 332.953 116.013 332.948 118.008C332.948 119.341 333.086 120.469 333.362 121.391C333.644 122.307 334.042 123.003 334.558 123.477C335.073 123.945 335.693 124.18 336.417 124.18ZM350.618 126.266C349.384 126.26 348.329 125.935 347.454 125.289C346.579 124.643 345.91 123.703 345.446 122.469C344.983 121.234 344.751 119.747 344.751 118.008C344.751 116.273 344.983 114.792 345.446 113.562C345.915 112.333 346.587 111.396 347.462 110.75C348.342 110.104 349.394 109.781 350.618 109.781C351.842 109.781 352.892 110.107 353.767 110.758C354.642 111.404 355.311 112.341 355.774 113.57C356.243 114.794 356.478 116.273 356.478 118.008C356.478 119.753 356.246 121.242 355.782 122.477C355.319 123.706 354.649 124.646 353.774 125.297C352.899 125.943 351.847 126.266 350.618 126.266ZM350.618 124.18C351.701 124.18 352.548 123.651 353.157 122.594C353.772 121.536 354.079 120.008 354.079 118.008C354.079 116.68 353.938 115.557 353.657 114.641C353.381 113.719 352.983 113.021 352.462 112.547C351.946 112.068 351.332 111.828 350.618 111.828C349.54 111.828 348.694 112.359 348.079 113.422C347.465 114.484 347.155 116.013 347.149 118.008C347.149 119.341 347.287 120.469 347.563 121.391C347.845 122.307 348.243 123.003 348.759 123.477C349.274 123.945 349.894 124.18 350.618 124.18Z" fill="#0F172A"/>
<path d="M302.55 141C302.503 140.604 302.313 140.297 301.979 140.078C301.646 139.859 301.237 139.75 300.753 139.75C300.399 139.75 300.089 139.807 299.823 139.922C299.56 140.036 299.354 140.194 299.206 140.395C299.06 140.595 298.987 140.823 298.987 141.078C298.987 141.292 299.038 141.475 299.14 141.629C299.244 141.78 299.377 141.906 299.538 142.008C299.7 142.107 299.869 142.189 300.046 142.254C300.223 142.316 300.386 142.367 300.534 142.406L301.347 142.625C301.555 142.68 301.787 142.755 302.042 142.852C302.3 142.948 302.546 143.079 302.78 143.246C303.017 143.41 303.213 143.621 303.366 143.879C303.52 144.137 303.597 144.453 303.597 144.828C303.597 145.26 303.483 145.651 303.257 146C303.033 146.349 302.705 146.626 302.272 146.832C301.843 147.038 301.321 147.141 300.706 147.141C300.133 147.141 299.637 147.048 299.218 146.863C298.801 146.678 298.473 146.421 298.233 146.09C297.996 145.759 297.862 145.375 297.831 144.938H298.831C298.857 145.24 298.959 145.49 299.136 145.687C299.315 145.883 299.542 146.029 299.815 146.125C300.091 146.219 300.388 146.266 300.706 146.266C301.076 146.266 301.408 146.206 301.702 146.086C301.996 145.964 302.229 145.794 302.401 145.578C302.573 145.359 302.659 145.104 302.659 144.812C302.659 144.547 302.585 144.331 302.437 144.164C302.288 143.997 302.093 143.862 301.851 143.758C301.608 143.654 301.347 143.562 301.065 143.484L300.081 143.203C299.456 143.023 298.961 142.767 298.597 142.434C298.232 142.1 298.05 141.664 298.05 141.125C298.05 140.677 298.171 140.286 298.413 139.953C298.658 139.617 298.986 139.357 299.397 139.172C299.812 138.984 300.274 138.891 300.784 138.891C301.3 138.891 301.758 138.983 302.159 139.168C302.56 139.35 302.878 139.6 303.112 139.918C303.349 140.236 303.474 140.596 303.487 141H302.55ZM305.986 143.391V147H305.064V139H305.986V141.937H306.064C306.205 141.628 306.416 141.382 306.697 141.199C306.981 141.014 307.359 140.922 307.83 140.922C308.239 140.922 308.597 141.004 308.904 141.168C309.212 141.329 309.45 141.578 309.619 141.914C309.791 142.247 309.877 142.672 309.877 143.188V147H308.955V143.25C308.955 142.773 308.831 142.405 308.584 142.145C308.339 141.882 307.999 141.75 307.564 141.75C307.262 141.75 306.992 141.814 306.752 141.941C306.515 142.069 306.327 142.255 306.189 142.5C306.054 142.745 305.986 143.042 305.986 143.391ZM311.563 147V141H312.485V147H311.563ZM312.032 140C311.853 140 311.698 139.939 311.567 139.816C311.44 139.694 311.376 139.547 311.376 139.375C311.376 139.203 311.44 139.056 311.567 138.934C311.698 138.811 311.853 138.75 312.032 138.75C312.212 138.75 312.366 138.811 312.493 138.934C312.623 139.056 312.688 139.203 312.688 139.375C312.688 139.547 312.623 139.694 312.493 139.816C312.366 139.939 312.212 140 312.032 140ZM314.174 147V141H315.064V141.906H315.127C315.236 141.609 315.434 141.368 315.721 141.184C316.007 140.999 316.33 140.906 316.689 140.906C316.757 140.906 316.842 140.908 316.943 140.91C317.045 140.913 317.122 140.917 317.174 140.922V141.859C317.143 141.852 317.071 141.84 316.959 141.824C316.85 141.806 316.734 141.797 316.611 141.797C316.32 141.797 316.059 141.858 315.83 141.98C315.604 142.1 315.424 142.267 315.291 142.48C315.161 142.691 315.096 142.932 315.096 143.203V147H314.174ZM321.252 141V141.781H318.143V141H321.252ZM319.049 139.562H319.971V145.281C319.971 145.542 320.008 145.737 320.084 145.867C320.162 145.995 320.261 146.081 320.381 146.125C320.503 146.167 320.632 146.187 320.768 146.187C320.869 146.187 320.952 146.182 321.018 146.172C321.083 146.159 321.135 146.148 321.174 146.141L321.361 146.969C321.299 146.992 321.212 147.016 321.1 147.039C320.988 147.065 320.846 147.078 320.674 147.078C320.413 147.078 320.158 147.022 319.908 146.91C319.661 146.798 319.455 146.628 319.291 146.398C319.13 146.169 319.049 145.88 319.049 145.531V139.562ZM326.654 143.391V147H325.732V141H326.623V141.937H326.701C326.842 141.633 327.055 141.388 327.342 141.203C327.628 141.016 327.998 140.922 328.451 140.922C328.857 140.922 329.213 141.005 329.518 141.172C329.822 141.336 330.059 141.586 330.229 141.922C330.398 142.255 330.482 142.677 330.482 143.188V147H329.561V143.25C329.561 142.779 329.438 142.411 329.193 142.148C328.949 141.883 328.613 141.75 328.186 141.75C327.891 141.75 327.628 141.814 327.396 141.941C327.167 142.069 326.986 142.255 326.854 142.5C326.721 142.745 326.654 143.042 326.654 143.391ZM333.933 147.141C333.552 147.141 333.207 147.069 332.897 146.926C332.588 146.78 332.341 146.57 332.159 146.297C331.977 146.021 331.886 145.687 331.886 145.297C331.886 144.953 331.953 144.674 332.089 144.461C332.224 144.245 332.405 144.076 332.632 143.953C332.858 143.831 333.108 143.74 333.382 143.68C333.658 143.617 333.935 143.568 334.214 143.531C334.578 143.484 334.874 143.449 335.101 143.426C335.33 143.4 335.496 143.357 335.601 143.297C335.707 143.237 335.761 143.133 335.761 142.984V142.953C335.761 142.568 335.655 142.268 335.444 142.055C335.236 141.841 334.92 141.734 334.495 141.734C334.055 141.734 333.71 141.831 333.46 142.023C333.21 142.216 333.034 142.422 332.933 142.641L332.058 142.328C332.214 141.964 332.422 141.68 332.683 141.477C332.946 141.271 333.232 141.128 333.542 141.047C333.854 140.964 334.162 140.922 334.464 140.922C334.657 140.922 334.878 140.945 335.128 140.992C335.381 141.036 335.624 141.129 335.858 141.27C336.095 141.41 336.292 141.622 336.448 141.906C336.604 142.19 336.683 142.57 336.683 143.047V147H335.761V146.187H335.714C335.651 146.318 335.547 146.457 335.401 146.605C335.256 146.754 335.062 146.88 334.819 146.984C334.577 147.089 334.282 147.141 333.933 147.141ZM334.073 146.312C334.438 146.312 334.745 146.241 334.995 146.098C335.248 145.954 335.438 145.77 335.565 145.543C335.696 145.316 335.761 145.078 335.761 144.828V143.984C335.722 144.031 335.636 144.074 335.503 144.113C335.373 144.15 335.222 144.182 335.05 144.211C334.881 144.237 334.715 144.26 334.554 144.281C334.395 144.299 334.266 144.315 334.167 144.328C333.927 144.359 333.703 144.41 333.495 144.48C333.289 144.548 333.123 144.651 332.995 144.789C332.87 144.924 332.808 145.109 332.808 145.344C332.808 145.664 332.926 145.906 333.163 146.07C333.403 146.232 333.706 146.312 334.073 146.312ZM343.057 141L340.838 147H339.9L337.682 141H338.682L340.338 145.781H340.4L342.057 141H343.057ZM344.867 149.25C344.711 149.25 344.572 149.237 344.449 149.211C344.327 149.188 344.242 149.164 344.195 149.141L344.43 148.328C344.654 148.385 344.852 148.406 345.023 148.391C345.195 148.375 345.348 148.298 345.48 148.16C345.616 148.025 345.74 147.805 345.852 147.5L346.023 147.031L343.805 141H344.805L346.461 145.781H346.523L348.18 141H349.18L346.633 147.875C346.518 148.185 346.376 148.441 346.207 148.645C346.038 148.85 345.841 149.003 345.617 149.102C345.396 149.201 345.146 149.25 344.867 149.25ZM354.178 141L355.615 143.453L357.053 141H358.115L356.178 144L358.115 147H357.053L355.615 144.672L354.178 147H353.115L355.021 144L353.115 141H354.178ZM365.321 139V147H364.353V140.016H364.306L362.353 141.312V140.328L364.353 139H365.321Z" fill="#94A3B8"/>
<path d="M349 160H317C312.029 160 308 164.029 308 169V201C308 205.971 312.029 210 317 210H349C353.971 210 358 205.971 358 201V169C358 164.029 353.971 160 349 160Z" fill="white" stroke="#667085" stroke-width="1.5"/>
<path d="M338 168H328C325.239 168 323 170.239 323 173V183C323 185.761 325.239 188 328 188H338C340.761 188 343 185.761 343 183V173C343 170.239 340.761 168 338 168Z" fill="#EAF3DE"/>
<path d="M333 183C335.761 183 338 180.761 338 178C338 175.239 335.761 173 333 173C330.239 173 328 175.239 328 178C328 180.761 330.239 183 333 183Z" stroke="#3B6D11" stroke-width="1.2"/>
<path d="M331 178.286L332.455 180L335 177" stroke="#3B6D11" stroke-width="1.2" stroke-linecap="round" stroke-linejoin="round"/>
<path d="M320.255 201L318.641 195.182H319.565L320.698 199.688H320.752L321.931 195.182H322.846L324.025 199.69H324.079L325.21 195.182H326.136L324.519 201H323.636L322.411 196.642H322.366L321.141 201H320.255ZM326.928 201H325.996L328.089 195.182H329.104L331.197 201H330.266L328.621 196.239H328.575L326.928 201ZM327.084 198.722H330.107V199.46H327.084V198.722ZM334.155 201V195.182H336.229C336.681 195.182 337.056 195.264 337.354 195.429C337.651 195.594 337.874 195.819 338.021 196.105C338.169 196.389 338.243 196.709 338.243 197.065C338.243 197.423 338.168 197.745 338.018 198.031C337.871 198.315 337.647 198.541 337.348 198.707C337.051 198.872 336.677 198.955 336.226 198.955H334.8V198.21H336.146C336.432 198.21 336.664 198.161 336.842 198.062C337.02 197.962 337.151 197.826 337.234 197.653C337.318 197.481 337.359 197.285 337.359 197.065C337.359 196.846 337.318 196.651 337.234 196.48C337.151 196.31 337.019 196.176 336.839 196.08C336.661 195.983 336.427 195.935 336.135 195.935H335.033V201H334.155ZM340.435 201.097C340.158 201.097 339.908 201.045 339.685 200.943C339.461 200.839 339.284 200.688 339.153 200.491C339.025 200.295 338.96 200.053 338.96 199.767C338.96 199.521 339.008 199.318 339.102 199.159C339.197 199 339.325 198.874 339.486 198.781C339.647 198.688 339.827 198.618 340.026 198.571C340.224 198.524 340.427 198.488 340.634 198.463C340.895 198.433 341.107 198.408 341.27 198.389C341.433 198.368 341.551 198.335 341.625 198.29C341.699 198.244 341.736 198.17 341.736 198.068V198.048C341.736 197.8 341.666 197.608 341.526 197.472C341.387 197.335 341.181 197.267 340.906 197.267C340.62 197.267 340.395 197.33 340.23 197.457C340.067 197.582 339.955 197.722 339.892 197.875L339.094 197.693C339.188 197.428 339.327 197.214 339.509 197.051C339.692 196.886 339.903 196.767 340.142 196.693C340.381 196.617 340.632 196.58 340.895 196.58C341.069 196.58 341.254 196.6 341.449 196.642C341.646 196.682 341.83 196.756 342 196.864C342.172 196.972 342.313 197.126 342.423 197.327C342.533 197.526 342.588 197.784 342.588 198.102V201H341.759V200.403H341.724C341.67 200.513 341.587 200.621 341.477 200.727C341.367 200.833 341.226 200.921 341.054 200.991C340.882 201.062 340.675 201.097 340.435 201.097ZM340.619 200.415C340.854 200.415 341.055 200.368 341.222 200.276C341.39 200.183 341.518 200.062 341.605 199.912C341.694 199.76 341.739 199.598 341.739 199.426V198.864C341.708 198.894 341.65 198.922 341.562 198.949C341.477 198.973 341.38 198.995 341.27 199.014C341.16 199.031 341.053 199.047 340.949 199.062C340.845 199.076 340.758 199.087 340.688 199.097C340.523 199.117 340.372 199.152 340.236 199.202C340.101 199.251 339.993 199.322 339.912 199.415C339.832 199.506 339.793 199.627 339.793 199.778C339.793 199.989 339.87 200.148 340.026 200.256C340.181 200.362 340.379 200.415 340.619 200.415ZM344.1 202.636C343.973 202.636 343.858 202.626 343.754 202.605C343.649 202.586 343.572 202.565 343.521 202.543L343.725 201.847C343.88 201.888 344.019 201.906 344.14 201.901C344.261 201.895 344.368 201.849 344.461 201.764C344.556 201.679 344.639 201.54 344.711 201.347L344.816 201.057L343.219 196.636H344.129L345.234 200.023H345.279L346.384 196.636H347.296L345.498 201.582C345.415 201.81 345.308 202.002 345.18 202.159C345.051 202.318 344.897 202.438 344.719 202.517C344.541 202.597 344.335 202.636 344.1 202.636Z" fill="#128C7E"/>
<path d="M410 220H262C257.029 220 253 224.029 253 229V241C253 245.971 257.029 250 262 250H410C414.971 250 419 245.971 419 241V229C419 224.029 414.971 220 410 220Z" fill="#25D366"/>
<path d="M308.941 239.5V230.409H312.181C312.889 230.409 313.475 230.538 313.939 230.795C314.404 231.053 314.751 231.405 314.982 231.852C315.213 232.296 315.329 232.796 315.329 233.352C315.329 233.911 315.212 234.414 314.978 234.861C314.747 235.305 314.398 235.657 313.93 235.918C313.466 236.175 312.881 236.304 312.177 236.304H309.949V235.141H312.053C312.499 235.141 312.862 235.064 313.14 234.91C313.418 234.753 313.622 234.54 313.753 234.271C313.883 234.002 313.948 233.695 313.948 233.352C313.948 233.009 313.883 232.704 313.753 232.438C313.622 232.171 313.417 231.963 313.136 231.812C312.858 231.661 312.491 231.585 312.035 231.585H310.313V239.5H308.941ZM318.753 239.651C318.321 239.651 317.93 239.571 317.581 239.411C317.232 239.248 316.955 239.013 316.751 238.705C316.55 238.398 316.449 238.02 316.449 237.574C316.449 237.189 316.523 236.872 316.671 236.624C316.819 236.375 317.019 236.178 317.271 236.033C317.522 235.888 317.803 235.779 318.114 235.705C318.425 235.631 318.741 235.575 319.064 235.536C319.472 235.489 319.804 235.45 320.058 235.421C320.313 235.388 320.498 235.336 320.613 235.265C320.728 235.194 320.786 235.079 320.786 234.919V234.888C320.786 234.5 320.677 234.2 320.458 233.987C320.242 233.774 319.919 233.667 319.49 233.667C319.043 233.667 318.691 233.766 318.434 233.965C318.179 234.16 318.003 234.377 317.905 234.617L316.658 234.333C316.806 233.919 317.022 233.584 317.306 233.33C317.593 233.072 317.923 232.886 318.296 232.771C318.669 232.652 319.061 232.593 319.472 232.593C319.744 232.593 320.033 232.626 320.338 232.691C320.646 232.753 320.933 232.868 321.199 233.037C321.468 233.206 321.689 233.447 321.86 233.76C322.032 234.071 322.118 234.475 322.118 234.972V239.5H320.822V238.568H320.768C320.683 238.739 320.554 238.908 320.382 239.074C320.211 239.24 319.99 239.377 319.721 239.487C319.452 239.596 319.129 239.651 318.753 239.651ZM319.042 238.586C319.409 238.586 319.722 238.513 319.983 238.368C320.246 238.223 320.446 238.034 320.582 237.8C320.721 237.563 320.791 237.31 320.791 237.041V236.162C320.743 236.209 320.652 236.254 320.515 236.295C320.382 236.334 320.23 236.368 320.058 236.397C319.887 236.424 319.719 236.449 319.557 236.473C319.394 236.493 319.258 236.511 319.148 236.526C318.891 236.558 318.655 236.613 318.442 236.69C318.232 236.767 318.064 236.878 317.936 237.023C317.812 237.165 317.75 237.355 317.75 237.591C317.75 237.92 317.871 238.168 318.114 238.337C318.357 238.503 318.666 238.586 319.042 238.586ZM324.48 242.057C324.282 242.057 324.102 242.041 323.939 242.008C323.776 241.978 323.655 241.946 323.575 241.91L323.895 240.823C324.137 240.888 324.353 240.916 324.543 240.907C324.732 240.898 324.899 240.827 325.044 240.694C325.192 240.561 325.322 240.343 325.435 240.042L325.599 239.589L323.104 232.682H324.525L326.252 237.973H326.323L328.049 232.682H329.474L326.664 240.41C326.534 240.765 326.368 241.065 326.167 241.311C325.966 241.56 325.726 241.746 325.448 241.87C325.17 241.995 324.847 242.057 324.48 242.057ZM339.654 232.593L339.343 233.689H333.524L333.834 232.593H339.654ZM336.822 239.5L333.643 235.643L333.635 234.777H335.21C335.604 234.777 335.937 234.716 336.209 234.595C336.481 234.474 336.689 234.298 336.831 234.067C336.973 233.833 337.044 233.549 337.044 233.214C337.044 232.717 336.896 232.322 336.6 232.029C336.304 231.736 335.841 231.59 335.21 231.59H333.524L333.848 230.409H335.21C335.944 230.409 336.55 230.526 337.026 230.76C337.502 230.994 337.858 231.318 338.091 231.732C338.325 232.146 338.442 232.624 338.442 233.166C338.442 233.648 338.346 234.085 338.153 234.475C337.961 234.866 337.655 235.184 337.235 235.43C336.814 235.675 336.262 235.819 335.579 235.86L335.539 235.869L338.442 239.425V239.5H336.822ZM339.658 230.409L339.343 231.514L334.691 231.488L335.006 230.409H339.658ZM343.968 239.624C343.332 239.624 342.77 239.515 342.282 239.296C341.796 239.077 341.416 238.775 341.141 238.39C340.866 238.006 340.729 237.568 340.732 237.076C340.729 236.692 340.808 236.338 340.968 236.015C341.13 235.69 341.351 235.419 341.629 235.203C341.907 234.984 342.218 234.845 342.561 234.786V234.733C342.109 234.623 341.746 234.38 341.474 234.005C341.201 233.629 341.067 233.197 341.07 232.708C341.067 232.244 341.19 231.83 341.438 231.466C341.69 231.099 342.035 230.81 342.473 230.6C342.91 230.39 343.409 230.285 343.968 230.285C344.522 230.285 345.016 230.391 345.451 230.604C345.889 230.815 346.234 231.103 346.485 231.47C346.737 231.834 346.864 232.247 346.867 232.708C346.864 233.197 346.725 233.629 346.45 234.005C346.175 234.38 345.816 234.623 345.376 234.733V234.786C345.716 234.845 346.022 234.984 346.294 235.203C346.57 235.419 346.789 235.69 346.951 236.015C347.117 236.338 347.201 236.692 347.204 237.076C347.201 237.568 347.062 238.006 346.787 238.39C346.512 238.775 346.13 239.077 345.642 239.296C345.157 239.515 344.599 239.624 343.968 239.624ZM343.968 238.501C344.344 238.501 344.67 238.439 344.945 238.315C345.22 238.188 345.433 238.011 345.584 237.787C345.735 237.559 345.812 237.292 345.815 236.988C345.812 236.671 345.729 236.391 345.566 236.149C345.407 235.906 345.189 235.715 344.914 235.576C344.639 235.437 344.324 235.367 343.968 235.367C343.61 235.367 343.292 235.437 343.014 235.576C342.736 235.715 342.517 235.906 342.357 236.149C342.197 236.391 342.119 236.671 342.122 236.988C342.119 237.292 342.191 237.559 342.339 237.787C342.49 238.011 342.705 238.188 342.983 238.315C343.261 238.439 343.59 238.501 343.968 238.501ZM343.968 234.271C344.27 234.271 344.538 234.21 344.772 234.089C345.006 233.968 345.189 233.799 345.322 233.583C345.458 233.367 345.528 233.114 345.531 232.824C345.528 232.54 345.46 232.291 345.327 232.078C345.197 231.865 345.015 231.701 344.781 231.585C344.547 231.467 344.276 231.408 343.968 231.408C343.655 231.408 343.38 231.467 343.143 231.585C342.909 231.701 342.727 231.865 342.597 232.078C342.467 232.291 342.403 232.54 342.406 232.824C342.403 233.114 342.468 233.367 342.601 233.583C342.734 233.799 342.918 233.968 343.152 234.089C343.388 234.21 343.661 234.271 343.968 234.271ZM351.96 239.651C351.258 239.648 350.659 239.463 350.162 239.096C349.665 238.729 349.284 238.195 349.021 237.494C348.758 236.792 348.626 235.947 348.626 234.959C348.626 233.974 348.758 233.132 349.021 232.433C349.287 231.735 349.669 231.202 350.166 230.835C350.666 230.468 351.264 230.285 351.96 230.285C352.655 230.285 353.251 230.47 353.748 230.84C354.246 231.207 354.626 231.739 354.889 232.438C355.156 233.133 355.289 233.974 355.289 234.959C355.289 235.95 355.157 236.797 354.894 237.498C354.63 238.196 354.25 238.731 353.753 239.1C353.256 239.467 352.658 239.651 351.96 239.651ZM351.96 238.466C352.575 238.466 353.056 238.165 353.402 237.565C353.751 236.964 353.926 236.095 353.926 234.959C353.926 234.204 353.846 233.567 353.686 233.046C353.529 232.522 353.303 232.125 353.007 231.856C352.714 231.584 352.365 231.448 351.96 231.448C351.347 231.448 350.866 231.75 350.517 232.353C350.168 232.957 349.992 233.826 349.989 234.959C349.989 235.717 350.067 236.357 350.224 236.881C350.384 237.402 350.61 237.797 350.903 238.066C351.196 238.333 351.548 238.466 351.96 238.466ZM360.028 239.651C359.327 239.648 358.728 239.463 358.231 239.096C357.734 238.729 357.353 238.195 357.09 237.494C356.826 236.792 356.695 235.947 356.695 234.959C356.695 233.974 356.826 233.132 357.09 232.433C357.356 231.735 357.738 231.202 358.235 230.835C358.735 230.468 359.333 230.285 360.028 230.285C360.724 230.285 361.32 230.47 361.817 230.84C362.314 231.207 362.695 231.739 362.958 232.438C363.224 233.133 363.358 233.974 363.358 234.959C363.358 235.95 363.226 236.797 362.963 237.498C362.699 238.196 362.319 238.731 361.822 239.1C361.325 239.467 360.727 239.651 360.028 239.651ZM360.028 238.466C360.644 238.466 361.125 238.165 361.471 237.565C361.82 236.964 361.995 236.095 361.995 234.959C361.995 234.204 361.915 233.567 361.755 233.046C361.598 232.522 361.372 232.125 361.076 231.856C360.783 231.584 360.434 231.448 360.028 231.448C359.416 231.448 358.935 231.75 358.586 232.353C358.237 232.957 358.061 233.826 358.058 234.959C358.058 235.717 358.136 236.357 358.293 236.881C358.453 237.402 358.679 237.797 358.972 238.066C359.265 238.333 359.617 238.466 360.028 238.466Z" fill="white"/>
</g>
<defs>
<clipPath id="clip0_89_7">
<rect width="390" height="275" fill="white"/>
</clipPath>
</defs>
</svg>
