<svg width="603" height="312" viewBox="0 0 603 312" fill="none" xmlns="http://www.w3.org/2000/svg">
<g clip-path="url(#clip0_89_3)">
<path d="M30 33C30 26.9249 34.9249 22 41 22H603V313H30V33Z" fill="#F9F9F9"/>
<path d="M266.922 44H65.719C57.0376 44 50 51.0376 50 59.719V147.745C50 156.426 57.0376 163.464 65.719 163.464H266.922C275.603 163.464 282.641 156.426 282.641 147.745V59.719C282.641 51.0376 275.603 44 266.922 44Z" fill="white" stroke="#E2E8F0" stroke-width="1.17892"/>
<path d="M98.7293 62.8623H79.8665C73.7896 62.8623 68.8633 67.7886 68.8633 73.8656V92.7283C68.8633 98.8053 73.7896 103.732 79.8665 103.732H98.7293C104.806 103.732 109.733 98.8053 109.733 92.7283V73.8656C109.733 67.7886 104.806 62.8623 98.7293 62.8623Z" fill="#E6F1FB"/>
<path d="M78 79H100.007H78ZM78 86.8595H93.719H78Z" fill="black"/>
<path d="M78 79H100.007M78 86.8595H93.719" stroke="#185FA5" stroke-width="2.04346" stroke-linecap="round"/>
<path d="M78.4386 119.129H76.8874C76.8278 118.798 76.7167 118.506 76.5543 118.254C76.3919 118.002 76.1931 117.789 75.9577 117.613C75.7224 117.437 75.4589 117.305 75.1673 117.215C74.8789 117.126 74.5723 117.081 74.2475 117.081C73.6609 117.081 73.1355 117.228 72.6715 117.523C72.2108 117.818 71.8462 118.251 71.5778 118.821C71.3126 119.391 71.18 120.087 71.18 120.909C71.18 121.738 71.3126 122.437 71.5778 123.007C71.8462 123.577 72.2125 124.008 72.6765 124.3C73.1405 124.591 73.6625 124.737 74.2425 124.737C74.564 124.737 74.869 124.694 75.1573 124.608C75.449 124.518 75.7125 124.388 75.9478 124.215C76.1831 124.043 76.382 123.832 76.5444 123.584C76.7101 123.332 76.8245 123.044 76.8874 122.719L78.4386 122.724C78.3557 123.224 78.195 123.685 77.9563 124.106C77.721 124.523 77.4177 124.885 77.0465 125.19C76.6786 125.491 76.2577 125.725 75.7837 125.891C75.3098 126.056 74.7927 126.139 74.2326 126.139C73.351 126.139 72.5655 125.93 71.8761 125.513C71.1867 125.092 70.6431 124.49 70.2454 123.708C69.851 122.926 69.6538 121.993 69.6538 120.909C69.6538 119.822 69.8526 118.889 70.2504 118.11C70.6481 117.328 71.1916 116.728 71.881 116.31C72.5704 115.889 73.3543 115.679 74.2326 115.679C74.7728 115.679 75.2766 115.757 75.744 115.913C76.2146 116.065 76.6372 116.29 77.0117 116.589C77.3862 116.884 77.6961 117.245 77.9414 117.673C78.1867 118.097 78.3524 118.582 78.4386 119.129ZM82.3798 126.169C81.8959 126.169 81.4584 126.08 81.0673 125.901C80.6762 125.718 80.3663 125.455 80.1376 125.11C79.9122 124.765 79.7995 124.343 79.7995 123.842C79.7995 123.411 79.8824 123.057 80.0481 122.778C80.2138 122.5 80.4376 122.28 80.7193 122.117C81.001 121.955 81.3159 121.832 81.6639 121.749C82.0119 121.666 82.3665 121.603 82.7278 121.56C83.1852 121.507 83.5564 121.464 83.8414 121.431C84.1265 121.395 84.3336 121.337 84.4629 121.257C84.5922 121.178 84.6568 121.048 84.6568 120.869V120.835C84.6568 120.4 84.5342 120.064 84.2889 119.825C84.0469 119.587 83.6857 119.467 83.2051 119.467C82.7046 119.467 82.3102 119.578 82.0218 119.8C81.7368 120.019 81.5396 120.263 81.4302 120.531L80.0332 120.213C80.1989 119.749 80.4409 119.375 80.7591 119.089C81.0806 118.801 81.4501 118.592 81.8677 118.463C82.2853 118.33 82.7245 118.264 83.1852 118.264C83.4901 118.264 83.8133 118.301 84.1547 118.374C84.4993 118.443 84.8208 118.572 85.1191 118.761C85.4208 118.95 85.6677 119.22 85.8599 119.572C86.0521 119.92 86.1483 120.372 86.1483 120.929V126H84.6966V124.956H84.6369C84.5408 125.148 84.3966 125.337 84.2044 125.523C84.0121 125.708 83.7652 125.862 83.4636 125.985C83.162 126.108 82.8007 126.169 82.3798 126.169ZM82.7029 124.976C83.1139 124.976 83.4653 124.895 83.7569 124.732C84.0519 124.57 84.2756 124.358 84.4281 124.096C84.5839 123.831 84.6618 123.547 84.6618 123.246V122.261C84.6087 122.314 84.506 122.364 84.3535 122.411C84.2044 122.454 84.0337 122.492 83.8414 122.525C83.6492 122.555 83.4619 122.583 83.2797 122.609C83.0974 122.633 82.9449 122.652 82.8223 122.669C82.5339 122.705 82.2704 122.767 82.0318 122.853C81.7965 122.939 81.6075 123.063 81.465 123.226C81.3258 123.385 81.2562 123.597 81.2562 123.862C81.2562 124.23 81.3921 124.509 81.6639 124.697C81.9357 124.883 82.282 124.976 82.7029 124.976ZM91.6928 118.364V119.557H87.5217V118.364H91.6928ZM88.6403 116.534H90.1268V123.758C90.1268 124.046 90.1699 124.263 90.256 124.409C90.3422 124.552 90.4532 124.649 90.5891 124.702C90.7283 124.752 90.8791 124.777 91.0415 124.777C91.1609 124.777 91.2653 124.769 91.3548 124.752C91.4442 124.736 91.5138 124.722 91.5636 124.712L91.832 125.94C91.7459 125.973 91.6232 126.007 91.4641 126.04C91.305 126.076 91.1062 126.096 90.8675 126.099C90.4764 126.106 90.1119 126.036 89.7738 125.891C89.4357 125.745 89.1623 125.519 88.9535 125.214C88.7447 124.91 88.6403 124.527 88.6403 124.066V116.534ZM95.5595 126.169C95.0756 126.169 94.6381 126.08 94.247 125.901C93.8559 125.718 93.546 125.455 93.3173 125.11C93.0919 124.765 92.9792 124.343 92.9792 123.842C92.9792 123.411 93.0621 123.057 93.2278 122.778C93.3935 122.5 93.6172 122.28 93.899 122.117C94.1807 121.955 94.4956 121.832 94.8436 121.749C95.1916 121.666 95.5462 121.603 95.9075 121.56C96.3649 121.507 96.7361 121.464 97.0211 121.431C97.3062 121.395 97.5133 121.337 97.6426 121.257C97.7718 121.178 97.8365 121.048 97.8365 120.869V120.835C97.8365 120.4 97.7138 120.064 97.4686 119.825C97.2266 119.587 96.8654 119.467 96.3848 119.467C95.8843 119.467 95.4899 119.578 95.2015 119.8C94.9165 120.019 94.7193 120.263 94.6099 120.531L93.2129 120.213C93.3786 119.749 93.6206 119.375 93.9387 119.089C94.2602 118.801 94.6298 118.592 95.0474 118.463C95.465 118.33 95.9042 118.264 96.3649 118.264C96.6698 118.264 96.993 118.301 97.3343 118.374C97.679 118.443 98.0005 118.572 98.2988 118.761C98.6004 118.95 98.8474 119.22 99.0396 119.572C99.2318 119.92 99.3279 120.372 99.3279 120.929V126H97.8762V124.956H97.8166C97.7205 125.148 97.5763 125.337 97.3841 125.523C97.1918 125.708 96.9449 125.862 96.6433 125.985C96.3417 126.108 95.9804 126.169 95.5595 126.169ZM95.8826 124.976C96.2936 124.976 96.6449 124.895 96.9366 124.732C97.2316 124.57 97.4553 124.358 97.6078 124.096C97.7636 123.831 97.8414 123.547 97.8414 123.246V122.261C97.7884 122.314 97.6857 122.364 97.5332 122.411C97.3841 122.454 97.2134 122.492 97.0211 122.525C96.8289 122.555 96.6416 122.583 96.4593 122.609C96.277 122.633 96.1246 122.652 96.002 122.669C95.7136 122.705 95.4501 122.767 95.2115 122.853C94.9761 122.939 94.7872 123.063 94.6447 123.226C94.5055 123.385 94.4359 123.597 94.4359 123.862C94.4359 124.23 94.5718 124.509 94.8436 124.697C95.1154 124.883 95.4617 124.976 95.8826 124.976ZM102.794 115.818V126H101.308V115.818H102.794ZM108.011 126.154C107.295 126.154 106.67 125.99 106.137 125.662C105.603 125.334 105.189 124.875 104.894 124.285C104.599 123.695 104.451 123.005 104.451 122.217C104.451 121.424 104.599 120.732 104.894 120.138C105.189 119.545 105.603 119.085 106.137 118.756C106.67 118.428 107.295 118.264 108.011 118.264C108.727 118.264 109.352 118.428 109.885 118.756C110.419 119.085 110.833 119.545 111.128 120.138C111.423 120.732 111.57 121.424 111.57 122.217C111.57 123.005 111.423 123.695 111.128 124.285C110.833 124.875 110.419 125.334 109.885 125.662C109.352 125.99 108.727 126.154 108.011 126.154ZM108.016 124.906C108.48 124.906 108.864 124.784 109.169 124.538C109.474 124.293 109.7 123.967 109.845 123.559C109.994 123.151 110.069 122.702 110.069 122.212C110.069 121.724 109.994 121.277 109.845 120.869C109.7 120.458 109.474 120.129 109.169 119.88C108.864 119.631 108.48 119.507 108.016 119.507C107.548 119.507 107.161 119.631 106.852 119.88C106.548 120.129 106.32 120.458 106.171 120.869C106.026 121.277 105.953 121.724 105.953 122.212C105.953 122.702 106.026 123.151 106.171 123.559C106.32 123.967 106.548 124.293 106.852 124.538C107.161 124.784 107.548 124.906 108.016 124.906ZM116.431 129.023C115.825 129.023 115.303 128.943 114.865 128.784C114.431 128.625 114.077 128.415 113.801 128.153C113.526 127.891 113.321 127.604 113.185 127.293L114.463 126.766C114.552 126.911 114.672 127.066 114.821 127.228C114.973 127.394 115.179 127.535 115.437 127.651C115.699 127.767 116.035 127.825 116.446 127.825C117.01 127.825 117.475 127.687 117.843 127.412C118.211 127.14 118.395 126.706 118.395 126.109V124.608H118.301C118.211 124.77 118.082 124.951 117.913 125.15C117.747 125.349 117.519 125.521 117.227 125.667C116.935 125.813 116.556 125.886 116.088 125.886C115.485 125.886 114.942 125.745 114.458 125.463C113.977 125.178 113.596 124.759 113.314 124.205C113.036 123.648 112.897 122.964 112.897 122.152C112.897 121.34 113.034 120.644 113.309 120.064C113.588 119.484 113.969 119.04 114.453 118.732C114.937 118.42 115.485 118.264 116.098 118.264C116.572 118.264 116.955 118.344 117.247 118.503C117.538 118.659 117.766 118.841 117.928 119.05C118.094 119.259 118.221 119.442 118.311 119.602H118.42V118.364H119.877V126.169C119.877 126.825 119.724 127.364 119.419 127.785C119.114 128.206 118.702 128.517 118.181 128.719C117.664 128.922 117.081 129.023 116.431 129.023ZM116.417 124.653C116.844 124.653 117.205 124.553 117.5 124.354C117.799 124.152 118.024 123.864 118.176 123.489C118.332 123.112 118.41 122.659 118.41 122.132C118.41 121.618 118.334 121.166 118.181 120.775C118.029 120.384 117.805 120.079 117.51 119.86C117.215 119.638 116.851 119.527 116.417 119.527C115.969 119.527 115.596 119.643 115.298 119.875C115 120.104 114.774 120.415 114.622 120.81C114.473 121.204 114.398 121.645 114.398 122.132C114.398 122.633 114.474 123.072 114.627 123.45C114.779 123.827 115.005 124.122 115.303 124.335C115.605 124.547 115.976 124.653 116.417 124.653Z" fill="#0F172A"/>
<path d="M69.9201 146.24V137.513H72.9712C73.5792 137.513 74.0806 137.618 74.4755 137.828C74.8704 138.036 75.1644 138.316 75.3576 138.668C75.5508 139.017 75.6474 139.405 75.6474 139.831C75.6474 140.206 75.5806 140.516 75.4471 140.76C75.3164 141.004 75.1431 141.198 74.9272 141.34C74.7141 141.482 74.4826 141.587 74.2326 141.655V141.74C74.4996 141.757 74.7681 141.851 75.038 142.021C75.3079 142.192 75.5337 142.436 75.7156 142.754C75.8974 143.073 75.9883 143.462 75.9883 143.922C75.9883 144.36 75.8888 144.753 75.69 145.102C75.4911 145.452 75.1772 145.729 74.7482 145.933C74.3192 146.138 73.761 146.24 73.0735 146.24H69.9201ZM70.9769 145.303H73.0735C73.7638 145.303 74.2539 145.169 74.5437 144.902C74.8363 144.632 74.9826 144.306 74.9826 143.922C74.9826 143.627 74.9073 143.354 74.7567 143.104C74.6062 142.851 74.3917 142.649 74.1133 142.499C73.8349 142.345 73.5053 142.269 73.1246 142.269H70.9769V145.303ZM70.9769 141.348H72.9371C73.2553 141.348 73.5423 141.286 73.7979 141.161C74.0565 141.036 74.261 140.86 74.4116 140.632C74.565 140.405 74.6417 140.138 74.6417 139.831C74.6417 139.448 74.5082 139.122 74.2411 138.855C73.9741 138.585 73.5508 138.45 72.9712 138.45H70.9769V141.348ZM77.5884 146.24V139.695H78.56V140.683H78.6282C78.7475 140.36 78.9634 140.097 79.2759 139.895C79.5884 139.693 79.9407 139.593 80.3327 139.593C80.4066 139.593 80.4989 139.594 80.6097 139.597C80.7205 139.6 80.8043 139.604 80.8612 139.61V140.632C80.8271 140.624 80.7489 140.611 80.6268 140.594C80.5075 140.574 80.381 140.564 80.2475 140.564C79.9293 140.564 79.6452 140.631 79.3952 140.764C79.1481 140.895 78.9521 141.077 78.8072 141.31C78.6651 141.54 78.5941 141.803 78.5941 142.098V146.24H77.5884ZM84.5131 146.377C83.9222 146.377 83.4038 146.236 82.9577 145.955C82.5146 145.673 82.168 145.28 81.918 144.774C81.6708 144.269 81.5472 143.678 81.5472 143.002C81.5472 142.32 81.6708 141.725 81.918 141.216C82.168 140.708 82.5146 140.313 82.9577 140.031C83.4038 139.75 83.9222 139.61 84.5131 139.61C85.104 139.61 85.6211 139.75 86.0643 140.031C86.5103 140.313 86.8569 140.708 87.104 141.216C87.354 141.725 87.479 142.32 87.479 143.002C87.479 143.678 87.354 144.269 87.104 144.774C86.8569 145.28 86.5103 145.673 86.0643 145.955C85.6211 146.236 85.104 146.377 84.5131 146.377ZM84.5131 145.473C84.962 145.473 85.3313 145.358 85.6211 145.128C85.9109 144.898 86.1254 144.595 86.2646 144.22C86.4038 143.845 86.4734 143.439 86.4734 143.002C86.4734 142.564 86.4038 142.156 86.2646 141.779C86.1254 141.401 85.9109 141.095 85.6211 140.862C85.3313 140.629 84.962 140.513 84.5131 140.513C84.0643 140.513 83.695 140.629 83.4052 140.862C83.1154 141.095 82.9009 141.401 82.7617 141.779C82.6225 142.156 82.5529 142.564 82.5529 143.002C82.5529 143.439 82.6225 143.845 82.7617 144.22C82.9009 144.595 83.1154 144.898 83.4052 145.128C83.695 145.358 84.0643 145.473 84.5131 145.473ZM90.2745 146.24L88.2802 139.695H89.337L90.7518 144.706H90.82L92.2177 139.695H93.2915L94.6722 144.689H94.7404L96.1552 139.695H97.212L95.2177 146.24H94.229L92.7972 141.212H92.695L91.2631 146.24H90.2745ZM103.178 141.161L102.275 141.416C102.218 141.266 102.134 141.119 102.023 140.977C101.915 140.833 101.767 140.713 101.58 140.619C101.392 140.526 101.152 140.479 100.86 140.479C100.459 140.479 100.125 140.571 99.8583 140.756C99.5941 140.938 99.462 141.169 99.462 141.45C99.462 141.7 99.5529 141.898 99.7347 142.043C99.9165 142.188 100.201 142.308 100.587 142.405L101.559 142.644C102.144 142.786 102.58 143.003 102.867 143.296C103.154 143.585 103.297 143.959 103.297 144.416C103.297 144.791 103.189 145.127 102.973 145.422C102.76 145.718 102.462 145.95 102.078 146.121C101.695 146.291 101.249 146.377 100.74 146.377C100.073 146.377 99.5202 146.232 99.0827 145.942C98.6452 145.652 98.3683 145.229 98.2518 144.672L99.2063 144.433C99.2972 144.786 99.4691 145.05 99.7219 145.226C99.9776 145.402 100.311 145.49 100.723 145.49C101.192 145.49 101.564 145.391 101.84 145.192C102.118 144.99 102.257 144.749 102.257 144.468C102.257 144.24 102.178 144.05 102.019 143.896C101.86 143.74 101.615 143.624 101.286 143.547L100.195 143.291C99.5955 143.149 99.1552 142.929 98.8739 142.631C98.5955 142.33 98.4563 141.953 98.4563 141.502C98.4563 141.132 98.56 140.806 98.7674 140.521C98.9776 140.237 99.2631 140.014 99.6239 139.852C99.9876 139.691 100.4 139.61 100.86 139.61C101.507 139.61 102.016 139.752 102.385 140.036C102.757 140.32 103.022 140.695 103.178 141.161ZM107.555 146.377C106.925 146.377 106.381 146.237 105.923 145.959C105.469 145.678 105.118 145.286 104.871 144.783C104.626 144.277 104.504 143.689 104.504 143.019C104.504 142.348 104.626 141.757 104.871 141.246C105.118 140.732 105.462 140.331 105.902 140.044C106.345 139.754 106.862 139.61 107.453 139.61C107.794 139.61 108.131 139.666 108.463 139.78C108.795 139.894 109.098 140.078 109.371 140.334C109.643 140.587 109.861 140.922 110.023 141.34C110.185 141.757 110.266 142.271 110.266 142.882V143.308H105.22V142.439H109.243C109.243 142.07 109.169 141.74 109.021 141.45C108.876 141.161 108.669 140.932 108.399 140.764C108.132 140.597 107.817 140.513 107.453 140.513C107.053 140.513 106.706 140.612 106.413 140.811C106.124 141.007 105.901 141.263 105.744 141.578C105.588 141.894 105.51 142.232 105.51 142.593V143.172C105.51 143.666 105.595 144.085 105.766 144.429C105.939 144.77 106.179 145.03 106.486 145.209C106.793 145.385 107.149 145.473 107.555 145.473C107.82 145.473 108.058 145.436 108.271 145.362C108.487 145.286 108.673 145.172 108.83 145.021C108.986 144.868 109.107 144.678 109.192 144.45L110.163 144.723C110.061 145.053 109.889 145.343 109.648 145.593C109.406 145.84 109.108 146.033 108.753 146.172C108.398 146.308 107.999 146.377 107.555 146.377ZM115.17 146.24V139.695H116.176V146.24H115.17ZM115.682 138.604C115.486 138.604 115.317 138.537 115.175 138.404C115.036 138.27 114.966 138.11 114.966 137.922C114.966 137.735 115.036 137.574 115.175 137.441C115.317 137.307 115.486 137.24 115.682 137.24C115.878 137.24 116.045 137.307 116.185 137.441C116.327 137.574 116.398 137.735 116.398 137.922C116.398 138.11 116.327 138.27 116.185 138.404C116.045 138.537 115.878 138.604 115.682 138.604ZM119.024 142.303V146.24H118.018V139.695H118.99V140.718H119.075C119.228 140.385 119.461 140.118 119.774 139.916C120.086 139.712 120.49 139.61 120.984 139.61C121.427 139.61 121.815 139.7 122.147 139.882C122.48 140.061 122.738 140.334 122.923 140.7C123.108 141.064 123.2 141.524 123.2 142.081V146.24H122.194V142.149C122.194 141.635 122.061 141.235 121.794 140.948C121.527 140.658 121.16 140.513 120.694 140.513C120.373 140.513 120.086 140.583 119.833 140.722C119.583 140.861 119.386 141.064 119.241 141.331C119.096 141.598 119.024 141.922 119.024 142.303ZM128.788 142.03V142.968H124.969V142.03H128.788ZM133.216 146.377C132.603 146.377 132.074 146.232 131.631 145.942C131.188 145.652 130.847 145.253 130.608 144.744C130.37 144.236 130.25 143.655 130.25 143.002C130.25 142.337 130.373 141.75 130.617 141.242C130.864 140.73 131.208 140.331 131.648 140.044C132.091 139.754 132.608 139.61 133.199 139.61C133.659 139.61 134.074 139.695 134.444 139.865C134.813 140.036 135.115 140.274 135.351 140.581C135.587 140.888 135.733 141.246 135.79 141.655H134.784C134.708 141.357 134.537 141.093 134.273 140.862C134.012 140.629 133.659 140.513 133.216 140.513C132.824 140.513 132.48 140.615 132.185 140.82C131.892 141.021 131.664 141.307 131.499 141.676C131.337 142.043 131.256 142.473 131.256 142.968C131.256 143.473 131.336 143.914 131.495 144.289C131.657 144.664 131.884 144.955 132.176 145.162C132.472 145.369 132.819 145.473 133.216 145.473C133.478 145.473 133.715 145.428 133.928 145.337C134.141 145.246 134.321 145.115 134.469 144.945C134.617 144.774 134.722 144.57 134.784 144.331H135.79C135.733 144.718 135.593 145.066 135.368 145.375C135.147 145.682 134.853 145.926 134.486 146.108C134.123 146.287 133.699 146.377 133.216 146.377ZM138.266 142.303V146.24H137.26V137.513H138.266V140.718H138.351C138.505 140.379 138.735 140.111 139.042 139.912C139.351 139.71 139.763 139.61 140.277 139.61C140.723 139.61 141.114 139.699 141.449 139.878C141.784 140.054 142.044 140.325 142.229 140.692C142.417 141.056 142.51 141.519 142.51 142.081V146.24H141.505V142.149C141.505 141.629 141.37 141.227 141.1 140.943C140.833 140.656 140.462 140.513 139.988 140.513C139.658 140.513 139.363 140.583 139.101 140.722C138.843 140.861 138.638 141.064 138.488 141.331C138.34 141.598 138.266 141.922 138.266 142.303ZM146.276 146.394C145.862 146.394 145.485 146.316 145.147 146.159C144.809 146 144.54 145.771 144.342 145.473C144.143 145.172 144.043 144.808 144.043 144.382C144.043 144.007 144.117 143.703 144.265 143.47C144.413 143.235 144.61 143.05 144.857 142.916C145.104 142.783 145.377 142.683 145.675 142.618C145.977 142.55 146.279 142.496 146.583 142.456C146.981 142.405 147.303 142.367 147.55 142.341C147.8 142.313 147.982 142.266 148.096 142.2C148.212 142.135 148.271 142.021 148.271 141.86V141.825C148.271 141.405 148.156 141.078 147.925 140.845C147.698 140.612 147.353 140.496 146.89 140.496C146.41 140.496 146.033 140.601 145.761 140.811C145.488 141.021 145.296 141.246 145.185 141.485L144.231 141.144C144.401 140.746 144.629 140.436 144.913 140.215C145.2 139.99 145.512 139.834 145.85 139.746C146.191 139.655 146.526 139.61 146.856 139.61C147.066 139.61 147.308 139.635 147.58 139.686C147.856 139.735 148.121 139.835 148.377 139.989C148.636 140.142 148.85 140.374 149.021 140.683C149.191 140.993 149.276 141.408 149.276 141.928V146.24H148.271V145.354H148.219C148.151 145.496 148.038 145.648 147.879 145.81C147.719 145.972 147.508 146.11 147.244 146.223C146.979 146.337 146.657 146.394 146.276 146.394ZM146.43 145.49C146.827 145.49 147.163 145.412 147.435 145.256C147.711 145.1 147.918 144.898 148.058 144.651C148.2 144.404 148.271 144.144 148.271 143.871V142.95C148.228 143.002 148.134 143.048 147.989 143.091C147.847 143.131 147.683 143.166 147.495 143.198C147.31 143.226 147.13 143.252 146.954 143.274C146.781 143.294 146.64 143.311 146.532 143.325C146.271 143.36 146.026 143.415 145.799 143.492C145.575 143.566 145.393 143.678 145.254 143.828C145.117 143.976 145.049 144.178 145.049 144.433C145.049 144.783 145.178 145.047 145.437 145.226C145.698 145.402 146.029 145.49 146.43 145.49ZM153.958 139.695V140.547H150.566V139.695H153.958ZM151.555 138.127H152.561V144.365C152.561 144.649 152.602 144.862 152.684 145.004C152.77 145.144 152.877 145.237 153.008 145.286C153.142 145.331 153.282 145.354 153.43 145.354C153.541 145.354 153.632 145.348 153.703 145.337C153.774 145.323 153.831 145.311 153.873 145.303L154.078 146.206C154.01 146.232 153.914 146.257 153.792 146.283C153.67 146.311 153.515 146.325 153.328 146.325C153.044 146.325 152.765 146.264 152.493 146.142C152.223 146.02 151.998 145.834 151.819 145.584C151.643 145.334 151.555 145.019 151.555 144.638V138.127Z" fill="#64748B"/>
<path d="M515.281 44H314.078C305.397 44 298.359 51.0376 298.359 59.719V147.745C298.359 156.426 305.397 163.464 314.078 163.464H515.281C523.962 163.464 531 156.426 531 147.745V59.719C531 51.0376 523.962 44 515.281 44Z" fill="white" stroke="#E2E8F0" stroke-width="1.17892"/>
<path d="M347.089 62.8623H328.226C322.149 62.8623 317.223 67.7886 317.223 73.8656V92.7283C317.223 98.8053 322.149 103.732 328.226 103.732H347.089C353.166 103.732 358.092 98.8053 358.092 92.7283V73.8656C358.092 67.7886 353.166 62.8623 347.089 62.8623Z" fill="#EAF3DE"/>
<path d="M329 81.7157L335.288 88.0033L346.291 77" stroke="#3B6D11" stroke-width="2.20065" stroke-linecap="round" stroke-linejoin="round"/>
<path d="M318.341 126V115.818H321.971C322.763 115.818 323.419 115.962 323.939 116.251C324.46 116.539 324.849 116.933 325.108 117.434C325.366 117.931 325.495 118.491 325.495 119.114C325.495 119.741 325.364 120.304 325.103 120.805C324.844 121.302 324.453 121.696 323.929 121.988C323.409 122.276 322.754 122.42 321.966 122.42H319.47V121.118H321.826C322.327 121.118 322.733 121.032 323.044 120.859C323.356 120.684 323.585 120.445 323.73 120.143C323.876 119.842 323.949 119.499 323.949 119.114C323.949 118.73 323.876 118.388 323.73 118.09C323.585 117.792 323.354 117.558 323.039 117.389C322.728 117.22 322.317 117.136 321.806 117.136H319.877V126H318.341ZM327.177 126V118.364H328.614V119.577H328.693C328.833 119.166 329.078 118.843 329.429 118.607C329.784 118.369 330.185 118.249 330.632 118.249C330.725 118.249 330.834 118.253 330.96 118.259C331.09 118.266 331.191 118.274 331.264 118.284V119.706C331.204 119.689 331.098 119.671 330.945 119.651C330.793 119.628 330.641 119.616 330.488 119.616C330.137 119.616 329.824 119.691 329.548 119.84C329.277 119.986 329.061 120.19 328.902 120.452C328.743 120.71 328.664 121.005 328.664 121.337V126H327.177ZM335.493 126.154C334.777 126.154 334.153 125.99 333.619 125.662C333.085 125.334 332.671 124.875 332.376 124.285C332.081 123.695 331.934 123.005 331.934 122.217C331.934 121.424 332.081 120.732 332.376 120.138C332.671 119.545 333.085 119.085 333.619 118.756C334.153 118.428 334.777 118.264 335.493 118.264C336.209 118.264 336.834 118.428 337.368 118.756C337.901 119.085 338.315 119.545 338.61 120.138C338.905 120.732 339.053 121.424 339.053 122.217C339.053 123.005 338.905 123.695 338.61 124.285C338.315 124.875 337.901 125.334 337.368 125.662C336.834 125.99 336.209 126.154 335.493 126.154ZM335.498 124.906C335.962 124.906 336.347 124.784 336.652 124.538C336.957 124.293 337.182 123.967 337.328 123.559C337.477 123.151 337.551 122.702 337.551 122.212C337.551 121.724 337.477 121.277 337.328 120.869C337.182 120.458 336.957 120.129 336.652 119.88C336.347 119.631 335.962 119.507 335.498 119.507C335.031 119.507 334.643 119.631 334.335 119.88C334.03 120.129 333.803 120.458 333.654 120.869C333.508 121.277 333.435 121.724 333.435 122.212C333.435 122.702 333.508 123.151 333.654 123.559C333.803 123.967 334.03 124.293 334.335 124.538C334.643 124.784 335.031 124.906 335.498 124.906ZM340.712 126V118.364H342.139V119.607H342.233C342.393 119.186 342.653 118.857 343.014 118.622C343.375 118.384 343.808 118.264 344.312 118.264C344.822 118.264 345.25 118.384 345.594 118.622C345.942 118.861 346.199 119.189 346.365 119.607H346.444C346.627 119.199 346.917 118.874 347.314 118.632C347.712 118.387 348.186 118.264 348.736 118.264C349.429 118.264 349.994 118.481 350.432 118.915C350.872 119.35 351.093 120.004 351.093 120.879V126H349.606V121.018C349.606 120.501 349.465 120.127 349.184 119.895C348.902 119.663 348.566 119.547 348.175 119.547C347.691 119.547 347.314 119.696 347.046 119.994C346.778 120.289 346.643 120.669 346.643 121.133V126H345.162V120.924C345.162 120.51 345.032 120.177 344.774 119.925C344.515 119.673 344.179 119.547 343.765 119.547C343.483 119.547 343.223 119.621 342.984 119.771C342.749 119.916 342.558 120.12 342.412 120.382C342.27 120.644 342.199 120.947 342.199 121.292V126H340.712ZM356.302 126.154C355.586 126.154 354.961 125.99 354.428 125.662C353.894 125.334 353.48 124.875 353.185 124.285C352.89 123.695 352.742 123.005 352.742 122.217C352.742 121.424 352.89 120.732 353.185 120.138C353.48 119.545 353.894 119.085 354.428 118.756C354.961 118.428 355.586 118.264 356.302 118.264C357.018 118.264 357.643 118.428 358.176 118.756C358.71 119.085 359.124 119.545 359.419 120.138C359.714 120.732 359.862 121.424 359.862 122.217C359.862 123.005 359.714 123.695 359.419 124.285C359.124 124.875 358.71 125.334 358.176 125.662C357.643 125.99 357.018 126.154 356.302 126.154ZM356.307 124.906C356.771 124.906 357.155 124.784 357.46 124.538C357.765 124.293 357.991 123.967 358.136 123.559C358.286 123.151 358.36 122.702 358.36 122.212C358.36 121.724 358.286 121.277 358.136 120.869C357.991 120.458 357.765 120.129 357.46 119.88C357.155 119.631 356.771 119.507 356.307 119.507C355.839 119.507 355.452 119.631 355.143 119.88C354.839 120.129 354.612 120.458 354.462 120.869C354.317 121.277 354.244 121.724 354.244 122.212C354.244 122.702 354.317 123.151 354.462 123.559C354.612 123.967 354.839 124.293 355.143 124.538C355.452 124.784 355.839 124.906 356.307 124.906ZM365.085 118.364V119.557H360.914V118.364H365.085ZM362.033 116.534H363.519V123.758C363.519 124.046 363.562 124.263 363.649 124.409C363.735 124.552 363.846 124.649 363.982 124.702C364.121 124.752 364.272 124.777 364.434 124.777C364.553 124.777 364.658 124.769 364.747 124.752C364.837 124.736 364.906 124.722 364.956 124.712L365.225 125.94C365.138 125.973 365.016 126.007 364.857 126.04C364.698 126.076 364.499 126.096 364.26 126.099C363.869 126.106 363.504 126.036 363.166 125.891C362.828 125.745 362.555 125.519 362.346 125.214C362.137 124.91 362.033 124.527 362.033 124.066V116.534ZM366.73 126V118.364H368.216V126H366.73ZM367.48 117.185C367.222 117.185 367 117.099 366.814 116.927C366.632 116.751 366.541 116.542 366.541 116.3C366.541 116.055 366.632 115.846 366.814 115.674C367 115.498 367.222 115.411 367.48 115.411C367.739 115.411 367.959 115.498 368.142 115.674C368.327 115.846 368.42 116.055 368.42 116.3C368.42 116.542 368.327 116.751 368.142 116.927C367.959 117.099 367.739 117.185 367.48 117.185ZM373.433 126.154C372.717 126.154 372.092 125.99 371.558 125.662C371.025 125.334 370.61 124.875 370.316 124.285C370.021 123.695 369.873 123.005 369.873 122.217C369.873 121.424 370.021 120.732 370.316 120.138C370.61 119.545 371.025 119.085 371.558 118.756C372.092 118.428 372.717 118.264 373.433 118.264C374.149 118.264 374.773 118.428 375.307 118.756C375.841 119.085 376.255 119.545 376.55 120.138C376.845 120.732 376.992 121.424 376.992 122.217C376.992 123.005 376.845 123.695 376.55 124.285C376.255 124.875 375.841 125.334 375.307 125.662C374.773 125.99 374.149 126.154 373.433 126.154ZM373.438 124.906C373.902 124.906 374.286 124.784 374.591 124.538C374.896 124.293 375.121 123.967 375.267 123.559C375.416 123.151 375.491 122.702 375.491 122.212C375.491 121.724 375.416 121.277 375.267 120.869C375.121 120.458 374.896 120.129 374.591 119.88C374.286 119.631 373.902 119.507 373.438 119.507C372.97 119.507 372.583 119.631 372.274 119.88C371.969 120.129 371.742 120.458 371.593 120.869C371.447 121.277 371.374 121.724 371.374 122.212C371.374 122.702 371.447 123.151 371.593 123.559C371.742 123.967 371.969 124.293 372.274 124.538C372.583 124.784 372.97 124.906 373.438 124.906ZM380.138 121.466V126H378.652V118.364H380.078V119.607H380.173C380.349 119.202 380.624 118.877 380.998 118.632C381.376 118.387 381.852 118.264 382.425 118.264C382.945 118.264 383.401 118.374 383.792 118.592C384.183 118.808 384.487 119.129 384.702 119.557C384.917 119.984 385.025 120.513 385.025 121.143V126H383.539V121.322C383.539 120.768 383.395 120.336 383.106 120.024C382.818 119.709 382.422 119.552 381.918 119.552C381.573 119.552 381.267 119.626 380.998 119.776C380.733 119.925 380.523 120.143 380.367 120.432C380.214 120.717 380.138 121.062 380.138 121.466ZM392.741 120.228L391.394 120.467C391.337 120.294 391.248 120.13 391.125 119.974C391.006 119.819 390.844 119.691 390.638 119.592C390.433 119.492 390.176 119.442 389.868 119.442C389.447 119.442 389.095 119.537 388.814 119.726C388.532 119.911 388.391 120.152 388.391 120.447C388.391 120.702 388.485 120.907 388.674 121.063C388.863 121.219 389.168 121.347 389.589 121.446L390.802 121.724C391.505 121.887 392.029 122.137 392.373 122.475C392.718 122.813 392.89 123.252 392.89 123.793C392.89 124.25 392.758 124.658 392.493 125.016C392.231 125.37 391.864 125.649 391.394 125.851C390.926 126.053 390.385 126.154 389.768 126.154C388.913 126.154 388.215 125.972 387.675 125.607C387.135 125.239 386.803 124.717 386.681 124.041L388.118 123.822C388.207 124.197 388.391 124.48 388.669 124.673C388.948 124.862 389.311 124.956 389.758 124.956C390.245 124.956 390.635 124.855 390.926 124.653C391.218 124.447 391.364 124.197 391.364 123.902C391.364 123.663 391.275 123.463 391.096 123.3C390.92 123.138 390.65 123.015 390.285 122.933L388.993 122.649C388.28 122.487 387.753 122.228 387.412 121.874C387.074 121.519 386.904 121.07 386.904 120.526C386.904 120.076 387.03 119.681 387.282 119.343C387.534 119.005 387.882 118.741 388.326 118.553C388.77 118.36 389.279 118.264 389.853 118.264C390.678 118.264 391.328 118.443 391.801 118.801C392.275 119.156 392.589 119.631 392.741 120.228Z" fill="#0F172A"/>
<path d="M318.279 146.24V137.513H321.228C321.91 137.513 322.47 137.629 322.907 137.862C323.345 138.093 323.669 138.409 323.879 138.813C324.089 139.216 324.194 139.675 324.194 140.189C324.194 140.703 324.089 141.159 323.879 141.557C323.669 141.955 323.346 142.267 322.912 142.494C322.477 142.719 321.922 142.831 321.245 142.831H318.859V141.877H321.211C321.677 141.877 322.052 141.808 322.336 141.672C322.623 141.536 322.831 141.343 322.958 141.093C323.089 140.84 323.154 140.539 323.154 140.189C323.154 139.84 323.089 139.534 322.958 139.273C322.828 139.012 322.619 138.81 322.332 138.668C322.045 138.523 321.666 138.45 321.194 138.45H319.336V146.24H318.279ZM322.387 142.32L324.535 146.24H323.308L321.194 142.32H322.387ZM325.819 146.24V139.695H326.825V146.24H325.819ZM326.33 138.604C326.134 138.604 325.965 138.537 325.823 138.404C325.684 138.27 325.614 138.11 325.614 137.922C325.614 137.735 325.684 137.574 325.823 137.441C325.965 137.307 326.134 137.24 326.33 137.24C326.526 137.24 326.694 137.307 326.833 137.441C326.975 137.574 327.046 137.735 327.046 137.922C327.046 138.11 326.975 138.27 326.833 138.404C326.694 138.537 326.526 138.604 326.33 138.604ZM331.326 146.377C330.712 146.377 330.184 146.232 329.74 145.942C329.297 145.652 328.956 145.253 328.718 144.744C328.479 144.236 328.36 143.655 328.36 143.002C328.36 142.337 328.482 141.75 328.726 141.242C328.973 140.73 329.317 140.331 329.757 140.044C330.201 139.754 330.718 139.61 331.309 139.61C331.769 139.61 332.184 139.695 332.553 139.865C332.922 140.036 333.225 140.274 333.461 140.581C333.696 140.888 333.843 141.246 333.9 141.655H332.894C332.817 141.357 332.647 141.093 332.382 140.862C332.121 140.629 331.769 140.513 331.326 140.513C330.934 140.513 330.59 140.615 330.294 140.82C330.002 141.021 329.773 141.307 329.608 141.676C329.446 142.043 329.365 142.473 329.365 142.968C329.365 143.473 329.445 143.914 329.604 144.289C329.766 144.664 329.993 144.955 330.286 145.162C330.581 145.369 330.928 145.473 331.326 145.473C331.587 145.473 331.824 145.428 332.037 145.337C332.25 145.246 332.431 145.115 332.578 144.945C332.726 144.774 332.831 144.57 332.894 144.331H333.9C333.843 144.718 333.702 145.066 333.478 145.375C333.256 145.682 332.962 145.926 332.596 146.108C332.232 146.287 331.809 146.377 331.326 146.377ZM336.375 142.303V146.24H335.37V137.513H336.375V140.718H336.461C336.614 140.379 336.844 140.111 337.151 139.912C337.461 139.71 337.873 139.61 338.387 139.61C338.833 139.61 339.223 139.699 339.559 139.878C339.894 140.054 340.154 140.325 340.338 140.692C340.526 141.056 340.62 141.519 340.62 142.081V146.24H339.614V142.149C339.614 141.629 339.479 141.227 339.209 140.943C338.942 140.656 338.571 140.513 338.097 140.513C337.767 140.513 337.472 140.583 337.211 140.722C336.952 140.861 336.748 141.064 336.597 141.331C336.449 141.598 336.375 141.922 336.375 142.303ZM345.835 146.24V139.695H346.84V146.24H345.835ZM346.346 138.604C346.15 138.604 345.981 138.537 345.839 138.404C345.7 138.27 345.63 138.11 345.63 137.922C345.63 137.735 345.7 137.574 345.839 137.441C345.981 137.307 346.15 137.24 346.346 137.24C346.542 137.24 346.71 137.307 346.849 137.441C346.991 137.574 347.062 137.735 347.062 137.922C347.062 138.11 346.991 138.27 346.849 138.404C346.71 138.537 346.542 138.604 346.346 138.604ZM348.682 146.24V139.695H349.654V140.718H349.739C349.875 140.368 350.096 140.097 350.4 139.904C350.703 139.708 351.069 139.61 351.495 139.61C351.926 139.61 352.286 139.708 352.573 139.904C352.863 140.097 353.088 140.368 353.25 140.718H353.319C353.486 140.379 353.738 140.111 354.073 139.912C354.408 139.71 354.81 139.61 355.279 139.61C355.864 139.61 356.343 139.793 356.715 140.159C357.087 140.523 357.273 141.09 357.273 141.86V146.24H356.267V141.86C356.267 141.377 356.135 141.031 355.871 140.824C355.607 140.617 355.296 140.513 354.938 140.513C354.478 140.513 354.121 140.652 353.868 140.931C353.615 141.206 353.489 141.556 353.489 141.979V146.24H352.466V141.757C352.466 141.385 352.346 141.085 352.104 140.858C351.863 140.628 351.551 140.513 351.171 140.513C350.909 140.513 350.665 140.583 350.438 140.722C350.213 140.861 350.032 141.054 349.892 141.301C349.756 141.546 349.688 141.828 349.688 142.149V146.24H348.682ZM361.038 146.394C360.623 146.394 360.247 146.316 359.909 146.159C359.571 146 359.302 145.771 359.103 145.473C358.904 145.172 358.805 144.808 358.805 144.382C358.805 144.007 358.879 143.703 359.027 143.47C359.174 143.235 359.372 143.05 359.619 142.916C359.866 142.783 360.139 142.683 360.437 142.618C360.738 142.55 361.041 142.496 361.345 142.456C361.743 142.405 362.065 142.367 362.312 142.341C362.562 142.313 362.744 142.266 362.858 142.2C362.974 142.135 363.032 142.021 363.032 141.86V141.825C363.032 141.405 362.917 141.078 362.687 140.845C362.46 140.612 362.115 140.496 361.652 140.496C361.172 140.496 360.795 140.601 360.522 140.811C360.25 141.021 360.058 141.246 359.947 141.485L358.993 141.144C359.163 140.746 359.39 140.436 359.674 140.215C359.961 139.99 360.274 139.834 360.612 139.746C360.953 139.655 361.288 139.61 361.618 139.61C361.828 139.61 362.069 139.635 362.342 139.686C362.618 139.735 362.883 139.835 363.139 139.989C363.397 140.142 363.612 140.374 363.782 140.683C363.953 140.993 364.038 141.408 364.038 141.928V146.24H363.032V145.354H362.981C362.913 145.496 362.799 145.648 362.64 145.81C362.481 145.972 362.27 146.11 362.005 146.223C361.741 146.337 361.419 146.394 361.038 146.394ZM361.191 145.49C361.589 145.49 361.924 145.412 362.197 145.256C362.473 145.1 362.68 144.898 362.819 144.651C362.961 144.404 363.032 144.144 363.032 143.871V142.95C362.99 143.002 362.896 143.048 362.751 143.091C362.609 143.131 362.444 143.166 362.257 143.198C362.072 143.226 361.892 143.252 361.716 143.274C361.542 143.294 361.402 143.311 361.294 143.325C361.032 143.36 360.788 143.415 360.561 143.492C360.336 143.566 360.154 143.678 360.015 143.828C359.879 143.976 359.811 144.178 359.811 144.433C359.811 144.783 359.94 145.047 360.199 145.226C360.46 145.402 360.791 145.49 361.191 145.49ZM368.516 148.831C368.03 148.831 367.612 148.769 367.263 148.644C366.913 148.521 366.622 148.36 366.389 148.158C366.159 147.959 365.976 147.746 365.839 147.519L366.641 146.956C366.732 147.075 366.847 147.212 366.986 147.365C367.125 147.521 367.315 147.656 367.557 147.77C367.801 147.887 368.121 147.945 368.516 147.945C369.044 147.945 369.48 147.817 369.824 147.561C370.168 147.306 370.339 146.905 370.339 146.36V145.03H370.254C370.18 145.149 370.075 145.297 369.939 145.473C369.805 145.646 369.612 145.801 369.359 145.938C369.109 146.071 368.771 146.138 368.345 146.138C367.817 146.138 367.342 146.013 366.922 145.763C366.504 145.513 366.173 145.149 365.929 144.672C365.688 144.195 365.567 143.615 365.567 142.933C365.567 142.263 365.685 141.679 365.92 141.182C366.156 140.682 366.484 140.296 366.905 140.023C367.325 139.747 367.811 139.61 368.362 139.61C368.788 139.61 369.126 139.681 369.376 139.823C369.629 139.962 369.822 140.121 369.956 140.3C370.092 140.476 370.197 140.621 370.271 140.735H370.374V139.695H371.345V146.428C371.345 146.99 371.217 147.448 370.962 147.8C370.709 148.155 370.368 148.415 369.939 148.58C369.513 148.747 369.038 148.831 368.516 148.831ZM368.482 145.235C368.885 145.235 369.226 145.142 369.504 144.958C369.783 144.773 369.994 144.507 370.139 144.161C370.284 143.814 370.357 143.399 370.357 142.916C370.357 142.445 370.286 142.029 370.143 141.668C370.001 141.307 369.791 141.024 369.513 140.82C369.234 140.615 368.891 140.513 368.482 140.513C368.055 140.513 367.7 140.621 367.416 140.837C367.135 141.053 366.923 141.343 366.781 141.706C366.642 142.07 366.572 142.473 366.572 142.916C366.572 143.371 366.643 143.773 366.786 144.122C366.93 144.469 367.143 144.742 367.425 144.941C367.709 145.137 368.061 145.235 368.482 145.235ZM375.93 146.377C375.3 146.377 374.756 146.237 374.298 145.959C373.844 145.678 373.493 145.286 373.246 144.783C373.001 144.277 372.879 143.689 372.879 143.019C372.879 142.348 373.001 141.757 373.246 141.246C373.493 140.732 373.837 140.331 374.277 140.044C374.72 139.754 375.237 139.61 375.828 139.61C376.169 139.61 376.506 139.666 376.838 139.78C377.17 139.894 377.473 140.078 377.746 140.334C378.018 140.587 378.236 140.922 378.398 141.34C378.56 141.757 378.641 142.271 378.641 142.882V143.308H373.595V142.439H377.618C377.618 142.07 377.544 141.74 377.396 141.45C377.251 141.161 377.044 140.932 376.774 140.764C376.507 140.597 376.192 140.513 375.828 140.513C375.428 140.513 375.081 140.612 374.788 140.811C374.499 141.007 374.276 141.263 374.119 141.578C373.963 141.894 373.885 142.232 373.885 142.593V143.172C373.885 143.666 373.97 144.085 374.141 144.429C374.314 144.77 374.554 145.03 374.861 145.209C375.168 145.385 375.524 145.473 375.93 145.473C376.195 145.473 376.433 145.436 376.646 145.362C376.862 145.286 377.048 145.172 377.205 145.021C377.361 144.868 377.482 144.678 377.567 144.45L378.538 144.723C378.436 145.053 378.264 145.343 378.023 145.593C377.781 145.84 377.483 146.033 377.128 146.172C376.773 146.308 376.374 146.377 375.93 146.377ZM386.102 144.706V139.081H387.057V144.706H386.102ZM383.767 142.371V141.416H389.392V142.371H383.767ZM401.99 140.24H400.933C400.87 139.936 400.761 139.669 400.605 139.439C400.451 139.209 400.264 139.016 400.042 138.86C399.824 138.7 399.581 138.581 399.314 138.502C399.047 138.422 398.768 138.382 398.478 138.382C397.95 138.382 397.471 138.516 397.042 138.783C396.616 139.05 396.277 139.443 396.024 139.963C395.774 140.483 395.649 141.121 395.649 141.877C395.649 142.632 395.774 143.27 396.024 143.79C396.277 144.31 396.616 144.703 397.042 144.97C397.471 145.237 397.95 145.371 398.478 145.371C398.768 145.371 399.047 145.331 399.314 145.252C399.581 145.172 399.824 145.054 400.042 144.898C400.264 144.739 400.451 144.544 400.605 144.314C400.761 144.081 400.87 143.814 400.933 143.513H401.99C401.91 143.959 401.765 144.358 401.555 144.71C401.345 145.063 401.083 145.362 400.771 145.61C400.458 145.854 400.108 146.04 399.718 146.168C399.332 146.296 398.919 146.36 398.478 146.36C397.734 146.36 397.072 146.178 396.493 145.814C395.913 145.45 395.457 144.933 395.125 144.263C394.792 143.593 394.626 142.797 394.626 141.877C394.626 140.956 394.792 140.161 395.125 139.49C395.457 138.82 395.913 138.303 396.493 137.939C397.072 137.575 397.734 137.394 398.478 137.394C398.919 137.394 399.332 137.458 399.718 137.585C400.108 137.713 400.458 137.901 400.771 138.148C401.083 138.392 401.345 138.691 401.555 139.043C401.765 139.392 401.91 139.791 401.99 140.24ZM403.22 138.45V137.513H409.766V138.45H407.021V146.24H405.964V138.45H403.22ZM410.735 146.24H409.627L412.832 137.513H413.923L417.127 146.24H416.019L413.411 138.894H413.343L410.735 146.24ZM411.144 142.831H415.61V143.769H411.144V142.831Z" fill="#64748B"/>
<path d="M266.922 179.183H65.719C57.0376 179.183 50 186.22 50 194.902V282.928C50 291.609 57.0376 298.647 65.719 298.647H266.922C275.603 298.647 282.641 291.609 282.641 282.928V194.902C282.641 186.22 275.603 179.183 266.922 179.183Z" fill="white" stroke="#E2E8F0" stroke-width="1.17892"/>
<path d="M98.7293 198.046H79.8665C73.7896 198.046 68.8633 202.972 68.8633 209.049V227.912C68.8633 233.989 73.7896 238.915 79.8665 238.915H98.7293C104.806 238.915 109.733 233.989 109.733 227.912V209.049C109.733 202.972 104.806 198.046 98.7293 198.046Z" fill="#FAEEDA"/>
<path d="M97.7 213H79.3C78.0297 213 77 214.033 77 215.308V225.692C77 226.967 78.0297 228 79.3 228H97.7C98.9703 228 100 226.967 100 225.692V215.308C100 214.033 98.9703 213 97.7 213Z" stroke="#854F0B" stroke-width="1.88627"/>
<path d="M81 213V210.6C81 209.645 81.3688 208.73 82.0251 208.054C82.6815 207.379 83.5717 207 84.5 207C85.4283 207 86.3185 207.379 86.9749 208.054C87.6312 208.73 88 209.645 88 210.6V213" stroke="#854F0B" stroke-width="1.88627" stroke-linecap="round"/>
<path d="M78.4386 254.403H76.8874C76.8278 254.071 76.7167 253.78 76.5543 253.528C76.3919 253.276 76.1931 253.062 75.9577 252.886C75.7224 252.711 75.4589 252.578 75.1673 252.489C74.8789 252.399 74.5723 252.354 74.2475 252.354C73.6609 252.354 73.1355 252.502 72.6715 252.797C72.2108 253.092 71.8462 253.524 71.5778 254.094C71.3126 254.665 71.18 255.361 71.18 256.183C71.18 257.011 71.3126 257.71 71.5778 258.281C71.8462 258.851 72.2125 259.281 72.6765 259.573C73.1405 259.865 73.6625 260.011 74.2425 260.011C74.564 260.011 74.869 259.968 75.1573 259.881C75.449 259.792 75.7125 259.661 75.9478 259.489C76.1831 259.316 76.382 259.106 76.5444 258.857C76.7101 258.605 76.8245 258.317 76.8874 257.992L78.4386 257.997C78.3557 258.498 78.195 258.958 77.9563 259.379C77.721 259.797 77.4177 260.158 77.0465 260.463C76.6786 260.765 76.2577 260.998 75.7837 261.164C75.3098 261.33 74.7927 261.413 74.2326 261.413C73.351 261.413 72.5655 261.204 71.8761 260.786C71.1867 260.365 70.6431 259.764 70.2454 258.982C69.851 258.199 69.6538 257.266 69.6538 256.183C69.6538 255.095 69.8526 254.162 70.2504 253.384C70.6481 252.601 71.1916 252.001 71.881 251.584C72.5704 251.163 73.3543 250.952 74.2326 250.952C74.7728 250.952 75.2766 251.03 75.744 251.186C76.2146 251.339 76.6372 251.564 77.0117 251.862C77.3862 252.157 77.6961 252.518 77.9414 252.946C78.1867 253.37 78.3524 253.856 78.4386 254.403ZM83.3741 261.428C82.6582 261.428 82.0334 261.263 81.4998 260.935C80.9662 260.607 80.5519 260.148 80.2569 259.558C79.9619 258.968 79.8145 258.279 79.8145 257.49C79.8145 256.698 79.9619 256.005 80.2569 255.412C80.5519 254.819 80.9662 254.358 81.4998 254.03C82.0334 253.702 82.6582 253.538 83.3741 253.538C84.09 253.538 84.7148 253.702 85.2484 254.03C85.782 254.358 86.1963 254.819 86.4913 255.412C86.7863 256.005 86.9338 256.698 86.9338 257.49C86.9338 258.279 86.7863 258.968 86.4913 259.558C86.1963 260.148 85.782 260.607 85.2484 260.935C84.7148 261.263 84.09 261.428 83.3741 261.428ZM83.3791 260.18C83.8431 260.18 84.2276 260.057 84.5325 259.812C84.8374 259.567 85.0628 259.24 85.2086 258.832C85.3578 258.425 85.4324 257.976 85.4324 257.485C85.4324 256.998 85.3578 256.55 85.2086 256.143C85.0628 255.732 84.8374 255.402 84.5325 255.153C84.2276 254.905 83.8431 254.781 83.3791 254.781C82.9118 254.781 82.524 254.905 82.2157 255.153C81.9108 255.402 81.6838 255.732 81.5346 256.143C81.3888 256.55 81.3159 256.998 81.3159 257.485C81.3159 257.976 81.3888 258.425 81.5346 258.832C81.6838 259.24 81.9108 259.567 82.2157 259.812C82.524 260.057 82.9118 260.18 83.3791 260.18ZM93.4304 258.107V253.637H94.9219V261.273H93.4602V259.951H93.3807C93.205 260.359 92.9233 260.698 92.5355 260.97C92.151 261.239 91.6721 261.373 91.0987 261.373C90.6082 261.373 90.174 261.265 89.7962 261.05C89.4216 260.831 89.1267 260.508 88.9112 260.08C88.6991 259.653 88.593 259.124 88.593 258.494V253.637H90.0795V258.315C90.0795 258.836 90.2237 259.25 90.5121 259.558C90.8004 259.866 91.175 260.021 91.6357 260.021C91.9141 260.021 92.1908 259.951 92.4659 259.812C92.7443 259.673 92.9747 259.462 93.157 259.18C93.3426 258.899 93.4337 258.541 93.4304 258.107ZM96.9192 264.137V253.637H98.3709V254.875H98.4952C98.5814 254.716 98.7057 254.532 98.8681 254.323C99.0305 254.114 99.2559 253.932 99.5442 253.776C99.8326 253.617 100.214 253.538 100.688 253.538C101.304 253.538 101.854 253.693 102.338 254.005C102.822 254.317 103.202 254.766 103.477 255.352C103.755 255.939 103.894 256.645 103.894 257.47C103.894 258.295 103.757 259.003 103.482 259.593C103.207 260.18 102.829 260.632 102.348 260.95C101.868 261.265 101.319 261.423 100.703 261.423C100.239 261.423 99.8591 261.345 99.5641 261.189C99.2724 261.033 99.0437 260.851 98.878 260.642C98.7123 260.433 98.5847 260.248 98.4952 260.085H98.4057V264.137H96.9192ZM98.3759 257.455C98.3759 257.992 98.4538 258.463 98.6096 258.867C98.7653 259.272 98.9907 259.588 99.2857 259.817C99.5807 260.042 99.9419 260.155 100.369 260.155C100.814 260.155 101.185 260.037 101.483 259.802C101.781 259.563 102.007 259.24 102.159 258.832C102.315 258.425 102.393 257.966 102.393 257.455C102.393 256.951 102.317 256.499 102.164 256.098C102.015 255.697 101.79 255.38 101.488 255.148C101.19 254.916 100.817 254.8 100.369 254.8C99.9386 254.8 99.574 254.911 99.2757 255.134C98.9808 255.356 98.757 255.665 98.6046 256.063C98.4521 256.461 98.3759 256.925 98.3759 257.455ZM108.776 261.428C108.061 261.428 107.436 261.263 106.902 260.935C106.369 260.607 105.954 260.148 105.659 259.558C105.364 258.968 105.217 258.279 105.217 257.49C105.217 256.698 105.364 256.005 105.659 255.412C105.954 254.819 106.369 254.358 106.902 254.03C107.436 253.702 108.061 253.538 108.776 253.538C109.492 253.538 110.117 253.702 110.651 254.03C111.184 254.358 111.599 254.819 111.894 255.412C112.189 256.005 112.336 256.698 112.336 257.49C112.336 258.279 112.189 258.968 111.894 259.558C111.599 260.148 111.184 260.607 110.651 260.935C110.117 261.263 109.492 261.428 108.776 261.428ZM108.781 260.18C109.245 260.18 109.63 260.057 109.935 259.812C110.24 259.567 110.465 259.24 110.611 258.832C110.76 258.425 110.835 257.976 110.835 257.485C110.835 256.998 110.76 256.55 110.611 256.143C110.465 255.732 110.24 255.402 109.935 255.153C109.63 254.905 109.245 254.781 108.781 254.781C108.314 254.781 107.926 254.905 107.618 255.153C107.313 255.402 107.086 255.732 106.937 256.143C106.791 256.55 106.718 256.998 106.718 257.485C106.718 257.976 106.791 258.425 106.937 258.832C107.086 259.24 107.313 259.567 107.618 259.812C107.926 260.057 108.314 260.18 108.781 260.18ZM115.482 256.739V261.273H113.995V253.637H115.422V254.88H115.517C115.692 254.476 115.967 254.151 116.342 253.906C116.72 253.66 117.195 253.538 117.769 253.538C118.289 253.538 118.745 253.647 119.136 253.866C119.527 254.081 119.83 254.403 120.046 254.83C120.261 255.258 120.369 255.786 120.369 256.416V261.273H118.882V256.595C118.882 256.042 118.738 255.609 118.45 255.298C118.162 254.983 117.766 254.825 117.262 254.825C116.917 254.825 116.61 254.9 116.342 255.049C116.077 255.198 115.866 255.417 115.711 255.705C115.558 255.99 115.482 256.335 115.482 256.739ZM128.085 255.501L126.738 255.74C126.681 255.568 126.592 255.404 126.469 255.248C126.35 255.092 126.187 254.964 125.982 254.865C125.776 254.766 125.52 254.716 125.211 254.716C124.79 254.716 124.439 254.81 124.157 254.999C123.876 255.185 123.735 255.425 123.735 255.72C123.735 255.975 123.829 256.181 124.018 256.337C124.207 256.492 124.512 256.62 124.933 256.719L126.146 256.998C126.849 257.16 127.372 257.411 127.717 257.749C128.062 258.087 128.234 258.526 128.234 259.066C128.234 259.523 128.101 259.931 127.836 260.289C127.574 260.644 127.208 260.922 126.738 261.124C126.27 261.326 125.728 261.428 125.112 261.428C124.257 261.428 123.559 261.245 123.019 260.881C122.479 260.513 122.147 259.991 122.025 259.315L123.461 259.096C123.551 259.47 123.735 259.754 124.013 259.946C124.292 260.135 124.654 260.229 125.102 260.229C125.589 260.229 125.979 260.128 126.27 259.926C126.562 259.721 126.708 259.47 126.708 259.175C126.708 258.937 126.618 258.736 126.439 258.574C126.264 258.411 125.993 258.289 125.629 258.206L124.336 257.923C123.624 257.76 123.097 257.502 122.755 257.147C122.417 256.792 122.248 256.343 122.248 255.8C122.248 255.349 122.374 254.955 122.626 254.616C122.878 254.278 123.226 254.015 123.67 253.826C124.114 253.634 124.623 253.538 125.196 253.538C126.022 253.538 126.671 253.717 127.145 254.075C127.619 254.429 127.932 254.905 128.085 255.501Z" fill="#0F172A"/>
<path d="M70.2781 281.423H69.1701L72.3746 272.696H73.4656L76.6701 281.423H75.5621L72.9542 274.076H72.886L70.2781 281.423ZM70.6871 278.014H75.1531V278.951H70.6871V278.014ZM82.0181 278.747V274.877H83.0238V281.423H82.0181V280.315H81.9499C81.7965 280.647 81.5579 280.93 81.234 281.163C80.9102 281.393 80.5011 281.508 80.0067 281.508C79.5977 281.508 79.234 281.419 78.9158 281.24C78.5977 281.058 78.3477 280.785 78.1658 280.421C77.984 280.055 77.8931 279.593 77.8931 279.036V274.877H78.8988V278.968C78.8988 279.446 79.0323 279.826 79.2994 280.11C79.5692 280.394 79.913 280.536 80.3306 280.536C80.5806 280.536 80.8349 280.473 81.0934 280.345C81.3548 280.217 81.5735 280.021 81.7496 279.757C81.9286 279.492 82.0181 279.156 82.0181 278.747ZM87.7124 274.877V275.73H84.3203V274.877H87.7124ZM85.3089 273.309H86.3146V279.548C86.3146 279.832 86.3558 280.045 86.4382 280.187C86.5234 280.326 86.6314 280.42 86.7621 280.468C86.8956 280.514 87.0362 280.536 87.1839 280.536C87.2947 280.536 87.3857 280.531 87.4567 280.519C87.5277 280.505 87.5845 280.494 87.6271 280.485L87.8317 281.389C87.7635 281.414 87.6683 281.44 87.5462 281.465C87.424 281.494 87.2692 281.508 87.0817 281.508C86.7976 281.508 86.5192 281.447 86.2464 281.325C85.9766 281.203 85.7521 281.017 85.5732 280.767C85.397 280.517 85.3089 280.201 85.3089 279.821V273.309ZM91.8139 281.559C91.223 281.559 90.7045 281.419 90.2585 281.137C89.8153 280.856 89.4688 280.463 89.2188 279.957C88.9716 279.451 88.848 278.86 88.848 278.184C88.848 277.502 88.9716 276.907 89.2188 276.399C89.4688 275.89 89.8153 275.495 90.2585 275.214C90.7045 274.933 91.223 274.792 91.8139 274.792C92.4048 274.792 92.9219 274.933 93.3651 275.214C93.8111 275.495 94.1577 275.89 94.4048 276.399C94.6548 276.907 94.7798 277.502 94.7798 278.184C94.7798 278.86 94.6548 279.451 94.4048 279.957C94.1577 280.463 93.8111 280.856 93.3651 281.137C92.9219 281.419 92.4048 281.559 91.8139 281.559ZM91.8139 280.656C92.2628 280.656 92.6321 280.541 92.9219 280.311C93.2116 280.081 93.4261 279.778 93.5653 279.403C93.7045 279.028 93.7741 278.622 93.7741 278.184C93.7741 277.747 93.7045 277.339 93.5653 276.961C93.4261 276.583 93.2116 276.278 92.9219 276.045C92.6321 275.812 92.2628 275.696 91.8139 275.696C91.3651 275.696 90.9957 275.812 90.706 276.045C90.4162 276.278 90.2017 276.583 90.0625 276.961C89.9233 277.339 89.8537 277.747 89.8537 278.184C89.8537 278.622 89.9233 279.028 90.0625 279.403C90.2017 279.778 90.4162 280.081 90.706 280.311C90.9957 280.541 91.3651 280.656 91.8139 280.656ZM100.065 277.213V278.15H96.2468V277.213H100.065ZM104.494 281.559C103.88 281.559 103.352 281.414 102.908 281.125C102.465 280.835 102.124 280.436 101.886 279.927C101.647 279.419 101.528 278.838 101.528 278.184C101.528 277.519 101.65 276.933 101.894 276.424C102.141 275.913 102.485 275.514 102.925 275.227C103.369 274.937 103.886 274.792 104.477 274.792C104.937 274.792 105.352 274.877 105.721 275.048C106.09 275.218 106.393 275.457 106.629 275.764C106.864 276.071 107.011 276.429 107.067 276.838H106.062C105.985 276.539 105.815 276.275 105.55 276.045C105.289 275.812 104.937 275.696 104.494 275.696C104.102 275.696 103.758 275.798 103.462 276.002C103.17 276.204 102.941 276.49 102.776 276.859C102.614 277.225 102.533 277.656 102.533 278.15C102.533 278.656 102.613 279.096 102.772 279.471C102.934 279.846 103.161 280.137 103.454 280.345C103.749 280.552 104.096 280.656 104.494 280.656C104.755 280.656 104.992 280.61 105.205 280.519C105.418 280.429 105.599 280.298 105.746 280.127C105.894 279.957 105.999 279.752 106.062 279.514H107.067C107.011 279.9 106.87 280.248 106.646 280.558C106.424 280.865 106.13 281.109 105.763 281.291C105.4 281.47 104.977 281.559 104.494 281.559ZM111.197 281.559C110.606 281.559 110.087 281.419 109.641 281.137C109.198 280.856 108.852 280.463 108.602 279.957C108.354 279.451 108.231 278.86 108.231 278.184C108.231 277.502 108.354 276.907 108.602 276.399C108.852 275.89 109.198 275.495 109.641 275.214C110.087 274.933 110.606 274.792 111.197 274.792C111.788 274.792 112.305 274.933 112.748 275.214C113.194 275.495 113.54 275.89 113.788 276.399C114.038 276.907 114.163 277.502 114.163 278.184C114.163 278.86 114.038 279.451 113.788 279.957C113.54 280.463 113.194 280.856 112.748 281.137C112.305 281.419 111.788 281.559 111.197 281.559ZM111.197 280.656C111.646 280.656 112.015 280.541 112.305 280.311C112.594 280.081 112.809 279.778 112.948 279.403C113.087 279.028 113.157 278.622 113.157 278.184C113.157 277.747 113.087 277.339 112.948 276.961C112.809 276.583 112.594 276.278 112.305 276.045C112.015 275.812 111.646 275.696 111.197 275.696C110.748 275.696 110.379 275.812 110.089 276.045C109.799 276.278 109.585 276.583 109.445 276.961C109.306 277.339 109.237 277.747 109.237 278.184C109.237 278.622 109.306 279.028 109.445 279.403C109.585 279.778 109.799 280.081 110.089 280.311C110.379 280.541 110.748 280.656 111.197 280.656ZM115.698 283.877V274.877H116.669V275.917H116.789C116.863 275.804 116.965 275.659 117.096 275.483C117.229 275.304 117.419 275.144 117.667 275.005C117.917 274.863 118.255 274.792 118.681 274.792C119.232 274.792 119.718 274.93 120.138 275.206C120.559 275.481 120.887 275.872 121.123 276.377C121.358 276.883 121.476 277.48 121.476 278.167C121.476 278.86 121.358 279.461 121.123 279.97C120.887 280.475 120.56 280.867 120.142 281.146C119.725 281.421 119.243 281.559 118.698 281.559C118.277 281.559 117.941 281.49 117.688 281.35C117.435 281.208 117.24 281.048 117.104 280.869C116.968 280.687 116.863 280.536 116.789 280.417H116.703V283.877H115.698ZM116.686 278.15C116.686 278.644 116.759 279.081 116.904 279.458C117.049 279.833 117.26 280.127 117.539 280.34C117.817 280.551 118.158 280.656 118.561 280.656C118.982 280.656 119.333 280.545 119.614 280.323C119.898 280.099 120.111 279.798 120.253 279.42C120.398 279.039 120.471 278.616 120.471 278.15C120.471 277.69 120.4 277.275 120.257 276.906C120.118 276.534 119.907 276.24 119.623 276.024C119.341 275.805 118.988 275.696 118.561 275.696C118.152 275.696 117.809 275.799 117.53 276.007C117.252 276.211 117.042 276.498 116.9 276.867C116.757 277.234 116.686 277.661 116.686 278.15ZM123.424 283.877C123.253 283.877 123.101 283.863 122.968 283.835C122.834 283.809 122.742 283.784 122.691 283.758L122.946 282.872C123.191 282.934 123.407 282.957 123.594 282.94C123.782 282.923 123.948 282.839 124.093 282.688C124.24 282.541 124.375 282.301 124.498 281.968L124.685 281.457L122.265 274.877H123.355L125.162 280.093H125.23L127.037 274.877H128.128L125.35 282.377C125.225 282.715 125.07 282.995 124.885 283.217C124.701 283.441 124.486 283.608 124.242 283.715C124 283.823 123.728 283.877 123.424 283.877ZM135.49 281.559C134.899 281.559 134.38 281.419 133.934 281.137C133.491 280.856 133.145 280.463 132.895 279.957C132.647 279.451 132.524 278.86 132.524 278.184C132.524 277.502 132.647 276.907 132.895 276.399C133.145 275.89 133.491 275.495 133.934 275.214C134.38 274.933 134.899 274.792 135.49 274.792C136.081 274.792 136.598 274.933 137.041 275.214C137.487 275.495 137.833 275.89 138.081 276.399C138.331 276.907 138.456 277.502 138.456 278.184C138.456 278.86 138.331 279.451 138.081 279.957C137.833 280.463 137.487 280.856 137.041 281.137C136.598 281.419 136.081 281.559 135.49 281.559ZM135.49 280.656C135.939 280.656 136.308 280.541 136.598 280.311C136.887 280.081 137.102 279.778 137.241 279.403C137.38 279.028 137.45 278.622 137.45 278.184C137.45 277.747 137.38 277.339 137.241 276.961C137.102 276.583 136.887 276.278 136.598 276.045C136.308 275.812 135.939 275.696 135.49 275.696C135.041 275.696 134.672 275.812 134.382 276.045C134.092 276.278 133.877 276.583 133.738 276.961C133.599 277.339 133.529 277.747 133.529 278.184C133.529 278.622 133.599 279.028 133.738 279.403C133.877 279.778 134.092 280.081 134.382 280.311C134.672 280.541 135.041 280.656 135.49 280.656ZM140.996 277.485V281.423H139.991V274.877H140.962V275.9H141.048C141.201 275.568 141.434 275.301 141.746 275.099C142.059 274.894 142.462 274.792 142.957 274.792C143.4 274.792 143.788 274.883 144.12 275.065C144.452 275.244 144.711 275.517 144.896 275.883C145.08 276.247 145.173 276.707 145.173 277.264V281.423H144.167V277.332C144.167 276.818 144.033 276.417 143.766 276.13C143.499 275.84 143.133 275.696 142.667 275.696C142.346 275.696 142.059 275.765 141.806 275.904C141.556 276.044 141.359 276.247 141.214 276.514C141.069 276.781 140.996 277.105 140.996 277.485ZM153.232 274.877V275.73H149.84V274.877H153.232ZM150.828 273.309H151.834V279.548C151.834 279.832 151.875 280.045 151.958 280.187C152.043 280.326 152.151 280.42 152.282 280.468C152.415 280.514 152.556 280.536 152.703 280.536C152.814 280.536 152.905 280.531 152.976 280.519C153.047 280.505 153.104 280.494 153.147 280.485L153.351 281.389C153.283 281.414 153.188 281.44 153.066 281.465C152.944 281.494 152.789 281.508 152.601 281.508C152.317 281.508 152.039 281.447 151.766 281.325C151.496 281.203 151.272 281.017 151.093 280.767C150.917 280.517 150.828 280.201 150.828 279.821V273.309ZM156.671 281.576C156.256 281.576 155.88 281.498 155.542 281.342C155.203 281.183 154.935 280.954 154.736 280.656C154.537 280.355 154.438 279.991 154.438 279.565C154.438 279.19 154.512 278.886 154.659 278.653C154.807 278.417 155.005 278.233 155.252 278.099C155.499 277.965 155.772 277.866 156.07 277.801C156.371 277.733 156.674 277.679 156.978 277.639C157.375 277.588 157.698 277.549 157.945 277.524C158.195 277.495 158.377 277.448 158.49 277.383C158.607 277.318 158.665 277.204 158.665 277.042V277.008C158.665 276.588 158.55 276.261 158.32 276.028C158.093 275.795 157.748 275.679 157.284 275.679C156.804 275.679 156.428 275.784 156.155 275.994C155.882 276.204 155.691 276.429 155.58 276.667L154.625 276.326C154.796 275.929 155.023 275.619 155.307 275.397C155.594 275.173 155.907 275.017 156.245 274.929C156.586 274.838 156.921 274.792 157.25 274.792C157.461 274.792 157.702 274.818 157.975 274.869C158.25 274.917 158.516 275.018 158.772 275.171C159.03 275.325 159.245 275.556 159.415 275.866C159.586 276.176 159.671 276.59 159.671 277.11V281.423H158.665V280.536H158.614C158.546 280.679 158.432 280.831 158.273 280.992C158.114 281.154 157.902 281.292 157.638 281.406C157.374 281.519 157.051 281.576 156.671 281.576ZM156.824 280.673C157.222 280.673 157.557 280.595 157.83 280.438C158.105 280.282 158.313 280.081 158.452 279.833C158.594 279.586 158.665 279.326 158.665 279.054V278.133C158.623 278.184 158.529 278.231 158.384 278.274C158.242 278.313 158.077 278.349 157.89 278.38C157.705 278.409 157.525 278.434 157.348 278.457C157.175 278.477 157.034 278.494 156.926 278.508C156.665 278.542 156.421 278.598 156.194 278.674C155.969 278.748 155.787 278.86 155.648 279.011C155.512 279.159 155.444 279.36 155.444 279.616C155.444 279.965 155.573 280.23 155.831 280.409C156.093 280.585 156.424 280.673 156.824 280.673ZM161.506 283.877V274.877H162.478V275.917H162.597C162.671 275.804 162.773 275.659 162.904 275.483C163.038 275.304 163.228 275.144 163.475 275.005C163.725 274.863 164.063 274.792 164.489 274.792C165.04 274.792 165.526 274.93 165.947 275.206C166.367 275.481 166.695 275.872 166.931 276.377C167.167 276.883 167.285 277.48 167.285 278.167C167.285 278.86 167.167 279.461 166.931 279.97C166.695 280.475 166.369 280.867 165.951 281.146C165.533 281.421 165.052 281.559 164.506 281.559C164.086 281.559 163.749 281.49 163.496 281.35C163.244 281.208 163.049 281.048 162.913 280.869C162.776 280.687 162.671 280.536 162.597 280.417H162.512V283.877H161.506ZM162.495 278.15C162.495 278.644 162.567 279.081 162.712 279.458C162.857 279.833 163.069 280.127 163.347 280.34C163.626 280.551 163.967 280.656 164.37 280.656C164.79 280.656 165.141 280.545 165.423 280.323C165.707 280.099 165.92 279.798 166.062 279.42C166.207 279.039 166.279 278.616 166.279 278.15C166.279 277.69 166.208 277.275 166.066 276.906C165.927 276.534 165.715 276.24 165.431 276.024C165.15 275.805 164.796 275.696 164.37 275.696C163.961 275.696 163.617 275.799 163.339 276.007C163.06 276.211 162.85 276.498 162.708 276.867C162.566 277.234 162.495 277.661 162.495 278.15Z" fill="#64748B"/>
<path d="M515.281 179.183H314.078C305.397 179.183 298.359 186.22 298.359 194.902V282.928C298.359 291.609 305.397 298.647 314.078 298.647H515.281C523.962 298.647 531 291.609 531 282.928V194.902C531 186.22 523.962 179.183 515.281 179.183Z" fill="white" stroke="#E2E8F0" stroke-width="1.17892"/>
<path d="M347.089 198.046H328.226C322.149 198.046 317.223 202.972 317.223 209.049V227.912C317.223 233.989 322.149 238.915 328.226 238.915H347.089C353.166 238.915 358.092 233.989 358.092 227.912V209.049C358.092 202.972 353.166 198.046 347.089 198.046Z" fill="#FBEAF0"/>
<path d="M336.431 209V227.863V209ZM327 218.431H345.863H327Z" fill="black"/>
<path d="M336.431 209V227.863M327 218.431H345.863" stroke="#993556" stroke-width="2.20065" stroke-linecap="round"/>
<path d="M318.341 261.273V251.092H324.655V252.414H319.877V255.516H324.203V256.834H319.877V261.273H318.341ZM327.912 251.092V261.273H326.425V251.092H327.912ZM332.134 261.442C331.65 261.442 331.212 261.353 330.821 261.174C330.43 260.992 330.12 260.728 329.892 260.384C329.666 260.039 329.553 259.616 329.553 259.116C329.553 258.685 329.636 258.33 329.802 258.052C329.968 257.773 330.191 257.553 330.473 257.391C330.755 257.228 331.07 257.106 331.418 257.023C331.766 256.94 332.12 256.877 332.482 256.834C332.939 256.781 333.31 256.738 333.595 256.705C333.88 256.668 334.088 256.61 334.217 256.531C334.346 256.451 334.411 256.322 334.411 256.143V256.108C334.411 255.674 334.288 255.337 334.043 255.099C333.801 254.86 333.44 254.741 332.959 254.741C332.459 254.741 332.064 254.852 331.776 255.074C331.491 255.293 331.294 255.536 331.184 255.805L329.787 255.487C329.953 255.022 330.195 254.648 330.513 254.363C330.834 254.075 331.204 253.866 331.622 253.737C332.039 253.604 332.478 253.538 332.939 253.538C333.244 253.538 333.567 253.574 333.909 253.647C334.253 253.717 334.575 253.846 334.873 254.035C335.175 254.224 335.422 254.494 335.614 254.845C335.806 255.193 335.902 255.646 335.902 256.202V261.273H334.45V260.229H334.391C334.295 260.422 334.151 260.611 333.958 260.796C333.766 260.982 333.519 261.136 333.218 261.259C332.916 261.381 332.555 261.442 332.134 261.442ZM332.457 260.249C332.868 260.249 333.219 260.168 333.511 260.006C333.806 259.843 334.03 259.631 334.182 259.369C334.338 259.104 334.416 258.821 334.416 258.519V257.535C334.363 257.588 334.26 257.638 334.107 257.684C333.958 257.727 333.788 257.765 333.595 257.798C333.403 257.828 333.216 257.856 333.034 257.883C332.851 257.906 332.699 257.926 332.576 257.942C332.288 257.979 332.024 258.04 331.786 258.126C331.55 258.213 331.361 258.337 331.219 258.499C331.08 258.658 331.01 258.871 331.01 259.136C331.01 259.504 331.146 259.782 331.418 259.971C331.69 260.156 332.036 260.249 332.457 260.249ZM343.604 255.501L342.257 255.74C342.201 255.568 342.111 255.404 341.989 255.248C341.869 255.092 341.707 254.964 341.501 254.865C341.296 254.766 341.039 254.716 340.731 254.716C340.31 254.716 339.959 254.81 339.677 254.999C339.395 255.185 339.254 255.425 339.254 255.72C339.254 255.975 339.349 256.181 339.538 256.337C339.727 256.492 340.031 256.62 340.452 256.719L341.665 256.998C342.368 257.16 342.892 257.411 343.237 257.749C343.581 258.087 343.754 258.526 343.754 259.066C343.754 259.523 343.621 259.931 343.356 260.289C343.094 260.644 342.728 260.922 342.257 261.124C341.79 261.326 341.248 261.428 340.631 261.428C339.776 261.428 339.079 261.245 338.538 260.881C337.998 260.513 337.667 259.991 337.544 259.315L338.981 259.096C339.07 259.47 339.254 259.754 339.533 259.946C339.811 260.135 340.174 260.229 340.621 260.229C341.109 260.229 341.498 260.128 341.79 259.926C342.081 259.721 342.227 259.47 342.227 259.175C342.227 258.937 342.138 258.736 341.959 258.574C341.783 258.411 341.513 258.289 341.148 258.206L339.856 257.923C339.143 257.76 338.616 257.502 338.275 257.147C337.937 256.792 337.768 256.343 337.768 255.8C337.768 255.349 337.894 254.955 338.146 254.616C338.397 254.278 338.746 254.015 339.19 253.826C339.634 253.634 340.143 253.538 340.716 253.538C341.541 253.538 342.191 253.717 342.665 254.075C343.139 254.429 343.452 254.905 343.604 255.501ZM346.874 256.739V261.273H345.388V251.092H346.855V254.88H346.949C347.128 254.469 347.401 254.143 347.769 253.901C348.137 253.659 348.618 253.538 349.211 253.538C349.735 253.538 350.192 253.645 350.583 253.861C350.978 254.076 351.283 254.398 351.498 254.825C351.717 255.25 351.826 255.78 351.826 256.416V261.273H350.34V256.595C350.34 256.035 350.195 255.601 349.907 255.293C349.619 254.981 349.218 254.825 348.704 254.825C348.353 254.825 348.038 254.9 347.759 255.049C347.484 255.198 347.267 255.417 347.108 255.705C346.952 255.99 346.874 256.335 346.874 256.739ZM360.732 261.428C360.016 261.428 359.391 261.263 358.857 260.935C358.324 260.607 357.909 260.148 357.614 259.558C357.319 258.968 357.172 258.279 357.172 257.49C357.172 256.698 357.319 256.005 357.614 255.412C357.909 254.819 358.324 254.358 358.857 254.03C359.391 253.702 360.016 253.538 360.732 253.538C361.447 253.538 362.072 253.702 362.606 254.03C363.139 254.358 363.554 254.819 363.849 255.412C364.144 256.005 364.291 256.698 364.291 257.49C364.291 258.279 364.144 258.968 363.849 259.558C363.554 260.148 363.139 260.607 362.606 260.935C362.072 261.263 361.447 261.428 360.732 261.428ZM360.737 260.18C361.201 260.18 361.585 260.057 361.89 259.812C362.195 259.567 362.42 259.24 362.566 258.832C362.715 258.425 362.79 257.976 362.79 257.485C362.79 256.998 362.715 256.55 362.566 256.143C362.42 255.732 362.195 255.402 361.89 255.153C361.585 254.905 361.201 254.781 360.737 254.781C360.269 254.781 359.881 254.905 359.573 255.153C359.268 255.402 359.041 255.732 358.892 256.143C358.746 256.55 358.673 256.998 358.673 257.485C358.673 257.976 358.746 258.425 358.892 258.832C359.041 259.24 359.268 259.567 359.573 259.812C359.881 260.057 360.269 260.18 360.737 260.18ZM369.585 253.637V254.83H365.269V253.637H369.585ZM366.453 261.273V252.752C366.453 252.275 366.557 251.879 366.766 251.564C366.975 251.246 367.251 251.009 367.596 250.853C367.941 250.694 368.315 250.614 368.72 250.614C369.018 250.614 369.273 250.639 369.485 250.689C369.697 250.735 369.855 250.778 369.958 250.818L369.61 252.021C369.54 252.001 369.45 251.978 369.341 251.952C369.232 251.922 369.099 251.907 368.943 251.907C368.582 251.907 368.324 251.996 368.168 252.175C368.015 252.354 367.939 252.613 367.939 252.951V261.273H366.453ZM374.753 253.637V254.83H370.437V253.637H374.753ZM371.621 261.273V252.752C371.621 252.275 371.725 251.879 371.934 251.564C372.143 251.246 372.419 251.009 372.764 250.853C373.109 250.694 373.483 250.614 373.888 250.614C374.186 250.614 374.441 250.639 374.653 250.689C374.865 250.735 375.023 250.778 375.126 250.818L374.778 252.021C374.708 252.001 374.618 251.978 374.509 251.952C374.4 251.922 374.267 251.907 374.111 251.907C373.75 251.907 373.492 251.996 373.336 252.175C373.183 252.354 373.107 252.613 373.107 252.951V261.273H371.621ZM379.277 261.428C378.524 261.428 377.876 261.267 377.333 260.945C376.793 260.621 376.375 260.165 376.08 259.578C375.788 258.988 375.643 258.297 375.643 257.505C375.643 256.723 375.788 256.033 376.08 255.437C376.375 254.84 376.786 254.375 377.313 254.04C377.843 253.705 378.463 253.538 379.172 253.538C379.603 253.538 380.021 253.609 380.425 253.751C380.83 253.894 381.193 254.118 381.514 254.423C381.836 254.728 382.089 255.124 382.275 255.611C382.46 256.095 382.553 256.683 382.553 257.376V257.903H376.483V256.789H381.096C381.096 256.398 381.017 256.052 380.858 255.75C380.699 255.445 380.475 255.205 380.187 255.029C379.902 254.853 379.567 254.766 379.182 254.766C378.765 254.766 378.4 254.868 378.089 255.074C377.78 255.276 377.542 255.541 377.373 255.869C377.207 256.194 377.124 256.547 377.124 256.928V257.798C377.124 258.309 377.214 258.743 377.393 259.101C377.575 259.459 377.828 259.732 378.153 259.921C378.478 260.107 378.858 260.2 379.292 260.2C379.573 260.2 379.83 260.16 380.062 260.08C380.294 259.997 380.495 259.875 380.664 259.712C380.833 259.55 380.962 259.349 381.052 259.111L382.459 259.364C382.346 259.779 382.144 260.142 381.852 260.453C381.564 260.761 381.201 261.002 380.763 261.174C380.329 261.343 379.834 261.428 379.277 261.428ZM384.202 261.273V253.637H385.639V254.85H385.719C385.858 254.439 386.103 254.116 386.455 253.881C386.809 253.642 387.21 253.523 387.658 253.523C387.75 253.523 387.86 253.526 387.986 253.533C388.115 253.539 388.216 253.548 388.289 253.558V254.979C388.229 254.963 388.123 254.945 387.971 254.925C387.818 254.902 387.666 254.89 387.513 254.89C387.162 254.89 386.849 254.964 386.574 255.114C386.302 255.259 386.087 255.463 385.928 255.725C385.768 255.984 385.689 256.279 385.689 256.61V261.273H384.202ZM395.298 255.501L393.95 255.74C393.894 255.568 393.805 255.404 393.682 255.248C393.563 255.092 393.4 254.964 393.195 254.865C392.989 254.766 392.732 254.716 392.424 254.716C392.003 254.716 391.652 254.81 391.37 254.999C391.088 255.185 390.948 255.425 390.948 255.72C390.948 255.975 391.042 256.181 391.231 256.337C391.42 256.492 391.725 256.62 392.146 256.719L393.359 256.998C394.061 257.16 394.585 257.411 394.93 257.749C395.275 258.087 395.447 258.526 395.447 259.066C395.447 259.523 395.314 259.931 395.049 260.289C394.787 260.644 394.421 260.922 393.95 261.124C393.483 261.326 392.941 261.428 392.325 261.428C391.47 261.428 390.772 261.245 390.232 260.881C389.691 260.513 389.36 259.991 389.237 259.315L390.674 259.096C390.764 259.47 390.948 259.754 391.226 259.946C391.504 260.135 391.867 260.229 392.315 260.229C392.802 260.229 393.191 260.128 393.483 259.926C393.775 259.721 393.921 259.47 393.921 259.175C393.921 258.937 393.831 258.736 393.652 258.574C393.477 258.411 393.206 258.289 392.842 258.206L391.549 257.923C390.837 257.76 390.31 257.502 389.968 257.147C389.63 256.792 389.461 256.343 389.461 255.8C389.461 255.349 389.587 254.955 389.839 254.616C390.091 254.278 390.439 254.015 390.883 253.826C391.327 253.634 391.836 253.538 392.409 253.538C393.235 253.538 393.884 253.717 394.358 254.075C394.832 254.429 395.145 254.905 395.298 255.501Z" fill="#0F172A"/>
<path d="M325.302 275.423H324.245C324.183 275.119 324.074 274.852 323.917 274.622C323.764 274.392 323.576 274.198 323.355 274.042C323.136 273.883 322.893 273.764 322.626 273.684C322.359 273.605 322.081 273.565 321.791 273.565C321.262 273.565 320.784 273.698 320.355 273.965C319.929 274.233 319.589 274.626 319.336 275.146C319.086 275.666 318.961 276.304 318.961 277.059C318.961 277.815 319.086 278.453 319.336 278.973C319.589 279.492 319.929 279.886 320.355 280.153C320.784 280.42 321.262 280.554 321.791 280.554C322.081 280.554 322.359 280.514 322.626 280.434C322.893 280.355 323.136 280.237 323.355 280.081C323.576 279.921 323.764 279.727 323.917 279.497C324.074 279.264 324.183 278.997 324.245 278.696H325.302C325.223 279.142 325.078 279.541 324.868 279.893C324.657 280.245 324.396 280.545 324.083 280.792C323.771 281.036 323.42 281.223 323.031 281.35C322.645 281.478 322.231 281.542 321.791 281.542C321.047 281.542 320.385 281.36 319.805 280.997C319.225 280.633 318.77 280.116 318.437 279.446C318.105 278.775 317.939 277.98 317.939 277.059C317.939 276.139 318.105 275.343 318.437 274.673C318.77 274.002 319.225 273.485 319.805 273.122C320.385 272.758 321.047 272.576 321.791 272.576C322.231 272.576 322.645 272.64 323.031 272.768C323.42 272.896 323.771 273.083 324.083 273.331C324.396 273.575 324.657 273.873 324.868 274.225C325.078 274.575 325.223 274.974 325.302 275.423ZM329.533 281.559C328.942 281.559 328.423 281.419 327.977 281.137C327.534 280.856 327.188 280.463 326.938 279.957C326.69 279.451 326.567 278.86 326.567 278.184C326.567 277.502 326.69 276.907 326.938 276.399C327.188 275.89 327.534 275.495 327.977 275.214C328.423 274.933 328.942 274.792 329.533 274.792C330.124 274.792 330.641 274.933 331.084 275.214C331.53 275.495 331.876 275.89 332.124 276.399C332.374 276.907 332.499 277.502 332.499 278.184C332.499 278.86 332.374 279.451 332.124 279.957C331.876 280.463 331.53 280.856 331.084 281.137C330.641 281.419 330.124 281.559 329.533 281.559ZM329.533 280.656C329.982 280.656 330.351 280.541 330.641 280.311C330.93 280.081 331.145 279.778 331.284 279.403C331.423 279.028 331.493 278.622 331.493 278.184C331.493 277.747 331.423 277.339 331.284 276.961C331.145 276.583 330.93 276.278 330.641 276.045C330.351 275.812 329.982 275.696 329.533 275.696C329.084 275.696 328.714 275.812 328.425 276.045C328.135 276.278 327.92 276.583 327.781 276.961C327.642 277.339 327.572 277.747 327.572 278.184C327.572 278.622 327.642 279.028 327.781 279.403C327.92 279.778 328.135 280.081 328.425 280.311C328.714 280.541 329.084 280.656 329.533 280.656ZM338.159 278.747V274.877H339.164V281.423H338.159V280.315H338.091C337.937 280.647 337.699 280.93 337.375 281.163C337.051 281.393 336.642 281.508 336.147 281.508C335.738 281.508 335.375 281.419 335.056 281.24C334.738 281.058 334.488 280.785 334.306 280.421C334.125 280.055 334.034 279.593 334.034 279.036V274.877H335.039V278.968C335.039 279.446 335.173 279.826 335.44 280.11C335.71 280.394 336.054 280.536 336.471 280.536C336.721 280.536 336.975 280.473 337.234 280.345C337.495 280.217 337.714 280.021 337.89 279.757C338.069 279.492 338.159 279.156 338.159 278.747ZM342.012 277.485V281.423H341.006V274.877H341.978V275.9H342.063C342.217 275.568 342.45 275.301 342.762 275.099C343.075 274.894 343.478 274.792 343.972 274.792C344.415 274.792 344.803 274.883 345.136 275.065C345.468 275.244 345.727 275.517 345.911 275.883C346.096 276.247 346.188 276.707 346.188 277.264V281.423H345.183V277.332C345.183 276.818 345.049 276.417 344.782 276.13C344.515 275.84 344.148 275.696 343.683 275.696C343.362 275.696 343.075 275.765 342.822 275.904C342.572 276.044 342.374 276.247 342.229 276.514C342.085 276.781 342.012 277.105 342.012 277.485ZM350.873 274.877V275.73H347.48V274.877H350.873ZM348.469 273.309H349.475V279.548C349.475 279.832 349.516 280.045 349.598 280.187C349.684 280.326 349.792 280.42 349.922 280.468C350.056 280.514 350.196 280.536 350.344 280.536C350.455 280.536 350.546 280.531 350.617 280.519C350.688 280.505 350.745 280.494 350.787 280.485L350.992 281.389C350.924 281.414 350.828 281.44 350.706 281.465C350.584 281.494 350.429 281.508 350.242 281.508C349.958 281.508 349.679 281.447 349.407 281.325C349.137 281.203 348.912 281.017 348.733 280.767C348.557 280.517 348.469 280.201 348.469 279.821V273.309ZM354.787 281.559C354.241 281.559 353.76 281.421 353.342 281.146C352.924 280.867 352.598 280.475 352.362 279.97C352.126 279.461 352.008 278.86 352.008 278.167C352.008 277.48 352.126 276.883 352.362 276.377C352.598 275.872 352.926 275.481 353.346 275.206C353.767 274.93 354.252 274.792 354.804 274.792C355.23 274.792 355.566 274.863 355.814 275.005C356.064 275.144 356.254 275.304 356.385 275.483C356.518 275.659 356.622 275.804 356.696 275.917H356.781V272.696H357.787V281.423H356.815V280.417H356.696C356.622 280.536 356.517 280.687 356.38 280.869C356.244 281.048 356.049 281.208 355.797 281.35C355.544 281.49 355.207 281.559 354.787 281.559ZM354.923 280.656C355.326 280.656 355.667 280.551 355.946 280.34C356.224 280.127 356.436 279.833 356.581 279.458C356.725 279.081 356.798 278.644 356.798 278.15C356.798 277.661 356.727 277.234 356.585 276.867C356.443 276.498 356.233 276.211 355.954 276.007C355.676 275.799 355.332 275.696 354.923 275.696C354.497 275.696 354.142 275.805 353.858 276.024C353.576 276.24 353.365 276.534 353.223 276.906C353.083 277.275 353.014 277.69 353.014 278.15C353.014 278.616 353.085 279.039 353.227 279.42C353.372 279.798 353.585 280.099 353.866 280.323C354.15 280.545 354.502 280.656 354.923 280.656ZM362.427 281.559C361.836 281.559 361.318 281.419 360.872 281.137C360.429 280.856 360.082 280.463 359.832 279.957C359.585 279.451 359.461 278.86 359.461 278.184C359.461 277.502 359.585 276.907 359.832 276.399C360.082 275.89 360.429 275.495 360.872 275.214C361.318 274.933 361.836 274.792 362.427 274.792C363.018 274.792 363.535 274.933 363.978 275.214C364.424 275.495 364.771 275.89 365.018 276.399C365.268 276.907 365.393 277.502 365.393 278.184C365.393 278.86 365.268 279.451 365.018 279.957C364.771 280.463 364.424 280.856 363.978 281.137C363.535 281.419 363.018 281.559 362.427 281.559ZM362.427 280.656C362.876 280.656 363.245 280.541 363.535 280.311C363.825 280.081 364.039 279.778 364.179 279.403C364.318 279.028 364.387 278.622 364.387 278.184C364.387 277.747 364.318 277.339 364.179 276.961C364.039 276.583 363.825 276.278 363.535 276.045C363.245 275.812 362.876 275.696 362.427 275.696C361.978 275.696 361.609 275.812 361.319 276.045C361.029 276.278 360.815 276.583 360.676 276.961C360.537 277.339 360.467 277.747 360.467 278.184C360.467 278.622 360.537 279.028 360.676 279.403C360.815 279.778 361.029 280.081 361.319 280.311C361.609 280.541 361.978 280.656 362.427 280.656ZM368.189 281.423L366.194 274.877H367.251L368.666 279.889H368.734L370.132 274.877H371.206L372.586 279.872H372.654L374.069 274.877H375.126L373.132 281.423H372.143L370.711 276.394H370.609L369.177 281.423H368.189ZM377.461 277.485V281.423H376.456V274.877H377.427V275.9H377.512C377.666 275.568 377.899 275.301 378.211 275.099C378.524 274.894 378.927 274.792 379.422 274.792C379.865 274.792 380.252 274.883 380.585 275.065C380.917 275.244 381.176 275.517 381.36 275.883C381.545 276.247 381.637 276.707 381.637 277.264V281.423H380.632V277.332C380.632 276.818 380.498 276.417 380.231 276.13C379.964 275.84 379.598 275.696 379.132 275.696C378.811 275.696 378.524 275.765 378.271 275.904C378.021 276.044 377.824 276.247 377.679 276.514C377.534 276.781 377.461 277.105 377.461 277.485ZM389.407 280.826V275.201H390.362V280.826H389.407ZM387.072 278.491V277.536H392.697V278.491H387.072ZM399.141 272.696V281.423H398.135V272.696H399.141ZM400.983 281.423V274.877H401.989V281.423H400.983ZM401.494 273.786C401.298 273.786 401.129 273.72 400.987 273.586C400.848 273.453 400.778 273.292 400.778 273.105C400.778 272.917 400.848 272.757 400.987 272.623C401.129 272.49 401.298 272.423 401.494 272.423C401.69 272.423 401.858 272.49 401.997 272.623C402.139 272.757 402.21 272.917 402.21 273.105C402.21 273.292 402.139 273.453 401.997 273.586C401.858 273.72 401.69 273.786 401.494 273.786ZM404.836 277.485V281.423H403.831V274.877H404.802V275.9H404.887C405.041 275.568 405.274 275.301 405.586 275.099C405.899 274.894 406.302 274.792 406.797 274.792C407.24 274.792 407.627 274.883 407.96 275.065C408.292 275.244 408.551 275.517 408.735 275.883C408.92 276.247 409.012 276.707 409.012 277.264V281.423H408.007V277.332C408.007 276.818 407.873 276.417 407.606 276.13C407.339 275.84 406.973 275.696 406.507 275.696C406.186 275.696 405.899 275.765 405.646 275.904C405.396 276.044 405.199 276.247 405.054 276.514C404.909 276.781 404.836 277.105 404.836 277.485ZM411.788 279.036L411.771 277.792H411.975L414.839 274.877H416.083L413.032 277.963H412.947L411.788 279.036ZM410.85 281.423V272.696H411.856V281.423H410.85ZM415.009 281.423L412.452 278.184L413.168 277.485L416.288 281.423H415.009Z" fill="#64748B"/>
</g>
<defs>
<clipPath id="clip0_89_3">
<rect width="603" height="312" fill="white"/>
</clipPath>
</defs>
</svg>
