<?xml version="1.0" encoding="utf-8"?>
<!-- Generator: Adobe Illustrator 27.3.1, SVG Export Plug-In . SVG Version: 6.00 Build 0)  -->
<svg version="1.1" id="Layer_1" xmlns="http://www.w3.org/2000/svg" xmlns:xlink="http://www.w3.org/1999/xlink" x="0px" y="0px"
	 viewBox="0 0 130.2 130.2" style="enable-background:new 0 0 130.2 130.2;" xml:space="preserve">
<style type="text/css">
	.st0{fill:url(#SVGID_1_);}
</style>
<linearGradient id="SVGID_1_" gradientUnits="userSpaceOnUse" x1="6.1899" y1="679.1064" x2="535.0256" y2="679.1064" gradientTransform="matrix(1 0 0 1 0 -614)">
	<stop  offset="0" style="stop-color:#104502"/>
	<stop  offset="1" style="stop-color:#27AA05"/>
</linearGradient>
<path class="st0" d="M19.9,18.4c3.8,0,6.9,3.1,6.9,6.9V81c0,1.5,0.2,2.8,0.8,3.9c0.5,1.2,1.2,2.2,2.2,2.9c0.8,0.7,1.8,1.1,2.9,1.1
	c1.1,0,2.1-0.4,2.9-1.1c0.8-0.7,1.6-1.7,2.2-2.9c0.5-1.2,0.8-2.5,0.8-3.9V66.4c0-7.4,1.1-13.5,3.4-18.6c2.3-5.1,5.4-9,9.4-11.6
	c4.1-2.8,8.6-4.1,13.7-4.1s9.6,1.3,13.5,4.1c4,2.7,7.1,6.4,9.4,11.6c2.3,5.1,3.4,11.4,3.4,18.6V81c0,1.5,0.2,2.8,0.8,3.9
	c0.5,1.2,1.2,2.2,2.2,2.9c1,0.7,1.9,1.1,3,1.1c1.1,0,2.1-0.4,2.9-1.1c0.8-0.7,1.6-1.7,2.2-2.9c0.5-1.2,0.8-2.5,0.8-3.9V25.3
	c0-3.9,3-6.9,6.9-6.9h6.8c3.8,0,6.9,3.1,6.9,6.9v52.1c0,7.7-1.2,14.2-3.8,19.2c-2.4,5.1-5.6,9-9.7,11.4c-4,2.5-8.3,3.8-12.9,3.8
	c-4.7,0-9.1-1.2-13.1-3.8c-4-2.5-7.1-6.3-9.7-11.4c-2.4-5.1-3.8-11.5-3.8-19.2V63c0-1.6-0.2-2.9-0.8-4.1c-0.5-1.2-1.2-2.2-2.2-2.9
	c-0.8-0.7-1.8-1.1-2.9-1.1c-1.1,0-2.1,0.4-3,1.1c-0.8,0.7-1.6,1.7-2.2,2.9c-0.5,1.2-0.8,2.5-0.8,4.1v14.4c0,7.7-1.2,14.2-3.8,19.2
	c-2.4,5.1-5.6,9-9.7,11.4c-4,2.5-8.3,3.8-12.9,3.8c-4.7,0-9.1-1.2-13.1-3.8c-4-2.5-7.1-6.3-9.7-11.4c-2.7-5.1-3.9-11.5-3.9-19.2
	V25.3c0-3.9,3-6.9,6.9-6.9H19.9z"/>
</svg>
