<svg width="129" height="53" viewBox="0 0 129 53" fill="none" xmlns="http://www.w3.org/2000/svg">
<path d="M33.2594 9.79988C34.1795 9.79988 34.9253 10.5534 34.9253 11.4828V22.6212C34.9253 23.759 35.1708 24.7654 35.6617 25.6406C36.1814 26.4866 36.86 27.1576 37.6974 27.6535C38.5637 28.1203 39.5022 28.3537 40.5129 28.3537C41.5236 28.3537 42.4476 28.1203 43.285 27.6535C44.1513 27.1576 44.8299 26.4866 45.3208 25.6406C45.8406 24.7654 46.1005 23.759 46.1005 22.6212V11.4828C46.1005 10.5534 46.8463 9.79989 47.7664 9.79988H49.4159C50.3359 9.7999 51.0817 10.5534 51.0817 11.4828V22.665C51.0817 24.3278 50.7496 25.8302 50.0855 27.1721C49.4213 28.5141 48.4828 29.6519 47.27 30.5854C46.4259 31.2302 45.4644 31.7192 44.3854 32.0525C43.6118 32.2915 43.0252 32.9756 43.0252 33.7929V39.317C43.0252 40.2464 42.2793 41 41.3593 41H39.7532C38.8331 41 38.0873 40.2465 38.0873 39.3171V33.817C38.0873 33.0085 37.5135 32.3274 36.7477 32.0925C35.6297 31.7495 34.6324 31.2617 33.7558 30.6291C32.543 29.7248 31.6045 28.587 30.9404 27.2159C30.2762 25.8448 29.9441 24.3279 29.9441 22.665V11.4828C29.9441 10.5534 30.6899 9.79988 31.61 9.79988H33.2594Z" fill="url(#paint0_linear_142_117)"/>
<path d="M110.178 9.62696C111.098 9.62696 111.844 10.3804 111.844 11.3099V22.4483C111.844 23.586 112.089 24.5925 112.58 25.4677C113.1 26.3137 113.778 26.9847 114.616 27.4806C115.482 27.9474 116.42 28.1807 117.431 28.1807C118.442 28.1807 119.366 27.9474 120.203 27.4806C121.07 26.9847 121.748 26.3137 122.239 25.4677C122.759 24.5925 123.019 23.586 123.019 22.4483V11.3099C123.019 10.3804 123.765 9.62696 124.685 9.62696H126.334C127.254 9.62696 128 10.3804 128 11.3099V22.4921C128 24.1549 127.668 25.6573 127.004 26.9992C126.34 28.3411 125.401 29.4789 124.188 30.4125C123.344 31.0572 122.383 31.5462 121.304 31.8796C120.53 32.1186 119.943 32.8027 119.943 33.6199V39.1441C119.943 40.0735 119.198 40.8271 118.278 40.8271H116.671C115.751 40.8271 115.006 40.0736 115.006 39.1441V33.6441C115.006 32.8355 114.432 32.1545 113.666 31.9195C112.548 31.5765 111.551 31.0888 110.674 30.4562C109.461 29.5518 108.523 28.4141 107.859 27.043C107.194 25.6719 106.862 24.1549 106.862 22.4921V11.3099C106.862 10.3804 107.608 9.62696 108.528 9.62696H110.178Z" fill="url(#paint1_linear_142_117)"/>
<path fill-rule="evenodd" clip-rule="evenodd" d="M73.6711 0.172927C74.5911 0.172944 75.337 0.926415 75.337 1.85587V20.6958C75.337 23.1463 74.846 25.276 73.8642 27.0847C72.9113 28.8642 71.5686 30.2353 69.836 31.198C68.1323 32.1607 66.1397 32.642 63.8585 32.642C62.097 32.642 60.4944 32.3649 59.0506 31.8106C57.6356 31.2271 56.4228 30.3957 55.4122 29.3163C54.4304 28.2369 53.6651 26.968 53.1164 25.5093C52.5967 24.0215 52.3368 22.3878 52.3368 20.6083C52.3368 18.3329 52.7844 16.3491 53.6795 14.6571C54.6036 12.9651 55.8742 11.6523 57.4912 10.7188C59.1083 9.75611 60.9564 9.27475 63.0355 9.27475C64.0751 9.27475 65.0569 9.43525 65.9809 9.75615C66.905 10.0771 67.7424 10.5292 68.4932 11.1127C69.2397 11.6927 69.8434 12.3738 70.3044 13.1557C70.3094 13.1641 70.3184 13.1693 70.3281 13.1693C70.3434 13.1693 70.3557 13.1568 70.3557 13.1415V1.85587C70.3557 0.926409 71.1015 0.172934 72.0216 0.172927H73.6711ZM63.8152 13.5631C62.5735 13.5631 61.4618 13.8841 60.48 14.5259C59.4982 15.1677 58.733 16.0428 58.1843 17.1514C57.6357 18.2599 57.3613 19.529 57.3613 20.9584C57.3613 22.417 57.6357 23.7007 58.1843 24.8092C58.733 25.9178 59.4982 26.7929 60.48 27.4347C61.4906 28.0474 62.6168 28.3537 63.8585 28.3537C65.1291 28.3537 66.2408 28.0474 67.1938 27.4347C68.1755 26.7929 68.9408 25.9178 69.4894 24.8092C70.038 23.7007 70.3124 22.417 70.3124 20.9584C70.3124 19.4998 70.038 18.2162 69.4894 17.1076C68.9408 15.9991 68.1756 15.1385 67.1938 14.5259C66.2408 13.8841 65.1147 13.5631 63.8152 13.5631Z" fill="url(#paint2_linear_142_117)"/>
<path d="M3.30116 9.51148C4.22118 9.51149 4.96701 10.265 4.96701 11.1944V24.6679C4.96701 25.0123 5.03108 25.3281 5.15926 25.6152C5.28744 25.9022 5.45836 26.1319 5.67199 26.3041C5.88562 26.4763 6.12061 26.5625 6.37697 26.5625C6.63332 26.5625 6.86831 26.4763 7.08194 26.3041C7.29557 26.1319 7.46649 25.9022 7.59467 25.6152C7.72285 25.3281 7.78699 25.0123 7.78699 24.6679V21.1412C7.78699 19.3615 8.06468 17.8544 8.62013 16.6201C9.17558 15.3858 9.93399 14.4529 10.8953 13.8214C11.8781 13.1611 12.9783 12.8311 14.196 12.8311C15.4137 12.8311 16.5033 13.1611 17.4646 13.8214C18.426 14.4529 19.1844 15.3858 19.7398 16.6201C20.2953 17.8544 20.573 19.3615 20.573 21.1412V24.6679C20.573 25.0123 20.6371 25.3281 20.7653 25.6152C20.8935 25.9022 21.0643 26.1319 21.2779 26.3041C21.5129 26.4763 21.7587 26.5625 22.015 26.5625C22.2714 26.5625 22.5064 26.4763 22.72 26.3041C22.9336 26.1319 23.1046 25.9022 23.2327 25.6152C23.3609 25.3281 23.425 25.0123 23.425 24.6679V11.1944C23.425 10.265 24.1708 9.51149 25.0908 9.51148H26.7261C27.6462 9.51148 28.392 10.265 28.392 11.1944V23.8068C28.392 25.6726 28.0929 27.2227 27.4947 28.457C26.9179 29.6913 26.1381 30.6099 25.1554 31.2127C24.1941 31.8155 23.1473 32.1169 22.015 32.1169C20.8828 32.1169 19.8252 31.8155 18.8425 31.2127C17.8812 30.6099 17.1014 29.6913 16.5032 28.457C15.9051 27.2227 15.606 25.6726 15.6059 23.8068V20.3231C15.6059 19.95 15.5419 19.6199 15.4137 19.3328C15.2855 19.0458 15.1146 18.8161 14.901 18.6439C14.6873 18.4717 14.4524 18.3855 14.196 18.3855C13.9396 18.3855 13.694 18.4717 13.459 18.6439C13.2453 18.8161 13.0744 19.0457 12.9463 19.3328C12.8181 19.6199 12.7539 19.95 12.7539 20.3231V23.8068C12.7539 25.6726 12.4549 27.2227 11.8567 28.457C11.2799 29.6913 10.5001 30.6099 9.51742 31.2127C8.55607 31.8155 7.50923 32.1169 6.37697 32.1169C5.24472 32.1169 4.18725 31.8155 3.20454 31.2127C2.24319 30.6099 1.46343 29.6913 0.865252 28.457C0.288443 27.2227 2.53147e-06 25.6726 0 23.8068V11.1944C7.68946e-07 10.265 0.74583 9.51148 1.66586 9.51148H3.30116Z" fill="url(#paint3_linear_142_117)"/>
<path d="M102.687 0C103.607 1.2111e-05 104.353 0.753485 104.353 1.68294V30.261C104.353 31.1905 103.607 31.944 102.687 31.944H101.038C100.118 31.944 99.372 31.1905 99.372 30.261V1.68294C99.372 0.753482 100.118 7.28433e-06 101.038 0H102.687Z" fill="url(#paint4_linear_142_117)"/>
<path d="M87.8971 9.06324C90.265 9.06324 92.2141 9.72093 93.7446 10.742C95.275 11.763 96.4012 13.1341 97.1231 14.8553C97.8739 16.5765 98.2493 18.5019 98.2493 20.6314C98.2493 20.9232 98.2349 21.2587 98.206 21.6379C98.1662 22.161 97.7181 22.5131 97.1988 22.5131H89.6037C88.6612 22.5131 87.8971 21.749 87.8971 20.8065C87.8971 19.864 88.6612 19.0999 89.6037 19.0999H91.5989C92.5062 19.0999 93.6788 18.3366 93.4478 17.4501C93.3331 16.8996 93.0166 16.3438 92.7294 15.8504C92.0568 14.9414 91.1806 14.2287 90.1791 13.7858C88.8914 13.2163 86.7648 13.1888 85.4245 13.5884C84.0843 13.9881 82.9015 14.8572 82.0583 16.0621C81.2151 17.267 80.7582 18.7409 80.7578 20.2569C80.7578 20.4737 80.767 20.6899 80.7854 20.9048C80.9393 22.697 81.2686 24.5399 80.7857 26.2726C80.7522 26.3925 80.7493 26.5202 80.7772 26.6418C80.805 26.7634 80.8626 26.8744 80.9439 26.9631C81.0251 27.0517 81.1269 27.1146 81.2383 27.145C81.3498 27.1754 81.4667 27.1721 81.5766 27.1356L82.1475 26.9459C83.23 26.5862 84.4038 26.8323 85.4614 27.2597C86.4721 27.6389 87.9548 27.9519 89.3406 27.8039C89.9166 27.7423 90.5606 27.5035 91.1542 27.2193C92.2859 26.6775 93.722 26.9753 94.3374 28.0687C94.885 29.0416 94.5685 30.2716 93.5683 30.7677C92.2654 31.4141 90.4782 32.1488 89.0871 32.1488C86.6038 32.1488 84.1764 31.6502 82.2994 30.7167C80.4513 29.754 79.0075 28.4412 77.9679 26.7783C76.9284 25.0863 76.4086 23.1464 76.4086 20.9584C76.4086 18.6538 76.8707 16.6263 77.7947 14.8759C78.7188 13.1256 79.9893 11.7545 81.6064 10.7626C83.2235 9.77075 85.7892 9.06324 87.8971 9.06324Z" fill="url(#paint5_linear_142_117)"/>
<path d="M65.6743 49.0722C65.3012 49.0722 64.9521 49.003 64.6271 48.8646C64.3021 48.7201 64.0162 48.5275 63.7694 48.2868V49H62.8667V40.3333H63.8417V44.2243C64.0824 44.0016 64.3593 43.8271 64.6722 43.7007C64.9852 43.5743 65.3192 43.5111 65.6743 43.5111C66.1738 43.5111 66.6252 43.6375 67.0285 43.8903C67.4377 44.137 67.7627 44.4711 68.0035 44.8924C68.2502 45.3137 68.3736 45.7801 68.3736 46.2917C68.3736 46.8032 68.2502 47.2697 68.0035 47.691C67.7627 48.1123 67.4377 48.4493 67.0285 48.7021C66.6252 48.9488 66.1738 49.0722 65.6743 49.0722ZM65.5479 48.1875C65.891 48.1875 66.2009 48.1032 66.4778 47.9347C66.7606 47.7602 66.9833 47.5315 67.1458 47.2486C67.3144 46.9597 67.3986 46.6407 67.3986 46.2917C67.3986 45.9426 67.3144 45.6266 67.1458 45.3438C66.9833 45.0549 66.7606 44.8262 66.4778 44.6576C66.2009 44.4831 65.891 44.3958 65.5479 44.3958C65.2049 44.3958 64.8919 44.4831 64.609 44.6576C64.3322 44.8262 64.1095 45.0549 63.941 45.3438C63.7785 45.6266 63.6972 45.9426 63.6972 46.2917C63.6972 46.6407 63.7785 46.9597 63.941 47.2486C64.1095 47.5315 64.3322 47.7602 64.609 47.9347C64.8919 48.1032 65.2049 48.1875 65.5479 48.1875ZM69.3187 51.7083L71.0791 48.2056L68.7861 43.5833H69.8875L71.043 45.9306C71.1453 46.1412 71.2446 46.3488 71.3409 46.5535C71.4372 46.7581 71.5335 47.0049 71.6298 47.2937C71.7321 47.0049 71.8284 46.7581 71.9187 46.5535C72.015 46.3428 72.1173 46.1352 72.2257 45.9306L73.3993 43.5833H74.4375L70.375 51.7083H69.3187ZM80.136 49.1083C79.6545 49.1083 79.2181 49.012 78.8269 48.8194C78.4417 48.6269 78.1348 48.3921 77.9061 48.1153L78.204 46.8694C78.3725 47.2065 78.6253 47.5104 78.9623 47.7812C79.2994 48.0521 79.7026 48.1875 80.1721 48.1875C80.5994 48.1875 80.9515 48.0521 81.2283 47.7812C81.5112 47.5104 81.6526 47.1764 81.6526 46.7792C81.6526 46.4903 81.5834 46.2525 81.445 46.066C81.3066 45.8794 81.1501 45.7319 80.9755 45.6236C80.801 45.5153 80.6626 45.437 80.5603 45.3889L79.5672 44.8833C79.4107 44.7991 79.2151 44.6817 78.9804 44.5312C78.7517 44.3808 78.5501 44.1731 78.3755 43.9083C78.201 43.6435 78.1137 43.3005 78.1137 42.8792C78.1137 42.4699 78.207 42.1058 78.3936 41.7868C78.5862 41.4678 78.851 41.2181 79.188 41.0375C79.5311 40.8569 79.9223 40.7667 80.3617 40.7667C80.795 40.7667 81.1772 40.8449 81.5082 41.0014C81.8392 41.1519 82.098 41.3083 82.2846 41.4708L81.9867 42.7167C81.8362 42.4639 81.6135 42.2262 81.3186 42.0035C81.0237 41.7808 80.6897 41.6694 80.3165 41.6694C79.9554 41.6694 79.6665 41.7778 79.4498 41.9944C79.2332 42.2051 79.1248 42.4669 79.1248 42.7799C79.1248 43.0206 79.179 43.2192 79.2873 43.3757C79.4017 43.5322 79.5281 43.6556 79.6665 43.7458C79.811 43.8361 79.9283 43.9053 80.0186 43.9535L81.0297 44.459C81.1501 44.5192 81.3005 44.6035 81.4811 44.7118C81.6677 44.8201 81.8512 44.9646 82.0318 45.1451C82.2123 45.3197 82.3628 45.5363 82.4832 45.7951C82.6036 46.0479 82.6637 46.3549 82.6637 46.716C82.6637 47.1794 82.5524 47.5917 82.3297 47.9528C82.113 48.3139 81.8151 48.5968 81.436 48.8014C81.0568 49.006 80.6235 49.1083 80.136 49.1083ZM84.0678 49V40.3333H85.0428V44.3507C85.2475 44.0678 85.5002 43.8512 85.8012 43.7007C86.1021 43.5502 86.4241 43.475 86.7671 43.475C87.1523 43.475 87.5074 43.5713 87.8324 43.7639C88.1634 43.9505 88.4313 44.2243 88.6359 44.5854C88.8405 44.9405 88.9428 45.3738 88.9428 45.8854V49H87.9678V46.0208C87.9678 45.5935 87.8384 45.2174 87.5796 44.8924C87.3269 44.5613 86.9688 44.3958 86.5053 44.3958C86.1262 44.3958 85.7861 44.5343 85.4852 44.8111C85.1903 45.0819 85.0428 45.4762 85.0428 45.9937V49H84.0678ZM90.5678 49V43.5833H91.4706V44.5764C91.6632 44.2574 91.919 44.0046 92.238 43.8181C92.557 43.6255 92.9361 43.5292 93.3755 43.5292L93.6192 44.5042C93.5049 44.4681 93.3725 44.45 93.222 44.45C92.7164 44.45 92.3102 44.6125 92.0033 44.9375C91.6963 45.2565 91.5428 45.7139 91.5428 46.3097V49H90.5678ZM96.7727 49.0722C96.2792 49.0722 95.8278 48.9488 95.4186 48.7021C95.0093 48.4493 94.6813 48.1123 94.4345 47.691C94.1938 47.2697 94.0734 46.8032 94.0734 46.2917C94.0734 45.7801 94.1938 45.3137 94.4345 44.8924C94.6813 44.4711 95.0093 44.137 95.4186 43.8903C95.8278 43.6375 96.2792 43.5111 96.7727 43.5111C97.1459 43.5111 97.495 43.5803 97.82 43.7188C98.151 43.8572 98.4369 44.0498 98.6776 44.2965V43.5833H99.5804V49H98.6776V48.2868C98.4369 48.5275 98.151 48.7201 97.82 48.8646C97.495 49.003 97.1459 49.0722 96.7727 49.0722ZM96.8991 48.1875C97.2422 48.1875 97.5521 48.1032 97.829 47.9347C98.1119 47.7602 98.3345 47.5315 98.497 47.2486C98.6656 46.9597 98.7498 46.6407 98.7498 46.2917C98.7498 45.9426 98.6656 45.6266 98.497 45.3438C98.3345 45.0549 98.1119 44.8262 97.829 44.6576C97.5521 44.4831 97.2422 44.3958 96.8991 44.3958C96.5561 44.3958 96.2431 44.4831 95.9602 44.6576C95.6834 44.8262 95.4607 45.0549 95.2922 45.3438C95.1297 45.6266 95.0484 45.9426 95.0484 46.2917C95.0484 46.6407 95.1297 46.9597 95.2922 47.2486C95.4607 47.5315 95.6834 47.7602 95.9602 47.9347C96.2431 48.1032 96.5561 48.1875 96.8991 48.1875ZM103.285 49.2708L100.55 43.5833H101.66L102.762 45.9306C102.864 46.1412 102.96 46.3488 103.05 46.5535C103.141 46.7581 103.228 47.0079 103.312 47.3028C103.403 47.0079 103.493 46.7581 103.583 46.5535C103.679 46.3428 103.776 46.1352 103.872 45.9306L104.982 43.5833H106.021L103.285 49.2708ZM106.77 51.7083L108.53 48.2056L106.237 43.5833H107.339L108.494 45.9306C108.596 46.1412 108.696 46.3488 108.792 46.5535C108.888 46.7581 108.985 47.0049 109.081 47.2937C109.183 47.0049 109.28 46.7581 109.37 46.5535C109.466 46.3428 109.568 46.1352 109.677 45.9306L110.85 43.5833H111.889L107.826 51.7083H106.77ZM115.068 49.1083C114.544 49.1083 114.066 48.9819 113.632 48.7292C113.199 48.4764 112.853 48.1363 112.594 47.709C112.341 47.2817 112.215 46.8093 112.215 46.2917C112.215 45.7681 112.341 45.2956 112.594 44.8743C112.853 44.447 113.199 44.1069 113.632 43.8542C114.066 43.6014 114.544 43.475 115.068 43.475C115.597 43.475 116.076 43.6014 116.503 43.8542C116.937 44.1069 117.28 44.447 117.532 44.8743C117.791 45.2956 117.921 45.7681 117.921 46.2917C117.921 46.8093 117.791 47.2817 117.532 47.709C117.28 48.1363 116.937 48.4764 116.503 48.7292C116.076 48.9819 115.597 49.1083 115.068 49.1083ZM115.068 48.1875C115.417 48.1875 115.733 48.1032 116.016 47.9347C116.299 47.7602 116.524 47.5315 116.693 47.2486C116.861 46.9597 116.946 46.6407 116.946 46.2917C116.946 45.9426 116.861 45.6266 116.693 45.3438C116.524 45.0549 116.299 44.8262 116.016 44.6576C115.733 44.4831 115.417 44.3958 115.068 44.3958C114.719 44.3958 114.403 44.4831 114.12 44.6576C113.837 44.8262 113.611 45.0549 113.443 45.3438C113.274 45.6266 113.19 45.9426 113.19 46.2917C113.19 46.6407 113.274 46.9597 113.443 47.2486C113.611 47.5315 113.837 47.7602 114.12 47.9347C114.403 48.1032 114.719 48.1875 115.068 48.1875ZM119.272 49V43.5833H120.175V44.3597C120.373 44.0648 120.623 43.8451 120.924 43.7007C121.231 43.5502 121.553 43.475 121.89 43.475C122.257 43.475 122.594 43.5623 122.901 43.7368C123.208 43.9053 123.455 44.1431 123.641 44.45C123.852 44.125 124.123 43.8812 124.454 43.7188C124.791 43.5562 125.146 43.475 125.519 43.475C125.928 43.475 126.302 43.5713 126.639 43.7639C126.982 43.9565 127.252 44.2273 127.451 44.5764C127.656 44.9194 127.758 45.3257 127.758 45.7951V49H126.783V45.9125C126.783 45.419 126.642 45.0458 126.359 44.7931C126.082 44.5343 125.76 44.4049 125.393 44.4049C125.164 44.4049 124.941 44.456 124.725 44.5583C124.514 44.6606 124.34 44.8201 124.201 45.0368C124.069 45.2535 124.002 45.5363 124.002 45.8854V49H123.027V45.9125C123.027 45.5694 122.958 45.2866 122.82 45.0639C122.687 44.8412 122.513 44.6757 122.296 44.5674C122.086 44.453 121.866 44.3958 121.637 44.3958C121.415 44.3958 121.195 44.447 120.978 44.5493C120.768 44.6516 120.593 44.8111 120.455 45.0278C120.316 45.2444 120.247 45.5303 120.247 45.8854V49H119.272Z" fill="url(#paint6_linear_142_117)"/>
<defs>
<linearGradient id="paint0_linear_142_117" x1="0" y1="20.5" x2="128" y2="20.5" gradientUnits="userSpaceOnUse">
<stop stop-color="#104502"/>
<stop offset="1" stop-color="#27AA05"/>
</linearGradient>
<linearGradient id="paint1_linear_142_117" x1="0" y1="20.5" x2="128" y2="20.5" gradientUnits="userSpaceOnUse">
<stop stop-color="#104502"/>
<stop offset="1" stop-color="#27AA05"/>
</linearGradient>
<linearGradient id="paint2_linear_142_117" x1="0" y1="20.5" x2="128" y2="20.5" gradientUnits="userSpaceOnUse">
<stop stop-color="#104502"/>
<stop offset="1" stop-color="#27AA05"/>
</linearGradient>
<linearGradient id="paint3_linear_142_117" x1="0" y1="20.5" x2="128" y2="20.5" gradientUnits="userSpaceOnUse">
<stop stop-color="#104502"/>
<stop offset="1" stop-color="#27AA05"/>
</linearGradient>
<linearGradient id="paint4_linear_142_117" x1="0" y1="20.5" x2="128" y2="20.5" gradientUnits="userSpaceOnUse">
<stop stop-color="#104502"/>
<stop offset="1" stop-color="#27AA05"/>
</linearGradient>
<linearGradient id="paint5_linear_142_117" x1="0" y1="20.5" x2="128" y2="20.5" gradientUnits="userSpaceOnUse">
<stop stop-color="#104502"/>
<stop offset="1" stop-color="#27AA05"/>
</linearGradient>
<linearGradient id="paint6_linear_142_117" x1="62" y1="44.5" x2="129" y2="44.5" gradientUnits="userSpaceOnUse">
<stop stop-color="#667085"/>
<stop offset="1" stop-color="#181A1F"/>
</linearGradient>
</defs>
</svg>
