<svg width="512" height="176" viewBox="0 0 512 176" fill="none" xmlns="http://www.w3.org/2000/svg">
<g clip-path="url(#clip0_193_371)">
<path d="M149.584 33.4675C152.726 33.4675 155.273 36.0407 155.273 39.2149V77.2536C155.273 81.1391 156.111 84.5763 157.788 87.5651C159.563 90.4543 161.88 92.7458 164.74 94.4394C167.699 96.0335 170.904 96.8304 174.355 96.8305C177.807 96.8305 180.963 96.0335 183.823 94.4394C186.781 92.7458 189.098 90.4543 190.775 87.5651C192.55 84.5763 193.438 81.1391 193.438 77.2536V39.2149C193.438 36.0407 195.985 33.4675 199.127 33.4675H204.76C207.902 33.4676 210.449 36.0408 210.449 39.2149V77.4032C210.449 83.0819 209.315 88.2126 207.047 92.7954C204.778 97.3782 201.573 101.264 197.432 104.452C194.549 106.654 191.265 108.324 187.58 109.462C184.938 110.279 182.935 112.615 182.935 115.406V134.271C182.935 137.445 180.388 140.019 177.246 140.019H171.761C168.619 140.019 166.072 137.446 166.072 134.271V115.488C166.072 112.727 164.112 110.401 161.497 109.599C157.679 108.427 154.273 106.762 151.279 104.601C147.137 101.513 143.932 97.6275 141.664 92.945C139.396 88.2625 138.262 83.0819 138.262 77.4032V39.2149C138.262 36.0407 140.809 33.4675 143.951 33.4675H149.584Z" fill="url(#paint0_linear_193_371)"/>
<path d="M412.267 32.877C415.409 32.877 417.957 35.4502 417.957 38.6244V76.663C417.957 80.5485 418.795 83.9857 420.471 86.9745C422.246 89.8637 424.564 92.1552 427.424 93.8489C430.382 95.4429 433.587 96.2399 437.038 96.2399C440.49 96.2399 443.646 95.4429 446.506 93.8489C449.464 92.1552 451.782 89.8637 453.458 86.9745C455.233 83.9857 456.121 80.5485 456.121 76.663V38.6244C456.121 35.4502 458.668 32.877 461.81 32.877H467.443C470.585 32.877 473.132 35.4502 473.132 38.6244V76.8126C473.132 82.4913 471.998 87.622 469.73 92.2048C467.462 96.7877 464.257 100.673 460.115 103.861C457.232 106.063 453.948 107.733 450.264 108.872C447.622 109.688 445.618 112.024 445.618 114.815V133.681C445.618 136.855 443.071 139.428 439.929 139.428H434.444C431.302 139.428 428.755 136.855 428.755 133.681V114.898C428.755 112.136 426.795 109.811 424.18 109.008C420.362 107.837 416.956 106.171 413.962 104.011C409.821 100.922 406.616 97.0369 404.347 92.3544C402.079 87.672 400.945 82.4914 400.945 76.8126V38.6244C400.945 35.4502 403.492 32.877 406.634 32.877H412.267Z" fill="url(#paint1_linear_193_371)"/>
<path fill-rule="evenodd" clip-rule="evenodd" d="M287.594 0.590561C290.736 0.590619 293.283 3.16379 293.283 6.33796V70.6782C293.283 79.0469 291.606 86.3198 288.253 92.4967C284.999 98.5739 280.413 103.256 274.496 106.544C268.678 109.832 261.873 111.476 254.083 111.476C248.067 111.476 242.594 110.529 237.663 108.636C232.831 106.644 228.689 103.804 225.238 100.118C221.885 96.4318 219.271 92.0982 217.398 87.1168C215.623 82.0358 214.735 76.4565 214.735 70.3793C214.735 62.6084 216.264 55.8338 219.321 50.0555C222.476 44.2771 226.816 39.7938 232.338 36.6058C237.86 33.3181 244.172 31.6741 251.272 31.6741C254.823 31.6741 258.175 32.2223 261.331 33.3182C264.487 34.4141 267.347 35.9583 269.911 37.9508C272.46 39.9318 274.522 42.2576 276.096 44.9279C276.113 44.9568 276.144 44.9745 276.177 44.9745C276.229 44.9745 276.271 44.9319 276.271 44.8793V6.33796C276.271 3.16377 278.818 0.590585 281.96 0.590561H287.594ZM253.935 46.3194C249.695 46.3194 245.898 47.4154 242.545 49.6072C239.192 51.799 236.579 54.7878 234.705 58.5736C232.831 62.3594 231.894 66.6933 231.894 71.575C231.894 76.5563 232.831 80.94 234.705 84.7258C236.579 88.5116 239.192 91.5004 242.545 93.6922C245.996 95.7844 249.842 96.8304 254.083 96.8305C258.422 96.8305 262.219 95.7844 265.473 93.6922C268.826 91.5004 271.439 88.5116 273.313 84.7258C275.187 80.94 276.124 76.5563 276.124 71.575C276.124 66.5937 275.187 62.2101 273.313 58.4242C271.439 54.6384 268.826 51.6994 265.473 49.6072C262.219 47.4154 258.373 46.3194 253.935 46.3194Z" fill="url(#paint2_linear_193_371)"/>
<path d="M47.2738 32.4826C50.4157 32.4826 52.9628 35.0558 52.9628 38.23V84.2431C52.9628 85.4195 53.1816 86.4979 53.6194 87.4782C54.0571 88.4585 54.6408 89.2427 55.3704 89.8309C56.0999 90.4191 56.9025 90.7133 57.7779 90.7133C58.6534 90.7133 59.4559 90.4191 60.1855 89.8309C60.9151 89.2428 61.4988 88.4585 61.9365 87.4782C62.3743 86.4979 62.5933 85.4195 62.5933 84.2431V72.1993C62.5933 66.1213 63.5416 60.9746 65.4386 56.7592C67.3355 52.5439 69.9255 49.358 73.2086 47.2013C76.5647 44.9466 80.3221 43.8193 84.4807 43.8193C88.6393 43.8193 92.3602 44.9466 95.6433 47.2013C98.9264 49.358 101.516 52.5439 103.413 56.7592C105.31 60.9746 106.259 66.1213 106.259 72.1993V84.2431C106.259 85.4195 106.478 86.4979 106.915 87.4782C107.353 88.4585 107.937 89.2428 108.666 89.8309C109.469 90.4191 110.308 90.7133 111.183 90.7133C112.059 90.7133 112.861 90.4191 113.591 89.8309C114.321 89.2427 114.904 88.4585 115.342 87.4782C115.78 86.4979 115.999 85.4195 115.999 84.2431V38.23C115.999 35.0558 118.546 32.4826 121.688 32.4826H127.272C130.414 32.4826 132.961 35.0558 132.961 38.23V81.3023C132.961 87.6743 131.94 92.968 129.897 97.1833C127.927 101.399 125.264 104.536 121.908 106.594C118.625 108.653 115.05 109.682 111.183 109.682C107.317 109.682 103.705 108.653 100.349 106.594C97.0659 104.536 94.403 101.399 92.3601 97.1833C90.3173 92.968 89.2958 87.6743 89.2958 81.3023V69.4054C89.2958 68.131 89.077 67.0036 88.6393 66.0233C88.2015 65.043 87.6178 64.2588 86.8882 63.6706C86.1586 63.0825 85.3562 62.7882 84.4807 62.7882C83.6052 62.7882 82.7662 63.0825 81.9637 63.6706C81.2341 64.2588 80.6504 65.043 80.2127 66.0233C79.7749 67.0037 79.5559 68.131 79.5559 69.4054V81.3023C79.5559 87.6743 78.5346 92.968 76.4918 97.1833C74.5219 101.399 71.859 104.536 68.5029 106.594C65.2198 108.653 61.6447 109.682 57.7779 109.682C53.9112 109.682 50.2998 108.653 46.9438 106.594C43.6607 104.536 40.9977 101.399 38.9549 97.1833C36.9851 92.968 36 87.6743 36 81.3023V38.23C36 35.0558 38.5471 32.4826 41.6891 32.4826H47.2738Z" fill="url(#paint3_linear_193_371)"/>
<path d="M386.687 0C389.829 4.13603e-05 392.376 2.57322 392.376 5.7474V103.344C392.376 106.519 389.829 109.092 386.687 109.092H381.054C377.912 109.092 375.365 106.519 375.365 103.344V5.7474C375.365 2.57321 377.912 2.48767e-05 381.054 0H386.687Z" fill="url(#paint4_linear_193_371)"/>
<path d="M336.177 30.9518C344.264 30.9518 350.92 33.1979 356.146 36.6848C361.373 40.1718 365.219 44.8542 367.685 50.7322C370.249 56.6102 371.531 63.1856 371.531 70.4583C371.531 71.4546 371.482 72.6004 371.383 73.8955C371.247 75.6819 369.716 76.8844 367.943 76.8844H342.005C338.786 76.8844 336.177 74.275 336.177 71.0562C336.177 67.8374 338.786 65.2281 342.005 65.2281H348.819C351.917 65.2281 355.922 62.6213 355.133 59.5939C354.741 57.7137 353.66 55.8157 352.679 54.1305C350.383 51.0264 347.39 48.5924 343.97 47.0798C339.573 45.135 332.31 45.0408 327.733 46.4058C323.156 47.7707 319.116 50.7388 316.237 54.8536C313.357 58.9684 311.797 64.0019 311.796 69.1791C311.795 69.9197 311.827 70.658 311.89 71.3918C312.415 77.5124 313.54 83.806 311.891 89.7236C311.777 90.1331 311.766 90.5689 311.862 90.9842C311.957 91.3995 312.154 91.7787 312.431 92.0814C312.708 92.3841 313.056 92.5989 313.437 92.7027C313.817 92.8064 314.217 92.7954 314.592 92.6707L316.541 92.0228C320.238 90.7943 324.247 91.6348 327.859 93.0943C331.31 94.3895 336.374 95.4585 341.107 94.9529C343.074 94.7427 345.273 93.9271 347.3 92.9565C351.165 91.106 356.069 92.1232 358.171 95.8572C360.041 99.1797 358.96 103.381 355.545 105.075C351.095 107.282 344.992 109.791 340.241 109.791C331.76 109.791 323.47 108.088 317.06 104.9C310.749 101.613 305.818 97.1293 302.268 91.4506C298.718 85.6722 296.943 79.047 296.943 71.575C296.943 63.7045 298.521 56.7803 301.676 50.8027C304.832 44.8251 309.171 40.1427 314.694 36.7553C320.216 33.368 328.978 30.9518 336.177 30.9518Z" fill="url(#paint5_linear_193_371)"/>
<path d="M260.284 167.19C259.01 167.19 257.818 166.954 256.708 166.481C255.598 165.988 254.622 165.33 253.779 164.508V166.943H250.696V137.346H254.026V150.634C254.848 149.873 255.793 149.277 256.862 148.846C257.931 148.414 259.072 148.198 260.284 148.198C261.99 148.198 263.532 148.63 264.909 149.493C266.307 150.336 267.417 151.477 268.239 152.915C269.081 154.354 269.503 155.947 269.503 157.694C269.503 159.441 269.081 161.034 268.239 162.473C267.417 163.912 266.307 165.063 264.909 165.926C263.532 166.769 261.99 167.19 260.284 167.19ZM259.853 164.169C261.024 164.169 262.083 163.881 263.028 163.305C263.994 162.709 264.755 161.928 265.31 160.962C265.885 159.976 266.173 158.886 266.173 157.694C266.173 156.502 265.885 155.423 265.31 154.457C264.755 153.47 263.994 152.689 263.028 152.114C262.083 151.518 261.024 151.22 259.853 151.22C258.681 151.22 257.612 151.518 256.646 152.114C255.701 152.689 254.94 153.47 254.365 154.457C253.81 155.423 253.533 156.502 253.533 157.694C253.533 158.886 253.81 159.976 254.365 160.962C254.94 161.928 255.701 162.709 256.646 163.305C257.612 163.881 258.681 164.169 259.853 164.169ZM272.73 176.193L278.742 164.23L270.911 148.445H274.673L278.619 156.461C278.968 157.18 279.308 157.889 279.636 158.588C279.965 159.287 280.294 160.13 280.623 161.116C280.972 160.13 281.301 159.287 281.61 158.588C281.939 157.869 282.288 157.16 282.658 156.461L286.666 148.445H290.211L276.338 176.193H272.73ZM309.672 167.313C308.028 167.313 306.538 166.984 305.202 166.327C303.886 165.669 302.838 164.867 302.057 163.922L303.075 159.667C303.65 160.818 304.513 161.856 305.664 162.781C306.815 163.706 308.192 164.169 309.796 164.169C311.255 164.169 312.457 163.706 313.403 162.781C314.369 161.856 314.852 160.716 314.852 159.359C314.852 158.372 314.616 157.561 314.143 156.923C313.67 156.286 313.136 155.783 312.54 155.413C311.944 155.043 311.471 154.776 311.121 154.611L307.73 152.885C307.196 152.597 306.528 152.196 305.726 151.682C304.945 151.168 304.256 150.459 303.66 149.555C303.064 148.65 302.766 147.479 302.766 146.04C302.766 144.642 303.085 143.399 303.722 142.31C304.38 141.22 305.284 140.367 306.435 139.751C307.607 139.134 308.943 138.826 310.443 138.826C311.923 138.826 313.228 139.093 314.359 139.627C315.489 140.141 316.373 140.676 317.01 141.231L315.993 145.485C315.479 144.622 314.718 143.81 313.711 143.05C312.704 142.289 311.563 141.909 310.289 141.909C309.056 141.909 308.069 142.279 307.329 143.019C306.589 143.738 306.219 144.632 306.219 145.701C306.219 146.523 306.404 147.201 306.774 147.736C307.165 148.27 307.596 148.692 308.069 149C308.562 149.308 308.963 149.545 309.272 149.709L312.725 151.436C313.136 151.641 313.65 151.929 314.266 152.299C314.903 152.669 315.53 153.162 316.147 153.779C316.763 154.375 317.277 155.115 317.688 155.998C318.099 156.862 318.305 157.91 318.305 159.143C318.305 160.726 317.925 162.134 317.164 163.367C316.424 164.6 315.407 165.566 314.112 166.265C312.817 166.964 311.337 167.313 309.672 167.313ZM323.1 166.943V137.346H326.43V151.066C327.129 150.1 327.992 149.36 329.02 148.846C330.047 148.332 331.147 148.075 332.318 148.075C333.634 148.075 334.847 148.404 335.956 149.062C337.087 149.699 338.002 150.634 338.7 151.867C339.399 153.08 339.749 154.56 339.749 156.307V166.943H336.419V156.769C336.419 155.31 335.977 154.025 335.093 152.915C334.23 151.785 333.007 151.22 331.424 151.22C330.129 151.22 328.968 151.692 327.94 152.638C326.933 153.563 326.43 154.909 326.43 156.677V166.943H323.1ZM345.298 166.943V148.445H348.381V151.836C349.039 150.747 349.913 149.884 351.002 149.247C352.091 148.589 353.386 148.26 354.887 148.26L355.719 151.59C355.328 151.466 354.876 151.405 354.362 151.405C352.636 151.405 351.249 151.96 350.2 153.07C349.152 154.159 348.628 155.721 348.628 157.756V166.943H345.298ZM366.489 167.19C364.803 167.19 363.262 166.769 361.864 165.926C360.466 165.063 359.346 163.912 358.503 162.473C357.681 161.034 357.27 159.441 357.27 157.694C357.27 155.947 357.681 154.354 358.503 152.915C359.346 151.477 360.466 150.336 361.864 149.493C363.262 148.63 364.803 148.198 366.489 148.198C367.763 148.198 368.955 148.435 370.065 148.907C371.195 149.38 372.172 150.038 372.994 150.881V148.445H376.077V166.943H372.994V164.508C372.172 165.33 371.195 165.988 370.065 166.481C368.955 166.954 367.763 167.19 366.489 167.19ZM366.92 164.169C368.092 164.169 369.15 163.881 370.096 163.305C371.062 162.709 371.822 161.928 372.377 160.962C372.953 159.976 373.24 158.886 373.24 157.694C373.24 156.502 372.953 155.423 372.377 154.457C371.822 153.47 371.062 152.689 370.096 152.114C369.15 151.518 368.092 151.22 366.92 151.22C365.749 151.22 364.68 151.518 363.714 152.114C362.768 152.689 362.008 153.47 361.432 154.457C360.877 155.423 360.6 156.502 360.6 157.694C360.6 158.886 360.877 159.976 361.432 160.962C362.008 161.928 362.768 162.709 363.714 163.305C364.68 163.881 365.749 164.169 366.92 164.169ZM388.729 167.868L379.387 148.445H383.179L386.941 156.461C387.29 157.18 387.619 157.889 387.927 158.588C388.236 159.287 388.534 160.14 388.822 161.147C389.13 160.14 389.438 159.287 389.746 158.588C390.075 157.869 390.404 157.16 390.733 156.461L394.525 148.445H398.071L388.729 167.868ZM400.63 176.193L406.642 164.23L398.811 148.445H402.572L406.518 156.461C406.868 157.18 407.207 157.889 407.536 158.588C407.865 159.287 408.193 160.13 408.522 161.116C408.872 160.13 409.201 159.287 409.509 158.588C409.838 157.869 410.187 157.16 410.557 156.461L414.565 148.445H418.111L404.237 176.193H400.63ZM428.968 167.313C427.18 167.313 425.546 166.882 424.066 166.018C422.586 165.155 421.404 163.994 420.52 162.535C419.657 161.075 419.225 159.462 419.225 157.694C419.225 155.906 419.657 154.292 420.52 152.854C421.404 151.394 422.586 150.233 424.066 149.37C425.546 148.507 427.18 148.075 428.968 148.075C430.777 148.075 432.411 148.507 433.87 149.37C435.35 150.233 436.521 151.394 437.385 152.854C438.269 154.292 438.71 155.906 438.71 157.694C438.71 159.462 438.269 161.075 437.385 162.535C436.521 163.994 435.35 165.155 433.87 166.018C432.411 166.882 430.777 167.313 428.968 167.313ZM428.968 164.169C430.16 164.169 431.239 163.881 432.205 163.305C433.171 162.709 433.942 161.928 434.517 160.962C435.093 159.976 435.381 158.886 435.381 157.694C435.381 156.502 435.093 155.423 434.517 154.457C433.942 153.47 433.171 152.689 432.205 152.114C431.239 151.518 430.16 151.22 428.968 151.22C427.776 151.22 426.697 151.518 425.731 152.114C424.765 152.689 423.994 153.47 423.418 154.457C422.843 155.423 422.555 156.502 422.555 157.694C422.555 158.886 422.843 159.976 423.418 160.962C423.994 161.928 424.765 162.709 425.731 163.305C426.697 163.881 427.776 164.169 428.968 164.169ZM443.325 166.943V148.445H446.408V151.096C447.087 150.089 447.94 149.339 448.967 148.846C450.016 148.332 451.115 148.075 452.266 148.075C453.52 148.075 454.671 148.373 455.719 148.969C456.768 149.545 457.61 150.356 458.247 151.405C458.967 150.295 459.892 149.462 461.022 148.907C462.173 148.352 463.386 148.075 464.66 148.075C466.058 148.075 467.332 148.404 468.483 149.062C469.655 149.719 470.58 150.644 471.258 151.836C471.957 153.008 472.306 154.395 472.306 155.998V166.943H468.977V156.399C468.977 154.714 468.494 153.44 467.528 152.576C466.582 151.692 465.482 151.251 464.229 151.251C463.448 151.251 462.687 151.425 461.947 151.775C461.228 152.124 460.632 152.669 460.159 153.409C459.707 154.149 459.481 155.115 459.481 156.307V166.943H456.151V156.399C456.151 155.228 455.915 154.262 455.442 153.501C454.99 152.741 454.394 152.175 453.654 151.805C452.934 151.415 452.184 151.22 451.403 151.22C450.643 151.22 449.892 151.394 449.152 151.744C448.433 152.093 447.837 152.638 447.364 153.378C446.891 154.118 446.655 155.094 446.655 156.307V166.943H443.325Z" fill="url(#paint6_linear_193_371)"/>
</g>
<defs>
<linearGradient id="paint0_linear_193_371" x1="36" y1="70.0094" x2="473.132" y2="70.0094" gradientUnits="userSpaceOnUse">
<stop stop-color="#104502"/>
<stop offset="1" stop-color="#27AA05"/>
</linearGradient>
<linearGradient id="paint1_linear_193_371" x1="36" y1="70.0094" x2="473.132" y2="70.0094" gradientUnits="userSpaceOnUse">
<stop stop-color="#104502"/>
<stop offset="1" stop-color="#27AA05"/>
</linearGradient>
<linearGradient id="paint2_linear_193_371" x1="36" y1="70.0094" x2="473.132" y2="70.0094" gradientUnits="userSpaceOnUse">
<stop stop-color="#104502"/>
<stop offset="1" stop-color="#27AA05"/>
</linearGradient>
<linearGradient id="paint3_linear_193_371" x1="36" y1="70.0094" x2="473.132" y2="70.0094" gradientUnits="userSpaceOnUse">
<stop stop-color="#104502"/>
<stop offset="1" stop-color="#27AA05"/>
</linearGradient>
<linearGradient id="paint4_linear_193_371" x1="36" y1="70.0094" x2="473.132" y2="70.0094" gradientUnits="userSpaceOnUse">
<stop stop-color="#104502"/>
<stop offset="1" stop-color="#27AA05"/>
</linearGradient>
<linearGradient id="paint5_linear_193_371" x1="36" y1="70.0094" x2="473.132" y2="70.0094" gradientUnits="userSpaceOnUse">
<stop stop-color="#104502"/>
<stop offset="1" stop-color="#27AA05"/>
</linearGradient>
<linearGradient id="paint6_linear_193_371" x1="247.736" y1="152.443" x2="475.736" y2="152.443" gradientUnits="userSpaceOnUse">
<stop stop-color="#667085"/>
<stop offset="1" stop-color="#181A1F"/>
</linearGradient>
<clipPath id="clip0_193_371">
<rect width="512" height="176" fill="white"/>
</clipPath>
</defs>
</svg>
