<svg width="75" height="24" viewBox="0 0 75 24" fill="none" xmlns="http://www.w3.org/2000/svg">
<path d="M19.4879 5.73652C20.027 5.73652 20.464 6.17758 20.464 6.72165V13.2417C20.464 13.9077 20.6079 14.4968 20.8955 15.0091C21.2001 15.5044 21.5977 15.8971 22.0883 16.1874C22.5959 16.4607 23.1458 16.5973 23.738 16.5973C24.3302 16.5973 24.8717 16.4607 25.3623 16.1874C25.8699 15.8971 26.2675 15.5044 26.5552 15.0091C26.8597 14.4968 27.012 13.9077 27.012 13.2417V6.72165C27.012 6.17758 27.449 5.73652 27.9881 5.73652H28.9546C29.4937 5.73653 29.9307 6.17758 29.9307 6.72165V13.2673C29.9307 14.2407 29.7361 15.1201 29.347 15.9056C28.9578 16.6912 28.4079 17.3572 27.6973 17.9036C27.2027 18.2811 26.6393 18.5673 26.0071 18.7625C25.5538 18.9024 25.2101 19.3028 25.2101 19.7812V23.0148C25.2101 23.5589 24.7731 24 24.234 24H23.2929C22.7538 24 22.3168 23.5589 22.3168 23.0149V19.7953C22.3168 19.322 21.9806 18.9234 21.5319 18.7858C20.8768 18.5851 20.2924 18.2995 19.7788 17.9292C19.0682 17.3999 18.5183 16.7339 18.1291 15.9313C17.74 15.1287 17.5454 14.2407 17.5454 13.2673V6.72165C17.5454 6.17758 17.9824 5.73652 18.5215 5.73652H19.4879Z" fill="url(#paint0_linear_1_1102)"/>
<path d="M64.5572 5.63529C65.0963 5.63529 65.5334 6.07635 65.5334 6.62043V13.1405C65.5334 13.8065 65.6772 14.3956 65.9648 14.9079C66.2694 15.4031 66.667 15.7959 67.1576 16.0862C67.6652 16.3594 68.2151 16.496 68.8073 16.496C69.3995 16.496 69.941 16.3594 70.4316 16.0862C70.9392 15.7959 71.3368 15.4031 71.6245 14.9079C71.929 14.3956 72.0813 13.8065 72.0813 13.1405V6.62043C72.0813 6.07635 72.5183 5.63529 73.0574 5.63529H74.0239C74.563 5.63529 75 6.07635 75 6.62043V13.1661C75 14.1395 74.8054 15.0189 74.4163 15.8044C74.0271 16.5899 73.4772 17.256 72.7666 17.8024C72.272 18.1798 71.7086 18.4661 71.0764 18.6612C70.6231 18.8011 70.2794 19.2016 70.2794 19.68V22.9136C70.2794 23.4577 69.8424 23.8988 69.3033 23.8988H68.3621C67.8231 23.8988 67.3861 23.4577 67.3861 22.9136V19.6941C67.3861 19.2208 67.0498 18.8221 66.6011 18.6846C65.9461 18.4838 65.3617 18.1983 64.8481 17.828C64.1375 17.2986 63.5876 16.6326 63.1984 15.8301C62.8093 15.0275 62.6147 14.1395 62.6147 13.1661V6.62043C62.6147 6.07635 63.0517 5.63529 63.5908 5.63529H64.5572Z" fill="url(#paint1_linear_1_1102)"/>
<path fill-rule="evenodd" clip-rule="evenodd" d="M43.1667 0.101225C43.7057 0.101235 44.1427 0.542292 44.1427 1.08636V12.1146C44.1427 13.5491 43.8551 14.7957 43.2798 15.8544C42.7214 16.8961 41.9347 17.6987 40.9195 18.2622C39.9213 18.8258 38.7538 19.1075 37.4171 19.1075C36.385 19.1075 35.4459 18.9453 34.5999 18.6208C33.7709 18.2793 33.0603 17.7926 32.4681 17.1608C31.8928 16.5289 31.4444 15.7861 31.1229 14.9323C30.8184 14.0614 30.6661 13.1051 30.6661 12.0634C30.6661 10.7314 30.9283 9.57022 31.4529 8.57978C31.9943 7.58934 32.7388 6.82088 33.6863 6.27443C34.6338 5.7109 35.7167 5.42912 36.9349 5.42912C37.544 5.42912 38.1193 5.52308 38.6607 5.71092C39.2021 5.89876 39.6928 6.16345 40.1327 6.50498C40.5701 6.84454 40.9238 7.24318 41.194 7.70089C41.1969 7.70583 41.2022 7.70888 41.2079 7.70888C41.2168 7.70888 41.224 7.70157 41.2241 7.69256V1.08636C41.2241 0.542288 41.6611 0.10123 42.2001 0.101225H43.1667ZM37.3917 7.93939C36.6642 7.93939 36.0128 8.12726 35.4375 8.50294C34.8622 8.87863 34.4139 9.39092 34.0924 10.0398C33.7709 10.6887 33.6101 11.4316 33.6101 12.2684C33.6101 13.1222 33.7709 13.8736 34.0924 14.5225C34.4139 15.1714 34.8622 15.6837 35.4375 16.0594C36.0297 16.418 36.6895 16.5973 37.4171 16.5973C38.1616 16.5973 38.813 16.418 39.3713 16.0594C39.9466 15.6837 40.395 15.1714 40.7164 14.5225C41.0379 13.8736 41.1987 13.1222 41.1987 12.2684C41.1987 11.4145 41.0379 10.6631 40.7164 10.0142C40.395 9.36532 39.9466 8.86155 39.3713 8.50294C38.813 8.12726 38.1531 7.93939 37.3917 7.93939Z" fill="url(#paint2_linear_1_1102)"/>
<path d="M1.93427 5.5677C2.47335 5.5677 2.91036 6.00876 2.91036 6.55283V14.4397C2.91036 14.6414 2.9479 14.8262 3.023 14.9942C3.09811 15.1623 3.19826 15.2967 3.32343 15.3975C3.44861 15.4983 3.5863 15.5488 3.7365 15.5488C3.88671 15.5488 4.0244 15.4983 4.14958 15.3975C4.27475 15.2967 4.3749 15.1623 4.45 14.9942C4.52511 14.8262 4.56269 14.6414 4.56269 14.4397V12.3753C4.56269 11.3336 4.7254 10.4514 5.05086 9.72884C5.37631 9.00632 5.8207 8.46023 6.38399 8.09056C6.9598 7.70409 7.60446 7.51086 8.31797 7.51086C9.03147 7.51086 9.66988 7.70409 10.2332 8.09056C10.7965 8.46023 11.2408 9.00632 11.5663 9.72884C11.8918 10.4514 12.0545 11.3336 12.0545 12.3753V14.4397C12.0545 14.6414 12.0921 14.8262 12.1672 14.9942C12.2423 15.1623 12.3424 15.2967 12.4675 15.3975C12.6052 15.4983 12.7492 15.5488 12.8994 15.5488C13.0496 15.5488 13.1873 15.4983 13.3125 15.3975C13.4377 15.2967 13.5378 15.1623 13.6129 14.9942C13.688 14.8262 13.7256 14.6414 13.7256 14.4397V6.55283C13.7256 6.00876 14.1626 5.5677 14.7017 5.5677H15.6598C16.1989 5.5677 16.6359 6.00876 16.6359 6.55283V13.9357C16.6359 15.0279 16.4607 15.9352 16.1102 16.6577C15.7722 17.3803 15.3153 17.918 14.7395 18.2709C14.1762 18.6237 13.5629 18.8001 12.8994 18.8001C12.236 18.8001 11.6164 18.6237 11.0405 18.2709C10.4773 17.918 10.0204 17.3803 9.66987 16.6577C9.31938 15.9352 9.14411 15.0279 9.14411 13.9357V11.8965C9.14411 11.678 9.10657 11.4848 9.03147 11.3168C8.95636 11.1487 8.85621 11.0143 8.73104 10.9135C8.60586 10.8127 8.46818 10.7622 8.31797 10.7622C8.16776 10.7622 8.02382 10.8127 7.88612 10.9135C7.76095 11.0143 7.6608 11.1487 7.58569 11.3168C7.51059 11.4848 7.47301 11.678 7.47301 11.8965V13.9357C7.47301 15.0279 7.29778 15.9352 6.94729 16.6577C6.60932 17.3803 6.15242 17.918 5.57662 18.2709C5.01332 18.6237 4.39994 18.8001 3.7365 18.8001C3.07308 18.8001 2.45346 18.6237 1.87766 18.2709C1.31437 17.918 0.857477 17.3803 0.506984 16.6577C0.169009 15.9352 1.48328e-06 15.0279 0 13.9357V6.55283C4.50554e-07 6.00876 0.43701 5.5677 0.976088 5.5677H1.93427Z" fill="url(#paint3_linear_1_1102)"/>
<path d="M60.1684 0C60.7074 7.08937e-06 61.1445 0.441065 61.1445 0.985135V17.7138C61.1445 18.2579 60.7074 18.6989 60.1684 18.6989H59.2019C58.6628 18.6989 58.2258 18.2579 58.2258 17.7138V0.985135C58.2258 0.441063 58.6628 4.264e-06 59.2019 0H60.1684Z" fill="url(#paint4_linear_1_1102)"/>
<path d="M51.5022 5.30531C52.8897 5.30531 54.0317 5.6903 54.9284 6.28798C55.8252 6.88566 56.4851 7.68826 56.9081 8.69577C57.348 9.70329 57.568 10.8304 57.568 12.0769C57.568 12.2477 57.5595 12.4441 57.5426 12.6661C57.5193 12.9723 57.2567 13.1784 56.9524 13.1784H52.5012C51.9495 13.1784 51.5022 12.7311 51.5022 12.1794C51.5022 11.6277 51.9495 11.1804 52.5012 11.1804H53.6712C54.2029 11.1804 54.8899 10.7336 54.7546 10.2147C54.6874 9.89244 54.5019 9.56712 54.3336 9.27827C53.9395 8.74621 53.4261 8.329 52.8393 8.06973C52.0848 7.73638 50.8388 7.72025 50.0534 7.9542C49.2681 8.18815 48.5751 8.69691 48.081 9.4022C47.587 10.1075 47.3192 10.9703 47.319 11.8577C47.319 11.9846 47.3244 12.1112 47.3352 12.237C47.4254 13.2861 47.6183 14.3649 47.3354 15.3791C47.3158 15.4493 47.314 15.524 47.3304 15.5952C47.3467 15.6664 47.3804 15.7314 47.428 15.7832C47.4756 15.8351 47.5353 15.872 47.6006 15.8897C47.6659 15.9075 47.7344 15.9056 47.7988 15.8843L48.1334 15.7732C48.7677 15.5626 49.4553 15.7067 50.075 15.9569C50.6672 16.1789 51.536 16.3621 52.348 16.2754C52.686 16.2394 53.064 16.0992 53.4123 15.9325C54.0746 15.6154 54.9149 15.7898 55.2753 16.4295C55.5964 16.9994 55.4109 17.7202 54.8247 18.0106C54.0613 18.3889 53.0144 18.8188 52.1995 18.8188C50.7444 18.8188 49.3221 18.5269 48.2223 17.9805C47.1395 17.417 46.2934 16.6485 45.6843 15.6751C45.0752 14.6847 44.7707 13.5491 44.7707 12.2684C44.7707 10.9193 45.0414 9.73246 45.5828 8.70786C46.1243 7.68326 46.8687 6.88067 47.8162 6.30007C48.7638 5.71946 50.2671 5.30531 51.5022 5.30531Z" fill="url(#paint5_linear_1_1102)"/>
<defs>
<linearGradient id="paint0_linear_1_1102" x1="0" y1="12" x2="75" y2="12" gradientUnits="userSpaceOnUse">
<stop stop-color="#104502"/>
<stop offset="1" stop-color="#27AA05"/>
</linearGradient>
<linearGradient id="paint1_linear_1_1102" x1="0" y1="12" x2="75" y2="12" gradientUnits="userSpaceOnUse">
<stop stop-color="#104502"/>
<stop offset="1" stop-color="#27AA05"/>
</linearGradient>
<linearGradient id="paint2_linear_1_1102" x1="0" y1="12" x2="75" y2="12" gradientUnits="userSpaceOnUse">
<stop stop-color="#104502"/>
<stop offset="1" stop-color="#27AA05"/>
</linearGradient>
<linearGradient id="paint3_linear_1_1102" x1="0" y1="12" x2="75" y2="12" gradientUnits="userSpaceOnUse">
<stop stop-color="#104502"/>
<stop offset="1" stop-color="#27AA05"/>
</linearGradient>
<linearGradient id="paint4_linear_1_1102" x1="0" y1="12" x2="75" y2="12" gradientUnits="userSpaceOnUse">
<stop stop-color="#104502"/>
<stop offset="1" stop-color="#27AA05"/>
</linearGradient>
<linearGradient id="paint5_linear_1_1102" x1="0" y1="12" x2="75" y2="12" gradientUnits="userSpaceOnUse">
<stop stop-color="#104502"/>
<stop offset="1" stop-color="#27AA05"/>
</linearGradient>
</defs>
</svg>
