<svg width="17" height="17" viewBox="0 0 17 17" fill="none" xmlns="http://www.w3.org/2000/svg">
<g clip-path="url(#clip0_189_118)">
<mask id="mask0_189_118" style="mask-type:luminance" maskUnits="userSpaceOnUse" x="0" y="0" width="17" height="17">
<path d="M17 0H0V17H17V0Z" fill="white"/>
</mask>
<g mask="url(#mask0_189_118)">
<path d="M13.927 4.12988H3.16992V12.1016H13.927V4.12988Z" fill="#D9D9D9"/>
<path fill-rule="evenodd" clip-rule="evenodd" d="M9.2605 0.33444C9.16152 0.232917 9.04321 0.152233 8.91256 0.0971428C8.78191 0.042053 8.64155 0.0136719 8.49975 0.0136719C8.35796 0.0136719 8.2176 0.042053 8.08695 0.0971428C7.95629 0.152233 7.83799 0.232917 7.739 0.33444L7.06113 1.03038C6.9277 1.16746 6.75975 1.26599 6.57498 1.31554C6.39021 1.3651 6.1955 1.36386 6.01138 1.31194L5.07638 1.04844C4.9399 1.01004 4.79712 0.999332 4.65644 1.01696C4.51577 1.03459 4.38004 1.0802 4.25726 1.15109C4.13449 1.22199 4.02714 1.31674 3.94154 1.42976C3.85595 1.54278 3.79384 1.67179 3.75888 1.80919L3.51875 2.75057C3.47168 2.93588 3.37546 3.10506 3.24026 3.24026C3.10506 3.37546 2.93588 3.47168 2.75057 3.51875L1.80919 3.75782C1.67179 3.79278 1.54278 3.85489 1.42976 3.94048C1.31674 4.02608 1.22199 4.13342 1.15109 4.2562C1.0802 4.37898 1.03459 4.51471 1.01696 4.65538C0.999332 4.79606 1.01004 4.93884 1.04844 5.07532L1.31194 6.01138C1.36386 6.1955 1.3651 6.39021 1.31554 6.57498C1.26599 6.75975 1.16746 6.9277 1.03038 7.06113L0.33444 7.739C0.232917 7.83799 0.152233 7.95629 0.0971428 8.08695C0.042053 8.2176 0.0136719 8.35796 0.0136719 8.49975C0.0136719 8.64155 0.042053 8.78191 0.0971428 8.91256C0.152233 9.04321 0.232917 9.16152 0.33444 9.2605L1.03038 9.93944C1.16728 10.0728 1.26569 10.2405 1.31524 10.4251C1.36479 10.6097 1.36365 10.8042 1.31194 10.9881L1.04844 11.9231C1.01004 12.0596 0.999332 12.2024 1.01696 12.3431C1.03459 12.4837 1.0802 12.6195 1.15109 12.7422C1.22199 12.865 1.31674 12.9724 1.42976 13.058C1.54278 13.1436 1.67179 13.2057 1.80919 13.2406L2.75057 13.4808C2.93588 13.5278 3.10506 13.624 3.24026 13.7592C3.37546 13.8944 3.47168 14.0636 3.51875 14.2489L3.75782 15.1903C3.79266 15.3278 3.85469 15.4569 3.94023 15.5701C4.02577 15.6832 4.13311 15.7781 4.2559 15.8491C4.37869 15.9201 4.51445 15.9658 4.65519 15.9835C4.79592 16.0012 4.93877 15.9905 5.07532 15.9521L6.01138 15.6886C6.1954 15.6366 6.39006 15.6352 6.57482 15.6845C6.75958 15.7339 6.92759 15.8322 7.06113 15.9691L7.739 16.6651C7.83799 16.7666 7.95629 16.8473 8.08695 16.9024C8.2176 16.9575 8.35796 16.9858 8.49975 16.9858C8.64155 16.9858 8.78191 16.9575 8.91256 16.9024C9.04321 16.8473 9.16152 16.7666 9.2605 16.6651L9.93944 15.9691C10.0729 15.8324 10.2407 15.7342 10.4253 15.6848C10.6098 15.6355 10.8043 15.6368 10.9881 15.6886L11.9231 15.9521C12.0597 15.9905 12.2025 16.0012 12.3433 15.9835C12.484 15.9658 12.6198 15.9201 12.7425 15.8491C12.8653 15.7781 12.9727 15.6832 13.0582 15.5701C13.1438 15.4569 13.2058 15.3278 13.2406 15.1903L13.4808 14.2489C13.5278 14.0636 13.624 13.8944 13.7592 13.7592C13.8944 13.624 14.0636 13.5278 14.2489 13.4808L15.1903 13.2417C15.3278 13.2068 15.4569 13.1448 15.5701 13.0593C15.6832 12.9737 15.7781 12.8664 15.8491 12.7436C15.9201 12.6208 15.9658 12.4851 15.9835 12.3443C16.0012 12.2036 15.9905 12.0607 15.9521 11.9242L15.6886 10.9892C15.6366 10.8052 15.6352 10.6105 15.6845 10.4257C15.7339 10.241 15.8322 10.073 15.9691 9.93944L16.6651 9.2605C16.7666 9.16152 16.8473 9.04321 16.9024 8.91256C16.9575 8.78191 16.9858 8.64155 16.9858 8.49975C16.9858 8.35796 16.9575 8.2176 16.9024 8.08695C16.8473 7.95629 16.7666 7.83799 16.6651 7.739L15.9691 7.06113C15.8322 6.92759 15.7339 6.75958 15.6845 6.57482C15.6352 6.39006 15.6366 6.1954 15.6886 6.01138L15.9521 5.07638C15.9905 4.93983 16.0012 4.79698 15.9835 4.65625C15.9658 4.51552 15.9201 4.37975 15.8491 4.25696C15.7781 4.13417 15.6832 4.02684 15.5701 3.94129C15.4569 3.85575 15.3278 3.79373 15.1903 3.75888L14.2489 3.51875C14.0636 3.47168 13.8944 3.37546 13.7592 3.24026C13.624 3.10506 13.5278 2.93588 13.4808 2.75057L13.2417 1.80919C13.2067 1.67179 13.1446 1.54278 13.059 1.42976C12.9734 1.31674 12.8661 1.22199 12.7433 1.15109C12.6205 1.0802 12.4848 1.03459 12.3441 1.01696C12.2034 0.999332 12.0607 1.01004 11.9242 1.04844L10.9892 1.31194C10.8049 1.36406 10.61 1.36541 10.425 1.31585C10.24 1.26628 10.0719 1.16765 9.93838 1.03038L9.2605 0.33444ZM12.5086 6.68288C12.6607 6.53606 12.7483 6.33482 12.7521 6.1234C12.7559 5.91199 12.6756 5.70773 12.5288 5.55557C12.3819 5.4034 12.1807 5.31578 11.9693 5.312C11.7579 5.30821 11.5536 5.38856 11.4014 5.53538L7.00907 9.77688L5.60975 8.37969C5.45998 8.23034 5.25701 8.1466 5.0455 8.1469C4.83399 8.1472 4.63126 8.23151 4.48191 8.38128C4.33256 8.53106 4.24882 8.73402 4.24912 8.94554C4.24942 9.15705 4.33373 9.35978 4.4835 9.50913L6.43744 11.4578C6.585 11.6052 6.7845 11.6889 6.99308 11.6909C7.20167 11.6929 7.40272 11.613 7.55307 11.4684L12.5086 6.68288Z" fill="#42BE42"/>
<mask id="mask1_189_118" style="mask-type:alpha" maskUnits="userSpaceOnUse" x="6" y="5" width="12" height="13">
<path d="M11.1408 16.1836L6.14648 11.1893L12.4374 5.47461L17.864 11.1893L16.4233 17.4803L11.1408 16.1836Z" fill="#2CA82E"/>
</mask>
<g mask="url(#mask1_189_118)">
<path fill-rule="evenodd" clip-rule="evenodd" d="M9.2605 0.33444C9.16152 0.232917 9.04321 0.152233 8.91256 0.0971428C8.78191 0.042053 8.64155 0.0136719 8.49975 0.0136719C8.35796 0.0136719 8.2176 0.042053 8.08695 0.0971428C7.95629 0.152233 7.83799 0.232917 7.739 0.33444L7.06113 1.03038C6.9277 1.16746 6.75975 1.26599 6.57498 1.31554C6.39021 1.3651 6.1955 1.36386 6.01138 1.31194L5.07638 1.04844C4.9399 1.01004 4.79712 0.999332 4.65644 1.01696C4.51577 1.03459 4.38004 1.0802 4.25726 1.15109C4.13449 1.22199 4.02714 1.31674 3.94154 1.42976C3.85595 1.54278 3.79384 1.67179 3.75888 1.80919L3.51875 2.75057C3.47168 2.93588 3.37546 3.10506 3.24026 3.24026C3.10506 3.37546 2.93588 3.47168 2.75057 3.51875L1.80919 3.75782C1.67179 3.79278 1.54278 3.85489 1.42976 3.94048C1.31674 4.02608 1.22199 4.13342 1.15109 4.2562C1.0802 4.37898 1.03459 4.51471 1.01696 4.65538C0.999332 4.79606 1.01004 4.93884 1.04844 5.07532L1.31194 6.01138C1.36386 6.1955 1.3651 6.39021 1.31554 6.57498C1.26599 6.75975 1.16746 6.9277 1.03038 7.06113L0.33444 7.739C0.232917 7.83799 0.152233 7.95629 0.0971428 8.08695C0.042053 8.2176 0.0136719 8.35796 0.0136719 8.49975C0.0136719 8.64155 0.042053 8.78191 0.0971428 8.91256C0.152233 9.04321 0.232917 9.16152 0.33444 9.2605L1.03038 9.93944C1.16728 10.0728 1.26569 10.2405 1.31524 10.4251C1.36479 10.6097 1.36365 10.8042 1.31194 10.9881L1.04844 11.9231C1.01004 12.0596 0.999332 12.2024 1.01696 12.3431C1.03459 12.4837 1.0802 12.6195 1.15109 12.7422C1.22199 12.865 1.31674 12.9724 1.42976 13.058C1.54278 13.1436 1.67179 13.2057 1.80919 13.2406L2.75057 13.4808C2.93588 13.5278 3.10506 13.624 3.24026 13.7592C3.37546 13.8944 3.47168 14.0636 3.51875 14.2489L3.75782 15.1903C3.79266 15.3278 3.85469 15.4569 3.94023 15.5701C4.02577 15.6832 4.13311 15.7781 4.2559 15.8491C4.37869 15.9201 4.51445 15.9658 4.65519 15.9835C4.79592 16.0012 4.93877 15.9905 5.07532 15.9521L6.01138 15.6886C6.1954 15.6366 6.39006 15.6352 6.57482 15.6845C6.75958 15.7339 6.92759 15.8322 7.06113 15.9691L7.739 16.6651C7.83799 16.7666 7.95629 16.8473 8.08695 16.9024C8.2176 16.9575 8.35796 16.9858 8.49975 16.9858C8.64155 16.9858 8.78191 16.9575 8.91256 16.9024C9.04321 16.8473 9.16152 16.7666 9.2605 16.6651L9.93944 15.9691C10.0729 15.8324 10.2407 15.7342 10.4253 15.6848C10.6098 15.6355 10.8043 15.6368 10.9881 15.6886L11.9231 15.9521C12.0597 15.9905 12.2025 16.0012 12.3433 15.9835C12.484 15.9658 12.6198 15.9201 12.7425 15.8491C12.8653 15.7781 12.9727 15.6832 13.0582 15.5701C13.1438 15.4569 13.2058 15.3278 13.2406 15.1903L13.4808 14.2489C13.5278 14.0636 13.624 13.8944 13.7592 13.7592C13.8944 13.624 14.0636 13.5278 14.2489 13.4808L15.1903 13.2417C15.3278 13.2068 15.4569 13.1448 15.5701 13.0593C15.6832 12.9737 15.7781 12.8664 15.8491 12.7436C15.9201 12.6208 15.9658 12.4851 15.9835 12.3443C16.0012 12.2036 15.9905 12.0607 15.9521 11.9242L15.6886 10.9892C15.6366 10.8052 15.6352 10.6105 15.6845 10.4257C15.7339 10.241 15.8322 10.073 15.9691 9.93944L16.6651 9.2605C16.7666 9.16152 16.8473 9.04321 16.9024 8.91256C16.9575 8.78191 16.9858 8.64155 16.9858 8.49975C16.9858 8.35796 16.9575 8.2176 16.9024 8.08695C16.8473 7.95629 16.7666 7.83799 16.6651 7.739L15.9691 7.06113C15.8322 6.92759 15.7339 6.75958 15.6845 6.57482C15.6352 6.39006 15.6366 6.1954 15.6886 6.01138L15.9521 5.07638C15.9905 4.93983 16.0012 4.79698 15.9835 4.65625C15.9658 4.51552 15.9201 4.37975 15.8491 4.25696C15.7781 4.13417 15.6832 4.02684 15.5701 3.94129C15.4569 3.85575 15.3278 3.79373 15.1903 3.75888L14.2489 3.51875C14.0636 3.47168 13.8944 3.37546 13.7592 3.24026C13.624 3.10506 13.5278 2.93588 13.4808 2.75057L13.2417 1.80919C13.2067 1.67179 13.1446 1.54278 13.059 1.42976C12.9734 1.31674 12.8661 1.22199 12.7433 1.15109C12.6205 1.0802 12.4848 1.03459 12.3441 1.01696C12.2034 0.999332 12.0607 1.01004 11.9242 1.04844L10.9892 1.31194C10.8049 1.36406 10.61 1.36541 10.425 1.31585C10.24 1.26628 10.0719 1.16765 9.93838 1.03038L9.2605 0.33444ZM12.5086 6.68288C12.6607 6.53606 12.7483 6.33482 12.7521 6.1234C12.7559 5.91199 12.6756 5.70773 12.5288 5.55557C12.3819 5.4034 12.1807 5.31578 11.9693 5.312C11.7579 5.30821 11.5536 5.38856 11.4014 5.53538L7.00907 9.77688L5.60975 8.37969C5.45998 8.23034 5.25701 8.1466 5.0455 8.1469C4.83399 8.1472 4.63126 8.23151 4.48191 8.38128C4.33256 8.53106 4.24882 8.73402 4.24912 8.94554C4.24942 9.15705 4.33373 9.35978 4.4835 9.50913L6.43744 11.4578C6.585 11.6052 6.7845 11.6889 6.99308 11.6909C7.20167 11.6929 7.40272 11.613 7.55307 11.4684L12.5086 6.68288Z" fill="#2CA82E"/>
</g>
</g>
</g>
<defs>
<clipPath id="clip0_189_118">
<rect width="17" height="17" fill="white"/>
</clipPath>
</defs>
</svg>
