<svg width="17" height="17" viewBox="0 0 17 17" fill="none" xmlns="http://www.w3.org/2000/svg">
<g clip-path="url(#clip0_189_138)">
<path d="M1.83621 10.0752C1.83621 10.7792 1.97869 11.3196 2.1649 11.6465C2.40906 12.0748 2.77323 12.2563 3.14449 12.2563C3.62335 12.2563 4.06141 12.1274 4.90562 10.8612C5.58193 9.84639 6.37884 8.42184 6.91502 7.52879L7.82307 6.01582C8.4539 4.96506 9.184 3.79699 10.0211 3.00523C10.7045 2.35901 11.4417 2 12.1836 2C13.4293 2 14.6158 2.78277 15.5238 4.25088C16.5176 5.85875 17 7.88396 17 9.97395C17 11.2164 16.7742 12.1293 16.3899 12.8505C16.0186 13.548 15.2951 14.2449 14.0778 14.2449V12.2563C15.1201 12.2563 15.3802 11.2177 15.3802 10.0291C15.3802 8.33529 15.016 6.4556 14.2137 5.11251C13.6444 4.15985 12.9067 3.57773 12.095 3.57773C11.2171 3.57773 10.5106 4.29576 9.71662 5.57602C9.29456 6.25623 8.86122 7.08516 8.3747 8.02051L7.83908 9.04947C6.7631 11.1183 6.49058 11.5895 5.9526 12.3671C5.00967 13.7288 4.20448 14.2449 3.14449 14.2449C1.88705 14.2449 1.09191 13.6545 0.599458 12.7646C0.197454 12.0395 0 11.0882 0 10.0041L1.83621 10.0752Z" fill="#0081FB"/>
<path d="M1.44727 4.39128C2.28911 2.98408 3.50399 2 4.8974 2C5.70436 2 6.50659 2.259 7.34433 3.00075C8.26065 3.81173 9.23728 5.14713 10.4557 7.34801L10.8926 8.13783C11.9472 10.0432 12.5473 11.0234 12.8984 11.4856C13.3501 12.0793 13.6664 12.2563 14.0773 12.2563C15.1195 12.2563 15.3796 11.2177 15.3796 10.0291L16.9994 9.97395C16.9994 11.2164 16.7737 12.1293 16.3894 12.8505C16.0181 13.548 15.2945 14.2449 14.0773 14.2449C13.3206 14.2449 12.6502 14.0667 11.9088 13.3082C11.3389 12.7262 10.6727 11.6921 10.1601 10.7624L8.63541 8.00064C7.87048 6.6146 7.16873 5.58115 6.76261 5.11315C6.32569 4.60989 5.76407 4.00213 4.86784 4.00213C4.14246 4.00213 3.52645 4.55412 3.01094 5.39844L1.44727 4.39128Z" fill="url(#paint0_linear_189_138)"/>
<path d="M4.86838 4.00213C4.143 4.00213 3.52699 4.55412 3.01147 5.39844C2.28255 6.59151 1.83621 8.36863 1.83621 10.0752C1.83621 10.7792 1.97869 11.3196 2.1649 11.6465L0.599457 12.7646C0.197454 12.0395 0 11.0882 0 10.0041C0 8.03269 0.498957 5.97799 1.4478 4.39128C2.28964 2.98408 3.50452 2 4.89793 2L4.86838 4.00213Z" fill="url(#paint1_linear_189_138)"/>
</g>
<defs>
<linearGradient id="paint0_linear_189_138" x1="3.60567" y1="9.50079" x2="15.3155" y2="10.0462" gradientUnits="userSpaceOnUse">
<stop stop-color="#0064E1"/>
<stop offset="0.4" stop-color="#0064E1"/>
<stop offset="0.83" stop-color="#0073EE"/>
<stop offset="1" stop-color="#0082FB"/>
</linearGradient>
<linearGradient id="paint1_linear_189_138" x1="2.66031" y1="10.9112" x2="2.66031" y2="6.23122" gradientUnits="userSpaceOnUse">
<stop stop-color="#0082FB"/>
<stop offset="1" stop-color="#0064E0"/>
</linearGradient>
<clipPath id="clip0_189_138">
<rect width="17" height="17" fill="white"/>
</clipPath>
</defs>
</svg>
