<svg width="17" height="17" viewBox="0 0 17 17" fill="none" xmlns="http://www.w3.org/2000/svg">
<g clip-path="url(#clip0_189_150)">
<path fill-rule="evenodd" clip-rule="evenodd" d="M3.88281 4.69208C3.88281 4.20821 3.97748 3.73487 4.16682 3.28257C4.35616 2.84078 4.61912 2.43055 4.96624 2.08343C5.30284 1.73631 5.71307 1.47334 6.16538 1.28401C6.60717 1.09467 7.09103 1 7.57489 1C8.05875 1 8.53209 1.09467 8.9844 1.28401C9.42619 1.47334 9.83642 1.73631 10.1835 2.08343C10.5201 2.43055 10.7936 2.83026 10.983 3.28257C11.1723 3.72435 11.267 4.20821 11.267 4.69208C11.267 5.67032 10.8778 6.60649 10.1835 7.2902C9.4893 7.98444 8.55313 8.37363 7.58541 8.37363C6.61768 8.37363 5.671 7.98444 4.98728 7.2902C4.29304 6.59597 3.90385 5.6598 3.90385 4.69208H3.88281Z" fill="#104502"/>
<path fill-rule="evenodd" clip-rule="evenodd" d="M14.1484 12.5602C13.3595 13.549 12.3602 14.3484 11.2242 14.8954C10.0882 15.4424 8.83646 15.7264 7.57421 15.7264C6.31196 15.7264 5.06023 15.4424 3.92421 14.8954C2.78819 14.3484 1.77839 13.549 1 12.5602C2.70404 11.3401 5.02868 10.4775 7.58473 10.4775C10.1408 10.4775 12.4654 11.3401 14.1695 12.5602H14.1484Z" fill="#104502"/>
<path d="M15.9792 12.5814C15.9792 14.3275 14.5697 15.737 12.8236 15.737C11.0775 15.737 9.66797 14.3275 9.66797 12.5814C9.66797 10.8353 11.0775 9.42578 12.8236 9.42578C14.5697 9.42578 15.9792 10.8353 15.9792 12.5814Z" fill="white"/>
<path d="M12.8236 9.42578C11.0775 9.42578 9.66797 10.8353 9.66797 12.5814C9.66797 14.3275 11.0775 15.737 12.8236 15.737C14.5697 15.737 15.9792 14.3275 15.9792 12.5814C15.9792 10.8353 14.5697 9.42578 12.8236 9.42578ZM10.2991 12.5814C10.2991 11.1824 11.4246 10.0569 12.8236 10.0569C13.4126 10.0569 13.9491 10.2568 14.3698 10.5934L10.8355 14.1277C10.4884 13.6859 10.2991 13.1389 10.2991 12.5814ZM12.8236 15.1059C12.2345 15.1059 11.7086 14.906 11.2773 14.5694L14.8116 11.0351C15.1587 11.4769 15.3481 12.0239 15.3481 12.5814C15.3481 13.9804 14.2226 15.1059 12.8236 15.1059Z" fill="#27AA05"/>
<path d="M12.8229 16.0003C10.94 16.0003 9.4043 14.4645 9.4043 12.5817C9.4043 10.6988 10.94 9.16309 12.8229 9.16309C14.7057 9.16309 16.2415 10.6988 16.2415 12.5817C16.2415 14.4645 14.7057 16.0003 12.8229 16.0003ZM12.8229 9.68902C11.224 9.68902 9.93023 10.9828 9.93023 12.5817C9.93023 14.1805 11.224 15.4743 12.8229 15.4743C14.4217 15.4743 15.7155 14.1805 15.7155 12.5817C15.7155 10.9828 14.4217 9.68902 12.8229 9.68902ZM12.8229 15.3691C12.1918 15.3691 11.6027 15.1693 11.1189 14.7801L10.8874 14.6013L14.8425 10.6462L15.0213 10.8776C15.4 11.3615 15.6104 11.9716 15.6104 12.5817C15.6104 14.1174 14.3586 15.3691 12.8229 15.3691ZM11.6869 14.5382C12.034 14.738 12.4127 14.8432 12.8229 14.8432C14.0746 14.8432 15.0844 13.8334 15.0844 12.5817C15.0844 12.182 14.9792 11.7928 14.7794 11.4457L11.6869 14.5382ZM10.8033 14.5276L10.6245 14.2962C10.2458 13.8124 10.0354 13.2023 10.0354 12.5922C10.0354 11.0565 11.2872 9.80473 12.8229 9.80473C13.4435 9.80473 14.0431 10.0046 14.5269 10.3938L14.7583 10.5726L10.8033 14.5276ZM12.8229 10.3201C11.5712 10.3201 10.5614 11.3299 10.5614 12.5817C10.5614 12.9814 10.6665 13.3706 10.8664 13.7177L13.9589 10.6252C13.6118 10.4253 13.2226 10.3201 12.8229 10.3201Z" fill="#27AA05"/>
</g>
<defs>
<clipPath id="clip0_189_150">
<rect width="17" height="17" fill="white"/>
</clipPath>
</defs>
</svg>
