<svg width="69" height="39" viewBox="0 0 69 39" fill="none" xmlns="http://www.w3.org/2000/svg">
<path d="M6.47221 8.77483H4.40591V10.8958H2.96279V8.77483H0.896488V7.44103H2.96279V5.32007H4.40591V7.44103H6.47221V8.77483ZM13.3033 5.35287H9.7611V7.22237C9.91416 7.03287 10.1328 6.87981 10.4171 6.7632C10.7013 6.63929 11.0038 6.57734 11.3245 6.57734C11.9076 6.57734 12.385 6.70489 12.7567 6.95999C13.1284 7.21508 13.3981 7.54307 13.5657 7.94394C13.7333 8.33752 13.8172 8.76025 13.8172 9.21214C13.8172 10.0503 13.5766 10.7245 13.0956 11.2347C12.6218 11.7449 11.944 12 11.0621 12C10.2312 12 9.56795 11.7923 9.07233 11.3768C8.57671 10.9614 8.2961 10.4184 8.23051 9.74785H9.71737C9.78296 10.0394 9.92873 10.2726 10.1547 10.4475C10.3879 10.6225 10.6831 10.7099 11.0402 10.7099C11.4703 10.7099 11.7946 10.5751 12.0133 10.3054C12.2319 10.0357 12.3412 9.67861 12.3412 9.23401C12.3412 8.78212 12.2283 8.43956 12.0023 8.20632C11.7837 7.9658 11.4593 7.84554 11.0293 7.84554C10.7232 7.84554 10.4681 7.92207 10.264 8.07513C10.0599 8.22819 9.91416 8.43227 9.82669 8.68737H8.3617V4.00813H13.3033V5.35287ZM15.004 6.12909C15.0404 5.40024 15.2955 4.83903 15.7693 4.44545C16.2503 4.04458 16.8808 3.84414 17.6606 3.84414C18.1927 3.84414 18.6482 3.93889 19.0272 4.12839C19.4062 4.31061 19.6905 4.56206 19.88 4.88276C20.0768 5.19616 20.1752 5.5533 20.1752 5.95417C20.1752 6.41335 20.0549 6.80328 19.8144 7.12398C19.5812 7.43738 19.3006 7.64875 18.9726 7.75808V7.80181C19.3953 7.933 19.7233 8.16624 19.9565 8.50151C20.197 8.83678 20.3173 9.2668 20.3173 9.79158C20.3173 10.2289 20.2153 10.6188 20.0112 10.9614C19.8144 11.3039 19.5192 11.5736 19.1256 11.7704C18.7393 11.9599 18.2729 12.0547 17.7262 12.0547C16.9026 12.0547 16.2321 11.8469 15.7146 11.4315C15.1971 11.016 14.9238 10.4038 14.8946 9.59479H16.3815C16.3961 9.95192 16.5163 10.2398 16.7423 10.4585C16.9755 10.6698 17.2926 10.7755 17.6934 10.7755C18.0651 10.7755 18.3494 10.6735 18.5462 10.4694C18.7503 10.258 18.8523 9.98837 18.8523 9.66038C18.8523 9.22307 18.7138 8.90967 18.4369 8.72016C18.1599 8.53066 17.7299 8.43591 17.1468 8.43591H16.8297V7.17864H17.1468C18.1818 7.17864 18.6992 6.83244 18.6992 6.14003C18.6992 5.82662 18.6045 5.58245 18.415 5.40753C18.2328 5.23261 17.9668 5.14514 17.6169 5.14514C17.2743 5.14514 17.0083 5.23989 16.8188 5.4294C16.6366 5.61161 16.5309 5.84484 16.5018 6.12909H15.004ZM22.3796 12.0765C22.1026 12.0765 21.873 11.9927 21.6908 11.8251C21.5159 11.6502 21.4284 11.4351 21.4284 11.18C21.4284 10.9249 21.5159 10.7136 21.6908 10.5459C21.873 10.371 22.1026 10.2836 22.3796 10.2836C22.6493 10.2836 22.8716 10.371 23.0465 10.5459C23.2214 10.7136 23.3089 10.9249 23.3089 11.18C23.3089 11.4351 23.2214 11.6502 23.0465 11.8251C22.8716 11.9927 22.6493 12.0765 22.3796 12.0765ZM28.4994 6.01977C28.4265 5.71365 28.2989 5.48406 28.1167 5.331C27.9418 5.17794 27.6867 5.10141 27.3514 5.10141C26.8485 5.10141 26.4768 5.30549 26.2363 5.71365C26.0031 6.11452 25.8828 6.77048 25.8755 7.68155C26.0504 7.39001 26.3055 7.16406 26.6408 7.00372C26.9761 6.83608 27.3405 6.75226 27.7341 6.75226C28.2078 6.75226 28.6269 6.8543 28.9914 7.05838C29.3558 7.26246 29.64 7.56129 29.8441 7.95487C30.0482 8.34116 30.1502 8.80763 30.1502 9.35427C30.1502 9.87175 30.0445 10.3346 29.8332 10.7427C29.6291 11.1436 29.3266 11.457 28.9258 11.6829C28.5249 11.9089 28.0475 12.0219 27.4936 12.0219C26.7356 12.0219 26.1379 11.8542 25.7006 11.519C25.2706 11.1837 24.9681 10.7172 24.7932 10.1196C24.6255 9.51461 24.5417 8.77118 24.5417 7.88927C24.5417 6.55547 24.7713 5.54966 25.2305 4.87182C25.6897 4.1867 26.4149 3.84414 27.4061 3.84414C28.1714 3.84414 28.7654 4.05186 29.1881 4.46731C29.6109 4.88276 29.855 5.40024 29.9206 6.01977H28.4994ZM27.3842 8.00953C26.9979 8.00953 26.6736 8.12251 26.4112 8.34845C26.1488 8.57439 26.0176 8.90238 26.0176 9.3324C26.0176 9.76242 26.1379 10.1013 26.3784 10.3491C26.6262 10.597 26.9724 10.7209 27.417 10.7209C27.8106 10.7209 28.1204 10.6006 28.3463 10.3601C28.5796 10.1196 28.6962 9.79522 28.6962 9.38706C28.6962 8.96433 28.5832 8.62906 28.3573 8.38125C28.1386 8.13344 27.8143 8.00953 27.3842 8.00953ZM31.185 5.98697C31.185 5.43304 31.3453 4.99937 31.666 4.68597C31.994 4.37256 32.4131 4.21586 32.9233 4.21586C33.4335 4.21586 33.849 4.37256 34.1697 4.68597C34.4976 4.99937 34.6616 5.43304 34.6616 5.98697C34.6616 6.54818 34.4976 6.9855 34.1697 7.2989C33.849 7.61231 33.4335 7.76901 32.9233 7.76901C32.4131 7.76901 31.994 7.61231 31.666 7.2989C31.3453 6.9855 31.185 6.54818 31.185 5.98697ZM38.2038 4.34705L33.9073 12H32.4204L36.7061 4.34705H38.2038ZM32.9124 5.13421C32.5115 5.13421 32.3111 5.41846 32.3111 5.98697C32.3111 6.56276 32.5115 6.85066 32.9124 6.85066C33.1092 6.85066 33.2622 6.78142 33.3716 6.64294C33.4809 6.49716 33.5355 6.27851 33.5355 5.98697C33.5355 5.41846 33.3278 5.13421 32.9124 5.13421ZM35.9845 10.3491C35.9845 9.78793 36.1448 9.35427 36.4655 9.04815C36.7935 8.73474 37.2126 8.57804 37.7228 8.57804C38.233 8.57804 38.6448 8.73474 38.9582 9.04815C39.2789 9.35427 39.4393 9.78793 39.4393 10.3491C39.4393 10.9104 39.2789 11.3477 38.9582 11.6611C38.6448 11.9745 38.233 12.1312 37.7228 12.1312C37.2053 12.1312 36.7862 11.9745 36.4655 11.6611C36.1448 11.3477 35.9845 10.9104 35.9845 10.3491ZM37.7119 9.49639C37.2964 9.49639 37.0887 9.78064 37.0887 10.3491C37.0887 10.9249 37.2964 11.2128 37.7119 11.2128C38.12 11.2128 38.3241 10.9249 38.3241 10.3491C38.3241 9.78064 38.12 9.49639 37.7119 9.49639Z" fill="#010100"/>
<path d="M60.8171 31.8648L37.2999 18.7107L1.97299 18.7107" stroke="#010100" stroke-width="0.643105"/>
<circle cx="63.0218" cy="33.4417" r="5.14484" fill="#010100"/>
<circle cx="63.0241" cy="33.4431" r="3.21552" fill="white"/>
</svg>
