<svg width="222" height="139" viewBox="0 0 222 139" fill="none" xmlns="http://www.w3.org/2000/svg">
<rect x="6.42773" y="6.43164" width="215.44" height="132.48" rx="5.14484" fill="#06514F"/>
<rect x="0.321552" y="0.321552" width="214.797" height="131.837" rx="4.82329" fill="white" stroke="#043937" stroke-width="0.643105"/>
<rect x="4.50391" y="4.50195" width="202.578" height="119.618" rx="5.14484" fill="#F2F4F7"/>
<g clip-path="url(#clip0_119_54)">
<path d="M22.8632 24.9453V18.9375H23.7696V21.5483H26.7647V18.9375H27.6741V24.9453H26.7647V22.3257H23.7696V24.9453H22.8632ZM28.9237 24.9453V20.4395H29.8009V24.9453H28.9237ZM29.3667 19.7442C29.2142 19.7442 29.0831 19.6934 28.9736 19.5917C28.8661 19.488 28.8123 19.3648 28.8123 19.2221C28.8123 19.0774 28.8661 18.9542 28.9736 18.8525C29.0831 18.7488 29.2142 18.697 29.3667 18.697C29.5192 18.697 29.6493 18.7488 29.7569 18.8525C29.8664 18.9542 29.9211 19.0774 29.9211 19.2221C29.9211 19.3648 29.8664 19.488 29.7569 19.5917C29.6493 19.6934 29.5192 19.7442 29.3667 19.7442ZM32.0868 18.9375L32.0105 23.2175H31.1979L31.1217 18.9375H32.0868ZM31.6057 25.001C31.4434 25.001 31.3045 24.9443 31.1891 24.8309C31.0737 24.7155 31.017 24.5767 31.019 24.4144C31.017 24.254 31.0737 24.1171 31.1891 24.0037C31.3045 23.8883 31.4434 23.8306 31.6057 23.8306C31.7641 23.8306 31.901 23.8883 32.0164 24.0037C32.1318 24.1171 32.1904 24.254 32.1924 24.4144C32.1904 24.5219 32.1621 24.6207 32.1073 24.7106C32.0545 24.7986 31.9841 24.869 31.8961 24.9218C31.8081 24.9746 31.7113 25.001 31.6057 25.001ZM35.2021 18.9375H36.2318L37.8012 21.6686H37.8657L39.4352 18.9375H40.4648L38.2852 22.5868V24.9453H37.3817V22.5868L35.2021 18.9375ZM42.4061 25.0363C41.9836 25.0363 41.615 24.9394 41.3001 24.7458C40.9853 24.5522 40.7408 24.2814 40.5668 23.9333C40.3927 23.5852 40.3057 23.1784 40.3057 22.7129C40.3057 22.2455 40.3927 21.8368 40.5668 21.4867C40.7408 21.1367 40.9853 20.8648 41.3001 20.6712C41.615 20.4776 41.9836 20.3808 42.4061 20.3808C42.8285 20.3808 43.1971 20.4776 43.512 20.6712C43.8268 20.8648 44.0713 21.1367 44.2453 21.4867C44.4194 21.8368 44.5064 22.2455 44.5064 22.7129C44.5064 23.1784 44.4194 23.5852 44.2453 23.9333C44.0713 24.2814 43.8268 24.5522 43.512 24.7458C43.1971 24.9394 42.8285 25.0363 42.4061 25.0363ZM42.409 24.2999C42.6828 24.2999 42.9096 24.2276 43.0896 24.0829C43.2695 23.9381 43.4025 23.7455 43.4885 23.505C43.5765 23.2644 43.6205 22.9994 43.6205 22.71C43.6205 22.4225 43.5765 22.1585 43.4885 21.918C43.4025 21.6755 43.2695 21.4809 43.0896 21.3342C42.9096 21.1875 42.6828 21.1142 42.409 21.1142C42.1332 21.1142 41.9044 21.1875 41.7225 21.3342C41.5426 21.4809 41.4087 21.6755 41.3207 21.918C41.2346 22.1585 41.1916 22.4225 41.1916 22.71C41.1916 22.9994 41.2346 23.2644 41.3207 23.505C41.4087 23.7455 41.5426 23.9381 41.7225 24.0829C41.9044 24.2276 42.1332 24.2999 42.409 24.2999ZM48.3398 23.0767V20.4395H49.2198V24.9453H48.3574V24.165H48.3104C48.2068 24.4056 48.0405 24.606 47.8117 24.7664C47.5849 24.9248 47.3023 25.004 46.964 25.004C46.6745 25.004 46.4183 24.9404 46.1954 24.8133C45.9744 24.6842 45.8003 24.4936 45.6732 24.2413C45.5481 23.989 45.4855 23.6771 45.4855 23.3055V20.4395H46.3626V23.1999C46.3626 23.5069 46.4477 23.7514 46.6178 23.9333C46.7879 24.1151 47.0089 24.2061 47.2808 24.2061C47.445 24.2061 47.6083 24.165 47.7707 24.0829C47.9349 24.0007 48.0709 23.8765 48.1784 23.7103C48.2879 23.5441 48.3417 23.3329 48.3398 23.0767ZM50.3983 24.9453V20.4395H51.2461V21.1552H51.2931C51.3752 20.9127 51.5199 20.7221 51.7272 20.5832C51.9365 20.4424 52.1731 20.372 52.4371 20.372C52.4919 20.372 52.5564 20.374 52.6307 20.3779C52.707 20.3818 52.7666 20.3867 52.8097 20.3925V21.2315C52.7745 21.2217 52.7119 21.211 52.6219 21.1992C52.532 21.1856 52.442 21.1787 52.352 21.1787C52.1447 21.1787 51.9599 21.2227 51.7976 21.3107C51.6372 21.3968 51.5101 21.517 51.4163 21.6715C51.3224 21.8241 51.2755 21.9981 51.2755 22.1937V24.9453H50.3983ZM57.6529 25.0363C57.2167 25.0363 56.8413 24.9375 56.5264 24.74C56.2135 24.5405 55.9729 24.2657 55.8048 23.9157C55.6366 23.5656 55.5525 23.1647 55.5525 22.7129C55.5525 22.2553 55.6385 21.8515 55.8106 21.5014C55.9827 21.1494 56.2252 20.8746 56.5381 20.6771C56.851 20.4796 57.2197 20.3808 57.6441 20.3808C57.9863 20.3808 58.2914 20.4444 58.5593 20.5715C58.8272 20.6966 59.0433 20.8727 59.2076 21.0995C59.3738 21.3264 59.4726 21.5914 59.5039 21.8945H58.6502C58.6033 21.6833 58.4957 21.5014 58.3276 21.3489C58.1613 21.1963 57.9384 21.12 57.6587 21.12C57.4143 21.12 57.2001 21.1846 57.0163 21.3137C56.8344 21.4408 56.6926 21.6226 56.5909 21.8593C56.4892 22.094 56.4384 22.3717 56.4384 22.6924C56.4384 23.0209 56.4883 23.3045 56.588 23.5431C56.6877 23.7817 56.8285 23.9665 57.0104 24.0975C57.1943 24.2286 57.4104 24.2941 57.6587 24.2941C57.825 24.2941 57.9755 24.2638 58.1105 24.2031C58.2474 24.1406 58.3618 24.0516 58.4537 23.9362C58.5476 23.8208 58.6131 23.682 58.6502 23.5196H59.5039C59.4726 23.811 59.3777 24.0711 59.2193 24.2999C59.0609 24.5288 58.8487 24.7087 58.5828 24.8397C58.3188 24.9707 58.0088 25.0363 57.6529 25.0363ZM61.7531 25.0451C61.4676 25.0451 61.2095 24.9922 60.9787 24.8866C60.7479 24.7791 60.5651 24.6236 60.4301 24.4202C60.2971 24.2168 60.2307 23.9675 60.2307 23.6722C60.2307 23.4179 60.2795 23.2087 60.3773 23.0444C60.4751 22.8801 60.6071 22.7501 60.7733 22.6543C60.9396 22.5584 61.1254 22.4861 61.3307 22.4372C61.5361 22.3883 61.7453 22.3511 61.9585 22.3257C62.2284 22.2944 62.4474 22.269 62.6156 22.2494C62.7838 22.2279 62.906 22.1937 62.9823 22.1468C63.0585 22.0998 63.0967 22.0236 63.0967 21.918V21.8974C63.0967 21.6412 63.0243 21.4427 62.8796 21.3019C62.7368 21.1611 62.5237 21.0907 62.2401 21.0907C61.9448 21.0907 61.7121 21.1562 61.5419 21.2873C61.3737 21.4163 61.2574 21.5601 61.1928 21.7185L60.3685 21.5307C60.4663 21.2569 60.6091 21.036 60.7968 20.8678C60.9865 20.6976 61.2046 20.5744 61.451 20.4981C61.6974 20.4199 61.9565 20.3808 62.2284 20.3808C62.4083 20.3808 62.599 20.4023 62.8004 20.4453C63.0038 20.4864 63.1935 20.5627 63.3695 20.6742C63.5475 20.7856 63.6931 20.945 63.8066 21.1523C63.92 21.3577 63.9767 21.6246 63.9767 21.9532V24.9453H63.1201V24.3293H63.0849C63.0282 24.4427 62.9432 24.5542 62.8297 24.6637C62.7163 24.7732 62.5706 24.8642 62.3926 24.9365C62.2147 25.0089 62.0015 25.0451 61.7531 25.0451ZM61.9438 24.341C62.1863 24.341 62.3936 24.2931 62.5657 24.1973C62.7398 24.1014 62.8718 23.9763 62.9617 23.8218C63.0536 23.6653 63.0996 23.4981 63.0996 23.3202V22.7393C63.0683 22.7706 63.0077 22.8 62.9177 22.8273C62.8297 22.8528 62.729 22.8752 62.6156 22.8948C62.5022 22.9124 62.3917 22.929 62.2841 22.9447C62.1765 22.9584 62.0866 22.9701 62.0142 22.9799C61.8441 23.0014 61.6886 23.0376 61.5478 23.0884C61.4089 23.1393 61.2975 23.2126 61.2134 23.3084C61.1312 23.4023 61.0902 23.5275 61.0902 23.6839C61.0902 23.901 61.1703 24.0653 61.3307 24.1767C61.4911 24.2863 61.6954 24.341 61.9438 24.341ZM65.145 24.9453V20.4395H65.9928V21.1552H66.0397C66.1218 20.9127 66.2665 20.7221 66.4738 20.5832C66.6831 20.4424 66.9197 20.372 67.1838 20.372C67.2385 20.372 67.303 20.374 67.3774 20.3779C67.4536 20.3818 67.5133 20.3867 67.5563 20.3925V21.2315C67.5211 21.2217 67.4585 21.211 67.3686 21.1992C67.2786 21.1856 67.1886 21.1787 67.0987 21.1787C66.8914 21.1787 66.7066 21.2227 66.5443 21.3107C66.3839 21.3968 66.2568 21.517 66.1629 21.6715C66.069 21.8241 66.0221 21.9981 66.0221 22.1937V24.9453H65.145ZM70.6849 20.4395V21.1435H68.2237V20.4395H70.6849ZM68.8837 19.36H69.7608V23.6223C69.7608 23.7925 69.7862 23.9205 69.8371 24.0066C69.8879 24.0907 69.9535 24.1484 70.0336 24.1797C70.1158 24.209 70.2048 24.2237 70.3006 24.2237C70.371 24.2237 70.4326 24.2188 70.4854 24.209C70.5382 24.1992 70.5793 24.1914 70.6086 24.1855L70.767 24.9101C70.7162 24.9297 70.6438 24.9492 70.5499 24.9688C70.4561 24.9903 70.3387 25.002 70.1979 25.004C69.9671 25.0079 69.752 24.9668 69.5525 24.8808C69.3531 24.7947 69.1917 24.6617 69.0685 24.4818C68.9453 24.3019 68.8837 24.076 68.8837 23.8042V19.36ZM74.7184 22.27V24.9453H73.8413V18.9375H74.7067V21.1728H74.7624C74.868 20.9303 75.0294 20.7377 75.2464 20.595C75.4635 20.4522 75.7471 20.3808 76.0972 20.3808C76.4061 20.3808 76.676 20.4444 76.9068 20.5715C77.1395 20.6986 77.3194 20.8883 77.4466 21.1406C77.5756 21.3909 77.6402 21.7038 77.6402 22.0793V24.9453H76.7631V22.1849C76.7631 21.8544 76.678 21.5982 76.5078 21.4163C76.3377 21.2325 76.1011 21.1406 75.7979 21.1406C75.5906 21.1406 75.4049 21.1846 75.2406 21.2726C75.0783 21.3606 74.9502 21.4897 74.8563 21.6598C74.7644 21.828 74.7184 22.0314 74.7184 22.27ZM80.1219 25.0451C79.8364 25.0451 79.5782 24.9922 79.3475 24.8866C79.1167 24.7791 78.9338 24.6236 78.7989 24.4202C78.6659 24.2168 78.5994 23.9675 78.5994 23.6722C78.5994 23.4179 78.6483 23.2087 78.7461 23.0444C78.8439 22.8801 78.9759 22.7501 79.1421 22.6543C79.3083 22.5584 79.4941 22.4861 79.6995 22.4372C79.9048 22.3883 80.1141 22.3511 80.3272 22.3257C80.5971 22.2944 80.8162 22.269 80.9843 22.2494C81.1525 22.2279 81.2748 22.1937 81.351 22.1468C81.4273 22.0998 81.4654 22.0236 81.4654 21.918V21.8974C81.4654 21.6412 81.3931 21.4427 81.2484 21.3019C81.1056 21.1611 80.8924 21.0907 80.6089 21.0907C80.3136 21.0907 80.0808 21.1562 79.9107 21.2873C79.7425 21.4163 79.6261 21.5601 79.5616 21.7185L78.7373 21.5307C78.8351 21.2569 78.9778 21.036 79.1656 20.8678C79.3553 20.6976 79.5733 20.5744 79.8197 20.4981C80.0662 20.4199 80.3253 20.3808 80.5971 20.3808C80.777 20.3808 80.9677 20.4023 81.1692 20.4453C81.3725 20.4864 81.5622 20.5627 81.7382 20.6742C81.9162 20.7856 82.0619 20.945 82.1753 21.1523C82.2888 21.3577 82.3455 21.6246 82.3455 21.9532V24.9453H81.4889V24.3293H81.4537C81.397 24.4427 81.3119 24.5542 81.1985 24.6637C81.0851 24.7732 80.9394 24.8642 80.7614 24.9365C80.5834 25.0089 80.3703 25.0451 80.1219 25.0451ZM80.3126 24.341C80.5551 24.341 80.7624 24.2931 80.9345 24.1973C81.1085 24.1014 81.2405 23.9763 81.3305 23.8218C81.4224 23.6653 81.4684 23.4981 81.4684 23.3202V22.7393C81.4371 22.7706 81.3765 22.8 81.2865 22.8273C81.1985 22.8528 81.0978 22.8752 80.9843 22.8948C80.8709 22.9124 80.7604 22.929 80.6529 22.9447C80.5453 22.9584 80.4553 22.9701 80.383 22.9799C80.2128 23.0014 80.0574 23.0376 79.9166 23.0884C79.7777 23.1393 79.6662 23.2126 79.5821 23.3084C79.5 23.4023 79.4589 23.5275 79.4589 23.6839C79.4589 23.901 79.5391 24.0653 79.6995 24.1767C79.8598 24.2863 80.0642 24.341 80.3126 24.341ZM86.8902 21.5395L86.0952 21.6803C86.062 21.5786 86.0092 21.4818 85.9368 21.3899C85.8664 21.298 85.7706 21.2227 85.6493 21.164C85.5281 21.1054 85.3765 21.076 85.1946 21.076C84.9463 21.076 84.739 21.1318 84.5727 21.2433C84.4065 21.3528 84.3234 21.4946 84.3234 21.6686C84.3234 21.8192 84.3791 21.9404 84.4906 22.0324C84.6021 22.1243 84.782 22.1996 85.0304 22.2582L85.7461 22.4225C86.1607 22.5183 86.4697 22.666 86.6731 22.8655C86.8765 23.0649 86.9782 23.3241 86.9782 23.6428C86.9782 23.9127 86.9 24.1533 86.7435 24.3645C86.589 24.5737 86.3729 24.738 86.0952 24.8573C85.8195 24.9766 85.4997 25.0363 85.136 25.0363C84.6314 25.0363 84.2197 24.9287 83.901 24.7136C83.5822 24.4965 83.3866 24.1885 83.3143 23.7895L84.162 23.6604C84.2148 23.8814 84.3234 24.0486 84.4877 24.1621C84.6519 24.2735 84.8661 24.3293 85.1301 24.3293C85.4176 24.3293 85.6474 24.2696 85.8195 24.1503C85.9916 24.0291 86.0776 23.8814 86.0776 23.7074C86.0776 23.5666 86.0248 23.4483 85.9192 23.3524C85.8156 23.2566 85.6562 23.1842 85.441 23.1354L84.6783 22.9681C84.2579 22.8723 83.9469 22.7198 83.7455 22.5105C83.546 22.3013 83.4463 22.0363 83.4463 21.7155C83.4463 21.4496 83.5206 21.2168 83.6692 21.0174C83.8178 20.8179 84.0232 20.6624 84.2852 20.5509C84.5473 20.4375 84.8475 20.3808 85.1858 20.3808C85.6728 20.3808 86.0561 20.4864 86.3358 20.6976C86.6154 20.9069 86.8002 21.1875 86.8902 21.5395ZM90.117 24.9453V24.2882L92.1499 22.182C92.367 21.9532 92.5459 21.7527 92.6868 21.5806C92.8295 21.4065 92.9361 21.2413 93.0065 21.0848C93.0769 20.9284 93.1121 20.7622 93.1121 20.5862C93.1121 20.3867 93.0652 20.2146 92.9713 20.0699C92.8774 19.9232 92.7493 19.8107 92.587 19.7325C92.4247 19.6523 92.2418 19.6122 92.0385 19.6122C91.8233 19.6122 91.6356 19.6562 91.4752 19.7442C91.3149 19.8322 91.1917 19.9564 91.1056 20.1168C91.0196 20.2772 90.9765 20.4649 90.9765 20.68H90.1112C90.1112 20.3143 90.1952 19.9946 90.3634 19.7208C90.5316 19.447 90.7624 19.2348 91.0557 19.0842C91.3491 18.9317 91.6825 18.8554 92.0561 18.8554C92.4335 18.8554 92.766 18.9307 93.0534 19.0813C93.3429 19.2299 93.5688 19.4333 93.7311 19.6914C93.8934 19.9476 93.9746 20.2371 93.9746 20.5597C93.9746 20.7827 93.9325 21.0007 93.8484 21.2139C93.7663 21.4271 93.6225 21.6647 93.4172 21.9268C93.2118 22.1869 92.9263 22.5027 92.5606 22.8743L91.3667 24.1239V24.1679H94.0714V24.9453H90.117ZM97.3811 24.9453V20.4395H98.2582V24.9453H97.3811ZM97.824 19.7442C97.6715 19.7442 97.5405 19.6934 97.4309 19.5917C97.3234 19.488 97.2696 19.3648 97.2696 19.2221C97.2696 19.0774 97.3234 18.9542 97.4309 18.8525C97.5405 18.7488 97.6715 18.697 97.824 18.697C97.9766 18.697 98.1066 18.7488 98.2142 18.8525C98.3237 18.9542 98.3785 19.0774 98.3785 19.2221C98.3785 19.3648 98.3237 19.488 98.2142 19.5917C98.1066 19.6934 97.9766 19.7442 97.824 19.7442ZM101.541 20.4395V21.1435H99.0803V20.4395H101.541ZM99.7403 19.36H100.617V23.6223C100.617 23.7925 100.643 23.9205 100.694 24.0066C100.745 24.0907 100.81 24.1484 100.89 24.1797C100.972 24.209 101.061 24.2237 101.157 24.2237C101.228 24.2237 101.289 24.2188 101.342 24.209C101.395 24.1992 101.436 24.1914 101.465 24.1855L101.624 24.9101C101.573 24.9297 101.5 24.9492 101.407 24.9688C101.313 24.9903 101.195 25.002 101.055 25.004C100.824 25.0079 100.609 24.9668 100.409 24.8808C100.21 24.7947 100.048 24.6617 99.9251 24.4818C99.8019 24.3019 99.7403 24.076 99.7403 23.8042V19.36ZM104.405 25.0363C103.961 25.0363 103.579 24.9414 103.258 24.7517C102.94 24.56 102.693 24.2911 102.519 23.945C102.347 23.5969 102.261 23.1891 102.261 22.7217C102.261 22.2602 102.347 21.8534 102.519 21.5014C102.693 21.1494 102.936 20.8746 103.247 20.6771C103.559 20.4796 103.925 20.3808 104.344 20.3808C104.598 20.3808 104.844 20.4229 105.083 20.5069C105.322 20.591 105.536 20.723 105.725 20.903C105.915 21.0829 106.065 21.3166 106.174 21.6041C106.284 21.8896 106.338 22.2367 106.338 22.6455V22.9564H102.757V22.2993H105.479C105.479 22.0685 105.432 21.8642 105.338 21.6862C105.244 21.5063 105.112 21.3645 104.942 21.2609C104.774 21.1572 104.576 21.1054 104.35 21.1054C104.103 21.1054 103.888 21.166 103.704 21.2873C103.522 21.4065 103.382 21.563 103.282 21.7566C103.184 21.9483 103.135 22.1565 103.135 22.3814V22.8948C103.135 23.196 103.188 23.4522 103.294 23.6634C103.401 23.8746 103.551 24.0359 103.742 24.1474C103.934 24.2569 104.158 24.3117 104.414 24.3117C104.58 24.3117 104.732 24.2882 104.869 24.2413C105.006 24.1924 105.124 24.12 105.224 24.0242C105.323 23.9284 105.4 23.8101 105.453 23.6692L106.283 23.8189C106.216 24.0633 106.097 24.2775 105.925 24.4613C105.755 24.6432 105.541 24.7849 105.282 24.8866C105.026 24.9864 104.734 25.0363 104.405 25.0363ZM107.312 24.9453V20.4395H108.154V21.1728H108.209C108.303 20.9245 108.457 20.7309 108.67 20.592C108.883 20.4512 109.138 20.3808 109.436 20.3808C109.737 20.3808 109.989 20.4512 110.192 20.592C110.398 20.7328 110.549 20.9264 110.647 21.1728H110.694C110.802 20.9323 110.973 20.7406 111.207 20.5979C111.442 20.4532 111.722 20.3808 112.046 20.3808C112.455 20.3808 112.788 20.5089 113.047 20.7651C113.307 21.0213 113.437 21.4075 113.437 21.9238V24.9453H112.56V22.006C112.56 21.7009 112.477 21.4799 112.31 21.343C112.144 21.2061 111.946 21.1376 111.715 21.1376C111.429 21.1376 111.207 21.2257 111.049 21.4017C110.891 21.5757 110.811 21.7996 110.811 22.0734V24.9453H109.937V21.9502C109.937 21.7058 109.861 21.5092 109.708 21.3606C109.556 21.212 109.357 21.1376 109.113 21.1376C108.947 21.1376 108.793 21.1816 108.652 21.2697C108.513 21.3557 108.401 21.476 108.315 21.6305C108.231 21.785 108.189 21.9639 108.189 22.1673V24.9453H107.312ZM117.989 21.5395L117.194 21.6803C117.161 21.5786 117.108 21.4818 117.035 21.3899C116.965 21.298 116.869 21.2227 116.748 21.164C116.627 21.1054 116.475 21.076 116.293 21.076C116.045 21.076 115.838 21.1318 115.671 21.2433C115.505 21.3528 115.422 21.4946 115.422 21.6686C115.422 21.8192 115.478 21.9404 115.589 22.0324C115.701 22.1243 115.881 22.1996 116.129 22.2582L116.845 22.4225C117.259 22.5183 117.568 22.666 117.772 22.8655C117.975 23.0649 118.077 23.3241 118.077 23.6428C118.077 23.9127 117.999 24.1533 117.842 24.3645C117.688 24.5737 117.472 24.738 117.194 24.8573C116.918 24.9766 116.598 25.0363 116.235 25.0363C115.73 25.0363 115.318 24.9287 115 24.7136C114.681 24.4965 114.485 24.1885 114.413 23.7895L115.261 23.6604C115.313 23.8814 115.422 24.0486 115.586 24.1621C115.751 24.2735 115.965 24.3293 116.229 24.3293C116.516 24.3293 116.746 24.2696 116.918 24.1503C117.09 24.0291 117.176 23.8814 117.176 23.7074C117.176 23.5666 117.123 23.4483 117.018 23.3524C116.914 23.2566 116.755 23.1842 116.54 23.1354L115.777 22.9681C115.357 22.8723 115.046 22.7198 114.844 22.5105C114.645 22.3013 114.545 22.0363 114.545 21.7155C114.545 21.4496 114.619 21.2168 114.768 21.0174C114.916 20.8179 115.122 20.6624 115.384 20.5509C115.646 20.4375 115.946 20.3808 116.284 20.3808C116.771 20.3808 117.155 20.4864 117.434 20.6976C117.714 20.9069 117.899 21.1875 117.989 21.5395ZM123.882 21.5601V22.3228H121.219V21.5601H123.882ZM129.505 18.9375V24.9453H128.596V19.8469H128.56L127.123 20.7856V19.9173L128.622 18.9375H129.505ZM131.936 24.1239L131.892 24.4437C131.863 24.6784 131.813 24.9228 131.742 25.1771C131.674 25.4332 131.603 25.6709 131.528 25.8899C131.456 26.1089 131.396 26.283 131.349 26.4121H130.727C130.753 26.2908 130.788 26.1265 130.833 25.9192C130.878 25.7139 130.922 25.4841 130.965 25.2299C131.008 24.9756 131.04 24.7165 131.062 24.4525L131.091 24.1239H131.936ZM133.037 23.7719V23.0385L135.633 18.9375H136.211V20.0171H135.844L133.987 22.9564V23.0033H137.546V23.7719H133.037ZM135.885 24.9453V23.549L135.891 23.2146V18.9375H136.751V24.9453H135.885ZM140.566 18.8554C140.834 18.8573 141.098 18.9062 141.358 19.0021C141.618 19.0979 141.852 19.2543 142.062 19.4714C142.273 19.6885 142.441 19.9819 142.566 20.3515C142.693 20.7191 142.758 21.1768 142.76 21.7243C142.76 22.2504 142.707 22.7188 142.602 23.1295C142.496 23.5382 142.344 23.8834 142.147 24.165C141.951 24.4466 141.714 24.6608 141.434 24.8074C141.154 24.9541 140.839 25.0275 140.489 25.0275C140.132 25.0275 139.814 24.957 139.536 24.8162C139.258 24.6754 139.032 24.4808 138.858 24.2325C138.684 23.9822 138.576 23.6947 138.533 23.37H139.427C139.486 23.6282 139.605 23.8374 139.785 23.9978C139.967 24.1562 140.202 24.2354 140.489 24.2354C140.929 24.2354 141.273 24.0438 141.519 23.6604C141.765 23.2752 141.89 22.7374 141.892 22.047H141.845C141.743 22.2152 141.616 22.3599 141.463 22.4812C141.313 22.6024 141.144 22.6963 140.956 22.7628C140.768 22.8293 140.568 22.8625 140.354 22.8625C140.008 22.8625 139.693 22.7775 139.41 22.6073C139.126 22.4372 138.9 22.2035 138.732 21.9062C138.564 21.609 138.48 21.2697 138.48 20.8883C138.48 20.5089 138.566 20.1647 138.738 19.8557C138.912 19.5467 139.155 19.3023 139.466 19.1223C139.779 18.9405 140.145 18.8515 140.566 18.8554ZM140.569 19.6181C140.34 19.6181 140.133 19.6748 139.95 19.7882C139.768 19.8997 139.624 20.0513 139.518 20.2429C139.413 20.4326 139.36 20.6438 139.36 20.8766C139.36 21.1093 139.411 21.3205 139.513 21.5102C139.616 21.6979 139.757 21.8475 139.935 21.959C140.115 22.0685 140.32 22.1233 140.551 22.1233C140.723 22.1233 140.883 22.0901 141.032 22.0236C141.181 21.9571 141.311 21.8652 141.422 21.7478C141.534 21.6285 141.621 21.4936 141.683 21.343C141.746 21.1924 141.777 21.034 141.777 20.8678C141.777 20.6468 141.724 20.4414 141.619 20.2517C141.515 20.062 141.372 19.9095 141.191 19.7941C141.009 19.6768 140.801 19.6181 140.569 19.6181ZM145.817 18.8554C146.085 18.8573 146.349 18.9062 146.609 19.0021C146.869 19.0979 147.104 19.2543 147.313 19.4714C147.525 19.6885 147.693 19.9819 147.818 20.3515C147.945 20.7191 148.01 21.1768 148.012 21.7243C148.012 22.2504 147.959 22.7188 147.853 23.1295C147.748 23.5382 147.596 23.8834 147.398 24.165C147.203 24.4466 146.965 24.6608 146.686 24.8074C146.406 24.9541 146.091 25.0275 145.741 25.0275C145.383 25.0275 145.065 24.957 144.788 24.8162C144.51 24.6754 144.284 24.4808 144.11 24.2325C143.936 23.9822 143.827 23.6947 143.784 23.37H144.679C144.738 23.6282 144.857 23.8374 145.037 23.9978C145.219 24.1562 145.454 24.2354 145.741 24.2354C146.181 24.2354 146.524 24.0438 146.771 23.6604C147.017 23.2752 147.141 22.7374 147.143 22.047H147.096C146.995 22.2152 146.868 22.3599 146.715 22.4812C146.564 22.6024 146.395 22.6963 146.208 22.7628C146.02 22.8293 145.819 22.8625 145.606 22.8625C145.26 22.8625 144.945 22.7775 144.662 22.6073C144.378 22.4372 144.152 22.2035 143.984 21.9062C143.816 21.609 143.732 21.2697 143.732 20.8883C143.732 20.5089 143.818 20.1647 143.99 19.8557C144.164 19.5467 144.406 19.3023 144.717 19.1223C145.03 18.9405 145.397 18.8515 145.817 18.8554ZM145.82 19.6181C145.591 19.6181 145.385 19.6748 145.201 19.7882C145.019 19.8997 144.876 20.0513 144.77 20.2429C144.664 20.4326 144.612 20.6438 144.612 20.8766C144.612 21.1093 144.663 21.3205 144.764 21.5102C144.868 21.6979 145.009 21.8475 145.187 21.959C145.367 22.0685 145.572 22.1233 145.803 22.1233C145.975 22.1233 146.135 22.0901 146.284 22.0236C146.432 21.9571 146.562 21.8652 146.674 21.7478C146.785 21.6285 146.872 21.4936 146.935 21.343C146.998 21.1924 147.029 21.034 147.029 20.8678C147.029 20.6468 146.976 20.4414 146.87 20.2517C146.767 20.062 146.624 19.9095 146.442 19.7941C146.26 19.6768 146.053 19.6181 145.82 19.6181ZM149.443 25.001C149.283 25.001 149.145 24.9443 149.03 24.8309C148.914 24.7155 148.856 24.5767 148.856 24.4144C148.856 24.254 148.914 24.1171 149.03 24.0037C149.145 23.8883 149.283 23.8306 149.443 23.8306C149.603 23.8306 149.741 23.8883 149.857 24.0037C149.972 24.1171 150.03 24.254 150.03 24.4144C150.03 24.5219 150.002 24.6207 149.948 24.7106C149.895 24.7986 149.824 24.869 149.736 24.9218C149.648 24.9746 149.551 25.001 149.443 25.001ZM27.853 30.8912H26.9378C26.9026 30.6957 26.8371 30.5236 26.7412 30.3749C26.6454 30.2263 26.5281 30.1002 26.3892 29.9965C26.2504 29.8929 26.0949 29.8146 25.9228 29.7618C25.7526 29.709 25.5717 29.6826 25.3801 29.6826C25.0339 29.6826 24.724 29.7697 24.4502 29.9437C24.1783 30.1178 23.9632 30.373 23.8048 30.7094C23.6484 31.0457 23.5701 31.4564 23.5701 31.9414C23.5701 32.4303 23.6484 32.843 23.8048 33.1794C23.9632 33.5157 24.1793 33.77 24.4531 33.9421C24.7269 34.1142 25.0349 34.2002 25.3772 34.2002C25.5669 34.2002 25.7468 34.1748 25.9169 34.1239C26.089 34.0711 26.2445 33.9939 26.3833 33.8922C26.5222 33.7905 26.6395 33.6663 26.7354 33.5196C26.8331 33.371 26.9006 33.2009 26.9378 33.0092L27.853 33.0121C27.8041 33.3074 27.7093 33.5793 27.5685 33.8277C27.4296 34.0741 27.2507 34.2872 27.0316 34.4672C26.8146 34.6451 26.5662 34.783 26.2865 34.8808C26.0069 34.9786 25.7018 35.0275 25.3713 35.0275C24.8511 35.0275 24.3876 34.9042 23.9808 34.6578C23.574 34.4095 23.2533 34.0545 23.0186 33.593C22.7859 33.1314 22.6695 32.5809 22.6695 31.9414C22.6695 31.3 22.7869 30.7494 23.0216 30.2899C23.2562 29.8283 23.577 29.4744 23.9838 29.2279C24.3905 28.9796 24.853 28.8554 25.3713 28.8554C25.6901 28.8554 25.9873 28.9014 26.2631 28.9933C26.5408 29.0832 26.7901 29.2162 27.0111 29.3922C27.2321 29.5663 27.415 29.7794 27.5597 30.0317C27.7044 30.282 27.8022 30.5685 27.853 30.8912ZM30.7652 35.0363C30.3428 35.0363 29.9742 34.9394 29.6593 34.7458C29.3445 34.5522 29.1 34.2814 28.9259 33.9333C28.7519 33.5852 28.6649 33.1784 28.6649 32.7129C28.6649 32.2455 28.7519 31.8368 28.9259 31.4867C29.1 31.1367 29.3445 30.8648 29.6593 30.6712C29.9742 30.4776 30.3428 30.3808 30.7652 30.3808C31.1877 30.3808 31.5563 30.4776 31.8712 30.6712C32.186 30.8648 32.4305 31.1367 32.6045 31.4867C32.7786 31.8368 32.8656 32.2455 32.8656 32.7129C32.8656 33.1784 32.7786 33.5852 32.6045 33.9333C32.4305 34.2814 32.186 34.5522 31.8712 34.7458C31.5563 34.9394 31.1877 35.0363 30.7652 35.0363ZM30.7682 34.2999C31.042 34.2999 31.2688 34.2276 31.4487 34.0829C31.6287 33.9381 31.7616 33.7455 31.8477 33.505C31.9357 33.2644 31.9797 32.9994 31.9797 32.71C31.9797 32.4225 31.9357 32.1585 31.8477 31.918C31.7616 31.6755 31.6287 31.4809 31.4487 31.3342C31.2688 31.1875 31.042 31.1142 30.7682 31.1142C30.4924 31.1142 30.2636 31.1875 30.0817 31.3342C29.9018 31.4809 29.7679 31.6755 29.6799 31.918C29.5938 32.1585 29.5508 32.4225 29.5508 32.71C29.5508 32.9994 29.5938 33.2644 29.6799 33.505C29.7679 33.7455 29.9018 33.9381 30.0817 34.0829C30.2636 34.2276 30.4924 34.2999 30.7682 34.2999ZM33.8447 34.9453V30.4395H34.6866V31.1728H34.7423C34.8362 30.9245 34.9897 30.7309 35.2029 30.592C35.416 30.4512 35.6713 30.3808 35.9685 30.3808C36.2697 30.3808 36.522 30.4512 36.7254 30.592C36.9307 30.7328 37.0823 30.9264 37.18 31.1728H37.227C37.3345 30.9323 37.5057 30.7406 37.7403 30.5979C37.975 30.4532 38.2547 30.3808 38.5793 30.3808C38.9881 30.3808 39.3215 30.5089 39.5796 30.7651C39.8397 31.0213 39.9698 31.4075 39.9698 31.9238V34.9453H39.0927V32.006C39.0927 31.7009 39.0096 31.4799 38.8433 31.343C38.6771 31.2061 38.4786 31.1376 38.2478 31.1376C37.9623 31.1376 37.7403 31.2257 37.5819 31.4017C37.4235 31.5757 37.3443 31.7996 37.3443 32.0734V34.9453H36.4701V31.9502C36.4701 31.7058 36.3939 31.5092 36.2413 31.3606C36.0888 31.212 35.8903 31.1376 35.6458 31.1376C35.4796 31.1376 35.3261 31.1816 35.1853 31.2697C35.0464 31.3557 34.934 31.476 34.8479 31.6305C34.7638 31.785 34.7218 31.9639 34.7218 32.1673V34.9453H33.8447ZM41.1454 36.635V30.4395H42.002V31.1699H42.0753C42.1261 31.076 42.1995 30.9675 42.2953 30.8443C42.3911 30.7211 42.5241 30.6135 42.6943 30.5216C42.8644 30.4277 43.0893 30.3808 43.369 30.3808C43.7327 30.3808 44.0574 30.4727 44.3429 30.6566C44.6284 30.8404 44.8523 31.1054 45.0147 31.4515C45.1789 31.7977 45.2611 32.2142 45.2611 32.7012C45.2611 33.1882 45.1799 33.6057 45.0176 33.9538C44.8553 34.2999 44.6323 34.5669 44.3488 34.7546C44.0652 34.9404 43.7415 35.0333 43.3778 35.0333C43.104 35.0333 42.8801 34.9874 42.706 34.8954C42.5339 34.8035 42.399 34.696 42.3012 34.5728C42.2034 34.4496 42.1281 34.34 42.0753 34.2442H42.0225V36.635H41.1454ZM42.0049 32.6924C42.0049 33.0092 42.0509 33.2869 42.1428 33.5255C42.2347 33.7641 42.3677 33.9509 42.5417 34.0858C42.7158 34.2188 42.9289 34.2853 43.1812 34.2853C43.4433 34.2853 43.6623 34.2159 43.8383 34.077C44.0143 33.9362 44.1473 33.7455 44.2373 33.505C44.3292 33.2644 44.3752 32.9936 44.3752 32.6924C44.3752 32.3951 44.3302 32.1282 44.2402 31.8916C44.1522 31.6549 44.0192 31.4682 43.8413 31.3313C43.6653 31.1944 43.4452 31.1259 43.1812 31.1259C42.927 31.1259 42.7119 31.1914 42.5359 31.3225C42.3618 31.4535 42.2298 31.6363 42.1398 31.871C42.0499 32.1057 42.0049 32.3795 42.0049 32.6924ZM47.1209 28.9375V34.9453H46.2438V28.9375H47.1209ZM50.2429 35.0363C49.7989 35.0363 49.4166 34.9414 49.0959 34.7517C48.7771 34.56 48.5307 34.2911 48.3566 33.945C48.1845 33.5969 48.0985 33.1891 48.0985 32.7217C48.0985 32.2602 48.1845 31.8534 48.3566 31.5014C48.5307 31.1494 48.7732 30.8746 49.0841 30.6771C49.397 30.4796 49.7627 30.3808 50.1813 30.3808C50.4355 30.3808 50.6819 30.4229 50.9205 30.5069C51.1591 30.591 51.3732 30.723 51.5629 30.903C51.7526 31.0829 51.9022 31.3166 52.0118 31.6041C52.1213 31.8896 52.176 32.2367 52.176 32.6455V32.9564H48.5942V32.2993H51.3165C51.3165 32.0685 51.2696 31.8642 51.1757 31.6862C51.0818 31.5063 50.9498 31.3645 50.7797 31.2609C50.6115 31.1572 50.414 31.1054 50.1871 31.1054C49.9407 31.1054 49.7256 31.166 49.5418 31.2873C49.3599 31.4065 49.2191 31.563 49.1193 31.7566C49.0216 31.9483 48.9727 32.1565 48.9727 32.3814V32.8948C48.9727 33.196 49.0255 33.4522 49.1311 33.6634C49.2386 33.8746 49.3882 34.0359 49.5799 34.1474C49.7715 34.2569 49.9955 34.3117 50.2517 34.3117C50.4179 34.3117 50.5695 34.2882 50.7064 34.2413C50.8433 34.1924 50.9616 34.12 51.0613 34.0242C51.161 33.9284 51.2373 33.8101 51.2901 33.6692L52.1203 33.8189C52.0538 34.0633 51.9345 34.2775 51.7624 34.4613C51.5923 34.6432 51.3781 34.7849 51.12 34.8866C50.8638 34.9864 50.5714 35.0363 50.2429 35.0363ZM55.2525 30.4395V31.1435H52.7913V30.4395H55.2525ZM53.4514 29.36H54.3285V33.6223C54.3285 33.7925 54.3539 33.9205 54.4047 34.0066C54.4556 34.0907 54.5211 34.1484 54.6013 34.1797C54.6834 34.209 54.7724 34.2237 54.8682 34.2237C54.9386 34.2237 55.0002 34.2188 55.053 34.209C55.1059 34.1992 55.1469 34.1914 55.1763 34.1855L55.3347 34.9101C55.2838 34.9297 55.2115 34.9492 55.1176 34.9688C55.0237 34.9903 54.9064 35.002 54.7656 35.004C54.5348 35.0079 54.3197 34.9668 54.1202 34.8808C53.9207 34.7947 53.7594 34.6617 53.6362 34.4818C53.513 34.3019 53.4514 34.076 53.4514 33.8042V29.36ZM58.1163 35.0363C57.6724 35.0363 57.2901 34.9414 56.9693 34.7517C56.6506 34.56 56.4042 34.2911 56.2301 33.945C56.058 33.5969 55.972 33.1891 55.972 32.7217C55.972 32.2602 56.058 31.8534 56.2301 31.5014C56.4042 31.1494 56.6467 30.8746 56.9576 30.6771C57.2705 30.4796 57.6362 30.3808 58.0547 30.3808C58.309 30.3808 58.5554 30.4229 58.794 30.5069C59.0326 30.591 59.2467 30.723 59.4364 30.903C59.6261 31.0829 59.7757 31.3166 59.8852 31.6041C59.9948 31.8896 60.0495 32.2367 60.0495 32.6455V32.9564H56.4677V32.2993H59.19C59.19 32.0685 59.1431 31.8642 59.0492 31.6862C58.9553 31.5063 58.8233 31.3645 58.6532 31.2609C58.485 31.1572 58.2875 31.1054 58.0606 31.1054C57.8142 31.1054 57.5991 31.166 57.4152 31.2873C57.2334 31.4065 57.0926 31.563 56.9928 31.7566C56.895 31.9483 56.8461 32.1565 56.8461 32.3814V32.8948C56.8461 33.196 56.8989 33.4522 57.0046 33.6634C57.1121 33.8746 57.2617 34.0359 57.4534 34.1474C57.645 34.2569 57.869 34.3117 58.1251 34.3117C58.2914 34.3117 58.4429 34.2882 58.5798 34.2413C58.7167 34.1924 58.835 34.12 58.9348 34.0242C59.0345 33.9284 59.1108 33.8101 59.1636 33.6692L59.9938 33.8189C59.9273 34.0633 59.808 34.2775 59.6359 34.4613C59.4657 34.6432 59.2516 34.7849 58.9935 34.8866C58.7373 34.9864 58.4449 35.0363 58.1163 35.0363ZM63.7633 36.635C63.6323 36.635 63.513 36.6242 63.4054 36.6027C63.2979 36.5832 63.2177 36.5617 63.1649 36.5382L63.3761 35.8195C63.5365 35.8625 63.6792 35.8811 63.8044 35.8752C63.9295 35.8694 64.04 35.8224 64.1359 35.7344C64.2336 35.6464 64.3197 35.5027 64.394 35.3032L64.5025 35.004L62.8539 30.4395H63.7926L64.9338 33.9362H64.9807L66.1218 30.4395H67.0635L65.2066 35.5467C65.1205 35.7814 65.011 35.9799 64.878 36.1422C64.745 36.3065 64.5866 36.4297 64.4028 36.5118C64.219 36.5939 64.0058 36.635 63.7633 36.635ZM69.6325 35.0363C69.2101 35.0363 68.8414 34.9394 68.5266 34.7458C68.2117 34.5522 67.9672 34.2814 67.7932 33.9333C67.6191 33.5852 67.5321 33.1784 67.5321 32.7129C67.5321 32.2455 67.6191 31.8368 67.7932 31.4867C67.9672 31.1367 68.2117 30.8648 68.5266 30.6712C68.8414 30.4776 69.2101 30.3808 69.6325 30.3808C70.0549 30.3808 70.4235 30.4776 70.7384 30.6712C71.0533 30.8648 71.2977 31.1367 71.4718 31.4867C71.6458 31.8368 71.7329 32.2455 71.7329 32.7129C71.7329 33.1784 71.6458 33.5852 71.4718 33.9333C71.2977 34.2814 71.0533 34.5522 70.7384 34.7458C70.4235 34.9394 70.0549 35.0363 69.6325 35.0363ZM69.6354 34.2999C69.9092 34.2999 70.1361 34.2276 70.316 34.0829C70.4959 33.9381 70.6289 33.7455 70.7149 33.505C70.8029 33.2644 70.8469 32.9994 70.8469 32.71C70.8469 32.4225 70.8029 32.1585 70.7149 31.918C70.6289 31.6755 70.4959 31.4809 70.316 31.3342C70.1361 31.1875 69.9092 31.1142 69.6354 31.1142C69.3597 31.1142 69.1309 31.1875 68.949 31.3342C68.7691 31.4809 68.6351 31.6755 68.5471 31.918C68.461 32.1585 68.418 32.4225 68.418 32.71C68.418 32.9994 68.461 33.2644 68.5471 33.505C68.6351 33.7455 68.7691 33.9381 68.949 34.0829C69.1309 34.2276 69.3597 34.2999 69.6354 34.2999ZM75.5662 33.0767V30.4395H76.4462V34.9453H75.5838V34.165H75.5369C75.4332 34.4056 75.267 34.606 75.0382 34.7664C74.8113 34.9248 74.5287 35.004 74.1904 35.004C73.9009 35.004 73.6448 34.9404 73.4218 34.8133C73.2008 34.6842 73.0268 34.4936 72.8997 34.2413C72.7745 33.989 72.7119 33.6771 72.7119 33.3055V30.4395H73.589V33.1999C73.589 33.5069 73.6741 33.7514 73.8442 33.9333C74.0144 34.1151 74.2354 34.2061 74.5072 34.2061C74.6715 34.2061 74.8348 34.165 74.9971 34.0829C75.1614 34.0007 75.2973 33.8765 75.4048 33.7103C75.5144 33.5441 75.5681 33.3329 75.5662 33.0767ZM77.6248 34.9453V30.4395H78.4725V31.1552H78.5195C78.6016 30.9127 78.7463 30.7221 78.9536 30.5832C79.1629 30.4424 79.3995 30.372 79.6635 30.372C79.7183 30.372 79.7828 30.374 79.8572 30.3779C79.9334 30.3818 79.9931 30.3867 80.0361 30.3925V31.2315C80.0009 31.2217 79.9383 31.211 79.8484 31.1992C79.7584 31.1856 79.6684 31.1787 79.5785 31.1787C79.3712 31.1787 79.1864 31.2227 79.024 31.3107C78.8637 31.3968 78.7366 31.517 78.6427 31.6715C78.5488 31.8241 78.5019 31.9981 78.5019 32.1937V34.9453H77.6248ZM84.8793 35.0363C84.4569 35.0363 84.0882 34.9394 83.7734 34.7458C83.4585 34.5522 83.214 34.2814 83.04 33.9333C82.8659 33.5852 82.7789 33.1784 82.7789 32.7129C82.7789 32.2455 82.8659 31.8368 83.04 31.4867C83.214 31.1367 83.4585 30.8648 83.7734 30.6712C84.0882 30.4776 84.4569 30.3808 84.8793 30.3808C85.3017 30.3808 85.6703 30.4776 85.9852 30.6712C86.3001 30.8648 86.5445 31.1367 86.7186 31.4867C86.8926 31.8368 86.9797 32.2455 86.9797 32.7129C86.9797 33.1784 86.8926 33.5852 86.7186 33.9333C86.5445 34.2814 86.3001 34.5522 85.9852 34.7458C85.6703 34.9394 85.3017 35.0363 84.8793 35.0363ZM84.8822 34.2999C85.156 34.2999 85.3829 34.2276 85.5628 34.0829C85.7427 33.9381 85.8757 33.7455 85.9617 33.505C86.0497 33.2644 86.0937 32.9994 86.0937 32.71C86.0937 32.4225 86.0497 32.1585 85.9617 31.918C85.8757 31.6755 85.7427 31.4809 85.5628 31.3342C85.3829 31.1875 85.156 31.1142 84.8822 31.1142C84.6065 31.1142 84.3777 31.1875 84.1958 31.3342C84.0159 31.4809 83.8819 31.6755 83.7939 31.918C83.7078 32.1585 83.6648 32.4225 83.6648 32.71C83.6648 32.9994 83.7078 33.2644 83.7939 33.505C83.8819 33.7455 84.0159 33.9381 84.1958 34.0829C84.3777 34.2276 84.6065 34.2999 84.8822 34.2999ZM87.9587 34.9453V30.4395H88.8065V31.1552H88.8534C88.9356 30.9127 89.0803 30.7221 89.2876 30.5832C89.4968 30.4424 89.7335 30.372 89.9975 30.372C90.0522 30.372 90.1168 30.374 90.1911 30.3779C90.2674 30.3818 90.327 30.3867 90.37 30.3925V31.2315C90.3348 31.2217 90.2723 31.211 90.1823 31.1992C90.0923 31.1856 90.0024 31.1787 89.9124 31.1787C89.7051 31.1787 89.5203 31.2227 89.358 31.3107C89.1976 31.3968 89.0705 31.517 88.9766 31.6715C88.8828 31.8241 88.8358 31.9981 88.8358 32.1937V34.9453H87.9587ZM92.6545 35.0333C92.2907 35.0333 91.9661 34.9404 91.6806 34.7546C91.397 34.5669 91.1741 34.2999 91.0117 33.9538C90.8514 33.6057 90.7712 33.1882 90.7712 32.7012C90.7712 32.2142 90.8524 31.7977 91.0147 31.4515C91.1789 31.1054 91.4038 30.8404 91.6894 30.6566C91.9749 30.4727 92.2986 30.3808 92.6604 30.3808C92.94 30.3808 93.1649 30.4277 93.3351 30.5216C93.5072 30.6135 93.6401 30.7211 93.734 30.8443C93.8298 30.9675 93.9042 31.076 93.957 31.1699H94.0098V28.9375H94.8869V34.9453H94.0303V34.2442H93.957C93.9042 34.34 93.8279 34.4496 93.7281 34.5728C93.6304 34.696 93.4954 34.8035 93.3233 34.8954C93.1512 34.9874 92.9283 35.0333 92.6545 35.0333ZM92.8481 34.2853C93.1004 34.2853 93.3135 34.2188 93.4876 34.0858C93.6636 33.9509 93.7966 33.7641 93.8866 33.5255C93.9785 33.2869 94.0244 33.0092 94.0244 32.6924C94.0244 32.3795 93.9794 32.1057 93.8895 31.871C93.7995 31.6363 93.6675 31.4535 93.4935 31.3225C93.3194 31.1914 93.1043 31.1259 92.8481 31.1259C92.5841 31.1259 92.3641 31.1944 92.1881 31.3313C92.0121 31.4682 91.8791 31.6549 91.7891 31.8916C91.7011 32.1282 91.6571 32.3951 91.6571 32.6924C91.6571 32.9936 91.7021 33.2644 91.792 33.505C91.882 33.7455 92.015 33.9362 92.191 34.077C92.369 34.2159 92.588 34.2853 92.8481 34.2853ZM98.0807 35.0363C97.6368 35.0363 97.2544 34.9414 96.9337 34.7517C96.6149 34.56 96.3685 34.2911 96.1945 33.945C96.0224 33.5969 95.9363 33.1891 95.9363 32.7217C95.9363 32.2602 96.0224 31.8534 96.1945 31.5014C96.3685 31.1494 96.611 30.8746 96.922 30.6771C97.2349 30.4796 97.6006 30.3808 98.0191 30.3808C98.2733 30.3808 98.5198 30.4229 98.7583 30.5069C98.9969 30.591 99.2111 30.723 99.4008 30.903C99.5905 31.0829 99.7401 31.3166 99.8496 31.6041C99.9591 31.8896 100.014 32.2367 100.014 32.6455V32.9564H96.4321V32.2993H99.1544C99.1544 32.0685 99.1074 31.8642 99.0136 31.6862C98.9197 31.5063 98.7877 31.3645 98.6175 31.2609C98.4494 31.1572 98.2518 31.1054 98.025 31.1054C97.7786 31.1054 97.5634 31.166 97.3796 31.2873C97.1977 31.4065 97.0569 31.563 96.9572 31.7566C96.8594 31.9483 96.8105 32.1565 96.8105 32.3814V32.8948C96.8105 33.196 96.8633 33.4522 96.9689 33.6634C97.0765 33.8746 97.2261 34.0359 97.4177 34.1474C97.6094 34.2569 97.8333 34.3117 98.0895 34.3117C98.2557 34.3117 98.4073 34.2882 98.5442 34.2413C98.6811 34.1924 98.7994 34.12 98.8992 34.0242C98.9989 33.9284 99.0752 33.8101 99.128 33.6692L99.9581 33.8189C99.8916 34.0633 99.7724 34.2775 99.6003 34.4613C99.4301 34.6432 99.216 34.7849 98.9578 34.8866C98.7016 34.9864 98.4093 35.0363 98.0807 35.0363ZM100.987 34.9453V30.4395H101.835V31.1552H101.882C101.964 30.9127 102.109 30.7221 102.316 30.5832C102.525 30.4424 102.762 30.372 103.026 30.372C103.081 30.372 103.145 30.374 103.219 30.3779C103.296 30.3818 103.355 30.3867 103.398 30.3925V31.2315C103.363 31.2217 103.301 31.211 103.211 31.1992C103.121 31.1856 103.031 31.1787 102.941 31.1787C102.733 31.1787 102.549 31.2227 102.386 31.3107C102.226 31.3968 102.099 31.517 102.005 31.6715C101.911 31.8241 101.864 31.9981 101.864 32.1937V34.9453H100.987ZM106.414 34.9453V28.9375H107.291V31.1699H107.344C107.395 31.076 107.468 30.9675 107.564 30.8443C107.66 30.7211 107.793 30.6135 107.963 30.5216C108.133 30.4277 108.358 30.3808 108.638 30.3808C109.001 30.3808 109.326 30.4727 109.612 30.6566C109.897 30.8404 110.121 31.1054 110.283 31.4515C110.448 31.7977 110.53 32.2142 110.53 32.7012C110.53 33.1882 110.449 33.6057 110.286 33.9538C110.124 34.2999 109.901 34.5669 109.617 34.7546C109.334 34.9404 109.01 35.0333 108.646 35.0333C108.373 35.0333 108.149 34.9874 107.975 34.8954C107.803 34.8035 107.668 34.696 107.57 34.5728C107.472 34.4496 107.397 34.34 107.344 34.2442H107.271V34.9453H106.414ZM107.274 32.6924C107.274 33.0092 107.319 33.2869 107.411 33.5255C107.503 33.7641 107.636 33.9509 107.81 34.0858C107.984 34.2188 108.198 34.2853 108.45 34.2853C108.712 34.2853 108.931 34.2159 109.107 34.077C109.283 33.9362 109.416 33.7455 109.506 33.505C109.598 33.2644 109.644 32.9936 109.644 32.6924C109.644 32.3951 109.599 32.1282 109.509 31.8916C109.421 31.6549 109.288 31.4682 109.11 31.3313C108.934 31.1944 108.714 31.1259 108.45 31.1259C108.196 31.1259 107.98 31.1914 107.804 31.3225C107.63 31.4535 107.498 31.6363 107.408 31.871C107.319 32.1057 107.274 32.3795 107.274 32.6924ZM113.457 35.0363C113.013 35.0363 112.63 34.9414 112.31 34.7517C111.991 34.56 111.744 34.2911 111.57 33.945C111.398 33.5969 111.312 33.1891 111.312 32.7217C111.312 32.2602 111.398 31.8534 111.57 31.5014C111.744 31.1494 111.987 30.8746 112.298 30.6771C112.611 30.4796 112.976 30.3808 113.395 30.3808C113.649 30.3808 113.896 30.4229 114.134 30.5069C114.373 30.591 114.587 30.723 114.777 30.903C114.966 31.0829 115.116 31.3166 115.225 31.6041C115.335 31.8896 115.39 32.2367 115.39 32.6455V32.9564H111.808V32.2993H114.53C114.53 32.0685 114.483 31.8642 114.389 31.6862C114.296 31.5063 114.164 31.3645 113.993 31.2609C113.825 31.1572 113.628 31.1054 113.401 31.1054C113.154 31.1054 112.939 31.166 112.755 31.2873C112.574 31.4065 112.433 31.563 112.333 31.7566C112.235 31.9483 112.186 32.1565 112.186 32.3814V32.8948C112.186 33.196 112.239 33.4522 112.345 33.6634C112.452 33.8746 112.602 34.0359 112.794 34.1474C112.985 34.2569 113.209 34.3117 113.465 34.3117C113.632 34.3117 113.783 34.2882 113.92 34.2413C114.057 34.1924 114.175 34.12 114.275 34.0242C114.375 33.9284 114.451 33.8101 114.504 33.6692L115.334 33.8189C115.268 34.0633 115.148 34.2775 114.976 34.4613C114.806 34.6432 114.592 34.7849 114.334 34.8866C114.078 34.9864 113.785 35.0363 113.457 35.0363ZM118.507 30.4395V31.1435H115.961V30.4395H118.507ZM116.659 34.9453V29.9173C116.659 29.6357 116.721 29.402 116.844 29.2162C116.967 29.0285 117.131 28.8886 117.334 28.7967C117.537 28.7029 117.758 28.6559 117.997 28.6559C118.173 28.6559 118.323 28.6706 118.449 28.6999C118.574 28.7273 118.667 28.7527 118.727 28.7762L118.522 29.4861C118.481 29.4744 118.428 29.4607 118.364 29.445C118.299 29.4274 118.221 29.4186 118.129 29.4186C117.916 29.4186 117.763 29.4714 117.671 29.577C117.581 29.6826 117.536 29.8352 117.536 30.0347V34.9453H116.659ZM121.133 35.0363C120.71 35.0363 120.342 34.9394 120.027 34.7458C119.712 34.5522 119.468 34.2814 119.293 33.9333C119.119 33.5852 119.032 33.1784 119.032 32.7129C119.032 32.2455 119.119 31.8368 119.293 31.4867C119.468 31.1367 119.712 30.8648 120.027 30.6712C120.342 30.4776 120.71 30.3808 121.133 30.3808C121.555 30.3808 121.924 30.4776 122.239 30.6712C122.554 30.8648 122.798 31.1367 122.972 31.4867C123.146 31.8368 123.233 32.2455 123.233 32.7129C123.233 33.1784 123.146 33.5852 122.972 33.9333C122.798 34.2814 122.554 34.5522 122.239 34.7458C121.924 34.9394 121.555 35.0363 121.133 35.0363ZM121.136 34.2999C121.41 34.2999 121.636 34.2276 121.816 34.0829C121.996 33.9381 122.129 33.7455 122.215 33.505C122.303 33.2644 122.347 32.9994 122.347 32.71C122.347 32.4225 122.303 32.1585 122.215 31.918C122.129 31.6755 121.996 31.4809 121.816 31.3342C121.636 31.1875 121.41 31.1142 121.136 31.1142C120.86 31.1142 120.631 31.1875 120.449 31.3342C120.269 31.4809 120.135 31.6755 120.047 31.918C119.961 32.1585 119.918 32.4225 119.918 32.71C119.918 32.9994 119.961 33.2644 120.047 33.505C120.135 33.7455 120.269 33.9381 120.449 34.0829C120.631 34.2276 120.86 34.2999 121.136 34.2999ZM124.212 34.9453V30.4395H125.06V31.1552H125.107C125.189 30.9127 125.334 30.7221 125.541 30.5832C125.75 30.4424 125.987 30.372 126.251 30.372C126.306 30.372 126.37 30.374 126.445 30.3779C126.521 30.3818 126.581 30.3867 126.624 30.3925V31.2315C126.588 31.2217 126.526 31.211 126.436 31.1992C126.346 31.1856 126.256 31.1787 126.166 31.1787C125.959 31.1787 125.774 31.2227 125.611 31.3107C125.451 31.3968 125.324 31.517 125.23 31.6715C125.136 31.8241 125.089 31.9981 125.089 32.1937V34.9453H124.212ZM129.163 35.0363C128.719 35.0363 128.337 34.9414 128.016 34.7517C127.697 34.56 127.451 34.2911 127.277 33.945C127.105 33.5969 127.019 33.1891 127.019 32.7217C127.019 32.2602 127.105 31.8534 127.277 31.5014C127.451 31.1494 127.694 30.8746 128.004 30.6771C128.317 30.4796 128.683 30.3808 129.102 30.3808C129.356 30.3808 129.602 30.4229 129.841 30.5069C130.079 30.591 130.294 30.723 130.483 30.903C130.673 31.0829 130.823 31.3166 130.932 31.6041C131.042 31.8896 131.096 32.2367 131.096 32.6455V32.9564H127.515V32.2993H130.237C130.237 32.0685 130.19 31.8642 130.096 31.6862C130.002 31.5063 129.87 31.3645 129.7 31.2609C129.532 31.1572 129.334 31.1054 129.107 31.1054C128.861 31.1054 128.646 31.166 128.462 31.2873C128.28 31.4065 128.139 31.563 128.04 31.7566C127.942 31.9483 127.893 32.1565 127.893 32.3814V32.8948C127.893 33.196 127.946 33.4522 128.051 33.6634C128.159 33.8746 128.309 34.0359 128.5 34.1474C128.692 34.2569 128.916 34.3117 129.172 34.3117C129.338 34.3117 129.49 34.2882 129.627 34.2413C129.764 34.1924 129.882 34.12 129.982 34.0242C130.081 33.9284 130.158 33.8101 130.21 33.6692L131.041 33.8189C130.974 34.0633 130.855 34.2775 130.683 34.4613C130.513 34.6432 130.298 34.7849 130.04 34.8866C129.784 34.9864 129.492 35.0363 129.163 35.0363ZM137.632 31.5395L136.837 31.6803C136.804 31.5786 136.751 31.4818 136.679 31.3899C136.608 31.298 136.513 31.2227 136.391 31.164C136.27 31.1054 136.119 31.076 135.937 31.076C135.688 31.076 135.481 31.1318 135.315 31.2433C135.148 31.3528 135.065 31.4946 135.065 31.6686C135.065 31.8192 135.121 31.9404 135.233 32.0324C135.344 32.1243 135.524 32.1996 135.772 32.2582L136.488 32.4225C136.903 32.5183 137.212 32.666 137.415 32.8655C137.618 33.0649 137.72 33.3241 137.72 33.6428C137.72 33.9127 137.642 34.1533 137.486 34.3645C137.331 34.5737 137.115 34.738 136.837 34.8573C136.561 34.9766 136.242 35.0363 135.878 35.0363C135.373 35.0363 134.962 34.9287 134.643 34.7136C134.324 34.4965 134.129 34.1885 134.056 33.7895L134.904 33.6604C134.957 33.8814 135.065 34.0486 135.23 34.1621C135.394 34.2735 135.608 34.3293 135.872 34.3293C136.16 34.3293 136.389 34.2696 136.561 34.1503C136.734 34.0291 136.82 33.8814 136.82 33.7074C136.82 33.5666 136.767 33.4483 136.661 33.3524C136.558 33.2566 136.398 33.1842 136.183 33.1354L135.42 32.9681C135 32.8723 134.689 32.7198 134.487 32.5105C134.288 32.3013 134.188 32.0363 134.188 31.7155C134.188 31.4496 134.263 31.2168 134.411 31.0174C134.56 30.8179 134.765 30.6624 135.027 30.5509C135.289 30.4375 135.589 30.3808 135.928 30.3808C136.415 30.3808 136.798 30.4864 137.078 30.6976C137.357 30.9069 137.542 31.1875 137.632 31.5395ZM140.788 30.4395V31.1435H138.327V30.4395H140.788ZM138.987 29.36H139.864V33.6223C139.864 33.7925 139.889 33.9205 139.94 34.0066C139.991 34.0907 140.056 34.1484 140.137 34.1797C140.219 34.209 140.308 34.2237 140.404 34.2237C140.474 34.2237 140.536 34.2188 140.588 34.209C140.641 34.1992 140.682 34.1914 140.712 34.1855L140.87 34.9101C140.819 34.9297 140.747 34.9492 140.653 34.9688C140.559 34.9903 140.442 35.002 140.301 35.004C140.07 35.0079 139.855 34.9668 139.656 34.8808C139.456 34.7947 139.295 34.6617 139.172 34.4818C139.048 34.3019 138.987 34.076 138.987 33.8042V29.36ZM143.608 35.0363C143.185 35.0363 142.817 34.9394 142.502 34.7458C142.187 34.5522 141.942 34.2814 141.768 33.9333C141.594 33.5852 141.507 33.1784 141.507 32.7129C141.507 32.2455 141.594 31.8368 141.768 31.4867C141.942 31.1367 142.187 30.8648 142.502 30.6712C142.817 30.4776 143.185 30.3808 143.608 30.3808C144.03 30.3808 144.399 30.4776 144.714 30.6712C145.028 30.8648 145.273 31.1367 145.447 31.4867C145.621 31.8368 145.708 32.2455 145.708 32.7129C145.708 33.1784 145.621 33.5852 145.447 33.9333C145.273 34.2814 145.028 34.5522 144.714 34.7458C144.399 34.9394 144.03 35.0363 143.608 35.0363ZM143.611 34.2999C143.884 34.2999 144.111 34.2276 144.291 34.0829C144.471 33.9381 144.604 33.7455 144.69 33.505C144.778 33.2644 144.822 32.9994 144.822 32.71C144.822 32.4225 144.778 32.1585 144.69 31.918C144.604 31.6755 144.471 31.4809 144.291 31.3342C144.111 31.1875 143.884 31.1142 143.611 31.1142C143.335 31.1142 143.106 31.1875 142.924 31.3342C142.744 31.4809 142.61 31.6755 142.522 31.918C142.436 32.1585 142.393 32.4225 142.393 32.71C142.393 32.9994 142.436 33.2644 142.522 33.505C142.61 33.7455 142.744 33.9381 142.924 34.0829C143.106 34.2276 143.335 34.2999 143.611 34.2999ZM148.585 35.0363C148.149 35.0363 147.773 34.9375 147.459 34.74C147.146 34.5405 146.905 34.2657 146.737 33.9157C146.569 33.5656 146.485 33.1647 146.485 32.7129C146.485 32.2553 146.571 31.8515 146.743 31.5014C146.915 31.1494 147.157 30.8746 147.47 30.6771C147.783 30.4796 148.152 30.3808 148.576 30.3808C148.919 30.3808 149.224 30.4444 149.492 30.5715C149.759 30.6966 149.976 30.8727 150.14 31.0995C150.306 31.3264 150.405 31.5914 150.436 31.8945H149.582C149.536 31.6833 149.428 31.5014 149.26 31.3489C149.094 31.1963 148.871 31.12 148.591 31.12C148.347 31.12 148.132 31.1846 147.949 31.3137C147.767 31.4408 147.625 31.6226 147.523 31.8593C147.421 32.094 147.371 32.3717 147.371 32.6924C147.371 33.0209 147.42 33.3045 147.52 33.5431C147.62 33.7817 147.761 33.9665 147.943 34.0975C148.126 34.2286 148.343 34.2941 148.591 34.2941C148.757 34.2941 148.908 34.2638 149.043 34.2031C149.18 34.1406 149.294 34.0516 149.386 33.9362C149.48 33.8208 149.545 33.682 149.582 33.5196H150.436C150.405 33.811 150.31 34.0711 150.152 34.2999C149.993 34.5288 149.781 34.7087 149.515 34.8397C149.251 34.9707 148.941 35.0363 148.585 35.0363ZM152.181 33.417L152.175 32.3462H152.327L154.123 30.4395H155.173L153.125 32.6103H152.988L152.181 33.417ZM151.374 34.9453V28.9375H152.251V34.9453H151.374ZM154.22 34.9453L152.606 32.8039L153.21 32.1908L155.296 34.9453H154.22ZM158.159 34.9453V30.4395H159.006V31.1552H159.053C159.135 30.9127 159.28 30.7221 159.487 30.5832C159.697 30.4424 159.933 30.372 160.197 30.372C160.252 30.372 160.317 30.374 160.391 30.3779C160.467 30.3818 160.527 30.3867 160.57 30.3925V31.2315C160.535 31.2217 160.472 31.211 160.382 31.1992C160.292 31.1856 160.202 31.1787 160.112 31.1787C159.905 31.1787 159.72 31.2227 159.558 31.3107C159.397 31.3968 159.27 31.517 159.176 31.6715C159.083 31.8241 159.036 31.9981 159.036 32.1937V34.9453H158.159ZM164.183 33.0767V30.4395H165.063V34.9453H164.201V34.165H164.154C164.05 34.4056 163.884 34.606 163.655 34.7664C163.428 34.9248 163.146 35.004 162.807 35.004C162.518 35.004 162.262 34.9404 162.039 34.8133C161.818 34.6842 161.644 34.4936 161.517 34.2413C161.391 33.989 161.329 33.6771 161.329 33.3055V30.4395H162.206V33.1999C162.206 33.5069 162.291 33.7514 162.461 33.9333C162.631 34.1151 162.852 34.2061 163.124 34.2061C163.288 34.2061 163.452 34.165 163.614 34.0829C163.778 34.0007 163.914 33.8765 164.022 33.7103C164.131 33.5441 164.185 33.3329 164.183 33.0767ZM167.119 32.27V34.9453H166.242V30.4395H167.084V31.1728H167.139C167.243 30.9343 167.405 30.7426 167.626 30.5979C167.849 30.4532 168.13 30.3808 168.468 30.3808C168.775 30.3808 169.044 30.4453 169.275 30.5744C169.506 30.7015 169.685 30.8912 169.812 31.1435C169.939 31.3958 170.002 31.7077 170.002 32.0793V34.9453H169.125V32.1849C169.125 31.8583 169.04 31.6031 168.87 31.4193C168.7 31.2335 168.466 31.1406 168.169 31.1406C167.966 31.1406 167.785 31.1846 167.626 31.2726C167.47 31.3606 167.346 31.4897 167.254 31.6598C167.164 31.828 167.119 32.0314 167.119 32.27ZM174.555 31.5395L173.76 31.6803C173.727 31.5786 173.674 31.4818 173.602 31.3899C173.531 31.298 173.436 31.2227 173.314 31.164C173.193 31.1054 173.042 31.076 172.86 31.076C172.611 31.076 172.404 31.1318 172.238 31.2433C172.072 31.3528 171.988 31.4946 171.988 31.6686C171.988 31.8192 172.044 31.9404 172.156 32.0324C172.267 32.1243 172.447 32.1996 172.695 32.2582L173.411 32.4225C173.826 32.5183 174.135 32.666 174.338 32.8655C174.542 33.0649 174.643 33.3241 174.643 33.6428C174.643 33.9127 174.565 34.1533 174.409 34.3645C174.254 34.5737 174.038 34.738 173.76 34.8573C173.485 34.9766 173.165 35.0363 172.801 35.0363C172.296 35.0363 171.885 34.9287 171.566 34.7136C171.247 34.4965 171.052 34.1885 170.979 33.7895L171.827 33.6604C171.88 33.8814 171.988 34.0486 172.153 34.1621C172.317 34.2735 172.531 34.3293 172.795 34.3293C173.083 34.3293 173.312 34.2696 173.485 34.1503C173.657 34.0291 173.743 33.8814 173.743 33.7074C173.743 33.5666 173.69 33.4483 173.584 33.3524C173.481 33.2566 173.321 33.1842 173.106 33.1354L172.343 32.9681C171.923 32.8723 171.612 32.7198 171.411 32.5105C171.211 32.3013 171.111 32.0363 171.111 31.7155C171.111 31.4496 171.186 31.2168 171.334 31.0174C171.483 30.8179 171.688 30.6624 171.95 30.5509C172.212 30.4375 172.513 30.3808 172.851 30.3808C173.338 30.3808 173.721 30.4864 174.001 30.6976C174.28 30.9069 174.465 31.1875 174.555 31.5395ZM24.6907 45.0363C24.2683 45.0363 23.8997 44.9394 23.5848 44.7458C23.2699 44.5522 23.0255 44.2814 22.8514 43.9333C22.6774 43.5852 22.5903 43.1784 22.5903 42.7129C22.5903 42.2455 22.6774 41.8368 22.8514 41.4867C23.0255 41.1367 23.2699 40.8648 23.5848 40.6712C23.8997 40.4776 24.2683 40.3808 24.6907 40.3808C25.1131 40.3808 25.4818 40.4776 25.7966 40.6712C26.1115 40.8648 26.356 41.1367 26.53 41.4867C26.7041 41.8368 26.7911 42.2455 26.7911 42.7129C26.7911 43.1784 26.7041 43.5852 26.53 43.9333C26.356 44.2814 26.1115 44.5522 25.7966 44.7458C25.4818 44.9394 25.1131 45.0363 24.6907 45.0363ZM24.6937 44.2999C24.9674 44.2999 25.1943 44.2276 25.3742 44.0829C25.5541 43.9381 25.6871 43.7455 25.7732 43.505C25.8612 43.2644 25.9052 42.9994 25.9052 42.71C25.9052 42.4225 25.8612 42.1585 25.7732 41.918C25.6871 41.6755 25.5541 41.4809 25.3742 41.3342C25.1943 41.1875 24.9674 41.1142 24.6937 41.1142C24.4179 41.1142 24.1891 41.1875 24.0072 41.3342C23.8273 41.4809 23.6933 41.6755 23.6053 41.918C23.5193 42.1585 23.4763 42.4225 23.4763 42.71C23.4763 42.9994 23.5193 43.2644 23.6053 43.505C23.6933 43.7455 23.8273 43.9381 24.0072 44.0829C24.1891 44.2276 24.4179 44.2999 24.6937 44.2999ZM30.6244 43.0767V40.4395H31.5045V44.9453H30.642V44.165H30.5951C30.4914 44.4056 30.3252 44.606 30.0964 44.7664C29.8695 44.9248 29.587 45.004 29.2486 45.004C28.9592 45.004 28.703 44.9404 28.4801 44.8133C28.2591 44.6842 28.085 44.4936 27.9579 44.2413C27.8327 43.989 27.7702 43.6771 27.7702 43.3055V40.4395H28.6473V43.1999C28.6473 43.5069 28.7323 43.7514 28.9025 43.9333C29.0726 44.1151 29.2936 44.2061 29.5654 44.2061C29.7297 44.2061 29.893 44.165 30.0553 44.0829C30.2196 44.0007 30.3555 43.8765 30.4631 43.7103C30.5726 43.5441 30.6264 43.3329 30.6244 43.0767ZM34.7863 40.4395V41.1435H32.3251V40.4395H34.7863ZM32.9852 39.36H33.8623V43.6223C33.8623 43.7925 33.8877 43.9205 33.9385 44.0066C33.9894 44.0907 34.0549 44.1484 34.1351 44.1797C34.2172 44.209 34.3062 44.2237 34.402 44.2237C34.4724 44.2237 34.534 44.2188 34.5868 44.209C34.6396 44.1992 34.6807 44.1914 34.71 44.1855L34.8685 44.9101C34.8176 44.9297 34.7453 44.9492 34.6514 44.9688C34.5575 44.9903 34.4402 45.002 34.2994 45.004C34.0686 45.0079 33.8535 44.9668 33.654 44.8808C33.4545 44.7947 33.2932 44.6617 33.17 44.4818C33.0468 44.3019 32.9852 44.076 32.9852 43.8042V39.36ZM36.3345 45.001C36.1741 45.001 36.0362 44.9443 35.9208 44.8309C35.8055 44.7155 35.7478 44.5767 35.7478 44.4144C35.7478 44.254 35.8055 44.1171 35.9208 44.0037C36.0362 43.8883 36.1741 43.8306 36.3345 43.8306C36.4948 43.8306 36.6327 43.8883 36.7481 44.0037C36.8635 44.1171 36.9212 44.254 36.9212 44.4144C36.9212 44.5219 36.8938 44.6207 36.839 44.7106C36.7862 44.7986 36.7158 44.869 36.6278 44.9218C36.5398 44.9746 36.442 45.001 36.3345 45.001Z" fill="black"/>
<line x1="1.68987" y1="55.6206" x2="214.69" y2="55.8579" stroke="#E0E0E0" stroke-width="0.750973"/>
<path d="M91.961 70.2412V64.2334H94.1612C94.5875 64.2334 94.9405 64.3038 95.2201 64.4446C95.4998 64.5835 95.7091 64.7722 95.8479 65.0108C95.9868 65.2474 96.0562 65.5144 96.0562 65.8116C96.0562 66.062 96.0102 66.2732 95.9183 66.4453C95.8264 66.6154 95.7032 66.7523 95.5487 66.856C95.3962 66.9577 95.228 67.032 95.0441 67.0789V67.1376C95.2436 67.1474 95.4382 67.2119 95.6279 67.3312C95.8196 67.4485 95.978 67.6157 96.1031 67.8328C96.2283 68.0499 96.2909 68.3139 96.2909 68.6249C96.2909 68.9319 96.2185 69.2076 96.0738 69.4521C95.931 69.6946 95.71 69.8872 95.4108 70.03C95.1116 70.1708 94.7293 70.2412 94.2638 70.2412H91.961ZM92.8675 69.4638H94.1758C94.61 69.4638 94.9209 69.3797 95.1087 69.2116C95.2964 69.0434 95.3903 68.8331 95.3903 68.5809C95.3903 68.3912 95.3424 68.2171 95.2465 68.0587C95.1507 67.9003 95.0138 67.7741 94.8359 67.6803C94.6598 67.5864 94.4506 67.5395 94.2081 67.5395H92.8675V69.4638ZM92.8675 66.8325H94.0819C94.2853 66.8325 94.4682 66.7934 94.6305 66.7152C94.7948 66.6369 94.9248 66.5274 95.0207 66.3866C95.1184 66.2438 95.1673 66.0757 95.1673 65.882C95.1673 65.6337 95.0803 65.4254 94.9063 65.2572C94.7322 65.089 94.4653 65.0049 94.1054 65.0049H92.8675V66.8325ZM100.15 68.3726V65.7354H101.03V70.2412H100.167V69.4609H100.121C100.017 69.7014 99.8507 69.9019 99.6218 70.0623C99.395 70.2207 99.1124 70.2999 98.7741 70.2999C98.4846 70.2999 98.2284 70.2363 98.0055 70.1092C97.7845 69.9801 97.6104 69.7895 97.4833 69.5372C97.3582 69.2849 97.2956 68.973 97.2956 68.6014V65.7354H98.1727V68.4958C98.1727 68.8028 98.2578 69.0473 98.4279 69.2292C98.5981 69.411 98.819 69.502 99.0909 69.502C99.2552 69.502 99.4185 69.4609 99.5808 69.3788C99.745 69.2966 99.881 69.1724 99.9885 69.0062C100.098 68.84 100.152 68.6288 100.15 68.3726ZM102.763 71.9309C102.632 71.9309 102.513 71.9201 102.405 71.8986C102.297 71.8791 102.217 71.8576 102.164 71.8341L102.376 71.1154C102.536 71.1584 102.679 71.177 102.804 71.1711C102.929 71.1653 103.04 71.1183 103.135 71.0303C103.233 70.9423 103.319 70.7986 103.394 70.5991L103.502 70.2999L101.853 65.7354H102.792L103.933 69.2321H103.98L105.121 65.7354H106.063L104.206 70.8426C104.12 71.0773 104.011 71.2758 103.878 71.4381C103.745 71.6023 103.586 71.7256 103.402 71.8077C103.219 71.8898 103.005 71.9309 102.763 71.9309ZM109.951 67.5659V70.2412H109.074V65.7354H109.915V66.4687H109.971C110.075 66.2302 110.237 66.0385 110.458 65.8938C110.681 65.7491 110.962 65.6767 111.3 65.6767C111.607 65.6767 111.876 65.7412 112.107 65.8703C112.338 65.9974 112.516 66.1871 112.644 66.4394C112.771 66.6917 112.834 67.0036 112.834 67.3752V70.2412H111.957V67.4808C111.957 67.1542 111.872 66.899 111.702 66.7152C111.532 66.5294 111.298 66.4365 111.001 66.4365C110.797 66.4365 110.617 66.4805 110.458 66.5685C110.302 66.6565 110.178 66.7856 110.086 66.9557C109.996 67.1239 109.951 67.3273 109.951 67.5659ZM115.909 70.3321C115.486 70.3321 115.117 70.2353 114.803 70.0417C114.488 69.8481 114.243 69.5773 114.069 69.2292C113.895 68.8811 113.808 68.4743 113.808 68.0088C113.808 67.5414 113.895 67.1327 114.069 66.7826C114.243 66.4326 114.488 66.1607 114.803 65.9671C115.117 65.7735 115.486 65.6767 115.909 65.6767C116.331 65.6767 116.7 65.7735 117.014 65.9671C117.329 66.1607 117.574 66.4326 117.748 66.7826C117.922 67.1327 118.009 67.5414 118.009 68.0088C118.009 68.4743 117.922 68.8811 117.748 69.2292C117.574 69.5773 117.329 69.8481 117.014 70.0417C116.7 70.2353 116.331 70.3321 115.909 70.3321ZM115.911 69.5958C116.185 69.5958 116.412 69.5235 116.592 69.3788C116.772 69.234 116.905 69.0414 116.991 68.8009C117.079 68.5603 117.123 68.2953 117.123 68.0059C117.123 67.7184 117.079 67.4544 116.991 67.2139C116.905 66.9714 116.772 66.7768 116.592 66.6301C116.412 66.4834 116.185 66.4101 115.911 66.4101C115.636 66.4101 115.407 66.4834 115.225 66.6301C115.045 66.7768 114.911 66.9714 114.823 67.2139C114.737 67.4544 114.694 67.7184 114.694 68.0059C114.694 68.2953 114.737 68.5603 114.823 68.8009C114.911 69.0414 115.045 69.234 115.225 69.3788C115.407 69.5235 115.636 69.5958 115.911 69.5958ZM119.828 70.2412L118.502 65.7354H119.408L120.291 69.0443H120.335L121.221 65.7354H122.128L123.008 69.0297H123.052L123.929 65.7354H124.835L123.512 70.2412H122.617L121.702 66.988H121.635L120.719 70.2412H119.828Z" fill="#008F7E"/>
<line x1="1.69032" y1="77.8735" x2="214.69" y2="78.3638" stroke="#E0E0E0" stroke-width="0.750973"/>
<path d="M83.5801 86.7393L85.2522 91.6323H85.3196L86.9917 86.7393H87.9715L85.8095 92.7471H84.7623L82.6003 86.7393H83.5801ZM88.7687 92.7471V88.2412H89.6458V92.7471H88.7687ZM89.2116 87.546C89.0591 87.546 88.9281 87.4951 88.8185 87.3935C88.711 87.2898 88.6572 87.1666 88.6572 87.0238C88.6572 86.8791 88.711 86.7559 88.8185 86.6542C88.9281 86.5506 89.0591 86.4987 89.2116 86.4987C89.3642 86.4987 89.4942 86.5506 89.6018 86.6542C89.7113 86.7559 89.7661 86.8791 89.7661 87.0238C89.7661 87.1666 89.7113 87.2898 89.6018 87.3935C89.4942 87.4951 89.3642 87.546 89.2116 87.546ZM92.7677 92.838C92.3238 92.838 91.9415 92.7432 91.6208 92.5535C91.302 92.3618 91.0556 92.0929 90.8815 91.7468C90.7094 91.3986 90.6234 90.9909 90.6234 90.5235C90.6234 90.062 90.7094 89.6552 90.8815 89.3032C91.0556 88.9511 91.2981 88.6764 91.609 88.4788C91.9219 88.2813 92.2876 88.1826 92.7061 88.1826C92.9604 88.1826 93.2068 88.2246 93.4454 88.3087C93.684 88.3928 93.8981 88.5248 94.0878 88.7047C94.2775 88.8846 94.4271 89.1183 94.5366 89.4058C94.6462 89.6914 94.7009 90.0385 94.7009 90.4472V90.7582H91.1191V90.1011H93.8414C93.8414 89.8703 93.7945 89.6659 93.7006 89.488C93.6067 89.308 93.4747 89.1663 93.3046 89.0626C93.1364 88.959 92.9389 88.9071 92.712 88.9071C92.4656 88.9071 92.2505 88.9678 92.0666 89.089C91.8848 89.2083 91.744 89.3648 91.6442 89.5584C91.5464 89.75 91.4975 89.9583 91.4975 90.1832V90.6966C91.4975 90.9977 91.5503 91.2539 91.656 91.4651C91.7635 91.6763 91.9131 91.8377 92.1048 91.9492C92.2964 92.0587 92.5204 92.1134 92.7765 92.1134C92.9428 92.1134 93.0943 92.09 93.2312 92.043C93.3681 91.9941 93.4864 91.9218 93.5862 91.826C93.6859 91.7301 93.7622 91.6118 93.815 91.471L94.6452 91.6206C94.5787 91.8651 94.4594 92.0792 94.2873 92.263C94.1171 92.4449 93.903 92.5867 93.6449 92.6884C93.3887 92.7881 93.0963 92.838 92.7677 92.838ZM96.6429 92.7471L95.3169 88.2412H96.2234L97.1064 91.5502H97.1504L98.0363 88.2412H98.9427L99.8228 91.5355H99.8668L100.744 88.2412H101.65L100.327 92.7471H99.4326L98.5174 89.4938H98.4499L97.5347 92.7471H96.6429ZM104.669 92.7471V88.2412H105.511V88.9746H105.567C105.66 88.7262 105.814 88.5326 106.027 88.3938C106.24 88.253 106.495 88.1826 106.793 88.1826C107.094 88.1826 107.346 88.253 107.55 88.3938C107.755 88.5346 107.906 88.7282 108.004 88.9746H108.051C108.159 88.7341 108.33 88.5424 108.565 88.3996C108.799 88.2549 109.079 88.1826 109.404 88.1826C109.812 88.1826 110.146 88.3107 110.404 88.5669C110.664 88.823 110.794 89.2093 110.794 89.7256V92.7471H109.917V89.8077C109.917 89.5026 109.834 89.2816 109.668 89.1447C109.501 89.0079 109.303 88.9394 109.072 88.9394C108.787 88.9394 108.565 89.0274 108.406 89.2034C108.248 89.3775 108.169 89.6014 108.169 89.8752V92.7471H107.294V89.752C107.294 89.5075 107.218 89.311 107.066 89.1623C106.913 89.0137 106.715 88.9394 106.47 88.9394C106.304 88.9394 106.15 88.9834 106.01 89.0714C105.871 89.1575 105.758 89.2777 105.672 89.4322C105.588 89.5867 105.546 89.7657 105.546 89.9691V92.7471H104.669ZM112.363 94.4368C112.232 94.4368 112.112 94.426 112.005 94.4045C111.897 94.3849 111.817 94.3634 111.764 94.34L111.975 93.6212C112.136 93.6643 112.279 93.6829 112.404 93.677C112.529 93.6711 112.639 93.6242 112.735 93.5362C112.833 93.4482 112.919 93.3044 112.993 93.105L113.102 92.8057L111.453 88.2412H112.392L113.533 91.738H113.58L114.721 88.2412H115.663L113.806 93.3484C113.72 93.5831 113.61 93.7816 113.477 93.9439C113.344 94.1082 113.186 94.2314 113.002 94.3136C112.818 94.3957 112.605 94.4368 112.363 94.4368ZM120.571 92.838C120.135 92.838 119.76 92.7392 119.445 92.5417C119.132 92.3422 118.891 92.0675 118.723 91.7174C118.555 91.3674 118.471 90.9664 118.471 90.5147C118.471 90.0571 118.557 89.6532 118.729 89.3032C118.901 88.9511 119.144 88.6764 119.457 88.4788C119.77 88.2813 120.138 88.1826 120.563 88.1826C120.905 88.1826 121.21 88.2461 121.478 88.3732C121.746 88.4984 121.962 88.6744 122.126 88.9013C122.292 89.1281 122.391 89.3931 122.422 89.6962H121.569C121.522 89.485 121.414 89.3032 121.246 89.1506C121.08 88.9981 120.857 88.9218 120.577 88.9218C120.333 88.9218 120.119 88.9863 119.935 89.1154C119.753 89.2425 119.611 89.4244 119.509 89.661C119.408 89.8957 119.357 90.1734 119.357 90.4942C119.357 90.8227 119.407 91.1063 119.506 91.3449C119.606 91.5835 119.747 91.7683 119.929 91.8993C120.113 92.0303 120.329 92.0958 120.577 92.0958C120.743 92.0958 120.894 92.0655 121.029 92.0049C121.166 91.9423 121.28 91.8533 121.372 91.738C121.466 91.6226 121.532 91.4837 121.569 91.3214H122.422C122.391 91.6128 122.296 91.8729 122.138 92.1017C121.979 92.3305 121.767 92.5104 121.501 92.6415C121.237 92.7725 120.927 92.838 120.571 92.838ZM124.672 92.8468C124.386 92.8468 124.128 92.794 123.897 92.6884C123.666 92.5808 123.484 92.4254 123.349 92.222C123.216 92.0186 123.149 91.7692 123.149 91.4739C123.149 91.2197 123.198 91.0104 123.296 90.8462C123.394 90.6819 123.526 90.5518 123.692 90.456C123.858 90.3602 124.044 90.2878 124.249 90.2389C124.455 90.19 124.664 90.1529 124.877 90.1275C125.147 90.0962 125.366 90.0708 125.534 90.0512C125.702 90.0297 125.824 89.9955 125.901 89.9485C125.977 89.9016 126.015 89.8253 126.015 89.7197V89.6992C126.015 89.443 125.943 89.2445 125.798 89.1037C125.655 88.9629 125.442 88.8925 125.159 88.8925C124.863 88.8925 124.631 88.958 124.46 89.089C124.292 89.2181 124.176 89.3618 124.111 89.5202L123.287 89.3325C123.385 89.0587 123.528 88.8377 123.715 88.6695C123.905 88.4994 124.123 88.3762 124.369 88.2999C124.616 88.2217 124.875 88.1826 125.147 88.1826C125.327 88.1826 125.517 88.2041 125.719 88.2471C125.922 88.2882 126.112 88.3644 126.288 88.4759C126.466 88.5874 126.612 88.7468 126.725 88.9541C126.838 89.1594 126.895 89.4264 126.895 89.7549V92.7471H126.039V92.131H126.003C125.947 92.2445 125.862 92.3559 125.748 92.4655C125.635 92.575 125.489 92.6659 125.311 92.7383C125.133 92.8106 124.92 92.8468 124.672 92.8468ZM124.862 92.1428C125.105 92.1428 125.312 92.0949 125.484 91.999C125.658 91.9032 125.79 91.778 125.88 91.6235C125.972 91.4671 126.018 91.2999 126.018 91.1219V90.5411C125.987 90.5724 125.926 90.6017 125.836 90.6291C125.748 90.6545 125.647 90.677 125.534 90.6966C125.421 90.7142 125.31 90.7308 125.203 90.7464C125.095 90.7601 125.005 90.7719 124.933 90.7816C124.763 90.8031 124.607 90.8393 124.466 90.8902C124.327 90.941 124.216 91.0144 124.132 91.1102C124.05 91.2041 124.009 91.3292 124.009 91.4857C124.009 91.7027 124.089 91.867 124.249 91.9785C124.41 92.088 124.614 92.1428 124.862 92.1428ZM128.063 92.7471V88.2412H128.911V88.957H128.958C129.04 88.7145 129.185 88.5238 129.392 88.385C129.602 88.2442 129.838 88.1738 130.102 88.1738C130.157 88.1738 130.222 88.1757 130.296 88.1796C130.372 88.1835 130.432 88.1884 130.475 88.1943V89.0333C130.44 89.0235 130.377 89.0127 130.287 89.001C130.197 88.9873 130.107 88.9805 130.017 88.9805C129.81 88.9805 129.625 89.0245 129.463 89.1125C129.302 89.1985 129.175 89.3188 129.081 89.4733C128.988 89.6258 128.941 89.7999 128.941 89.9955V92.7471H128.063ZM133.603 88.2412V88.9453H131.142V88.2412H133.603ZM131.802 87.1617H132.679V91.4241C132.679 91.5942 132.705 91.7223 132.756 91.8084C132.806 91.8924 132.872 91.9501 132.952 91.9814C133.034 92.0108 133.123 92.0254 133.219 92.0254C133.289 92.0254 133.351 92.0205 133.404 92.0108C133.457 92.001 133.498 91.9932 133.527 91.9873L133.685 92.7119C133.635 92.7314 133.562 92.751 133.468 92.7705C133.375 92.7921 133.257 92.8038 133.116 92.8057C132.886 92.8097 132.671 92.7686 132.471 92.6825C132.272 92.5965 132.11 92.4635 131.987 92.2836C131.864 92.1037 131.802 91.8778 131.802 91.6059V87.1617Z" fill="#008F7E"/>
<line x1="-1.80885" y1="100.379" x2="218.191" y2="101.375" stroke="#E0E0E0" stroke-width="0.750973"/>
<path d="M78.7897 110.531V109.751H83.4393V110.531H81.5648V115.759H80.6612V110.531H78.7897ZM85.0945 115.859C84.8089 115.859 84.5508 115.806 84.32 115.7C84.0893 115.593 83.9064 115.437 83.7715 115.234C83.6385 115.03 83.572 114.781 83.572 114.486C83.572 114.231 83.6209 114.022 83.7187 113.858C83.8165 113.694 83.9485 113.564 84.1147 113.468C84.2809 113.372 84.4667 113.3 84.6721 113.251C84.8774 113.202 85.0867 113.165 85.2998 113.139C85.5697 113.108 85.7887 113.082 85.9569 113.063C86.1251 113.041 86.2473 113.007 86.3236 112.96C86.3999 112.913 86.438 112.837 86.438 112.731V112.711C86.438 112.455 86.3657 112.256 86.2209 112.115C86.0782 111.975 85.865 111.904 85.5814 111.904C85.2861 111.904 85.0534 111.97 84.8833 112.101C84.7151 112.23 84.5987 112.374 84.5342 112.532L83.7099 112.344C83.8076 112.07 83.9504 111.849 84.1382 111.681C84.3279 111.511 84.5459 111.388 84.7923 111.312C85.0387 111.233 85.2979 111.194 85.5697 111.194C85.7496 111.194 85.9403 111.216 86.1417 111.259C86.3451 111.3 86.5348 111.376 86.7108 111.488C86.8888 111.599 87.0345 111.758 87.1479 111.966C87.2613 112.171 87.3181 112.438 87.3181 112.767V115.759H86.4615V115.143H86.4263C86.3696 115.256 86.2845 115.368 86.1711 115.477C86.0576 115.587 85.9119 115.678 85.734 115.75C85.556 115.822 85.3428 115.859 85.0945 115.859ZM85.2851 115.154C85.5277 115.154 85.735 115.107 85.907 115.011C86.0811 114.915 86.2131 114.79 86.3031 114.635C86.395 114.479 86.4409 114.312 86.4409 114.134V113.553C86.4097 113.584 86.349 113.613 86.2591 113.641C86.1711 113.666 86.0703 113.689 85.9569 113.708C85.8435 113.726 85.733 113.743 85.6254 113.758C85.5179 113.772 85.4279 113.784 85.3556 113.793C85.1854 113.815 85.0299 113.851 84.8891 113.902C84.7503 113.953 84.6388 114.026 84.5547 114.122C84.4726 114.216 84.4315 114.341 84.4315 114.497C84.4315 114.714 84.5117 114.879 84.6721 114.99C84.8324 115.1 85.0368 115.154 85.2851 115.154ZM89.3634 109.751V115.759H88.4863V109.751H89.3634ZM91.3501 114.23L91.3443 113.16H91.4968L93.2921 111.253H94.3423L92.2947 113.424H92.1568L91.3501 114.23ZM90.5434 115.759V109.751H91.4205V115.759H90.5434ZM93.3889 115.759L91.7755 113.617L92.3798 113.004L94.4655 115.759H93.3889ZM99.4312 111.253V111.957H96.97V111.253H99.4312ZM97.63 110.173H98.5071V114.436C98.5071 114.606 98.5325 114.734 98.5834 114.82C98.6342 114.904 98.6997 114.962 98.7799 114.993C98.8621 115.022 98.951 115.037 99.0469 115.037C99.1173 115.037 99.1789 115.032 99.2317 115.022C99.2845 115.013 99.3256 115.005 99.3549 114.999L99.5133 115.724C99.4625 115.743 99.3901 115.763 99.2962 115.782C99.2023 115.804 99.085 115.816 98.9442 115.817C98.7134 115.821 98.4983 115.78 98.2988 115.694C98.0994 115.608 97.938 115.475 97.8148 115.295C97.6916 115.115 97.63 114.889 97.63 114.618V110.173ZM102.251 115.85C101.829 115.85 101.46 115.753 101.145 115.559C100.83 115.366 100.586 115.095 100.412 114.747C100.238 114.399 100.151 113.992 100.151 113.526C100.151 113.059 100.238 112.65 100.412 112.3C100.586 111.95 100.83 111.678 101.145 111.485C101.46 111.291 101.829 111.194 102.251 111.194C102.673 111.194 103.042 111.291 103.357 111.485C103.672 111.678 103.916 111.95 104.09 112.3C104.264 112.65 104.351 113.059 104.351 113.526C104.351 113.992 104.264 114.399 104.09 114.747C103.916 115.095 103.672 115.366 103.357 115.559C103.042 115.753 102.673 115.85 102.251 115.85ZM102.254 115.113C102.528 115.113 102.755 115.041 102.934 114.896C103.114 114.752 103.247 114.559 103.333 114.318C103.421 114.078 103.465 113.813 103.465 113.523C103.465 113.236 103.421 112.972 103.333 112.731C103.247 112.489 103.114 112.294 102.934 112.148C102.755 112.001 102.528 111.928 102.254 111.928C101.978 111.928 101.749 112.001 101.567 112.148C101.388 112.294 101.254 112.489 101.166 112.731C101.08 112.972 101.037 113.236 101.037 113.523C101.037 113.813 101.08 114.078 101.166 114.318C101.254 114.559 101.388 114.752 101.567 114.896C101.749 115.041 101.978 115.113 102.254 115.113ZM110.893 112.353L110.098 112.494C110.065 112.392 110.012 112.295 109.94 112.203C109.869 112.111 109.773 112.036 109.652 111.978C109.531 111.919 109.379 111.89 109.197 111.89C108.949 111.89 108.742 111.945 108.576 112.057C108.409 112.166 108.326 112.308 108.326 112.482C108.326 112.633 108.382 112.754 108.493 112.846C108.605 112.938 108.785 113.013 109.033 113.072L109.749 113.236C110.164 113.332 110.473 113.479 110.676 113.679C110.879 113.878 110.981 114.138 110.981 114.456C110.981 114.726 110.903 114.967 110.746 115.178C110.592 115.387 110.376 115.551 110.098 115.671C109.822 115.79 109.503 115.85 109.139 115.85C108.634 115.85 108.223 115.742 107.904 115.527C107.585 115.31 107.389 115.002 107.317 114.603L108.165 114.474C108.218 114.695 108.326 114.862 108.491 114.976C108.655 115.087 108.869 115.143 109.133 115.143C109.42 115.143 109.65 115.083 109.822 114.964C109.994 114.843 110.08 114.695 110.08 114.521C110.08 114.38 110.028 114.262 109.922 114.166C109.818 114.07 109.659 113.998 109.444 113.949L108.681 113.782C108.261 113.686 107.95 113.533 107.748 113.324C107.549 113.115 107.449 112.85 107.449 112.529C107.449 112.263 107.523 112.03 107.672 111.831C107.821 111.631 108.026 111.476 108.288 111.364C108.55 111.251 108.85 111.194 109.189 111.194C109.676 111.194 110.059 111.3 110.339 111.511C110.618 111.72 110.803 112.001 110.893 112.353ZM114.8 113.89V111.253H115.68V115.759H114.817V114.978H114.77C114.667 115.219 114.5 115.419 114.272 115.58C114.045 115.738 113.762 115.817 113.424 115.817C113.134 115.817 112.878 115.754 112.655 115.627C112.434 115.498 112.26 115.307 112.133 115.055C112.008 114.802 111.945 114.491 111.945 114.119V111.253H112.823V114.013C112.823 114.32 112.908 114.565 113.078 114.747C113.248 114.929 113.469 115.02 113.741 115.02C113.905 115.02 114.068 114.978 114.231 114.896C114.395 114.814 114.531 114.69 114.638 114.524C114.748 114.358 114.802 114.146 114.8 113.89ZM116.858 117.448V111.253H117.715V111.983H117.788C117.839 111.89 117.912 111.781 118.008 111.658C118.104 111.535 118.237 111.427 118.407 111.335C118.577 111.241 118.802 111.194 119.082 111.194C119.446 111.194 119.77 111.286 120.056 111.47C120.341 111.654 120.565 111.919 120.728 112.265C120.892 112.611 120.974 113.028 120.974 113.515C120.974 114.002 120.893 114.419 120.73 114.767C120.568 115.113 120.345 115.38 120.062 115.568C119.778 115.754 119.454 115.847 119.091 115.847C118.817 115.847 118.593 115.801 118.419 115.709C118.247 115.617 118.112 115.509 118.014 115.386C117.916 115.263 117.841 115.154 117.788 115.058H117.735V117.448H116.858ZM117.718 113.506C117.718 113.823 117.764 114.1 117.856 114.339C117.948 114.578 118.081 114.764 118.255 114.899C118.429 115.032 118.642 115.099 118.894 115.099C119.156 115.099 119.375 115.029 119.551 114.89C119.727 114.75 119.86 114.559 119.95 114.318C120.042 114.078 120.088 113.807 120.088 113.506C120.088 113.209 120.043 112.942 119.953 112.705C119.865 112.468 119.732 112.282 119.554 112.145C119.378 112.008 119.158 111.939 118.894 111.939C118.64 111.939 118.425 112.005 118.249 112.136C118.075 112.267 117.943 112.45 117.853 112.684C117.763 112.919 117.718 113.193 117.718 113.506ZM121.957 117.448V111.253H122.813V111.983H122.887C122.937 111.89 123.011 111.781 123.107 111.658C123.202 111.535 123.335 111.427 123.506 111.335C123.676 111.241 123.901 111.194 124.18 111.194C124.544 111.194 124.869 111.286 125.154 111.47C125.44 111.654 125.664 111.919 125.826 112.265C125.99 112.611 126.072 113.028 126.072 113.515C126.072 114.002 125.991 114.419 125.829 114.767C125.667 115.113 125.444 115.38 125.16 115.568C124.876 115.754 124.553 115.847 124.189 115.847C123.915 115.847 123.691 115.801 123.517 115.709C123.345 115.617 123.21 115.509 123.112 115.386C123.015 115.263 122.939 115.154 122.887 115.058H122.834V117.448H121.957ZM122.816 113.506C122.816 113.823 122.862 114.1 122.954 114.339C123.046 114.578 123.179 114.764 123.353 114.899C123.527 115.032 123.74 115.099 123.993 115.099C124.255 115.099 124.474 115.029 124.65 114.89C124.826 114.75 124.959 114.559 125.049 114.318C125.14 114.078 125.186 113.807 125.186 113.506C125.186 113.209 125.141 112.942 125.052 112.705C124.964 112.468 124.831 112.282 124.653 112.145C124.477 112.008 124.257 111.939 123.993 111.939C123.738 111.939 123.523 112.005 123.347 112.136C123.173 112.267 123.041 112.45 122.951 112.684C122.861 112.919 122.816 113.193 122.816 113.506ZM128.953 115.85C128.531 115.85 128.162 115.753 127.847 115.559C127.532 115.366 127.288 115.095 127.114 114.747C126.94 114.399 126.853 113.992 126.853 113.526C126.853 113.059 126.94 112.65 127.114 112.3C127.288 111.95 127.532 111.678 127.847 111.485C128.162 111.291 128.531 111.194 128.953 111.194C129.375 111.194 129.744 111.291 130.059 111.485C130.374 111.678 130.618 111.95 130.792 112.3C130.966 112.65 131.053 113.059 131.053 113.526C131.053 113.992 130.966 114.399 130.792 114.747C130.618 115.095 130.374 115.366 130.059 115.559C129.744 115.753 129.375 115.85 128.953 115.85ZM128.956 115.113C129.23 115.113 129.457 115.041 129.637 114.896C129.816 114.752 129.949 114.559 130.036 114.318C130.124 114.078 130.168 113.813 130.168 113.523C130.168 113.236 130.124 112.972 130.036 112.731C129.949 112.489 129.816 112.294 129.637 112.148C129.457 112.001 129.23 111.928 128.956 111.928C128.68 111.928 128.451 112.001 128.27 112.148C128.09 112.294 127.956 112.489 127.868 112.731C127.782 112.972 127.739 113.236 127.739 113.523C127.739 113.813 127.782 114.078 127.868 114.318C127.956 114.559 128.09 114.752 128.27 114.896C128.451 115.041 128.68 115.113 128.956 115.113ZM132.032 115.759V111.253H132.88V111.969H132.927C133.009 111.726 133.154 111.536 133.361 111.397C133.571 111.256 133.807 111.185 134.071 111.185C134.126 111.185 134.191 111.187 134.265 111.191C134.341 111.195 134.401 111.2 134.444 111.206V112.045C134.409 112.035 134.346 112.024 134.256 112.013C134.166 111.999 134.076 111.992 133.986 111.992C133.779 111.992 133.594 112.036 133.432 112.124C133.271 112.21 133.144 112.331 133.05 112.485C132.957 112.638 132.91 112.812 132.91 113.007V115.759H132.032ZM137.572 111.253V111.957H135.111V111.253H137.572ZM135.771 110.173H136.648V114.436C136.648 114.606 136.674 114.734 136.725 114.82C136.775 114.904 136.841 114.962 136.921 114.993C137.003 115.022 137.092 115.037 137.188 115.037C137.258 115.037 137.32 115.032 137.373 115.022C137.426 115.013 137.467 115.005 137.496 114.999L137.655 115.724C137.604 115.743 137.531 115.763 137.437 115.782C137.344 115.804 137.226 115.816 137.085 115.817C136.855 115.821 136.64 115.78 136.44 115.694C136.241 115.608 136.079 115.475 135.956 115.295C135.833 115.115 135.771 114.889 135.771 114.618V110.173Z" fill="#008F7E"/>
</g>
<defs>
<clipPath id="clip0_119_54">
<rect x="4.68945" y="7.75879" width="202" height="116" rx="9" fill="white"/>
</clipPath>
</defs>
</svg>
