<svg width="558" height="555" viewBox="0 0 558 555" fill="none" xmlns="http://www.w3.org/2000/svg">
<rect x="244.699" y="339.238" width="86.8192" height="72.0278" rx="4.82329" stroke="#010100" stroke-width="0.643105" stroke-dasharray="2.57 2.57"/>
<rect x="103.212" y="186.179" width="86.8192" height="86.8192" rx="4.82329" stroke="#010100" stroke-width="0.643105" stroke-dasharray="2.57 2.57"/>
<rect x="86.1719" y="167.851" width="66.8829" height="66.8829" rx="6.68829" fill="#0C1018"/>
<rect x="83.6016" y="165.277" width="66.8829" height="66.8829" rx="6.68829" fill="#6366F1"/>
<path opacity="0.6" d="M129.694 191.062C128.724 189.15 126 189.132 125.004 191.03L114.686 210.709C113.714 212.564 111.073 212.601 110.049 210.774L104.146 200.244C103.123 198.418 100.483 198.454 99.5096 200.306L88.851 220.577C87.9274 222.334 89.2013 224.443 91.1861 224.443H142.331C144.299 224.443 145.574 222.367 144.683 220.612L129.694 191.062Z" fill="url(#paint0_linear_118_1027)"/>
<circle opacity="0.6" cx="96.4671" cy="179.426" r="5.14484" fill="url(#paint1_linear_118_1027)"/>
<g clip-path="url(#clip0_118_1027)">
<rect x="180.066" y="61.0957" width="356.28" height="167.207" rx="7.71726" fill="url(#paint2_linear_118_1027)"/>
<line x1="187.339" y1="218.156" x2="529.07" y2="218.156" stroke="#98A2B3" stroke-width="0.401563" stroke-linecap="round" stroke-dasharray="1.2 2.41"/>
<line x1="187.339" y1="193.661" x2="529.07" y2="193.661" stroke="#98A2B3" stroke-width="0.401563" stroke-linecap="round" stroke-dasharray="1.2 2.41"/>
<line x1="187.339" y1="169.165" x2="529.07" y2="169.165" stroke="#98A2B3" stroke-width="0.401563" stroke-linecap="round" stroke-dasharray="1.2 2.41"/>
<line x1="187.339" y1="144.67" x2="529.07" y2="144.67" stroke="#98A2B3" stroke-width="0.401563" stroke-linecap="round" stroke-dasharray="1.2 2.41"/>
<line x1="187.339" y1="120.175" x2="529.07" y2="120.175" stroke="#98A2B3" stroke-width="0.401563" stroke-linecap="round" stroke-dasharray="1.2 2.41"/>
<line x1="187.339" y1="95.6791" x2="529.07" y2="95.6791" stroke="#98A2B3" stroke-width="0.401563" stroke-linecap="round" stroke-dasharray="1.2 2.41"/>
<line x1="187.339" y1="71.184" x2="529.07" y2="71.184" stroke="#98A2B3" stroke-width="0.401563" stroke-linecap="round" stroke-dasharray="1.2 2.41"/>
<path d="M227.29 154.814C202.336 154.814 180.068 174.772 180.068 174.772V228.304H536.349V113.634C536.349 113.634 524.769 108.646 506.459 107.031C473.455 104.119 468.849 125.374 439.856 125.374C418.56 125.374 417.089 144.248 388.694 143.038C360.299 141.827 347.49 172.326 301.715 171.982C267.424 171.724 246.574 154.814 227.29 154.814Z" fill="url(#paint3_linear_118_1027)"/>
<rect x="204.26" y="216.227" width="37.9432" height="15.4345" rx="7.71726" transform="rotate(-90 204.26 216.227)" fill="#00B6AB"/>
<rect x="252.576" y="216.227" width="55.4499" height="16.0776" rx="8.03882" transform="rotate(-90 252.576 216.227)" fill="#00B6AB"/>
<rect x="301.535" y="216.227" width="72.8137" height="16.0776" rx="8.03882" transform="rotate(-90 301.535 216.227)" fill="#00B6AB"/>
<rect x="350.494" y="216.227" width="65.7396" height="16.0776" rx="8.03881" transform="rotate(-90 350.494 216.227)" fill="#00B6AB"/>
<rect x="399.453" y="216.227" width="79.2448" height="15.4345" rx="7.71727" transform="rotate(-90 399.453 216.227)" fill="#00B6AB"/>
<rect x="447.77" y="216.227" width="98.5379" height="16.0776" rx="8.03882" transform="rotate(-90 447.77 216.227)" fill="#00B6AB"/>
<rect x="496.73" y="216.227" width="109.078" height="15.4345" rx="7.71727" transform="rotate(-90 496.73 216.227)" fill="#00B6AB"/>
</g>
<rect x="343.414" y="276.414" width="38.945" height="38.945" rx="6.21462" fill="#010100" stroke="#010100" stroke-width="0.828616"/>
<rect x="346.727" y="279.729" width="38.945" height="38.945" rx="6.21462" fill="#155A03" stroke="#010100" stroke-width="0.828616"/>
<g clip-path="url(#clip1_118_1027)">
<path d="M355.513 298.856C355.512 300.873 356.043 302.842 357.053 304.577L355.416 310.507L361.531 308.916C363.223 309.829 365.118 310.308 367.044 310.308H367.049C373.406 310.308 378.581 305.175 378.584 298.865C378.585 295.808 377.386 292.933 375.208 290.77C373.03 288.607 370.134 287.415 367.048 287.414C360.69 287.414 355.515 292.547 355.513 298.856" fill="url(#paint4_linear_118_1027)"/>
<path d="M355.1 298.853C355.1 300.942 355.65 302.981 356.695 304.779L355 310.921L361.335 309.273C363.08 310.217 365.045 310.715 367.045 310.715H367.05C373.635 310.715 378.996 305.397 378.999 298.862C379 295.695 377.758 292.717 375.502 290.476C373.246 288.236 370.246 287.001 367.05 287C360.463 287 355.103 292.317 355.1 298.853ZM358.873 304.469L358.636 304.096C357.642 302.528 357.117 300.715 357.118 298.853C357.12 293.421 361.575 289.002 367.053 289.002C369.706 289.003 372.2 290.029 374.075 291.891C375.95 293.753 376.982 296.229 376.981 298.861C376.979 304.293 372.524 308.713 367.05 308.713H367.046C365.263 308.713 363.515 308.238 361.991 307.34L361.628 307.127L357.869 308.104L358.873 304.469Z" fill="url(#paint5_linear_118_1027)"/>
<path d="M364.064 293.898C363.84 293.404 363.605 293.394 363.392 293.386C363.218 293.378 363.019 293.379 362.82 293.379C362.621 293.379 362.297 293.453 362.024 293.75C361.75 294.046 360.979 294.763 360.979 296.22C360.979 297.678 362.048 299.087 362.198 299.284C362.347 299.482 364.263 302.569 367.298 303.756C369.82 304.743 370.333 304.547 370.881 304.498C371.428 304.448 372.647 303.781 372.896 303.089C373.145 302.398 373.145 301.805 373.07 301.681C372.996 301.557 372.796 301.483 372.498 301.335C372.199 301.187 370.731 300.47 370.458 300.371C370.184 300.272 369.985 300.223 369.786 300.52C369.587 300.816 369.015 301.483 368.841 301.681C368.667 301.879 368.492 301.903 368.194 301.755C367.895 301.607 366.933 301.294 365.793 300.285C364.905 299.5 364.306 298.53 364.132 298.233C363.957 297.937 364.113 297.776 364.263 297.629C364.397 297.496 364.561 297.283 364.711 297.11C364.86 296.937 364.909 296.813 365.009 296.616C365.109 296.418 365.059 296.245 364.984 296.097C364.909 295.949 364.329 294.483 364.064 293.898Z" fill="white"/>
</g>
<rect x="313.844" y="357.567" width="131.193" height="169.137" rx="5.14484" fill="#6366F1"/>
<rect x="320.593" y="351.458" width="130.55" height="168.493" rx="4.82329" fill="white" stroke="#3D3FA1" stroke-width="0.643105"/>
<rect x="326.707" y="353.709" width="122.19" height="160.133" rx="5.14484" fill="#F2F4F7"/>
<path d="M346.584 382.717C340.349 383.358 331.201 375.12 331.201 375.12V431.476H441.172V380.902C433.847 378.408 431.682 373.094 425.331 373.986C417.911 375.028 417.995 389.125 410.589 390.314C401.624 391.752 399.27 372.516 390.628 375.8C385.642 377.694 385.781 385.263 380.738 386.912C371.761 389.848 371.887 367.428 362.608 367.863C354.797 368.229 354.374 381.915 346.584 382.717Z" fill="url(#paint6_linear_118_1027)"/>
<line x1="334.419" y1="445.03" x2="437.959" y2="445.03" stroke="#D0D5DD" stroke-width="6.43105" stroke-linecap="round"/>
<line x1="333.132" y1="474.613" x2="439.245" y2="474.613" stroke="#EAECF0" stroke-width="3.85863" stroke-linecap="round"/>
<line x1="334.419" y1="457.891" x2="404.121" y2="457.891" stroke="#D0D5DD" stroke-width="6.43105" stroke-linecap="round"/>
<line x1="333.132" y1="484.902" x2="405.408" y2="484.902" stroke="#EAECF0" stroke-width="3.85863" stroke-linecap="round"/>
<line x1="333.132" y1="496.478" x2="382.849" y2="496.478" stroke="#EAECF0" stroke-width="3.85863" stroke-linecap="round"/>
<line x1="333.132" y1="508.054" x2="427.261" y2="508.054" stroke="#EAECF0" stroke-width="3.85863" stroke-linecap="round"/>
<line x1="518.988" y1="44.6966" x2="433.455" y2="44.6966" stroke="#383838" stroke-width="0.643105"/>
<line x1="525.089" y1="-1.40555e-08" x2="525.089" y2="30.869" stroke="#383838" stroke-width="0.643105" stroke-dasharray="2.57 2.57"/>
<line x1="369.143" y1="44.0534" x2="429.594" y2="44.0535" stroke="#383838" stroke-width="0.643105" stroke-dasharray="2.57 2.57"/>
<circle cx="524.776" cy="43.7313" r="5.46639" stroke="#383838" stroke-width="0.643105"/>
<rect x="63.6432" y="422.491" width="52.7931" height="52.7931" rx="9.2081" fill="white" stroke="#010100" stroke-width="1.22775"/>
<path d="M102.409 448.144C99.6809 442.398 95.5574 439.506 90.0297 439.506C84.4991 439.506 80.3784 442.398 77.6505 448.147C77.5411 448.379 77.4844 448.632 77.4844 448.888C77.4844 449.144 77.5411 449.397 77.6505 449.629C80.3784 455.375 84.5019 458.267 90.0297 458.267C95.5603 458.267 99.6809 455.375 102.409 449.626C102.63 449.16 102.63 448.619 102.409 448.144ZM90.0297 456.196C85.3882 456.196 81.9899 453.842 79.5929 448.887C81.9899 443.931 85.3882 441.578 90.0297 441.578C94.6711 441.578 98.0695 443.931 100.466 448.887C98.0724 453.842 94.674 456.196 90.0297 456.196ZM89.9146 443.822C87.1176 443.822 84.8501 446.09 84.8501 448.887C84.8501 451.684 87.1176 453.951 89.9146 453.951C92.7115 453.951 94.979 451.684 94.979 448.887C94.979 446.09 92.7115 443.822 89.9146 443.822ZM89.9146 452.109C88.1334 452.109 86.6917 450.668 86.6917 448.887C86.6917 447.105 88.1334 445.664 89.9146 445.664C91.6958 445.664 93.1374 447.105 93.1374 448.887C93.1374 450.668 91.6958 452.109 89.9146 452.109Z" fill="#010100"/>
<rect x="150.432" y="419.274" width="143.111" height="52.5964" rx="9.17379" fill="#010100" stroke="#010100" stroke-width="1.22317"/>
<rect x="155.332" y="424.166" width="143.111" height="52.5964" rx="9.17379" fill="white" stroke="#010100" stroke-width="1.22317"/>
<path d="M204.675 452.942C205.849 451.927 206.772 451.095 207.445 450.447C208.13 449.786 208.699 449.101 209.152 448.392C209.604 447.683 209.83 446.973 209.83 446.264C209.83 445.53 209.653 444.955 209.298 444.539C208.956 444.123 208.412 443.915 207.665 443.915C206.944 443.915 206.381 444.148 205.977 444.612C205.586 445.065 205.378 445.677 205.354 446.447H203.335C203.372 445.053 203.788 443.989 204.583 443.255C205.39 442.509 206.412 442.136 207.647 442.136C208.98 442.136 210.02 442.502 210.766 443.236C211.524 443.97 211.904 444.949 211.904 446.172C211.904 447.053 211.677 447.903 211.225 448.722C210.784 449.53 210.252 450.257 209.629 450.906C209.017 451.542 208.234 452.282 207.28 453.126L206.454 453.86H212.271V455.603H203.354V454.08L204.675 452.942ZM214.071 445.713C214.145 444.576 214.579 443.689 215.374 443.053C216.181 442.417 217.209 442.099 218.456 442.099C219.313 442.099 220.053 442.252 220.677 442.558C221.3 442.863 221.771 443.279 222.089 443.805C222.407 444.331 222.566 444.924 222.566 445.585C222.566 446.343 222.365 446.992 221.961 447.53C221.557 448.068 221.074 448.429 220.511 448.612V448.686C221.233 448.906 221.796 449.309 222.199 449.897C222.603 450.471 222.805 451.211 222.805 452.117C222.805 452.838 222.64 453.48 222.309 454.043C221.979 454.606 221.49 455.052 220.842 455.382C220.193 455.701 219.417 455.86 218.512 455.86C217.19 455.86 216.102 455.523 215.246 454.85C214.402 454.165 213.949 453.187 213.888 451.915H215.906C215.955 452.563 216.206 453.095 216.658 453.511C217.111 453.915 217.723 454.117 218.493 454.117C219.239 454.117 219.814 453.915 220.218 453.511C220.621 453.095 220.823 452.563 220.823 451.915C220.823 451.059 220.548 450.453 219.998 450.098C219.459 449.731 218.628 449.548 217.502 449.548H217.025V447.823H217.521C218.512 447.811 219.264 447.646 219.778 447.328C220.303 447.01 220.566 446.508 220.566 445.823C220.566 445.236 220.377 444.771 219.998 444.429C219.618 444.074 219.08 443.897 218.383 443.897C217.698 443.897 217.166 444.074 216.787 444.429C216.408 444.771 216.181 445.2 216.108 445.713H214.071ZM224.965 445.713C225.039 444.576 225.473 443.689 226.268 443.053C227.075 442.417 228.103 442.099 229.35 442.099C230.207 442.099 230.947 442.252 231.57 442.558C232.194 442.863 232.665 443.279 232.983 443.805C233.301 444.331 233.46 444.924 233.46 445.585C233.46 446.343 233.258 446.992 232.855 447.53C232.451 448.068 231.968 448.429 231.405 448.612V448.686C232.127 448.906 232.69 449.309 233.093 449.897C233.497 450.471 233.699 451.211 233.699 452.117C233.699 452.838 233.534 453.48 233.203 454.043C232.873 454.606 232.384 455.052 231.736 455.382C231.087 455.701 230.311 455.86 229.405 455.86C228.084 455.86 226.996 455.523 226.14 454.85C225.296 454.165 224.843 453.187 224.782 451.915H226.8C226.849 452.563 227.1 453.095 227.552 453.511C228.005 453.915 228.616 454.117 229.387 454.117C230.133 454.117 230.708 453.915 231.112 453.511C231.515 453.095 231.717 452.563 231.717 451.915C231.717 451.059 231.442 450.453 230.892 450.098C230.353 449.731 229.522 449.548 228.396 449.548H227.919V447.823H228.415C229.405 447.811 230.158 447.646 230.671 447.328C231.197 447.01 231.46 446.508 231.46 445.823C231.46 445.236 231.271 444.771 230.892 444.429C230.512 444.074 229.974 443.897 229.277 443.897C228.592 443.897 228.06 444.074 227.681 444.429C227.302 444.771 227.075 445.2 227.002 445.713H224.965ZM238.465 453.273L236.244 458.336H234.887L236.189 453.273H238.465ZM239.76 452.997V451.419L245.925 442.576H248.457V451.181H250.163V452.997H248.457V455.786H246.402V452.997H239.76ZM246.494 444.704L242.164 451.181H246.494V444.704ZM251.86 445.713C251.933 444.576 252.367 443.689 253.162 443.053C253.97 442.417 254.997 442.099 256.245 442.099C257.101 442.099 257.841 442.252 258.465 442.558C259.089 442.863 259.559 443.279 259.877 443.805C260.195 444.331 260.354 444.924 260.354 445.585C260.354 446.343 260.153 446.992 259.749 447.53C259.345 448.068 258.862 448.429 258.3 448.612V448.686C259.021 448.906 259.584 449.309 259.988 449.897C260.391 450.471 260.593 451.211 260.593 452.117C260.593 452.838 260.428 453.48 260.098 454.043C259.767 454.606 259.278 455.052 258.63 455.382C257.982 455.701 257.205 455.86 256.3 455.86C254.979 455.86 253.89 455.523 253.034 454.85C252.19 454.165 251.737 453.187 251.676 451.915H253.694C253.743 452.563 253.994 453.095 254.447 453.511C254.899 453.915 255.511 454.117 256.281 454.117C257.027 454.117 257.602 453.915 258.006 453.511C258.41 453.095 258.611 452.563 258.611 451.915C258.611 451.059 258.336 450.453 257.786 450.098C257.248 449.731 256.416 449.548 255.291 449.548H254.814V447.823H255.309C256.3 447.811 257.052 447.646 257.566 447.328C258.092 447.01 258.355 446.508 258.355 445.823C258.355 445.236 258.165 444.771 257.786 444.429C257.407 444.074 256.868 443.897 256.171 443.897C255.486 443.897 254.954 444.074 254.575 444.429C254.196 444.771 253.97 445.2 253.896 445.713H251.86ZM263.946 452.942C265.12 451.927 266.044 451.095 266.717 450.447C267.401 449.786 267.97 449.101 268.423 448.392C268.875 447.683 269.102 446.973 269.102 446.264C269.102 445.53 268.924 444.955 268.57 444.539C268.227 444.123 267.683 443.915 266.937 443.915C266.215 443.915 265.652 444.148 265.249 444.612C264.857 445.065 264.649 445.677 264.625 446.447H262.607C262.643 445.053 263.059 443.989 263.854 443.255C264.662 442.509 265.683 442.136 266.918 442.136C268.252 442.136 269.291 442.502 270.037 443.236C270.796 443.97 271.175 444.949 271.175 446.172C271.175 447.053 270.949 447.903 270.496 448.722C270.056 449.53 269.524 450.257 268.9 450.906C268.288 451.542 267.505 452.282 266.551 453.126L265.726 453.86H271.542V455.603H262.625V454.08L263.946 452.942Z" fill="#010100"/>
<path d="M185.001 456.57C183.432 456.496 181.952 455.82 180.868 454.683C179.784 453.546 179.18 452.035 179.181 450.465C179.181 447.091 181.923 444.349 185.297 444.349C188.579 444.349 191.249 446.928 191.402 450.169L189.262 449.527C189.095 448.82 188.743 448.171 188.241 447.646C187.74 447.121 187.107 446.74 186.409 446.541C185.71 446.343 184.972 446.334 184.269 446.517C183.566 446.7 182.925 447.067 182.412 447.58C181.899 448.093 181.532 448.734 181.349 449.437C181.167 450.14 181.175 450.878 181.373 451.577C181.572 452.275 181.953 452.908 182.478 453.409C183.003 453.911 183.652 454.263 184.359 454.43L185.001 456.57ZM195.49 450.465C195.49 450.77 195.48 451.076 195.449 451.382L193.441 450.781C193.451 450.679 193.451 450.567 193.451 450.465C193.451 445.959 189.802 442.31 185.297 442.31C180.791 442.31 177.142 445.959 177.142 450.465C177.142 454.97 180.791 458.619 185.297 458.619C185.399 458.619 185.511 458.619 185.613 458.609L186.214 460.617C185.908 460.647 185.602 460.658 185.297 460.658C179.67 460.658 175.104 456.091 175.104 450.465C175.104 444.838 179.67 440.271 185.297 440.271C190.923 440.271 195.49 444.838 195.49 450.465ZM191.647 454.807L195.49 453.523L185.297 450.465L188.355 460.658L189.639 456.815L193.991 461.167L196.01 459.149L191.647 454.807Z" fill="#010100"/>
<line x1="469.137" y1="543.425" x2="469.137" y2="421.878" stroke="#383838" stroke-width="0.675667"/>
<line x1="398.908" y1="549.257" x2="463.097" y2="549.257" stroke="#383838" stroke-width="0.675667"/>
<circle cx="469.181" cy="548.92" r="5.74317" transform="rotate(-90 469.181 548.92)" stroke="#383838" stroke-width="0.675667"/>
<path d="M483.941 252.74L557.577 252.74" stroke="#383838" stroke-width="0.643105" stroke-dasharray="2.57 2.57"/>
<path d="M467.543 252.74H484.907" stroke="#383838" stroke-width="0.643105"/>
<line x1="467.865" y1="252.74" x2="467.865" y2="279.108" stroke="#383838" stroke-width="0.643105"/>
<path d="M285.541 81.6747C285.541 125.717 249.838 161.42 205.796 161.42C161.754 161.42 126.051 125.717 126.051 81.6747C126.051 37.6327 161.754 1.92969 205.796 1.92969C249.838 1.92969 285.541 37.6327 285.541 81.6747ZM153.308 81.6747C153.308 110.663 176.808 134.163 205.796 134.163C234.784 134.163 258.284 110.663 258.284 81.6747C258.284 52.6865 234.784 29.1869 205.796 29.1869C176.808 29.1869 153.308 52.6865 153.308 81.6747Z" fill="#6366F1"/>
<g filter="url(#filter0_d_118_1027)">
<path d="M160.547 147.339C169.869 153.763 180.451 158.128 191.59 160.144C202.729 162.161 214.17 161.783 225.152 159.035C236.133 156.287 246.404 151.233 255.281 144.208C264.158 137.184 271.438 128.35 276.636 118.293C281.834 108.237 284.832 97.1897 285.43 85.8853C286.027 74.5809 284.211 63.2788 280.103 52.7306C275.994 42.1824 269.686 32.6298 261.6 24.7082C253.513 16.7865 243.833 10.6774 233.202 6.78695L223.834 32.3839C230.831 34.9446 237.203 38.9656 242.526 44.1796C247.848 49.3936 252 55.681 254.704 62.6238C257.409 69.5666 258.604 77.0056 258.21 84.4461C257.817 91.8866 255.844 99.1581 252.423 105.777C249.001 112.396 244.21 118.21 238.367 122.834C232.524 127.458 225.764 130.784 218.536 132.593C211.308 134.401 203.777 134.65 196.446 133.323C189.114 131.996 182.149 129.123 176.014 124.895L160.547 147.339Z" fill="#FFAA22"/>
</g>
<path d="M129.783 57.5655C124.315 74.8032 124.869 93.3874 131.354 110.269C137.838 127.15 149.868 141.327 165.469 150.472L179.253 126.956C168.984 120.937 161.066 111.607 156.798 100.495C152.53 89.3839 152.166 77.1519 155.764 65.8061L129.783 57.5655Z" fill="#1AF8EB"/>
<line x1="51.1223" y1="356.28" x2="51.1223" y2="457.891" stroke="#383838" stroke-width="0.643105"/>
<line x1="36.9739" y1="424.448" x2="36.9739" y2="457.89" stroke="#383838" stroke-width="0.643105"/>
<path d="M1.29239 499.049H0V498.406H1.29239V499.049Z" fill="#06514F"/>
<path d="M6.46197 499.049H3.87718V498.406H6.46197V499.049Z" fill="#06514F"/>
<path d="M11.6315 499.049H9.04675V498.406H11.6315V499.049Z" fill="#06514F"/>
<path d="M16.8011 499.049H14.2163V498.406H16.8011V499.049Z" fill="#06514F"/>
<path d="M21.9707 499.049H19.3859V498.406H21.9707V499.049Z" fill="#06514F"/>
<path d="M134.409 499.049L24.5555 499.049V498.406L134.409 498.406V499.049Z" fill="#06514F"/>
<path d="M32.3098 499.049H29.7251V498.406H32.3098V499.049Z" fill="#06514F"/>
<path d="M37.4794 499.049H34.8946V498.406H37.4794V499.049Z" fill="#06514F"/>
<path d="M42.649 499.049H40.0642V498.406H42.649V499.049Z" fill="#06514F"/>
<path d="M47.8186 499.049H45.2338V498.406H47.8186V499.049Z" fill="#06514F"/>
<path d="M52.9881 499.049H50.4034V498.406H52.9881V499.049Z" fill="#06514F"/>
<path d="M58.1577 499.049H55.5729V498.406H58.1577V499.049Z" fill="#06514F"/>
<path d="M63.3273 499.049H60.7425V498.406H63.3273V499.049Z" fill="#06514F"/>
<path d="M68.4969 499.049H65.9121V498.406H68.4969V499.049Z" fill="#06514F"/>
<path d="M73.6665 499.049H71.0817V498.406H73.6665V499.049Z" fill="#06514F"/>
<path d="M78.836 499.049H76.2512V498.406H78.836V499.049Z" fill="#06514F"/>
<path d="M84.0056 499.049H81.4208V498.406H84.0056V499.049Z" fill="#06514F"/>
<path d="M89.1752 499.049H86.5904V498.406H89.1752V499.049Z" fill="#06514F"/>
<path d="M94.3447 499.049H91.76V498.406H94.3447V499.049Z" fill="#06514F"/>
<path d="M99.5143 499.049H96.9295V498.406H99.5143V499.049Z" fill="#06514F"/>
<path d="M104.684 499.049H102.099V498.406H104.684V499.049Z" fill="#06514F"/>
<path d="M109.853 499.049H107.269V498.406H109.853V499.049Z" fill="#06514F"/>
<path d="M115.023 499.049H112.438V498.406H115.023V499.049Z" fill="#06514F"/>
<path d="M120.193 499.049H117.608V498.406H120.193V499.049Z" fill="#06514F"/>
<path d="M125.362 499.049H122.777V498.406H125.362V499.049Z" fill="#06514F"/>
<path d="M130.532 499.049H127.947V498.406H130.532V499.049Z" fill="#06514F"/>
<path d="M134.409 499.049H133.117V498.406H134.409V499.049Z" fill="#06514F"/>
<path d="M213.511 499.049H214.69V498.406H213.511V499.049Z" fill="#06514F"/>
<path d="M217.048 499.049H219.406V498.406H217.048V499.049Z" fill="#06514F"/>
<path d="M221.764 499.049H224.122V498.406H221.764V499.049Z" fill="#06514F"/>
<path d="M226.48 499.049H228.838V498.406H226.48V499.049Z" fill="#06514F"/>
<path d="M231.196 499.049H233.554V498.406H231.196V499.049Z" fill="#06514F"/>
<path d="M235.912 499.049H238.27V498.406H235.912V499.049Z" fill="#06514F"/>
<path d="M240.628 499.049H241.807V498.406H240.628V499.049Z" fill="#06514F"/>
<path d="M0 512.555L66.2398 512.555V511.911L0 511.911V512.555Z" fill="#06514F"/>
<path d="M89.3916 512.555H75.8864V511.911H89.3916V512.555Z" fill="#06514F"/>
<path fill-rule="evenodd" clip-rule="evenodd" d="M162.706 499.049C162.706 504.022 158.675 508.053 153.702 508.053C148.73 508.053 144.699 504.022 144.699 499.049C144.699 494.077 148.73 490.046 153.702 490.046C158.675 490.046 162.706 494.077 162.706 499.049ZM162.062 499.049C162.062 503.667 158.319 507.41 153.702 507.41C149.085 507.41 145.342 503.667 145.342 499.049C145.342 494.432 149.085 490.689 153.702 490.689C158.319 490.689 162.062 494.432 162.062 499.049Z" fill="#06514F"/>
<path d="M209.009 499.049H211.367V498.406H209.009V499.049Z" fill="#06514F"/>
<path d="M187.465 499.049H188.644V498.406H187.465V499.049Z" fill="#06514F"/>
<path d="M191.002 499.049H193.36V498.406H191.002V499.049Z" fill="#06514F"/>
<path d="M195.718 499.049H198.076V498.406H195.718V499.049Z" fill="#06514F"/>
<path d="M200.434 499.049H202.792V498.406H200.434V499.049Z" fill="#06514F"/>
<path d="M205.15 499.049H207.509V498.406H205.15V499.049Z" fill="#06514F"/>
<path d="M182.963 499.049H185.321V498.406H182.963V499.049Z" fill="#06514F"/>
<path d="M170.423 499.049H171.602V498.406H170.423V499.049Z" fill="#06514F"/>
<path d="M173.96 499.049H176.318V498.406H173.96V499.049Z" fill="#06514F"/>
<path d="M178.676 499.049H181.034V498.406H178.676V499.049Z" fill="#06514F"/>
<defs>
<filter id="filter0_d_118_1027" x="160.547" y="6.78711" width="131.425" height="157.205" filterUnits="userSpaceOnUse" color-interpolation-filters="sRGB">
<feFlood flood-opacity="0" result="BackgroundImageFix"/>
<feColorMatrix in="SourceAlpha" type="matrix" values="0 0 0 0 0 0 0 0 0 0 0 0 0 0 0 0 0 0 127 0" result="hardAlpha"/>
<feOffset dx="6.43105" dy="2.57242"/>
<feComposite in2="hardAlpha" operator="out"/>
<feColorMatrix type="matrix" values="0 0 0 0 0.0117647 0 0 0 0 0.160784 0 0 0 0 0.156863 0 0 0 1 0"/>
<feBlend mode="normal" in2="BackgroundImageFix" result="effect1_dropShadow_118_1027"/>
<feBlend mode="normal" in="SourceGraphic" in2="effect1_dropShadow_118_1027" result="shape"/>
</filter>
<linearGradient id="paint0_linear_118_1027" x1="116.723" y1="186.5" x2="116.723" y2="224.443" gradientUnits="userSpaceOnUse">
<stop stop-color="#E0E0FC"/>
<stop offset="1" stop-color="white"/>
</linearGradient>
<linearGradient id="paint1_linear_118_1027" x1="96.4671" y1="174.281" x2="96.4671" y2="184.571" gradientUnits="userSpaceOnUse">
<stop stop-color="#E0E0FC"/>
<stop offset="1" stop-color="white"/>
</linearGradient>
<linearGradient id="paint2_linear_118_1027" x1="358.206" y1="61.0957" x2="358.206" y2="228.303" gradientUnits="userSpaceOnUse">
<stop stop-color="#06514F"/>
<stop offset="1" stop-color="#032928"/>
</linearGradient>
<linearGradient id="paint3_linear_118_1027" x1="358.208" y1="151.774" x2="358.208" y2="217.152" gradientUnits="userSpaceOnUse">
<stop stop-color="#387472" stop-opacity="0.4"/>
<stop offset="1" stop-color="#387472" stop-opacity="0"/>
</linearGradient>
<linearGradient id="paint4_linear_118_1027" x1="367" y1="310.507" x2="367" y2="287.414" gradientUnits="userSpaceOnUse">
<stop stop-color="#1FAF38"/>
<stop offset="1" stop-color="#60D669"/>
</linearGradient>
<linearGradient id="paint5_linear_118_1027" x1="366.999" y1="310.921" x2="366.999" y2="287" gradientUnits="userSpaceOnUse">
<stop stop-color="#F9F9F9"/>
<stop offset="1" stop-color="white"/>
</linearGradient>
<linearGradient id="paint6_linear_118_1027" x1="386.187" y1="367.856" x2="385.825" y2="439.561" gradientUnits="userSpaceOnUse">
<stop stop-color="#8285F4"/>
<stop offset="0.504018" stop-color="#A1A3F7" stop-opacity="0.5"/>
<stop offset="1" stop-color="#EFF0FE" stop-opacity="0"/>
</linearGradient>
<clipPath id="clip0_118_1027">
<rect x="180.064" y="61.0957" width="356.28" height="167.207" rx="7.71726" fill="white"/>
</clipPath>
<clipPath id="clip1_118_1027">
<rect width="24" height="24" fill="white" transform="translate(355 287)"/>
</clipPath>
</defs>
</svg>
