<svg width="64" height="64" viewBox="0 0 64 64" fill="none" xmlns="http://www.w3.org/2000/svg">
<g clip-path="url(#clip0_63_960)">
<path d="M31.998 63.9961C49.6714 63.9961 63.998 49.6694 63.998 31.9961C63.998 14.3241 49.6714 -0.00390625 31.998 -0.00390625C14.3247 -0.00390625 -0.00195312 14.3241 -0.00195312 31.9961C-0.00195312 49.6694 14.3247 63.9961 31.998 63.9961Z" fill="#DAEDD5"/>
<path d="M45.9465 26.0723C45.9211 25.7826 45.7877 25.5129 45.5729 25.3169C45.358 25.1208 45.0774 25.0126 44.7865 25.0137H18.9865C18.6961 25.0135 18.4161 25.1218 18.2015 25.3174C17.9868 25.513 17.8531 25.7818 17.8265 26.071L15.7118 49.3443C15.6972 49.5055 15.7163 49.6679 15.7679 49.8212C15.8196 49.9746 15.9026 50.1155 16.0118 50.2349C16.1209 50.3543 16.2538 50.4497 16.4019 50.5149C16.55 50.5802 16.71 50.6138 16.8718 50.6137H46.9038C47.0656 50.6138 47.2257 50.5802 47.3737 50.5149C47.5218 50.4497 47.6547 50.3543 47.7638 50.2349C47.873 50.1155 47.956 49.9746 48.0077 49.8212C48.0593 49.6679 48.0785 49.5055 48.0638 49.3443L45.9465 26.0723Z" fill="#104502"/>
<path d="M26.7774 26.4126C26.4847 26.3248 26.1776 26.2955 25.8736 26.3264C25.5696 26.3572 25.2747 26.4477 25.0056 26.5925C24.7366 26.7374 24.4987 26.9338 24.3056 27.1706C24.1124 27.4074 23.9679 27.68 23.8801 27.9726C23.5107 29.2033 24.7334 33.226 24.7334 33.226C24.7334 33.226 27.9681 30.5406 28.3374 29.31C28.4252 29.0173 28.4545 28.7102 28.4237 28.4062C28.3928 28.1022 28.3024 27.8072 28.1575 27.5382C28.0126 27.2691 27.8162 27.0313 27.5794 26.8381C27.3426 26.645 27.0701 26.5004 26.7774 26.4126ZM24.4841 28.266C24.5468 28.0567 24.6502 27.8619 24.7883 27.6926C24.9263 27.5233 25.0964 27.3829 25.2887 27.2793C25.4811 27.1758 25.6919 27.1111 25.9093 27.089C26.1266 27.0669 26.3462 27.0879 26.5554 27.1506C26.7646 27.2134 26.9595 27.3168 27.1288 27.4548C27.298 27.5929 27.4385 27.763 27.542 27.9553C27.6456 28.1477 27.7103 28.3585 27.7324 28.5758C27.7544 28.7932 27.7335 29.0127 27.6707 29.222C27.4054 30.102 25.0947 32.0193 25.0947 32.0193C25.0947 32.0193 24.2201 29.1446 24.4841 28.266Z" fill="#95C289"/>
<path d="M26.1788 28.5046C26.8228 28.5046 27.3428 27.9846 27.3428 27.3406V20.3579C27.3445 19.1241 27.8356 17.9413 28.7081 17.069C29.5807 16.1967 30.7636 15.706 31.9974 15.7046C33.231 15.7064 34.4136 16.1972 35.2859 17.0695C36.1582 17.9418 36.649 19.1243 36.6508 20.3579V27.3406C36.6508 27.4935 36.6809 27.6448 36.7394 27.786C36.7979 27.9273 36.8836 28.0556 36.9917 28.1637C37.0998 28.2718 37.2281 28.3575 37.3693 28.416C37.5106 28.4745 37.6619 28.5046 37.8148 28.5046C37.9676 28.5046 38.119 28.4745 38.2602 28.416C38.4014 28.3575 38.5298 28.2718 38.6379 28.1637C38.7459 28.0556 38.8317 27.9273 38.8902 27.786C38.9487 27.6448 38.9788 27.4935 38.9788 27.3406V20.3579C38.9431 18.53 38.1918 16.789 36.8865 15.5089C35.5811 14.2288 33.8257 13.5117 31.9974 13.5117C30.1692 13.5117 28.4138 14.2288 27.1084 15.5089C25.8031 16.789 25.0518 18.53 25.0161 20.3579V27.3406C25.0161 27.9833 25.5361 28.5046 26.1788 28.5046ZM27.3441 40.1406C27.3445 40.2935 27.3146 40.4449 27.2562 40.5862C27.1978 40.7276 27.1121 40.8559 27.0039 40.964C26.8957 41.072 26.7673 41.1576 26.6259 41.2159C26.4845 41.2741 26.333 41.3038 26.1801 41.3033H23.8521C23.5439 41.3029 23.2483 41.1803 23.0304 40.9623C22.8124 40.7444 22.6898 40.4488 22.6895 40.1406V33.1579C22.6895 32.5153 23.2095 31.9953 23.8521 31.9953H26.1801C26.8228 31.9953 27.3428 32.5153 27.3428 33.1579L27.3441 40.1406Z" fill="#95C289"/>
</g>
<defs>
<clipPath id="clip0_63_960">
<rect width="64" height="64" fill="white"/>
</clipPath>
</defs>
</svg>
