<svg width="64" height="64" viewBox="0 0 64 64" fill="none" xmlns="http://www.w3.org/2000/svg">
<g clip-path="url(#clip0_63_982)">
<path d="M32 63.998C49.6733 63.998 64 49.6714 64 31.998C64 14.3247 49.6733 -0.00195312 32 -0.00195312C14.3267 -0.00195312 0 14.3247 0 31.998C0 49.6714 14.3267 63.998 32 63.998Z" fill="#DAEDD5"/>
<path d="M48.291 18.0332H15.707V43.6332H48.2924L48.291 18.0332Z" fill="#104502"/>
<path d="M50.6169 43.6334H13.3809V47.1241H50.6169V43.6334ZM27.3449 40.1427C27.3454 39.9897 27.3156 39.8381 27.2573 39.6967C27.199 39.5552 27.1133 39.4267 27.0051 39.3185C26.8969 39.2103 26.7684 39.1246 26.6269 39.0662C26.4855 39.0079 26.3339 38.9782 26.1809 38.9787H21.5275C21.3744 38.978 21.2227 39.0076 21.081 39.0659C20.9394 39.1241 20.8107 39.2098 20.7024 39.318C20.5941 39.4262 20.5082 39.5548 20.4498 39.6963C20.3915 39.8379 20.3617 39.9896 20.3622 40.1427V42.4694H27.3449V40.1427ZM43.6355 41.8881C43.6355 42.2081 43.3742 42.4707 43.0542 42.4707H39.5635C39.4093 42.4697 39.2617 42.4079 39.1527 42.2989C39.0436 42.1899 38.9819 42.0423 38.9809 41.8881C38.9809 41.5681 39.2435 41.3067 39.5635 41.3067H43.0542C43.3742 41.3067 43.6355 41.5681 43.6355 41.8881ZM21.9595 31.0467L24.3009 25.7587C24.4635 25.3947 24.7609 25.1734 25.1635 25.1734H25.2502C25.6542 25.1734 25.9422 25.3947 26.1035 25.7601L28.4462 31.0467C28.4943 31.1386 28.5203 31.2404 28.5222 31.3441C28.5222 31.7374 28.2155 32.0547 27.8222 32.0547C27.4755 32.0547 27.2462 31.8534 27.1115 31.5454L26.6609 30.4907H23.7049L23.2342 31.5947C23.1812 31.7316 23.0877 31.8489 22.9662 31.9311C22.8447 32.0133 22.7009 32.0565 22.5542 32.0547C22.4638 32.0551 22.3742 32.0374 22.2907 32.0027C22.2071 31.9681 22.1314 31.9171 22.0678 31.8528C22.0042 31.7884 21.9541 31.7121 21.9204 31.6282C21.8867 31.5443 21.8701 31.4545 21.8715 31.3641C21.8715 31.2574 21.9129 31.1521 21.9595 31.0467ZM26.1129 29.1854L25.1822 26.9681L24.2515 29.1854H26.1129ZM29.6835 26.0187C29.6828 25.9215 29.7014 25.8252 29.7383 25.7352C29.7752 25.6453 29.8296 25.5636 29.8983 25.4948C29.967 25.4261 30.0487 25.3717 30.1387 25.3348C30.2286 25.298 30.325 25.2794 30.4222 25.2801H32.8022C33.5702 25.2801 34.1755 25.4907 34.5582 25.8747C34.8649 26.1814 35.0195 26.5561 35.0195 27.0174V27.0361C35.0195 27.7947 34.6169 28.2161 34.1369 28.4854C34.9142 28.7827 35.3942 29.2347 35.3942 30.1361V30.1547C35.3942 31.3841 34.3942 31.9974 32.8795 31.9974H30.4222C30.325 31.9981 30.2286 31.9795 30.1387 31.9426C30.0487 31.9057 29.967 31.8514 29.8983 31.7826C29.8296 31.7139 29.7752 31.6322 29.7383 31.5422C29.7014 31.4523 29.6828 31.3559 29.6835 31.2587V26.0187ZM32.4849 27.9961C33.1382 27.9961 33.5515 27.7841 33.5515 27.2854V27.2654C33.5515 26.8254 33.2049 26.5747 32.5809 26.5747H31.1222V27.9947L32.4849 27.9961ZM32.8795 30.7027C33.5315 30.7027 33.9249 30.4707 33.9249 29.9721V29.9534C33.9249 29.5014 33.5889 29.2227 32.8315 29.2227H31.1222V30.7027H32.8795ZM36.3129 28.6574V28.6387C36.3129 26.7281 37.7529 25.1641 39.8169 25.1641C40.8235 25.1641 41.5049 25.4334 42.0622 25.8454C42.1515 25.9149 42.2239 26.0039 42.2738 26.1055C42.3237 26.2072 42.3498 26.3188 42.3502 26.4321C42.35 26.5273 42.331 26.6215 42.2941 26.7094C42.2573 26.7972 42.2034 26.8768 42.1355 26.9436C42.0677 27.0105 41.9873 27.0632 41.899 27.0987C41.8106 27.1343 41.7161 27.152 41.6209 27.1507C41.4628 27.1474 41.3092 27.0973 41.1795 27.0067C40.7662 26.7001 40.3342 26.5267 39.8062 26.5267C38.6742 26.5267 37.8595 27.4667 37.8595 28.6201V28.6387C37.8595 29.7894 38.6555 30.7494 39.8062 30.7494C40.4302 30.7494 40.8435 30.5574 41.2662 30.2214C41.3895 30.1177 41.5451 30.0602 41.7062 30.0587C41.8878 30.0587 42.0622 30.1299 42.1918 30.2571C42.3214 30.3842 42.396 30.5572 42.3995 30.7387C42.3995 30.9707 42.2835 31.1521 42.1489 31.2681C41.5449 31.7947 40.8342 32.1121 39.7595 32.1121C37.7809 32.1121 36.3129 30.5867 36.3129 28.6587" fill="#95C289"/>
</g>
<defs>
<clipPath id="clip0_63_982">
<rect width="64" height="64" fill="white"/>
</clipPath>
</defs>
</svg>
