<svg width="64" height="64" viewBox="0 0 64 64" fill="none" xmlns="http://www.w3.org/2000/svg">
<g clip-path="url(#clip0_63_1007)">
<path d="M32 63.998C49.6733 63.998 64 49.6714 64 31.998C64 14.3247 49.6733 -0.00195312 32 -0.00195312C14.3267 -0.00195312 0 14.3247 0 31.998C0 49.6714 14.3267 63.998 32 63.998Z" fill="#DAEDD5"/>
<path d="M31.9995 41.3052C42.2822 41.3052 50.6169 36.0959 50.6169 29.6705C50.6169 23.2452 42.2822 18.0332 31.9995 18.0332C21.7169 18.0332 13.3809 23.2439 13.3809 29.6705C13.3809 36.0972 21.7169 41.3052 31.9995 41.3052Z" fill="#104502"/>
<path d="M50.6183 29.6719V38.9799C50.6183 41.7265 49.0929 44.2519 46.5449 46.2465V36.9385C48.8836 35.1119 50.6183 32.6039 50.6183 29.6719Z" fill="#95C289"/>
<path fill-rule="evenodd" clip-rule="evenodd" d="M41.0076 19.4841L32.9076 29.4735L47.0329 36.5361C46.7129 36.8099 46.3738 37.0744 46.0156 37.3295L32.8222 30.7321L35.0542 41.1508C34.6651 41.1906 34.2753 41.2226 33.8849 41.2468L31.5289 30.2521H13.4036C13.3733 29.8647 13.3733 29.4755 13.4036 29.0881H31.7222L39.8156 19.1055C40.2209 19.2228 40.6182 19.349 41.0076 19.4841Z" fill="#95C289"/>
<path d="M46.5448 36.9375V46.2455C43.5888 48.5562 39.2542 50.1442 34.3262 50.5282V41.2188C39.2595 40.8348 43.5888 39.2468 46.5448 36.9375Z" fill="#95C289"/>
<path d="M34.3262 41.2199V50.5292C33.5644 50.5879 32.7889 50.6172 31.9995 50.6172C21.7195 50.6172 13.3809 45.4092 13.3809 38.9799V29.6719C13.3809 36.5999 23.0622 42.0785 34.3262 41.2199Z" fill="#95C289"/>
</g>
<defs>
<clipPath id="clip0_63_1007">
<rect width="64" height="64" fill="white"/>
</clipPath>
</defs>
</svg>
