<svg width="64" height="64" viewBox="0 0 64 64" fill="none" xmlns="http://www.w3.org/2000/svg">
<g clip-path="url(#clip0_63_972)">
<path d="M31.998 63.998C49.6714 63.998 63.998 49.6714 63.998 31.998C63.998 14.326 49.6714 -0.00195312 31.998 -0.00195312C14.3247 -0.00195312 -0.00195312 14.326 -0.00195312 31.998C-0.00195312 49.6714 14.3247 63.998 31.998 63.998Z" fill="#DAEDD5"/>
<path d="M50.6131 28.9303C50.6131 26.5303 45.2531 26.7703 41.9718 26.7703C38.6905 26.7703 31.9678 27.5703 31.9678 27.5703C31.9678 27.5703 25.3038 26.7703 22.0225 26.7703C18.7411 26.7703 13.3798 26.5303 13.3798 28.9303C13.3798 31.3303 13.2998 35.733 14.6598 38.6143C15.4731 40.3343 18.6611 40.2943 21.2225 40.4543C23.7838 40.6143 26.2745 40.4543 27.7851 39.0143C29.4651 37.4143 30.5851 33.8117 30.9851 32.7717C31.3851 31.7317 31.9678 31.7317 31.9678 31.7317C31.9678 31.7317 32.6078 31.7317 33.0078 32.7717C33.4078 33.8117 34.5278 37.413 36.2078 39.0143C37.7198 40.4543 40.2105 40.6143 42.7718 40.4543C45.3318 40.2943 48.5211 40.3343 49.3331 38.6143C50.6931 35.733 50.6131 31.3317 50.6131 28.9303Z" fill="#104502"/>
<path d="M25.6241 38.6933C26.6641 38.1146 29.9988 34.6173 29.7854 30.4493C29.6254 27.3293 17.8614 27.9693 16.6614 28.448C13.3001 30.208 15.1468 37.3986 16.0214 37.892C19.1414 39.652 24.1841 39.492 25.6241 38.692M38.3708 38.6933C37.3308 38.1146 33.9961 34.6173 34.2094 30.4493C34.3694 27.3293 46.1334 27.9693 47.3334 28.448C50.6948 30.208 48.8481 37.3986 47.9734 37.892C44.8534 39.652 39.8121 39.492 38.3708 38.692" fill="#95C289"/>
</g>
<defs>
<clipPath id="clip0_63_972">
<rect width="64" height="64" fill="white"/>
</clipPath>
</defs>
</svg>
