<svg width="64" height="64" viewBox="0 0 64 64" fill="none" xmlns="http://www.w3.org/2000/svg">
<g clip-path="url(#clip0_63_992)">
<path d="M31.998 64C49.6714 64 63.998 49.672 63.998 32C63.998 14.328 49.6714 0 31.998 0C14.3247 0 -0.00195312 14.3267 -0.00195312 32C-0.00195312 49.672 14.3247 64 31.998 64Z" fill="#DAEDD5"/>
<path d="M43.3053 48.2916C47.424 42.6756 46.7747 36.465 41.3253 29.6543H22.708C17.2587 36.465 16.6093 42.6756 20.7293 48.2916H43.3053Z" fill="#104502"/>
<path d="M50.6149 13.5605L13.3789 24.9392V26.7645L50.6149 15.3859V13.5605Z" fill="#95C289"/>
<path d="M34.3251 27.3449C34.171 27.3446 34.0234 27.2832 33.9144 27.1742C33.8055 27.0653 33.7441 26.9176 33.7438 26.7636V17.4529C33.7436 17.3607 33.7216 17.2698 33.6795 17.1877C33.6374 17.1057 33.5764 17.0348 33.5015 16.9809C33.4267 16.927 33.3401 16.8917 33.2489 16.8778C33.1578 16.8638 33.0646 16.8718 32.9771 16.9009L30.6504 17.6769C30.5353 17.7162 30.4352 17.7903 30.364 17.8889C30.2928 17.9876 30.254 18.1059 30.2531 18.2276V26.7609C30.2531 26.8374 30.238 26.9132 30.2087 26.9839C30.1794 27.0546 30.1365 27.1188 30.0824 27.1729C30.0283 27.227 29.9641 27.2699 29.8934 27.2992C29.8227 27.3285 29.7469 27.3436 29.6704 27.3436H27.9251C27.771 27.3439 27.6234 27.4053 27.5144 27.5142C27.4055 27.6232 27.3441 27.7708 27.3438 27.9249V29.0889C27.3438 29.4089 27.6038 29.6702 27.9251 29.6702H36.0717C36.3917 29.6702 36.6531 29.4102 36.6531 29.0889V27.9249C36.6527 27.7706 36.5912 27.6227 36.482 27.5138C36.3727 27.4048 36.2247 27.3436 36.0704 27.3436L34.3251 27.3449Z" fill="#104502"/>
<path d="M20.9599 41.308H30.8346V32H23.9106C21.795 35.2444 20.8115 38.3462 20.9599 41.308ZM43.0386 41.308H33.1639V32H40.0879C42.2035 35.2444 43.187 38.3462 43.0386 41.308Z" fill="#95C289"/>
<path d="M45.3876 49.4524C45.3876 50.0964 44.8676 50.6164 44.2236 50.6164H19.7796C19.6235 50.6217 19.4679 50.5955 19.3222 50.5394C19.1764 50.4833 19.0434 50.3985 18.9311 50.2899C18.8189 50.1814 18.7296 50.0514 18.6686 49.9076C18.6076 49.7638 18.5762 49.6092 18.5762 49.4531C18.5762 49.2969 18.6076 49.1423 18.6686 48.9985C18.7296 48.8548 18.8189 48.7247 18.9311 48.6162C19.0434 48.5076 19.1764 48.4228 19.3222 48.3667C19.4679 48.3106 19.6235 48.2844 19.7796 48.2897H44.2236C44.8676 48.2897 45.3876 48.8084 45.3876 49.4524Z" fill="#104502"/>
<path d="M30.8339 43.0527H29.6699V45.9621H30.8339V43.0527ZM34.3259 43.0527H33.1619V45.9621H34.3259V43.0527Z" fill="#95C289"/>
</g>
<defs>
<clipPath id="clip0_63_992">
<rect width="64" height="64" fill="white"/>
</clipPath>
</defs>
</svg>
