<svg width="128" height="135" viewBox="0 0 128 135" fill="none" xmlns="http://www.w3.org/2000/svg">
<path d="M41.8969 96.1618C41.5219 96.5573 41.3219 97.0847 41.3219 97.6647V120.393C41.3219 121.237 41.7969 122.002 42.5469 122.344C42.7969 122.45 43.0469 122.503 43.3219 122.503C43.8469 122.503 44.3469 122.292 44.7219 121.896L44.9469 121.659L87.1219 77.1774C88.1219 76.1228 88.6719 74.7253 88.6719 73.2224C88.6719 71.7194 88.1219 70.322 87.1219 69.2673C78.5969 60.2761 45.1969 25.0495 44.7469 24.5749C44.1969 23.9685 43.3469 23.7839 42.5969 24.0739C41.8219 24.3903 41.3219 25.155 41.3219 26.0251V26.447V26.4733V40.2634C41.3219 41.4235 42.2219 42.3728 43.3219 42.3728C44.4219 42.3728 45.3219 41.4235 45.3219 40.2634V31.1667C49.8219 35.8864 60.2469 46.8815 84.2969 72.2468C84.5469 72.5104 84.6719 72.8532 84.6719 73.2224C84.6719 73.5915 84.5469 73.9343 84.2969 74.1979L45.3219 115.304V98.5349L66.4219 76.281C68.0219 74.5935 68.0219 71.8776 66.4219 70.1901L44.7219 47.3034C43.9469 46.486 42.6719 46.486 41.8969 47.3034C41.1219 48.1208 41.1219 49.4655 41.8969 50.2829L63.5969 73.1696C63.6219 73.196 63.6219 73.2751 63.5969 73.3015L41.8969 96.1618ZM19.1219 92.7604C20.2219 92.7604 21.1219 93.7097 21.1219 94.8698V106.867C32.2469 95.1335 47.9969 78.4958 52.7719 73.486L20.6719 39.6306C19.8969 38.8132 19.8969 37.4685 20.6719 36.6511C21.4469 35.8337 22.7219 35.8337 23.4969 36.6511L57.0219 71.9831C57.7969 72.8005 57.7969 74.1452 57.0219 74.9626C57.0219 74.9626 33.4719 99.8005 20.5469 113.432C20.1719 113.828 19.6469 114.039 19.1219 114.039C18.8719 114.039 18.5969 113.986 18.3469 113.881C17.5969 113.564 17.1219 112.773 17.1219 111.929V94.8435C17.1219 93.7097 18.0219 92.7604 19.1219 92.7604ZM20.7719 62.4646C19.9969 61.6472 19.9969 60.3024 20.7719 59.4851C21.5469 58.6677 22.8219 58.6677 23.5969 59.4851L34.2219 70.6911C34.9219 71.4294 35.3219 72.4314 35.3219 73.486C35.3219 74.5407 34.9219 75.5427 34.2219 76.281L22.4469 88.6999C22.0469 89.1218 21.5469 89.3064 21.0219 89.3064C20.4969 89.3064 19.9969 89.0954 19.5969 88.6999C18.8219 87.8825 18.8219 86.5378 19.5969 85.7204L31.1969 73.486L20.7719 62.4646Z" fill="#FF5454"/>
<path d="M86.7984 39.6836L117.273 71.7988V39.6836H86.7984Z" fill="#104502"/>
<path d="M50.6953 11.2324C50.6953 8.06836 48.2453 5.48438 45.2453 5.48438H12.1203C9.12031 5.48438 6.67031 8.06836 6.67031 11.2324C6.67031 14.3965 9.12031 16.9805 12.1203 16.9805H45.2453C48.2703 16.9805 50.6953 14.3965 50.6953 11.2324Z" fill="#4F46E5"/>
<path d="M57.375 20.5664C57.375 21.7266 58.275 22.6758 59.375 22.6758H100.775C101.875 22.6758 102.775 21.7266 102.775 20.5664C102.775 19.4062 101.875 18.457 100.775 18.457H59.375C58.25 18.457 57.375 19.4062 57.375 20.5664ZM86.3 13.3418C85.2 13.3418 84.3 12.3926 84.3 11.2324C84.3 10.0723 85.2 9.12305 86.3 9.12305H115.25C116.35 9.12305 117.25 10.0723 117.25 11.2324C117.25 12.3926 116.35 13.3418 115.25 13.3418H86.3ZM106.275 97.3477C107.375 97.3477 108.275 98.2969 108.275 99.457C108.275 102.463 110.6 104.941 113.475 104.941C114.575 104.941 115.475 105.891 115.475 107.051C115.475 108.211 114.575 109.16 113.475 109.16C108.4 109.16 104.275 104.81 104.275 99.457C104.275 98.2969 105.175 97.3477 106.275 97.3477ZM93.775 104.941C96.625 104.941 98.95 102.489 98.95 99.457C98.95 98.2969 99.85 97.3477 100.95 97.3477C102.05 97.3477 102.95 98.2969 102.95 99.457C102.95 104.81 98.825 109.16 93.775 109.16C92.675 109.16 91.775 108.211 91.775 107.051C91.775 105.891 92.675 104.941 93.775 104.941ZM93.775 110.531C98.85 110.531 102.95 114.882 102.95 120.234C102.95 121.395 102.05 122.344 100.95 122.344C99.85 122.344 98.95 121.395 98.95 120.234C98.95 117.229 96.625 114.75 93.775 114.75C92.675 114.75 91.775 113.801 91.775 112.641C91.775 111.48 92.675 110.531 93.775 110.531ZM113.475 110.531C114.575 110.531 115.475 111.48 115.475 112.641C115.475 113.801 114.575 114.75 113.475 114.75C110.625 114.75 108.275 117.202 108.275 120.234C108.275 121.395 107.375 122.344 106.275 122.344C105.175 122.344 104.275 121.395 104.275 120.234C104.275 114.882 108.4 110.531 113.475 110.531ZM25.15 126.167C25.15 127.485 26.175 128.54 27.4 128.54C28.625 128.54 29.65 127.459 29.65 126.167C29.65 124.875 28.625 123.794 27.4 123.794C26.175 123.794 25.15 124.849 25.15 126.167ZM17.65 126.167C17.65 127.485 18.675 128.54 19.9 128.54C21.125 128.54 22.15 127.459 22.15 126.167C22.15 124.875 21.125 123.794 19.9 123.794C18.675 123.794 17.65 124.849 17.65 126.167ZM10.15 126.167C10.15 127.485 11.175 128.54 12.4 128.54C13.625 128.54 14.65 127.459 14.65 126.167C14.65 124.875 13.625 123.794 12.4 123.794C11.175 123.794 10.15 124.849 10.15 126.167ZM68.175 121.632C71.825 121.632 74.775 124.743 74.775 128.593C74.775 129.753 73.875 130.702 72.775 130.702C71.675 130.702 70.775 129.753 70.775 128.593C70.775 127.09 69.6 125.851 68.175 125.851C66.75 125.851 65.575 127.09 65.575 128.593C65.575 129.753 64.675 130.702 63.575 130.702C62.475 130.702 61.575 129.753 61.575 128.593C61.575 124.743 64.55 121.632 68.175 121.632Z" fill="#FF5454"/>
</svg>
