<svg width="134" height="125" viewBox="0 0 134 125" fill="none" xmlns="http://www.w3.org/2000/svg">
<path d="M23.4791 48.3887L64.8045 9.81446C65.6681 9.0088 66.7674 8.61816 67.8928 8.61816C69.0181 8.61816 70.1435 9.0088 70.981 9.81446L112.306 48.3887C113.563 49.5606 113.929 51.294 113.249 52.832C112.568 54.3701 110.972 55.3467 109.218 55.3467L85.7681 55.3467C85.6635 55.3467 85.5849 55.4199 85.5849 55.5176L85.5849 94.9463C85.5849 97.1924 83.622 99.0234 81.2142 99.0234L74.4881 99.0234C73.3365 99.0234 72.3943 98.1445 72.3943 97.0703C72.3943 95.9961 73.3365 95.1172 74.4881 95.1172L81.2142 95.1172C81.3189 95.1172 81.3974 95.044 81.3974 94.9463L81.3974 55.5176C81.3974 53.2715 83.3603 51.4404 85.7681 51.4404L109.218 51.4404C109.27 51.4404 109.349 51.4404 109.401 51.3428C109.454 51.2451 109.401 51.1963 109.349 51.1475L68.0236 12.5977C67.9451 12.5244 67.8404 12.5244 67.7619 12.5977L26.4365 51.1475C26.4103 51.1719 26.358 51.2207 26.3842 51.3428C26.4365 51.4404 26.515 51.4404 26.5674 51.4404L49.9912 51.4404C52.399 51.4404 54.3619 53.2715 54.3619 55.5176L54.3619 103.613C54.3619 104.688 53.4197 105.566 52.2681 105.566C51.1166 105.566 50.1744 104.688 50.1744 103.613L50.1744 55.5176C50.1744 55.4199 50.0959 55.3467 49.9912 55.3467L26.5412 55.3467C24.7615 55.3467 23.1912 54.3701 22.5107 52.832C21.8302 51.2939 22.2228 49.5606 23.4791 48.3887Z" fill="#2FD933"/>
<path d="M7.4586 83.7149L7.4586 74.9746L16.8281 74.9746L16.8281 83.7149L7.4586 83.7149Z" fill="#4F46E5"/>
<path d="M7.275 98.7793L7.275 89.1846L17.0371 89.1846L17.0371 98.7793L7.275 98.7793ZM32.0859 7.42189L8.16485 7.42188L8.16485 32.4707L32.0859 7.42189Z" fill="#104502"/>
<path d="M72.4156 114.404L72.4156 86.8652C72.4156 85.791 73.3578 84.9121 74.5094 84.9121C75.6609 84.9121 76.6031 85.791 76.6031 86.8652L76.6031 114.404C76.6031 115.479 75.6609 116.357 74.5094 116.357C73.3578 116.357 72.4156 115.503 72.4156 114.404ZM97.9594 75.0488C97.9594 76.1231 98.9016 77.002 100.053 77.002C105.366 77.002 109.684 72.9736 109.684 68.042C109.684 66.9678 108.742 66.0889 107.591 66.0889C106.439 66.0889 105.497 66.9678 105.497 68.042C105.497 70.8252 103.063 73.0957 100.053 73.0957C98.9016 73.0957 97.9594 73.9746 97.9594 75.0488ZM120.677 77.002C121.828 77.002 122.77 76.1231 122.77 75.0488C122.77 73.9746 121.828 73.0957 120.677 73.0957C117.693 73.0957 115.233 70.8252 115.233 68.042C115.233 66.9678 114.291 66.0889 113.139 66.0889C111.988 66.0889 111.045 66.9678 111.045 68.042C111.045 72.9981 115.364 77.002 120.677 77.002ZM113.139 89.209C114.291 89.209 115.233 88.3301 115.233 87.2559C115.233 84.4727 117.667 82.1777 120.677 82.1777C121.828 82.1777 122.77 81.2988 122.77 80.2246C122.77 79.1504 121.828 78.2715 120.677 78.2715C115.364 78.2715 111.045 82.2998 111.045 87.2559C111.045 88.3545 111.988 89.209 113.139 89.209ZM100.053 78.2959C98.9016 78.2959 97.9594 79.1748 97.9594 80.249C97.9594 81.3233 98.9016 82.2022 100.053 82.2022C103.037 82.2022 105.497 84.4727 105.497 87.2803C105.497 88.3545 106.439 89.2334 107.591 89.2334C108.742 89.2334 109.684 88.3545 109.684 87.2803C109.684 82.3242 105.366 78.2959 100.053 78.2959ZM113.087 7.42188C113.087 6.20117 114.16 5.22461 115.442 5.22461C116.725 5.22461 117.798 6.22559 117.798 7.42188C117.798 8.61817 116.725 9.61914 115.442 9.61914C114.16 9.61914 113.087 8.61817 113.087 7.42188ZM105.235 7.42188C105.235 6.20117 106.308 5.22461 107.591 5.22461C108.873 5.22461 109.946 6.22559 109.946 7.42188C109.946 8.61817 108.873 9.61914 107.591 9.61914C106.308 9.61914 105.235 8.61817 105.235 7.42188ZM97.3836 7.42188C97.3836 6.20117 98.4567 5.22461 99.7391 5.22461C101.021 5.22461 102.095 6.22559 102.095 7.42188C102.095 8.61817 101.021 9.61914 99.7391 9.61914C98.4567 9.61914 97.3836 8.61817 97.3836 7.42188ZM107.591 12.4023C108.193 12.4023 108.795 12.6221 109.266 13.0371C110.182 13.8916 110.182 15.3076 109.266 16.1621C108.35 17.0166 106.832 17.0166 105.916 16.1621C105 15.3076 105 13.8916 105.916 13.0371C106.387 12.6221 106.989 12.4023 107.591 12.4023ZM117.379 12.793C118.295 13.6475 118.295 15.0635 117.379 15.918C116.463 16.7725 114.945 16.7725 114.029 15.918C113.113 15.0635 113.113 13.6475 114.029 12.793C114.5 12.3535 115.102 12.1582 115.704 12.1582C116.306 12.1582 116.908 12.3779 117.379 12.793ZM122.247 16.1621C121.331 15.3076 121.331 13.916 122.247 13.0371C122.692 12.6221 123.294 12.4023 123.922 12.4023C124.55 12.4023 125.152 12.6221 125.597 13.0371C126.513 13.8916 126.513 15.2832 125.597 16.1621C125.152 16.5772 124.55 16.7969 123.922 16.7969C123.268 16.8213 122.692 16.6016 122.247 16.1621ZM39.2035 116.357C40.3551 116.357 41.2973 115.479 41.2973 114.404L41.2973 67.5049C41.2973 66.4307 40.3551 65.5518 39.2035 65.5518C38.052 65.5518 37.1098 66.4307 37.1098 67.5049L37.1098 114.404C37.1098 115.503 38.0258 116.357 39.2035 116.357ZM82.1516 118.213L125.492 118.213C126.644 118.213 127.586 117.334 127.586 116.26C127.586 115.186 126.644 114.307 125.492 114.307L82.1516 114.307C81 114.307 80.0578 115.186 80.0578 116.26C80.0578 117.334 81 118.213 82.1516 118.213Z" fill="#2FD933"/>
</svg>
