<svg width="128" height="125" viewBox="0 0 128 125" fill="none" xmlns="http://www.w3.org/2000/svg">
<path d="M49.375 112.305C48.85 112.305 48.3 112.085 47.925 111.694C47.85 111.597 39.625 103.003 31.5 93.9697C14.625 75.1709 14.625 72.876 14.625 71.6553C14.625 66.9678 16.875 64.2334 18.775 62.7441C20.875 61.1084 23.65 60.1807 26.35 60.1807C27 60.1807 27.65 60.3027 28.275 60.5225C31.925 61.9385 34.225 63.8184 37.375 66.4307C38.35 67.2363 39.4 68.0908 40.6 69.043V20.9961C40.6 18.335 41.55 15.625 43.225 13.5742C44.725 11.7188 47.525 9.47266 52.35 9.47266C57.15 9.47266 59.95 11.6699 61.475 13.5254C63.15 15.5762 64.1 18.2861 64.1 20.9229V35.7422L88.425 40.5029C88.45 40.5029 88.475 40.5029 88.5 40.5273L92.325 41.2842C92.35 41.2842 92.375 41.2842 92.4 41.3086C100.825 43.3105 103.05 49.6094 103.05 52.6611V75.5615C103.05 77.7832 102.725 79.9805 102.075 82.1045L96.125 110.767C95.925 111.67 95.125 112.329 94.175 112.329H58.8C57.7 112.329 56.8 111.45 56.8 110.376C56.8 109.302 57.7 108.423 58.8 108.423H92.475L98.125 81.25C98.125 81.2012 98.15 81.1279 98.175 81.0791C98.725 79.2969 99 77.4414 99 75.5615V52.6611C99 50.6836 97.425 46.5576 91.45 45.1172L90.025 44.8486V55.835C90.025 56.9092 89.125 57.7881 88.025 57.7881C86.925 57.7881 86.025 56.9092 86.025 55.835V44.0674L77.05 42.3096V58.2764C77.05 59.3506 76.15 60.2295 75.05 60.2295C73.95 60.2295 73.05 59.3506 73.05 58.2764V41.5283L64.075 39.7705V60.7178C64.075 61.792 63.175 62.6709 62.075 62.6709C60.975 62.6709 60.075 61.792 60.075 60.7178V20.9229C60.075 18.3105 58.45 13.3789 52.35 13.3789C46.25 13.3789 44.575 18.3594 44.575 20.9961V73.0225C44.575 73.7549 44.15 74.4385 43.475 74.7803C42.8 75.1221 42 75.0488 41.375 74.6094C38.6 72.583 36.475 70.8252 34.775 69.4336C31.8 66.9922 29.85 65.3564 26.8 64.1846C26.65 64.1357 26.5 64.1113 26.325 64.1113C23.65 64.1113 18.625 65.6738 18.6 71.582C18.8 72.3633 20.6 75.9766 34.925 91.8945C42.85 100.708 50.75 108.96 50.825 109.058C51.575 109.839 51.525 111.084 50.725 111.816C50.35 112.134 49.85 112.305 49.375 112.305Z" fill="#00C6C6"/>
<path d="M118.9 112.354H115.25V99.2188H118.9V112.354Z" fill="#4F46E5"/>
<path d="M118.9 56.1035H115.25V42.9687H118.9V56.1035ZM118.9 61.7187H115.25V74.8535H118.9V61.7187ZM118.9 80.4688H115.25V93.6035H118.9V80.4688ZM9 8.54492V23.4131L24.225 8.54492H9Z" fill="#104502"/>
<path d="M32.9234 115.479C32.9234 116.553 32.0234 117.432 30.9234 117.432H11.0234C9.92344 117.432 9.02344 116.553 9.02344 115.479C9.02344 114.404 9.92344 113.525 11.0234 113.525H30.8984C32.0234 113.525 32.9234 114.404 32.9234 115.479ZM108.173 7.59277C107.073 7.59277 106.173 8.47168 106.173 9.5459C106.173 12.3291 103.848 14.624 100.973 14.624C99.8734 14.624 98.9734 15.5029 98.9734 16.5771C98.9734 17.6514 99.8734 18.5303 100.973 18.5303C106.048 18.5303 110.173 14.502 110.173 9.5459C110.173 8.47168 109.273 7.59277 108.173 7.59277ZM120.673 18.5059C121.773 18.5059 122.673 17.627 122.673 16.5527C122.673 15.4785 121.773 14.5996 120.673 14.5996C117.823 14.5996 115.473 12.3291 115.473 9.52148C115.473 8.44727 114.573 7.56836 113.473 7.56836C112.373 7.56836 111.473 8.44727 111.473 9.52148C111.498 14.4775 115.598 18.5059 120.673 18.5059ZM120.673 19.7998C115.598 19.7998 111.473 23.8281 111.473 28.7842C111.473 29.8584 112.373 30.7373 113.473 30.7373C114.573 30.7373 115.473 29.8584 115.473 28.7842C115.473 26.001 117.798 23.7061 120.673 23.7061C121.773 23.7061 122.673 22.8271 122.673 21.7529C122.673 20.6787 121.773 19.7998 120.673 19.7998ZM100.998 19.7998C99.8984 19.7998 98.9984 20.6787 98.9984 21.7529C98.9984 22.8271 99.8984 23.7061 100.998 23.7061C103.848 23.7061 106.198 25.9766 106.198 28.7842C106.198 29.8584 107.098 30.7373 108.198 30.7373C109.298 30.7373 110.198 29.8584 110.198 28.7842C110.173 23.8281 106.048 19.7998 100.998 19.7998ZM22.4234 43.8721C23.5234 43.8721 24.4234 42.9932 24.4234 41.9189C24.4234 40.8447 23.5234 39.9658 22.4234 39.9658C20.9984 39.9658 19.8234 38.8184 19.8234 37.4268C19.8234 36.0352 20.9984 34.8877 22.4234 34.8877C23.5234 34.8877 24.4234 34.0088 24.4234 32.9346C24.4234 31.8603 23.5234 30.9814 22.4234 30.9814C18.7734 30.9814 15.8234 33.8623 15.8234 37.4268C15.8234 40.9912 18.7734 43.8721 22.4234 43.8721ZM11.0734 99.707H12.0484V100.659C12.0484 101.733 12.9484 102.612 14.0484 102.612C15.1484 102.612 16.0484 101.733 16.0484 100.659V99.707H17.0234C18.1234 99.707 19.0234 98.8281 19.0234 97.7539C19.0234 96.6797 18.1234 95.8008 17.0234 95.8008H16.0484V94.8486C16.0484 93.7744 15.1484 92.8955 14.0484 92.8955C12.9484 92.8955 12.0484 93.7744 12.0484 94.8486V95.8008H11.0734C9.97344 95.8008 9.07344 96.6797 9.07344 97.7539C9.07344 98.8281 9.97344 99.707 11.0734 99.707Z" fill="#00C6C6"/>
</svg>
